<?xml version="1.0" encoding="UTF-8" standalone="no"?>
<!DOCTYPE svg PUBLIC "-//W3C//DTD SVG 1.1//EN"
 "http://www.w3.org/Graphics/SVG/1.1/DTD/svg11.dtd">
<!-- Generated by graphviz version 2.40.1 (20161225.0304)
 -->
<!-- Title: G Pages: 1 -->
<svg width="1519pt" height="580pt"
 viewBox="0.00 0.00 1519.00 580.00" xmlns="http://www.w3.org/2000/svg" xmlns:xlink="http://www.w3.org/1999/xlink">
<g id="graph0" class="graph" transform="scale(1 1) rotate(0) translate(4 576)">
<title>G</title>
<polygon fill="#ffffff" stroke="transparent" points="-4,4 -4,-576 1515,-576 1515,4 -4,4"/>
<g id="clust1" class="cluster">
<title>cluster_0</title>
<polygon fill="none" stroke="#000000" points="8,-8 8,-564 92,-564 92,-8 8,-8"/>
</g>
<g id="clust2" class="cluster">
<title>cluster_1</title>
<polygon fill="none" stroke="#000000" points="100,-8 100,-564 1503,-564 1503,-8 100,-8"/>
</g>
<!-- root: x -->
<g id="node1" class="node">
<title>root: x</title>
<ellipse fill="none" stroke="#000000" cx="50" cy="-538" rx="34.394" ry="18"/>
<text text-anchor="middle" x="50" y="-534.3" font-family="Times,serif" font-size="14.00" fill="#000000">root: x</text>
</g>
<!-- 1:y -->
<g id="node2" class="node">
<title>1:y</title>
<ellipse fill="none" stroke="#000000" cx="50" cy="-466" rx="27" ry="18"/>
<text text-anchor="middle" x="50" y="-462.3" font-family="Times,serif" font-size="14.00" fill="#000000">1:y</text>
</g>
<!-- root: x&#45;&gt;1:y -->
<g id="edge1" class="edge">
<title>root: x&#45;&gt;1:y</title>
<path fill="none" stroke="#000000" d="M50,-519.8314C50,-512.131 50,-502.9743 50,-494.4166"/>
<polygon fill="#000000" stroke="#000000" points="53.5001,-494.4132 50,-484.4133 46.5001,-494.4133 53.5001,-494.4132"/>
</g>
<!-- 2:x -->
<g id="node3" class="node">
<title>2:x</title>
<ellipse fill="none" stroke="#000000" cx="50" cy="-394" rx="27" ry="18"/>
<text text-anchor="middle" x="50" y="-390.3" font-family="Times,serif" font-size="14.00" fill="#000000">2:x</text>
</g>
<!-- 1:y&#45;&gt;2:x -->
<g id="edge2" class="edge">
<title>1:y&#45;&gt;2:x</title>
<path fill="none" stroke="#000000" d="M50,-447.8314C50,-440.131 50,-430.9743 50,-422.4166"/>
<polygon fill="#000000" stroke="#000000" points="53.5001,-422.4132 50,-412.4133 46.5001,-422.4133 53.5001,-422.4132"/>
</g>
<!-- 3:y -->
<g id="node4" class="node">
<title>3:y</title>
<ellipse fill="none" stroke="#000000" cx="50" cy="-322" rx="27" ry="18"/>
<text text-anchor="middle" x="50" y="-318.3" font-family="Times,serif" font-size="14.00" fill="#000000">3:y</text>
</g>
<!-- 2:x&#45;&gt;3:y -->
<g id="edge3" class="edge">
<title>2:x&#45;&gt;3:y</title>
<path fill="none" stroke="#000000" d="M50,-375.8314C50,-368.131 50,-358.9743 50,-350.4166"/>
<polygon fill="#000000" stroke="#000000" points="53.5001,-350.4132 50,-340.4133 46.5001,-350.4133 53.5001,-350.4132"/>
</g>
<!-- 4:x -->
<g id="node5" class="node">
<title>4:x</title>
<ellipse fill="none" stroke="#000000" cx="50" cy="-250" rx="27" ry="18"/>
<text text-anchor="middle" x="50" y="-246.3" font-family="Times,serif" font-size="14.00" fill="#000000">4:x</text>
</g>
<!-- 3:y&#45;&gt;4:x -->
<g id="edge4" class="edge">
<title>3:y&#45;&gt;4:x</title>
<path fill="none" stroke="#000000" d="M50,-303.8314C50,-296.131 50,-286.9743 50,-278.4166"/>
<polygon fill="#000000" stroke="#000000" points="53.5001,-278.4132 50,-268.4133 46.5001,-278.4133 53.5001,-278.4132"/>
</g>
<!-- 5:y -->
<g id="node6" class="node">
<title>5:y</title>
<ellipse fill="none" stroke="#000000" cx="50" cy="-178" rx="27" ry="18"/>
<text text-anchor="middle" x="50" y="-174.3" font-family="Times,serif" font-size="14.00" fill="#000000">5:y</text>
</g>
<!-- 4:x&#45;&gt;5:y -->
<g id="edge5" class="edge">
<title>4:x&#45;&gt;5:y</title>
<path fill="none" stroke="#000000" d="M50,-231.8314C50,-224.131 50,-214.9743 50,-206.4166"/>
<polygon fill="#000000" stroke="#000000" points="53.5001,-206.4132 50,-196.4133 46.5001,-206.4133 53.5001,-206.4132"/>
</g>
<!-- 6:x -->
<g id="node7" class="node">
<title>6:x</title>
<ellipse fill="none" stroke="#000000" cx="50" cy="-106" rx="27" ry="18"/>
<text text-anchor="middle" x="50" y="-102.3" font-family="Times,serif" font-size="14.00" fill="#000000">6:x</text>
</g>
<!-- 5:y&#45;&gt;6:x -->
<g id="edge6" class="edge">
<title>5:y&#45;&gt;6:x</title>
<path fill="none" stroke="#000000" d="M50,-159.8314C50,-152.131 50,-142.9743 50,-134.4166"/>
<polygon fill="#000000" stroke="#000000" points="53.5001,-134.4132 50,-124.4133 46.5001,-134.4133 53.5001,-134.4132"/>
</g>
<!-- 7:y -->
<g id="node8" class="node">
<title>7:y</title>
<ellipse fill="none" stroke="#000000" cx="50" cy="-34" rx="27" ry="18"/>
<text text-anchor="middle" x="50" y="-30.3" font-family="Times,serif" font-size="14.00" fill="#000000">7:y</text>
</g>
<!-- 6:x&#45;&gt;7:y -->
<g id="edge7" class="edge">
<title>6:x&#45;&gt;7:y</title>
<path fill="none" stroke="#000000" d="M50,-87.8314C50,-80.131 50,-70.9743 50,-62.4166"/>
<polygon fill="#000000" stroke="#000000" points="53.5001,-62.4132 50,-52.4133 46.5001,-62.4133 53.5001,-62.4132"/>
</g>
<!-- West Side Sewing Studio: 41.8261,&#45;71.4338 -->
<g id="node9" class="node">
<title>West Side Sewing Studio: 41.8261,&#45;71.4338</title>
<ellipse fill="none" stroke="#000000" cx="277" cy="-394" rx="168.97" ry="18"/>
<text text-anchor="middle" x="277" y="-390.3" font-family="Times,serif" font-size="14.00" fill="#000000">West Side Sewing Studio: 41.8261,&#45;71.4338</text>
</g>
<!-- Inspiring Minds: 41.8166,&#45;71.4182 -->
<g id="node10" class="node">
<title>Inspiring Minds: 41.8166,&#45;71.4182</title>
<ellipse fill="none" stroke="#000000" cx="244" cy="-322" rx="135.6761" ry="18"/>
<text text-anchor="middle" x="244" y="-318.3" font-family="Times,serif" font-size="14.00" fill="#000000">Inspiring Minds: 41.8166,&#45;71.4182</text>
</g>
<!-- West Side Sewing Studio: 41.8261,&#45;71.4338&#45;&gt;Inspiring Minds: 41.8166,&#45;71.4182 -->
<g id="edge8" class="edge">
<title>West Side Sewing Studio: 41.8261,&#45;71.4338&#45;&gt;Inspiring Minds: 41.8166,&#45;71.4182</title>
<path fill="none" stroke="#000000" d="M268.6727,-375.8314C265.027,-367.8771 260.6691,-358.369 256.6373,-349.5723"/>
<polygon fill="#000000" stroke="#000000" points="259.7877,-348.0456 252.4394,-340.4133 253.4243,-350.9622 259.7877,-348.0456"/>
</g>
<!-- The Grace School: 41.8013,&#45;71.4048 -->
<g id="node11" class="node">
<title>The Grace School: 41.8013,&#45;71.4048</title>
<ellipse fill="none" stroke="#000000" cx="250" cy="-178" rx="142.1749" ry="18"/>
<text text-anchor="middle" x="250" y="-174.3" font-family="Times,serif" font-size="14.00" fill="#000000">The Grace School: 41.8013,&#45;71.4048</text>
</g>
<!-- Johnson &amp; Wales University: 41.82,&#45;71.4128 -->
<g id="node12" class="node">
<title>Johnson &amp; Wales University: 41.82,&#45;71.4128</title>
<ellipse fill="none" stroke="#000000" cx="281" cy="-106" rx="172.7694" ry="18"/>
<text text-anchor="middle" x="281" y="-102.3" font-family="Times,serif" font-size="14.00" fill="#000000">Johnson &amp; Wales University: 41.82,&#45;71.4128</text>
</g>
<!-- The Grace School: 41.8013,&#45;71.4048&#45;&gt;Johnson &amp; Wales University: 41.82,&#45;71.4128 -->
<g id="edge9" class="edge">
<title>The Grace School: 41.8013,&#45;71.4048&#45;&gt;Johnson &amp; Wales University: 41.82,&#45;71.4128</title>
<path fill="none" stroke="#a52a2a" d="M257.8226,-159.8314C261.2109,-151.9617 265.2541,-142.5712 269.0076,-133.8533"/>
<polygon fill="#a52a2a" stroke="#a52a2a" points="272.3321,-134.9822 273.0721,-124.4133 265.9027,-132.214 272.3321,-134.9822"/>
</g>
<!-- Brown University: 41.8262,&#45;71.4038 -->
<g id="node13" class="node">
<title>Brown University: 41.8262,&#45;71.4038</title>
<ellipse fill="none" stroke="#000000" cx="552" cy="-178" rx="141.8751" ry="18"/>
<text text-anchor="middle" x="552" y="-174.3" font-family="Times,serif" font-size="14.00" fill="#000000">Brown University: 41.8262,&#45;71.4038</text>
</g>
<!-- Rhode Island School of Design: 41.8258,&#45;71.4077 -->
<g id="node14" class="node">
<title>Rhode Island School of Design: 41.8258,&#45;71.4077</title>
<ellipse fill="none" stroke="#000000" cx="661" cy="-106" rx="189.2665" ry="18"/>
<text text-anchor="middle" x="661" y="-102.3" font-family="Times,serif" font-size="14.00" fill="#000000">Rhode Island School of Design: 41.8258,&#45;71.4077</text>
</g>
<!-- Brown University: 41.8262,&#45;71.4038&#45;&gt;Rhode Island School of Design: 41.8258,&#45;71.4077 -->
<g id="edge10" class="edge">
<title>Brown University: 41.8262,&#45;71.4038&#45;&gt;Rhode Island School of Design: 41.8258,&#45;71.4077</title>
<path fill="none" stroke="#a52a2a" d="M578.9438,-160.2022C592.962,-150.9425 610.281,-139.5025 625.3897,-129.5224"/>
<polygon fill="#a52a2a" stroke="#a52a2a" points="627.5735,-132.2746 633.9884,-123.8425 623.7153,-126.4338 627.5735,-132.2746"/>
</g>
<!-- Arete Academics: 41.8239,&#45;71.4133 -->
<g id="node15" class="node">
<title>Arete Academics: 41.8239,&#45;71.4133</title>
<ellipse fill="none" stroke="#000000" cx="268" cy="-250" rx="139.9756" ry="18"/>
<text text-anchor="middle" x="268" y="-246.3" font-family="Times,serif" font-size="14.00" fill="#000000">Arete Academics: 41.8239,&#45;71.4133</text>
</g>
<!-- Arete Academics: 41.8239,&#45;71.4133&#45;&gt;The Grace School: 41.8013,&#45;71.4048 -->
<g id="edge11" class="edge">
<title>Arete Academics: 41.8239,&#45;71.4133&#45;&gt;The Grace School: 41.8013,&#45;71.4048</title>
<path fill="none" stroke="#8a2be2" d="M263.4578,-231.8314C261.5116,-224.0463 259.1932,-214.7729 257.0337,-206.1347"/>
<polygon fill="#8a2be2" stroke="#8a2be2" points="260.4242,-205.2658 254.6033,-196.4133 253.6332,-206.9636 260.4242,-205.2658"/>
</g>
<!-- Arete Academics: 41.8239,&#45;71.4133&#45;&gt;Brown University: 41.8262,&#45;71.4038 -->
<g id="edge12" class="edge">
<title>Arete Academics: 41.8239,&#45;71.4133&#45;&gt;Brown University: 41.8262,&#45;71.4038</title>
<path fill="none" stroke="#8a2be2" d="M331.3817,-233.9314C374.9405,-222.8883 432.9116,-208.1914 478.4975,-196.6344"/>
<polygon fill="#8a2be2" stroke="#8a2be2" points="479.4883,-199.9941 488.3215,-194.1438 477.768,-193.2087 479.4883,-199.9941"/>
</g>
<!-- Gordon School: 41.8009,&#45;71.3726 -->
<g id="node16" class="node">
<title>Gordon School: 41.8009,&#45;71.3726</title>
<ellipse fill="none" stroke="#000000" cx="1000" cy="-106" rx="131.8766" ry="18"/>
<text text-anchor="middle" x="1000" y="-102.3" font-family="Times,serif" font-size="14.00" fill="#000000">Gordon School: 41.8009,&#45;71.3726</text>
</g>
<!-- Ocean State Montessori School: 41.8182,&#45;71.3725 -->
<g id="node17" class="node">
<title>Ocean State Montessori School: 41.8182,&#45;71.3725</title>
<ellipse fill="none" stroke="#000000" cx="1000" cy="-34" rx="190.3662" ry="18"/>
<text text-anchor="middle" x="1000" y="-30.3" font-family="Times,serif" font-size="14.00" fill="#000000">Ocean State Montessori School: 41.8182,&#45;71.3725</text>
</g>
<!-- Gordon School: 41.8009,&#45;71.3726&#45;&gt;Ocean State Montessori School: 41.8182,&#45;71.3725 -->
<g id="edge13" class="edge">
<title>Gordon School: 41.8009,&#45;71.3726&#45;&gt;Ocean State Montessori School: 41.8182,&#45;71.3725</title>
<path fill="none" stroke="#deb887" d="M1000,-87.8314C1000,-80.131 1000,-70.9743 1000,-62.4166"/>
<polygon fill="#deb887" stroke="#deb887" points="1003.5001,-62.4132 1000,-52.4133 996.5001,-62.4133 1003.5001,-62.4132"/>
</g>
<!-- Johnson &amp; Wales University Harborside Campus: 41.7874,&#45;71.3907 -->
<g id="node18" class="node">
<title>Johnson &amp; Wales University Harborside Campus: 41.7874,&#45;71.3907</title>
<ellipse fill="none" stroke="#000000" cx="966" cy="-178" rx="254.555" ry="18"/>
<text text-anchor="middle" x="966" y="-174.3" font-family="Times,serif" font-size="14.00" fill="#000000">Johnson &amp; Wales University Harborside Campus: 41.7874,&#45;71.3907</text>
</g>
<!-- Johnson &amp; Wales University Harborside Campus: 41.7874,&#45;71.3907&#45;&gt;Gordon School: 41.8009,&#45;71.3726 -->
<g id="edge14" class="edge">
<title>Johnson &amp; Wales University Harborside Campus: 41.7874,&#45;71.3907&#45;&gt;Gordon School: 41.8009,&#45;71.3726</title>
<path fill="none" stroke="#a52a2a" d="M974.5796,-159.8314C978.3358,-151.8771 982.8257,-142.369 986.9798,-133.5723"/>
<polygon fill="#a52a2a" stroke="#a52a2a" points="990.1996,-134.9503 991.3048,-124.4133 983.8699,-131.9612 990.1996,-134.9503"/>
</g>
<!-- Angel Care Montessori: 41.8279,&#45;71.3958 -->
<g id="node19" class="node">
<title>Angel Care Montessori: 41.8279,&#45;71.3958</title>
<ellipse fill="none" stroke="#000000" cx="587" cy="-250" rx="161.3716" ry="18"/>
<text text-anchor="middle" x="587" y="-246.3" font-family="Times,serif" font-size="14.00" fill="#000000">Angel Care Montessori: 41.8279,&#45;71.3958</text>
</g>
<!-- Angel Care Montessori: 41.8279,&#45;71.3958&#45;&gt;Johnson &amp; Wales University Harborside Campus: 41.7874,&#45;71.3907 -->
<g id="edge15" class="edge">
<title>Angel Care Montessori: 41.8279,&#45;71.3958&#45;&gt;Johnson &amp; Wales University Harborside Campus: 41.7874,&#45;71.3907</title>
<path fill="none" stroke="#8a2be2" d="M668.7707,-234.4657C726.9003,-223.4226 805.2816,-208.5322 866.9592,-196.8151"/>
<polygon fill="#8a2be2" stroke="#8a2be2" points="867.9273,-200.1939 877.0983,-194.889 866.6208,-193.3169 867.9273,-200.1939"/>
</g>
<!-- The French American School of RI: 41.8218,&#45;71.397 -->
<g id="node20" class="node">
<title>The French American School of RI: 41.8218,&#45;71.397</title>
<ellipse fill="none" stroke="#000000" cx="598" cy="-322" rx="200.3646" ry="18"/>
<text text-anchor="middle" x="598" y="-318.3" font-family="Times,serif" font-size="14.00" fill="#000000">The French American School of RI: 41.8218,&#45;71.397</text>
</g>
<!-- The French American School of RI: 41.8218,&#45;71.397&#45;&gt;Arete Academics: 41.8239,&#45;71.4133 -->
<g id="edge16" class="edge">
<title>The French American School of RI: 41.8218,&#45;71.397&#45;&gt;Arete Academics: 41.8239,&#45;71.4133</title>
<path fill="none" stroke="#0000ff" d="M521.4619,-305.3008C469.7676,-294.022 401.626,-279.1548 349.0164,-267.6763"/>
<polygon fill="#0000ff" stroke="#0000ff" points="349.5629,-264.2133 339.0466,-265.5011 348.0707,-271.0524 349.5629,-264.2133"/>
</g>
<!-- The French American School of RI: 41.8218,&#45;71.397&#45;&gt;Angel Care Montessori: 41.8279,&#45;71.3958 -->
<g id="edge17" class="edge">
<title>The French American School of RI: 41.8218,&#45;71.397&#45;&gt;Angel Care Montessori: 41.8279,&#45;71.3958</title>
<path fill="none" stroke="#0000ff" d="M595.2242,-303.8314C594.0478,-296.131 592.6489,-286.9743 591.3414,-278.4166"/>
<polygon fill="#0000ff" stroke="#0000ff" points="594.7833,-277.7699 589.8131,-268.4133 587.8636,-278.8272 594.7833,-277.7699"/>
</g>
<!-- East Side Nursery School: 41.835,&#45;71.3896 -->
<g id="node21" class="node">
<title>East Side Nursery School: 41.835,&#45;71.3896</title>
<ellipse fill="none" stroke="#000000" cx="931" cy="-250" rx="165.1707" ry="18"/>
<text text-anchor="middle" x="931" y="-246.3" font-family="Times,serif" font-size="14.00" fill="#000000">East Side Nursery School: 41.835,&#45;71.3896</text>
</g>
<!-- Lincoln School: 41.833,&#45;71.3828 -->
<g id="node22" class="node">
<title>Lincoln School: 41.833,&#45;71.3828</title>
<ellipse fill="none" stroke="#000000" cx="1367" cy="-178" rx="128.0773" ry="18"/>
<text text-anchor="middle" x="1367" y="-174.3" font-family="Times,serif" font-size="14.00" fill="#000000">Lincoln School: 41.833,&#45;71.3828</text>
</g>
<!-- East Side Nursery School: 41.835,&#45;71.3896&#45;&gt;Lincoln School: 41.833,&#45;71.3828 -->
<g id="edge18" class="edge">
<title>East Side Nursery School: 41.835,&#45;71.3896&#45;&gt;Lincoln School: 41.833,&#45;71.3828</title>
<path fill="none" stroke="#8a2be2" d="M1022.1344,-234.9503C1095.8072,-222.7841 1199.1282,-205.7219 1273.4415,-193.45"/>
<polygon fill="#8a2be2" stroke="#8a2be2" points="1274.4327,-196.8338 1283.7288,-191.7512 1273.2922,-189.9274 1274.4327,-196.8338"/>
</g>
<!-- Moses Brown School: 41.8334,&#45;71.3985 -->
<g id="node23" class="node">
<title>Moses Brown School: 41.8334,&#45;71.3985</title>
<ellipse fill="none" stroke="#000000" cx="972" cy="-322" rx="155.1726" ry="18"/>
<text text-anchor="middle" x="972" y="-318.3" font-family="Times,serif" font-size="14.00" fill="#000000">Moses Brown School: 41.8334,&#45;71.3985</text>
</g>
<!-- Moses Brown School: 41.8334,&#45;71.3985&#45;&gt;East Side Nursery School: 41.835,&#45;71.3896 -->
<g id="edge20" class="edge">
<title>Moses Brown School: 41.8334,&#45;71.3985&#45;&gt;East Side Nursery School: 41.835,&#45;71.3896</title>
<path fill="none" stroke="#0000ff" d="M961.654,-303.8314C957.0763,-295.7925 951.5948,-286.1666 946.5412,-277.2918"/>
<polygon fill="#0000ff" stroke="#0000ff" points="949.4752,-275.3712 941.4853,-268.4133 943.3923,-278.8351 949.4752,-275.3712"/>
</g>
<!-- Cozy Corner Child Care Center: 41.8387,&#45;71.4104 -->
<g id="node24" class="node">
<title>Cozy Corner Child Care Center: 41.8387,&#45;71.4104</title>
<ellipse fill="none" stroke="#000000" cx="1305" cy="-250" rx="190.3662" ry="18"/>
<text text-anchor="middle" x="1305" y="-246.3" font-family="Times,serif" font-size="14.00" fill="#000000">Cozy Corner Child Care Center: 41.8387,&#45;71.4104</text>
</g>
<!-- Moses Brown School: 41.8334,&#45;71.3985&#45;&gt;Cozy Corner Child Care Center: 41.8387,&#45;71.4104 -->
<g id="edge19" class="edge">
<title>Moses Brown School: 41.8334,&#45;71.3985&#45;&gt;Cozy Corner Child Care Center: 41.8387,&#45;71.4104</title>
<path fill="none" stroke="#0000ff" d="M1045.4905,-306.1102C1096.6085,-295.0576 1164.948,-280.2815 1218.6652,-268.667"/>
<polygon fill="#0000ff" stroke="#0000ff" points="1219.4833,-272.071 1228.5178,-266.5367 1218.004,-265.2291 1219.4833,-272.071"/>
</g>
<!-- The Wheeler School: 41.829,&#45;71.3983 -->
<g id="node25" class="node">
<title>The Wheeler School: 41.829,&#45;71.3983</title>
<ellipse fill="none" stroke="#000000" cx="612" cy="-394" rx="147.5738" ry="18"/>
<text text-anchor="middle" x="612" y="-390.3" font-family="Times,serif" font-size="14.00" fill="#000000">The Wheeler School: 41.829,&#45;71.3983</text>
</g>
<!-- The Wheeler School: 41.829,&#45;71.3983&#45;&gt;The French American School of RI: 41.8218,&#45;71.397 -->
<g id="edge21" class="edge">
<title>The Wheeler School: 41.829,&#45;71.3983&#45;&gt;The French American School of RI: 41.8218,&#45;71.397</title>
<path fill="none" stroke="#000000" d="M608.4672,-375.8314C606.9699,-368.131 605.1895,-358.9743 603.5255,-350.4166"/>
<polygon fill="#000000" stroke="#000000" points="606.9248,-349.5614 601.5804,-340.4133 600.0535,-350.8975 606.9248,-349.5614"/>
</g>
<!-- The Wheeler School: 41.829,&#45;71.3983&#45;&gt;Moses Brown School: 41.8334,&#45;71.3985 -->
<g id="edge22" class="edge">
<title>The Wheeler School: 41.829,&#45;71.3983&#45;&gt;Moses Brown School: 41.8334,&#45;71.3985</title>
<path fill="none" stroke="#000000" d="M689.229,-378.5542C746.3551,-367.129 824.2499,-351.55 883.8205,-339.6359"/>
<polygon fill="#000000" stroke="#000000" points="884.8483,-342.9997 893.9677,-337.6065 883.4754,-336.1357 884.8483,-342.9997"/>
</g>
<!-- Kathy&#39;s Driving School: 41.7966,&#45;71.4173 -->
<g id="node26" class="node">
<title>Kathy&#39;s Driving School: 41.7966,&#45;71.4173</title>
<ellipse fill="none" stroke="#000000" cx="396" cy="-466" rx="161.3716" ry="18"/>
<text text-anchor="middle" x="396" y="-462.3" font-family="Times,serif" font-size="14.00" fill="#000000">Kathy&#39;s Driving School: 41.7966,&#45;71.4173</text>
</g>
<!-- Kathy&#39;s Driving School: 41.7966,&#45;71.4173&#45;&gt;West Side Sewing Studio: 41.8261,&#45;71.4338 -->
<g id="edge23" class="edge">
<title>Kathy&#39;s Driving School: 41.7966,&#45;71.4173&#45;&gt;West Side Sewing Studio: 41.8261,&#45;71.4338</title>
<path fill="none" stroke="#ffe4c4" d="M366.5843,-448.2022C351.137,-438.856 332.0184,-427.2884 315.4155,-417.243"/>
<polygon fill="#ffe4c4" stroke="#ffe4c4" points="316.8575,-414.0247 306.4898,-411.8425 313.2338,-420.0138 316.8575,-414.0247"/>
</g>
<!-- Kathy&#39;s Driving School: 41.7966,&#45;71.4173&#45;&gt;The Wheeler School: 41.829,&#45;71.3983 -->
<g id="edge24" class="edge">
<title>Kathy&#39;s Driving School: 41.7966,&#45;71.4173&#45;&gt;The Wheeler School: 41.829,&#45;71.3983</title>
<path fill="none" stroke="#ffe4c4" d="M447.463,-448.8457C478.5609,-438.4797 518.3686,-425.2105 551.0389,-414.3204"/>
<polygon fill="#ffe4c4" stroke="#ffe4c4" points="552.5513,-417.5056 560.9313,-411.0229 550.3376,-410.8649 552.5513,-417.5056"/>
</g>
<!-- Larues Blackstone Valley Driving School: 41.8633,&#45;71.4321 -->
<g id="node27" class="node">
<title>Larues Blackstone Valley Driving School: 41.8633,&#45;71.4321</title>
<ellipse fill="none" stroke="#000000" cx="516" cy="-538" rx="226.36" ry="18"/>
<text text-anchor="middle" x="516" y="-534.3" font-family="Times,serif" font-size="14.00" fill="#000000">Larues Blackstone Valley Driving School: 41.8633,&#45;71.4321</text>
</g>
<!-- Larues Blackstone Valley Driving School: 41.8633,&#45;71.4321&#45;&gt;Kathy&#39;s Driving School: 41.7966,&#45;71.4173 -->
<g id="edge25" class="edge">
<title>Larues Blackstone Valley Driving School: 41.8633,&#45;71.4321&#45;&gt;Kathy&#39;s Driving School: 41.7966,&#45;71.4173</title>
<path fill="none" stroke="#7fffd4" d="M486.0285,-520.0171C470.448,-510.6688 451.2276,-499.1366 434.5524,-489.1315"/>
<polygon fill="#7fffd4" stroke="#7fffd4" points="435.9652,-485.8975 425.5895,-483.7537 432.3637,-491.9 435.9652,-485.8975"/>
</g>
<!-- Rhode Island Tutorial &amp; Educational Services: 41.8696,&#45;71.3869 -->
<g id="node28" class="node">
<title>Rhode Island Tutorial &amp; Educational Services: 41.8696,&#45;71.3869</title>
<ellipse fill="none" stroke="#000000" cx="818" cy="-466" rx="242.357" ry="18"/>
<text text-anchor="middle" x="818" y="-462.3" font-family="Times,serif" font-size="14.00" fill="#000000">Rhode Island Tutorial &amp; Educational Services: 41.8696,&#45;71.3869</text>
</g>
<!-- Larues Blackstone Valley Driving School: 41.8633,&#45;71.4321&#45;&gt;Rhode Island Tutorial &amp; Educational Services: 41.8696,&#45;71.3869 -->
<g id="edge26" class="edge">
<title>Larues Blackstone Valley Driving School: 41.8633,&#45;71.4321&#45;&gt;Rhode Island Tutorial &amp; Educational Services: 41.8696,&#45;71.3869</title>
<path fill="none" stroke="#7fffd4" d="M587.9528,-520.8457C632.4068,-510.2474 689.5901,-496.6143 735.823,-485.5919"/>
<polygon fill="#7fffd4" stroke="#7fffd4" points="736.8981,-488.9337 745.8138,-483.21 735.2747,-482.1246 736.8981,-488.9337"/>
</g>
</g>
</svg>
