<?xml version="1.0" encoding="UTF-8" standalone="no"?>
<!DOCTYPE svg PUBLIC "-//W3C//DTD SVG 1.1//EN"
 "http://www.w3.org/Graphics/SVG/1.1/DTD/svg11.dtd">
<!-- Generated by graphviz version 2.40.1 (20161225.0304)
 -->
<!-- Title: G Pages: 1 -->
<svg width="2356pt" height="436pt"
 viewBox="0.00 0.00 2356.00 436.00" xmlns="http://www.w3.org/2000/svg" xmlns:xlink="http://www.w3.org/1999/xlink">
<g id="graph0" class="graph" transform="scale(1 1) rotate(0) translate(4 432)">
<title>G</title>
<polygon fill="#ffffff" stroke="transparent" points="-4,4 -4,-432 2352,-432 2352,4 -4,4"/>
<g id="clust1" class="cluster">
<title>cluster_0</title>
<polygon fill="none" stroke="#000000" points="8,-8 8,-420 92,-420 92,-8 8,-8"/>
</g>
<g id="clust2" class="cluster">
<title>cluster_1</title>
<polygon fill="none" stroke="#000000" points="100,-8 100,-420 2340,-420 2340,-8 100,-8"/>
</g>
<!-- root: x -->
<g id="node1" class="node">
<title>root: x</title>
<ellipse fill="none" stroke="#000000" cx="50" cy="-394" rx="34.394" ry="18"/>
<text text-anchor="middle" x="50" y="-390.3" font-family="Times,serif" font-size="14.00" fill="#000000">root: x</text>
</g>
<!-- 1:y -->
<g id="node2" class="node">
<title>1:y</title>
<ellipse fill="none" stroke="#000000" cx="50" cy="-322" rx="27" ry="18"/>
<text text-anchor="middle" x="50" y="-318.3" font-family="Times,serif" font-size="14.00" fill="#000000">1:y</text>
</g>
<!-- root: x&#45;&gt;1:y -->
<g id="edge1" class="edge">
<title>root: x&#45;&gt;1:y</title>
<path fill="none" stroke="#000000" d="M50,-375.8314C50,-368.131 50,-358.9743 50,-350.4166"/>
<polygon fill="#000000" stroke="#000000" points="53.5001,-350.4132 50,-340.4133 46.5001,-350.4133 53.5001,-350.4132"/>
</g>
<!-- 2:x -->
<g id="node3" class="node">
<title>2:x</title>
<ellipse fill="none" stroke="#000000" cx="50" cy="-250" rx="27" ry="18"/>
<text text-anchor="middle" x="50" y="-246.3" font-family="Times,serif" font-size="14.00" fill="#000000">2:x</text>
</g>
<!-- 1:y&#45;&gt;2:x -->
<g id="edge2" class="edge">
<title>1:y&#45;&gt;2:x</title>
<path fill="none" stroke="#000000" d="M50,-303.8314C50,-296.131 50,-286.9743 50,-278.4166"/>
<polygon fill="#000000" stroke="#000000" points="53.5001,-278.4132 50,-268.4133 46.5001,-278.4133 53.5001,-278.4132"/>
</g>
<!-- 3:y -->
<g id="node4" class="node">
<title>3:y</title>
<ellipse fill="none" stroke="#000000" cx="50" cy="-178" rx="27" ry="18"/>
<text text-anchor="middle" x="50" y="-174.3" font-family="Times,serif" font-size="14.00" fill="#000000">3:y</text>
</g>
<!-- 2:x&#45;&gt;3:y -->
<g id="edge3" class="edge">
<title>2:x&#45;&gt;3:y</title>
<path fill="none" stroke="#000000" d="M50,-231.8314C50,-224.131 50,-214.9743 50,-206.4166"/>
<polygon fill="#000000" stroke="#000000" points="53.5001,-206.4132 50,-196.4133 46.5001,-206.4133 53.5001,-206.4132"/>
</g>
<!-- 4:x -->
<g id="node5" class="node">
<title>4:x</title>
<ellipse fill="none" stroke="#000000" cx="50" cy="-106" rx="27" ry="18"/>
<text text-anchor="middle" x="50" y="-102.3" font-family="Times,serif" font-size="14.00" fill="#000000">4:x</text>
</g>
<!-- 3:y&#45;&gt;4:x -->
<g id="edge4" class="edge">
<title>3:y&#45;&gt;4:x</title>
<path fill="none" stroke="#000000" d="M50,-159.8314C50,-152.131 50,-142.9743 50,-134.4166"/>
<polygon fill="#000000" stroke="#000000" points="53.5001,-134.4132 50,-124.4133 46.5001,-134.4133 53.5001,-134.4132"/>
</g>
<!-- 5:y -->
<g id="node6" class="node">
<title>5:y</title>
<ellipse fill="none" stroke="#000000" cx="50" cy="-34" rx="27" ry="18"/>
<text text-anchor="middle" x="50" y="-30.3" font-family="Times,serif" font-size="14.00" fill="#000000">5:y</text>
</g>
<!-- 4:x&#45;&gt;5:y -->
<g id="edge5" class="edge">
<title>4:x&#45;&gt;5:y</title>
<path fill="none" stroke="#000000" d="M50,-87.8314C50,-80.131 50,-70.9743 50,-62.4166"/>
<polygon fill="#000000" stroke="#000000" points="53.5001,-62.4132 50,-52.4133 46.5001,-62.4133 53.5001,-62.4132"/>
</g>
<!-- Hilton Providence: 41.8229,&#45;71.4185 -->
<g id="node7" class="node">
<title>Hilton Providence: 41.8229,&#45;71.4185</title>
<ellipse fill="none" stroke="#000000" cx="251" cy="-250" rx="142.9746" ry="18"/>
<text text-anchor="middle" x="251" y="-246.3" font-family="Times,serif" font-size="14.00" fill="#000000">Hilton Providence: 41.8229,&#45;71.4185</text>
</g>
<!-- Downcity Inn: 41.8228,&#45;71.4149 -->
<g id="node8" class="node">
<title>Downcity Inn: 41.8228,&#45;71.4149</title>
<ellipse fill="none" stroke="#000000" cx="235" cy="-178" rx="127.2775" ry="18"/>
<text text-anchor="middle" x="235" y="-174.3" font-family="Times,serif" font-size="14.00" fill="#000000">Downcity Inn: 41.8228,&#45;71.4149</text>
</g>
<!-- Hilton Providence: 41.8229,&#45;71.4185&#45;&gt;Downcity Inn: 41.8228,&#45;71.4149 -->
<g id="edge6" class="edge">
<title>Hilton Providence: 41.8229,&#45;71.4185&#45;&gt;Downcity Inn: 41.8228,&#45;71.4149</title>
<path fill="none" stroke="#000000" d="M246.9625,-231.8314C245.2513,-224.131 243.2165,-214.9743 241.3148,-206.4166"/>
<polygon fill="#000000" stroke="#000000" points="244.6779,-205.4159 239.0918,-196.4133 237.8446,-206.9344 244.6779,-205.4159"/>
</g>
<!-- Clarion Inn Seekonk &#45; Providence: 41.7999,&#45;71.3295 -->
<g id="node9" class="node">
<title>Clarion Inn Seekonk &#45; Providence: 41.7999,&#45;71.3295</title>
<ellipse fill="none" stroke="#000000" cx="579" cy="-178" rx="198.7648" ry="18"/>
<text text-anchor="middle" x="579" y="-174.3" font-family="Times,serif" font-size="14.00" fill="#000000">Clarion Inn Seekonk &#45; Providence: 41.7999,&#45;71.3295</text>
</g>
<!-- Extended Stay America &#45; Providence &#45; East Providence: 41.808,&#45;71.3438 -->
<g id="node10" class="node">
<title>Extended Stay America &#45; Providence &#45; East Providence: 41.808,&#45;71.3438</title>
<ellipse fill="none" stroke="#000000" cx="383" cy="-106" rx="270.2521" ry="18"/>
<text text-anchor="middle" x="383" y="-102.3" font-family="Times,serif" font-size="14.00" fill="#000000">Extended Stay America &#45; Providence &#45; East Providence: 41.808,&#45;71.3438</text>
</g>
<!-- Clarion Inn Seekonk &#45; Providence: 41.7999,&#45;71.3295&#45;&gt;Extended Stay America &#45; Providence &#45; East Providence: 41.808,&#45;71.3438 -->
<g id="edge7" class="edge">
<title>Clarion Inn Seekonk &#45; Providence: 41.7999,&#45;71.3295&#45;&gt;Extended Stay America &#45; Providence &#45; East Providence: 41.808,&#45;71.3438</title>
<path fill="none" stroke="#0000ff" d="M531.3036,-160.4789C504.0199,-150.4563 469.5991,-137.8119 440.7882,-127.2283"/>
<polygon fill="#0000ff" stroke="#0000ff" points="441.8446,-123.8878 431.251,-123.7249 439.4308,-130.4585 441.8446,-123.8878"/>
</g>
<!-- Hilton Garden Inn Providence: 41.8186,&#45;71.3911 -->
<g id="node11" class="node">
<title>Hilton Garden Inn Providence: 41.8186,&#45;71.3911</title>
<ellipse fill="none" stroke="#000000" cx="597" cy="-250" rx="185.4674" ry="18"/>
<text text-anchor="middle" x="597" y="-246.3" font-family="Times,serif" font-size="14.00" fill="#000000">Hilton Garden Inn Providence: 41.8186,&#45;71.3911</text>
</g>
<!-- Hilton Garden Inn Providence: 41.8186,&#45;71.3911&#45;&gt;Clarion Inn Seekonk &#45; Providence: 41.7999,&#45;71.3295 -->
<g id="edge8" class="edge">
<title>Hilton Garden Inn Providence: 41.8186,&#45;71.3911&#45;&gt;Clarion Inn Seekonk &#45; Providence: 41.7999,&#45;71.3295</title>
<path fill="none" stroke="#000000" d="M592.4578,-231.8314C590.5116,-224.0463 588.1932,-214.7729 586.0337,-206.1347"/>
<polygon fill="#000000" stroke="#000000" points="589.4242,-205.2658 583.6033,-196.4133 582.6332,-206.9636 589.4242,-205.2658"/>
</g>
<!-- Hotel Providence: 41.8223,&#45;71.4139 -->
<g id="node12" class="node">
<title>Hotel Providence: 41.8223,&#45;71.4139</title>
<ellipse fill="none" stroke="#000000" cx="597" cy="-322" rx="139.9756" ry="18"/>
<text text-anchor="middle" x="597" y="-318.3" font-family="Times,serif" font-size="14.00" fill="#000000">Hotel Providence: 41.8223,&#45;71.4139</text>
</g>
<!-- Hotel Providence: 41.8223,&#45;71.4139&#45;&gt;Hilton Providence: 41.8229,&#45;71.4185 -->
<g id="edge9" class="edge">
<title>Hotel Providence: 41.8223,&#45;71.4139&#45;&gt;Hilton Providence: 41.8229,&#45;71.4185</title>
<path fill="none" stroke="#ffe4c4" d="M523.1987,-306.6425C468.1536,-295.188 392.8717,-279.5224 335.4293,-267.5691"/>
<polygon fill="#ffe4c4" stroke="#ffe4c4" points="335.7871,-264.0687 325.2838,-265.4579 334.361,-270.9218 335.7871,-264.0687"/>
</g>
<!-- Hotel Providence: 41.8223,&#45;71.4139&#45;&gt;Hilton Garden Inn Providence: 41.8186,&#45;71.3911 -->
<g id="edge10" class="edge">
<title>Hotel Providence: 41.8223,&#45;71.4139&#45;&gt;Hilton Garden Inn Providence: 41.8186,&#45;71.3911</title>
<path fill="none" stroke="#ffe4c4" d="M597,-303.8314C597,-296.131 597,-286.9743 597,-278.4166"/>
<polygon fill="#ffe4c4" stroke="#ffe4c4" points="600.5001,-278.4132 597,-268.4133 593.5001,-278.4133 600.5001,-278.4132"/>
</g>
<!-- Hotel Dolce Villa: 41.8241,&#45;71.427 -->
<g id="node13" class="node">
<title>Hotel Dolce Villa: 41.8241,&#45;71.427</title>
<ellipse fill="none" stroke="#000000" cx="933" cy="-178" rx="137.2758" ry="18"/>
<text text-anchor="middle" x="933" y="-174.3" font-family="Times,serif" font-size="14.00" fill="#000000">Hotel Dolce Villa: 41.8241,&#45;71.427</text>
</g>
<!-- Residence Inn by Marriott Providence Downtown: 41.8237,&#45;71.4165 -->
<g id="node14" class="node">
<title>Residence Inn by Marriott Providence Downtown: 41.8237,&#45;71.4165</title>
<ellipse fill="none" stroke="#000000" cx="927" cy="-106" rx="255.3547" ry="18"/>
<text text-anchor="middle" x="927" y="-102.3" font-family="Times,serif" font-size="14.00" fill="#000000">Residence Inn by Marriott Providence Downtown: 41.8237,&#45;71.4165</text>
</g>
<!-- Hotel Dolce Villa: 41.8241,&#45;71.427&#45;&gt;Residence Inn by Marriott Providence Downtown: 41.8237,&#45;71.4165 -->
<g id="edge11" class="edge">
<title>Hotel Dolce Villa: 41.8241,&#45;71.427&#45;&gt;Residence Inn by Marriott Providence Downtown: 41.8237,&#45;71.4165</title>
<path fill="none" stroke="#0000ff" d="M931.4859,-159.8314C930.8442,-152.131 930.0812,-142.9743 929.3681,-134.4166"/>
<polygon fill="#0000ff" stroke="#0000ff" points="932.8529,-134.088 928.5344,-124.4133 925.8771,-134.6694 932.8529,-134.088"/>
</g>
<!-- Christopher Dodge House: 41.8311,&#45;71.4184 -->
<g id="node15" class="node">
<title>Christopher Dodge House: 41.8311,&#45;71.4184</title>
<ellipse fill="none" stroke="#000000" cx="1371" cy="-106" rx="170.8697" ry="18"/>
<text text-anchor="middle" x="1371" y="-102.3" font-family="Times,serif" font-size="14.00" fill="#000000">Christopher Dodge House: 41.8311,&#45;71.4184</text>
</g>
<!-- Omni Providence Hotel: 41.8252,&#45;71.4158 -->
<g id="node16" class="node">
<title>Omni Providence Hotel: 41.8252,&#45;71.4158</title>
<ellipse fill="none" stroke="#000000" cx="1308" cy="-34" rx="163.2712" ry="18"/>
<text text-anchor="middle" x="1308" y="-30.3" font-family="Times,serif" font-size="14.00" fill="#000000">Omni Providence Hotel: 41.8252,&#45;71.4158</text>
</g>
<!-- Christopher Dodge House: 41.8311,&#45;71.4184&#45;&gt;Omni Providence Hotel: 41.8252,&#45;71.4158 -->
<g id="edge12" class="edge">
<title>Christopher Dodge House: 41.8311,&#45;71.4184&#45;&gt;Omni Providence Hotel: 41.8252,&#45;71.4158</title>
<path fill="none" stroke="#8a2be2" d="M1355.1024,-87.8314C1347.7722,-79.454 1338.934,-69.3531 1330.9031,-60.1749"/>
<polygon fill="#8a2be2" stroke="#8a2be2" points="1333.3307,-57.6343 1324.1116,-52.4133 1328.0627,-62.2438 1333.3307,-57.6343"/>
</g>
<!-- Providence Marriott Downtown: 41.8359,&#45;71.4137 -->
<g id="node17" class="node">
<title>Providence Marriott Downtown: 41.8359,&#45;71.4137</title>
<ellipse fill="none" stroke="#000000" cx="1754" cy="-106" rx="191.9663" ry="18"/>
<text text-anchor="middle" x="1754" y="-102.3" font-family="Times,serif" font-size="14.00" fill="#000000">Providence Marriott Downtown: 41.8359,&#45;71.4137</text>
</g>
<!-- Homewood Suites By Hilton Providence Downtown: 41.8266,&#45;71.4115 -->
<g id="node18" class="node">
<title>Homewood Suites By Hilton Providence Downtown: 41.8266,&#45;71.4115</title>
<ellipse fill="none" stroke="#000000" cx="1754" cy="-34" rx="264.5531" ry="18"/>
<text text-anchor="middle" x="1754" y="-30.3" font-family="Times,serif" font-size="14.00" fill="#000000">Homewood Suites By Hilton Providence Downtown: 41.8266,&#45;71.4115</text>
</g>
<!-- Providence Marriott Downtown: 41.8359,&#45;71.4137&#45;&gt;Homewood Suites By Hilton Providence Downtown: 41.8266,&#45;71.4115 -->
<g id="edge13" class="edge">
<title>Providence Marriott Downtown: 41.8359,&#45;71.4137&#45;&gt;Homewood Suites By Hilton Providence Downtown: 41.8266,&#45;71.4115</title>
<path fill="none" stroke="#8a2be2" d="M1754,-87.8314C1754,-80.131 1754,-70.9743 1754,-62.4166"/>
<polygon fill="#8a2be2" stroke="#8a2be2" points="1757.5001,-62.4132 1754,-52.4133 1750.5001,-62.4133 1757.5001,-62.4132"/>
</g>
<!-- Woodspring Suites: 41.8436,&#45;71.4119 -->
<g id="node19" class="node">
<title>Woodspring Suites: 41.8436,&#45;71.4119</title>
<ellipse fill="none" stroke="#000000" cx="2183" cy="-34" rx="146.4744" ry="18"/>
<text text-anchor="middle" x="2183" y="-30.3" font-family="Times,serif" font-size="14.00" fill="#000000">Woodspring Suites: 41.8436,&#45;71.4119</text>
</g>
<!-- Providence Marriott Downtown: 41.8359,&#45;71.4137&#45;&gt;Woodspring Suites: 41.8436,&#45;71.4119 -->
<g id="edge14" class="edge">
<title>Providence Marriott Downtown: 41.8359,&#45;71.4137&#45;&gt;Woodspring Suites: 41.8436,&#45;71.4119</title>
<path fill="none" stroke="#8a2be2" d="M1847.6158,-90.2883C1918.2553,-78.4327 2014.8652,-62.2184 2086.2563,-50.2367"/>
<polygon fill="#8a2be2" stroke="#8a2be2" points="2086.8745,-53.682 2096.1572,-48.575 2085.7158,-46.7785 2086.8745,-53.682"/>
</g>
<!-- Courtyard by Marriott Providence Downtown: 41.8258,&#45;71.4145 -->
<g id="node20" class="node">
<title>Courtyard by Marriott Providence Downtown: 41.8258,&#45;71.4145</title>
<ellipse fill="none" stroke="#000000" cx="1329" cy="-178" rx="241.2573" ry="18"/>
<text text-anchor="middle" x="1329" y="-174.3" font-family="Times,serif" font-size="14.00" fill="#000000">Courtyard by Marriott Providence Downtown: 41.8258,&#45;71.4145</text>
</g>
<!-- Courtyard by Marriott Providence Downtown: 41.8258,&#45;71.4145&#45;&gt;Christopher Dodge House: 41.8311,&#45;71.4184 -->
<g id="edge15" class="edge">
<title>Courtyard by Marriott Providence Downtown: 41.8258,&#45;71.4145&#45;&gt;Christopher Dodge House: 41.8311,&#45;71.4184</title>
<path fill="none" stroke="#0000ff" d="M1339.5984,-159.8314C1344.2877,-151.7925 1349.9028,-142.1666 1355.0798,-133.2918"/>
<polygon fill="#0000ff" stroke="#0000ff" points="1358.2434,-134.8146 1360.2589,-124.4133 1352.1969,-131.2875 1358.2434,-134.8146"/>
</g>
<!-- Courtyard by Marriott Providence Downtown: 41.8258,&#45;71.4145&#45;&gt;Providence Marriott Downtown: 41.8359,&#45;71.4137 -->
<g id="edge16" class="edge">
<title>Courtyard by Marriott Providence Downtown: 41.8258,&#45;71.4145&#45;&gt;Providence Marriott Downtown: 41.8359,&#45;71.4137</title>
<path fill="none" stroke="#0000ff" d="M1426.2371,-161.5269C1493.3807,-150.152 1582.5384,-135.0476 1650.9134,-123.4641"/>
<polygon fill="#0000ff" stroke="#0000ff" points="1651.5708,-126.9027 1660.8456,-121.7814 1650.4015,-120.001 1651.5708,-126.9027"/>
</g>
<!-- Graduate Providence: 41.8243,&#45;71.4134 -->
<g id="node21" class="node">
<title>Graduate Providence: 41.8243,&#45;71.4134</title>
<ellipse fill="none" stroke="#000000" cx="1164" cy="-250" rx="152.9733" ry="18"/>
<text text-anchor="middle" x="1164" y="-246.3" font-family="Times,serif" font-size="14.00" fill="#000000">Graduate Providence: 41.8243,&#45;71.4134</text>
</g>
<!-- Graduate Providence: 41.8243,&#45;71.4134&#45;&gt;Hotel Dolce Villa: 41.8241,&#45;71.427 -->
<g id="edge17" class="edge">
<title>Graduate Providence: 41.8243,&#45;71.4134&#45;&gt;Hotel Dolce Villa: 41.8241,&#45;71.427</title>
<path fill="none" stroke="#000000" d="M1109.8408,-233.1192C1075.8327,-222.5193 1031.8294,-208.804 996.2253,-197.7066"/>
<polygon fill="#000000" stroke="#000000" points="997.0096,-194.285 986.4211,-194.6507 994.9266,-200.9679 997.0096,-194.285"/>
</g>
<!-- Graduate Providence: 41.8243,&#45;71.4134&#45;&gt;Courtyard by Marriott Providence Downtown: 41.8258,&#45;71.4145 -->
<g id="edge18" class="edge">
<title>Graduate Providence: 41.8243,&#45;71.4134&#45;&gt;Courtyard by Marriott Providence Downtown: 41.8258,&#45;71.4145</title>
<path fill="none" stroke="#000000" d="M1203.9419,-232.5708C1226.5071,-222.7242 1254.9218,-210.325 1278.9615,-199.835"/>
<polygon fill="#000000" stroke="#000000" points="1280.5141,-202.9763 1288.2797,-195.7689 1277.7144,-196.5605 1280.5141,-202.9763"/>
</g>
<!-- The Old Court Bed &amp; Breakfast: 41.8294,&#45;71.4087 -->
<g id="node22" class="node">
<title>The Old Court Bed &amp; Breakfast: 41.8294,&#45;71.4087</title>
<ellipse fill="none" stroke="#000000" cx="1790" cy="-250" rx="192.2659" ry="18"/>
<text text-anchor="middle" x="1790" y="-246.3" font-family="Times,serif" font-size="14.00" fill="#000000">The Old Court Bed &amp; Breakfast: 41.8294,&#45;71.4087</text>
</g>
<!-- Ramada Seekonk Providence Area: 41.8242,&#45;71.3365 -->
<g id="node23" class="node">
<title>Ramada Seekonk Providence Area: 41.8242,&#45;71.3365</title>
<ellipse fill="none" stroke="#000000" cx="1790" cy="-178" rx="202.2642" ry="18"/>
<text text-anchor="middle" x="1790" y="-174.3" font-family="Times,serif" font-size="14.00" fill="#000000">Ramada Seekonk Providence Area: 41.8242,&#45;71.3365</text>
</g>
<!-- The Old Court Bed &amp; Breakfast: 41.8294,&#45;71.4087&#45;&gt;Ramada Seekonk Providence Area: 41.8242,&#45;71.3365 -->
<g id="edge19" class="edge">
<title>The Old Court Bed &amp; Breakfast: 41.8294,&#45;71.4087&#45;&gt;Ramada Seekonk Providence Area: 41.8242,&#45;71.3365</title>
<path fill="none" stroke="#000000" d="M1790,-231.8314C1790,-224.131 1790,-214.9743 1790,-206.4166"/>
<polygon fill="#000000" stroke="#000000" points="1793.5001,-206.4132 1790,-196.4133 1786.5001,-206.4133 1793.5001,-206.4132"/>
</g>
<!-- Hampton Inn Pawtucket: 41.874,&#45;71.3864 -->
<g id="node24" class="node">
<title>Hampton Inn Pawtucket: 41.874,&#45;71.3864</title>
<ellipse fill="none" stroke="#000000" cx="2171" cy="-178" rx="160.5715" ry="18"/>
<text text-anchor="middle" x="2171" y="-174.3" font-family="Times,serif" font-size="14.00" fill="#000000">Hampton Inn Pawtucket: 41.874,&#45;71.3864</text>
</g>
<!-- The Old Court Bed &amp; Breakfast: 41.8294,&#45;71.4087&#45;&gt;Hampton Inn Pawtucket: 41.874,&#45;71.3864 -->
<g id="edge20" class="edge">
<title>The Old Court Bed &amp; Breakfast: 41.8294,&#45;71.4087&#45;&gt;Hampton Inn Pawtucket: 41.874,&#45;71.3864</title>
<path fill="none" stroke="#000000" d="M1875.5038,-233.8418C1935.9817,-222.4129 2016.9913,-207.104 2078.8944,-195.4058"/>
<polygon fill="#000000" stroke="#000000" points="2079.8723,-198.783 2089.0484,-193.4869 2078.5724,-191.9048 2079.8723,-198.783"/>
</g>
<!-- Hampton Inn &amp; Suites Providence Downtown: 41.8239,&#45;71.4097 -->
<g id="node25" class="node">
<title>Hampton Inn &amp; Suites Providence Downtown: 41.8239,&#45;71.4097</title>
<ellipse fill="none" stroke="#000000" cx="1164" cy="-322" rx="243.1569" ry="18"/>
<text text-anchor="middle" x="1164" y="-318.3" font-family="Times,serif" font-size="14.00" fill="#000000">Hampton Inn &amp; Suites Providence Downtown: 41.8239,&#45;71.4097</text>
</g>
<!-- Hampton Inn &amp; Suites Providence Downtown: 41.8239,&#45;71.4097&#45;&gt;Graduate Providence: 41.8243,&#45;71.4134 -->
<g id="edge21" class="edge">
<title>Hampton Inn &amp; Suites Providence Downtown: 41.8239,&#45;71.4097&#45;&gt;Graduate Providence: 41.8243,&#45;71.4134</title>
<path fill="none" stroke="#ffe4c4" d="M1164,-303.8314C1164,-296.131 1164,-286.9743 1164,-278.4166"/>
<polygon fill="#ffe4c4" stroke="#ffe4c4" points="1167.5001,-278.4132 1164,-268.4133 1160.5001,-278.4133 1167.5001,-278.4132"/>
</g>
<!-- Hampton Inn &amp; Suites Providence Downtown: 41.8239,&#45;71.4097&#45;&gt;The Old Court Bed &amp; Breakfast: 41.8294,&#45;71.4087 -->
<g id="edge22" class="edge">
<title>Hampton Inn &amp; Suites Providence Downtown: 41.8239,&#45;71.4097&#45;&gt;The Old Court Bed &amp; Breakfast: 41.8294,&#45;71.4087</title>
<path fill="none" stroke="#ffe4c4" d="M1295.6117,-306.8626C1402.1802,-294.6055 1551.5851,-277.4215 1658.2032,-265.1587"/>
<polygon fill="#ffe4c4" stroke="#ffe4c4" points="1658.8501,-268.6075 1668.3846,-263.9877 1658.0502,-261.6533 1658.8501,-268.6075"/>
</g>
<!-- The Dean Hotel: 41.8232,&#45;71.4158 -->
<g id="node26" class="node">
<title>The Dean Hotel: 41.8232,&#45;71.4158</title>
<ellipse fill="none" stroke="#000000" cx="880" cy="-394" rx="135.3763" ry="18"/>
<text text-anchor="middle" x="880" y="-390.3" font-family="Times,serif" font-size="14.00" fill="#000000">The Dean Hotel: 41.8232,&#45;71.4158</text>
</g>
<!-- The Dean Hotel: 41.8232,&#45;71.4158&#45;&gt;Hotel Providence: 41.8223,&#45;71.4139 -->
<g id="edge23" class="edge">
<title>The Dean Hotel: 41.8232,&#45;71.4158&#45;&gt;Hotel Providence: 41.8223,&#45;71.4139</title>
<path fill="none" stroke="#7fffd4" d="M817.1931,-378.0209C773.8045,-366.9821 715.9417,-352.2608 670.4204,-340.6794"/>
<polygon fill="#7fffd4" stroke="#7fffd4" points="671.1642,-337.2572 660.6099,-338.1834 669.4382,-344.0411 671.1642,-337.2572"/>
</g>
<!-- The Dean Hotel: 41.8232,&#45;71.4158&#45;&gt;Hampton Inn &amp; Suites Providence Downtown: 41.8239,&#45;71.4097 -->
<g id="edge24" class="edge">
<title>The Dean Hotel: 41.8232,&#45;71.4158&#45;&gt;Hampton Inn &amp; Suites Providence Downtown: 41.8239,&#45;71.4097</title>
<path fill="none" stroke="#7fffd4" d="M943.0288,-378.0209C985.2005,-367.3294 1040.9978,-353.1837 1085.9716,-341.7819"/>
<polygon fill="#7fffd4" stroke="#7fffd4" points="1086.8538,-345.169 1095.687,-339.3188 1085.1335,-338.3837 1086.8538,-345.169"/>
</g>
</g>
</svg>
