<?xml version="1.0" encoding="UTF-8" standalone="no"?>
<!DOCTYPE svg PUBLIC "-//W3C//DTD SVG 1.1//EN"
 "http://www.w3.org/Graphics/SVG/1.1/DTD/svg11.dtd">
<!-- Generated by graphviz version 2.40.1 (20161225.0304)
 -->
<!-- Title: G Pages: 1 -->
<svg width="3420pt" height="652pt"
 viewBox="0.00 0.00 3420.00 652.00" xmlns="http://www.w3.org/2000/svg" xmlns:xlink="http://www.w3.org/1999/xlink">
<g id="graph0" class="graph" transform="scale(1 1) rotate(0) translate(4 648)">
<title>G</title>
<polygon fill="#ffffff" stroke="transparent" points="-4,4 -4,-648 3416,-648 3416,4 -4,4"/>
<g id="clust1" class="cluster">
<title>cluster_0</title>
<polygon fill="none" stroke="#000000" points="8,-80 8,-636 92,-636 92,-80 8,-80"/>
</g>
<g id="clust2" class="cluster">
<title>cluster_1</title>
<polygon fill="none" stroke="#000000" points="100,-8 100,-636 3404,-636 3404,-8 100,-8"/>
</g>
<!-- root: x -->
<g id="node1" class="node">
<title>root: x</title>
<ellipse fill="none" stroke="#000000" cx="50" cy="-610" rx="34.394" ry="18"/>
<text text-anchor="middle" x="50" y="-606.3" font-family="Times,serif" font-size="14.00" fill="#000000">root: x</text>
</g>
<!-- 1:y -->
<g id="node2" class="node">
<title>1:y</title>
<ellipse fill="none" stroke="#000000" cx="50" cy="-538" rx="27" ry="18"/>
<text text-anchor="middle" x="50" y="-534.3" font-family="Times,serif" font-size="14.00" fill="#000000">1:y</text>
</g>
<!-- root: x&#45;&gt;1:y -->
<g id="edge1" class="edge">
<title>root: x&#45;&gt;1:y</title>
<path fill="none" stroke="#000000" d="M50,-591.8314C50,-584.131 50,-574.9743 50,-566.4166"/>
<polygon fill="#000000" stroke="#000000" points="53.5001,-566.4132 50,-556.4133 46.5001,-566.4133 53.5001,-566.4132"/>
</g>
<!-- 2:x -->
<g id="node3" class="node">
<title>2:x</title>
<ellipse fill="none" stroke="#000000" cx="50" cy="-466" rx="27" ry="18"/>
<text text-anchor="middle" x="50" y="-462.3" font-family="Times,serif" font-size="14.00" fill="#000000">2:x</text>
</g>
<!-- 1:y&#45;&gt;2:x -->
<g id="edge2" class="edge">
<title>1:y&#45;&gt;2:x</title>
<path fill="none" stroke="#000000" d="M50,-519.8314C50,-512.131 50,-502.9743 50,-494.4166"/>
<polygon fill="#000000" stroke="#000000" points="53.5001,-494.4132 50,-484.4133 46.5001,-494.4133 53.5001,-494.4132"/>
</g>
<!-- 3:y -->
<g id="node4" class="node">
<title>3:y</title>
<ellipse fill="none" stroke="#000000" cx="50" cy="-394" rx="27" ry="18"/>
<text text-anchor="middle" x="50" y="-390.3" font-family="Times,serif" font-size="14.00" fill="#000000">3:y</text>
</g>
<!-- 2:x&#45;&gt;3:y -->
<g id="edge3" class="edge">
<title>2:x&#45;&gt;3:y</title>
<path fill="none" stroke="#000000" d="M50,-447.8314C50,-440.131 50,-430.9743 50,-422.4166"/>
<polygon fill="#000000" stroke="#000000" points="53.5001,-422.4132 50,-412.4133 46.5001,-422.4133 53.5001,-422.4132"/>
</g>
<!-- 4:x -->
<g id="node5" class="node">
<title>4:x</title>
<ellipse fill="none" stroke="#000000" cx="50" cy="-322" rx="27" ry="18"/>
<text text-anchor="middle" x="50" y="-318.3" font-family="Times,serif" font-size="14.00" fill="#000000">4:x</text>
</g>
<!-- 3:y&#45;&gt;4:x -->
<g id="edge4" class="edge">
<title>3:y&#45;&gt;4:x</title>
<path fill="none" stroke="#000000" d="M50,-375.8314C50,-368.131 50,-358.9743 50,-350.4166"/>
<polygon fill="#000000" stroke="#000000" points="53.5001,-350.4132 50,-340.4133 46.5001,-350.4133 53.5001,-350.4132"/>
</g>
<!-- 5:y -->
<g id="node6" class="node">
<title>5:y</title>
<ellipse fill="none" stroke="#000000" cx="50" cy="-250" rx="27" ry="18"/>
<text text-anchor="middle" x="50" y="-246.3" font-family="Times,serif" font-size="14.00" fill="#000000">5:y</text>
</g>
<!-- 4:x&#45;&gt;5:y -->
<g id="edge5" class="edge">
<title>4:x&#45;&gt;5:y</title>
<path fill="none" stroke="#000000" d="M50,-303.8314C50,-296.131 50,-286.9743 50,-278.4166"/>
<polygon fill="#000000" stroke="#000000" points="53.5001,-278.4132 50,-268.4133 46.5001,-278.4133 53.5001,-278.4132"/>
</g>
<!-- 6:x -->
<g id="node7" class="node">
<title>6:x</title>
<ellipse fill="none" stroke="#000000" cx="50" cy="-178" rx="27" ry="18"/>
<text text-anchor="middle" x="50" y="-174.3" font-family="Times,serif" font-size="14.00" fill="#000000">6:x</text>
</g>
<!-- 5:y&#45;&gt;6:x -->
<g id="edge6" class="edge">
<title>5:y&#45;&gt;6:x</title>
<path fill="none" stroke="#000000" d="M50,-231.8314C50,-224.131 50,-214.9743 50,-206.4166"/>
<polygon fill="#000000" stroke="#000000" points="53.5001,-206.4132 50,-196.4133 46.5001,-206.4133 53.5001,-206.4132"/>
</g>
<!-- 7:y -->
<g id="node8" class="node">
<title>7:y</title>
<ellipse fill="none" stroke="#000000" cx="50" cy="-106" rx="27" ry="18"/>
<text text-anchor="middle" x="50" y="-102.3" font-family="Times,serif" font-size="14.00" fill="#000000">7:y</text>
</g>
<!-- 6:x&#45;&gt;7:y -->
<g id="edge7" class="edge">
<title>6:x&#45;&gt;7:y</title>
<path fill="none" stroke="#000000" d="M50,-159.8314C50,-152.131 50,-142.9743 50,-134.4166"/>
<polygon fill="#000000" stroke="#000000" points="53.5001,-134.4132 50,-124.4133 46.5001,-134.4133 53.5001,-134.4132"/>
</g>
<!-- Federal Hill Home Theaters: 41.7314,&#45;71.4373 -->
<g id="node9" class="node">
<title>Federal Hill Home Theaters: 41.7314,&#45;71.4373</title>
<ellipse fill="none" stroke="#000000" cx="286" cy="-322" rx="178.1684" ry="18"/>
<text text-anchor="middle" x="286" y="-318.3" font-family="Times,serif" font-size="14.00" fill="#000000">Federal Hill Home Theaters: 41.7314,&#45;71.4373</text>
</g>
<!-- Theatre 82: 41.7759,&#45;71.4365 -->
<g id="node10" class="node">
<title>Theatre 82: 41.7759,&#45;71.4365</title>
<ellipse fill="none" stroke="#000000" cx="286" cy="-250" rx="116.1796" ry="18"/>
<text text-anchor="middle" x="286" y="-246.3" font-family="Times,serif" font-size="14.00" fill="#000000">Theatre 82: 41.7759,&#45;71.4365</text>
</g>
<!-- Federal Hill Home Theaters: 41.7314,&#45;71.4373&#45;&gt;Theatre 82: 41.7759,&#45;71.4365 -->
<g id="edge8" class="edge">
<title>Federal Hill Home Theaters: 41.7314,&#45;71.4373&#45;&gt;Theatre 82: 41.7759,&#45;71.4365</title>
<path fill="none" stroke="#8a2be2" d="M286,-303.8314C286,-296.131 286,-286.9743 286,-278.4166"/>
<polygon fill="#8a2be2" stroke="#8a2be2" points="289.5001,-278.4132 286,-268.4133 282.5001,-278.4133 289.5001,-278.4132"/>
</g>
<!-- Artists&#39; Exchange: 41.7771,&#45;71.4363 -->
<g id="node11" class="node">
<title>Artists&#39; Exchange: 41.7771,&#45;71.4363</title>
<ellipse fill="none" stroke="#000000" cx="267" cy="-394" rx="140.2752" ry="18"/>
<text text-anchor="middle" x="267" y="-390.3" font-family="Times,serif" font-size="14.00" fill="#000000">Artists&#39; Exchange: 41.7771,&#45;71.4363</text>
</g>
<!-- Artists&#39; Exchange: 41.7771,&#45;71.4363&#45;&gt;Federal Hill Home Theaters: 41.7314,&#45;71.4373 -->
<g id="edge9" class="edge">
<title>Artists&#39; Exchange: 41.7771,&#45;71.4363&#45;&gt;Federal Hill Home Theaters: 41.7314,&#45;71.4373</title>
<path fill="none" stroke="#0000ff" d="M271.7945,-375.8314C273.8489,-368.0463 276.296,-358.7729 278.5756,-350.1347"/>
<polygon fill="#0000ff" stroke="#0000ff" points="281.9735,-350.9753 281.1409,-340.4133 275.2052,-349.1892 281.9735,-350.9753"/>
</g>
<!-- The Park Theatre: 41.7789,&#45;71.4361 -->
<g id="node12" class="node">
<title>The Park Theatre: 41.7789,&#45;71.4361</title>
<ellipse fill="none" stroke="#000000" cx="557" cy="-466" rx="139.9756" ry="18"/>
<text text-anchor="middle" x="557" y="-462.3" font-family="Times,serif" font-size="14.00" fill="#000000">The Park Theatre: 41.7789,&#45;71.4361</text>
</g>
<!-- The Park Theatre: 41.7789,&#45;71.4361&#45;&gt;Artists&#39; Exchange: 41.7771,&#45;71.4363 -->
<g id="edge10" class="edge">
<title>The Park Theatre: 41.7789,&#45;71.4361&#45;&gt;Artists&#39; Exchange: 41.7771,&#45;71.4363</title>
<path fill="none" stroke="#000000" d="M492.6396,-450.0209C447.8509,-438.9009 388.011,-424.0441 341.2096,-412.4245"/>
<polygon fill="#000000" stroke="#000000" points="341.9795,-409.0094 331.4307,-409.9966 340.2927,-415.8031 341.9795,-409.0094"/>
</g>
<!-- Fête Music Hall: 41.816,&#45;71.4434 -->
<g id="node13" class="node">
<title>Fête Music Hall: 41.816,&#45;71.4434</title>
<ellipse fill="none" stroke="#000000" cx="557" cy="-394" rx="131.8766" ry="18"/>
<text text-anchor="middle" x="557" y="-390.3" font-family="Times,serif" font-size="14.00" fill="#000000">Fête Music Hall: 41.816,&#45;71.4434</text>
</g>
<!-- The Park Theatre: 41.7789,&#45;71.4361&#45;&gt;Fête Music Hall: 41.816,&#45;71.4434 -->
<g id="edge11" class="edge">
<title>The Park Theatre: 41.7789,&#45;71.4361&#45;&gt;Fête Music Hall: 41.816,&#45;71.4434</title>
<path fill="none" stroke="#000000" d="M557,-447.8314C557,-440.131 557,-430.9743 557,-422.4166"/>
<polygon fill="#000000" stroke="#000000" points="560.5001,-422.4132 557,-412.4133 553.5001,-422.4133 560.5001,-422.4132"/>
</g>
<!-- DB Designs: 41.7433,&#45;71.4064 -->
<g id="node14" class="node">
<title>DB Designs: 41.7433,&#45;71.4064</title>
<ellipse fill="none" stroke="#000000" cx="573" cy="-250" rx="121.5784" ry="18"/>
<text text-anchor="middle" x="573" y="-246.3" font-family="Times,serif" font-size="14.00" fill="#000000">DB Designs: 41.7433,&#45;71.4064</text>
</g>
<!-- Flint Audio Video: 41.5173,&#45;71.2982 -->
<g id="node15" class="node">
<title>Flint Audio Video: 41.5173,&#45;71.2982</title>
<ellipse fill="none" stroke="#000000" cx="474" cy="-178" rx="143.7746" ry="18"/>
<text text-anchor="middle" x="474" y="-174.3" font-family="Times,serif" font-size="14.00" fill="#000000">Flint Audio Video: 41.5173,&#45;71.2982</text>
</g>
<!-- DB Designs: 41.7433,&#45;71.4064&#45;&gt;Flint Audio Video: 41.5173,&#45;71.2982 -->
<g id="edge12" class="edge">
<title>DB Designs: 41.7433,&#45;71.4064&#45;&gt;Flint Audio Video: 41.5173,&#45;71.2982</title>
<path fill="none" stroke="#a52a2a" d="M548.5281,-232.2022C535.9149,-223.0291 520.3597,-211.7161 506.7286,-201.8026"/>
<polygon fill="#a52a2a" stroke="#a52a2a" points="508.6795,-198.8937 498.5335,-195.8425 504.5623,-204.5549 508.6795,-198.8937"/>
</g>
<!-- Ultimate Home Theater: 41.8214,&#45;71.4113 -->
<g id="node16" class="node">
<title>Ultimate Home Theater: 41.8214,&#45;71.4113</title>
<ellipse fill="none" stroke="#000000" cx="592" cy="-106" rx="163.2712" ry="18"/>
<text text-anchor="middle" x="592" y="-102.3" font-family="Times,serif" font-size="14.00" fill="#000000">Ultimate Home Theater: 41.8214,&#45;71.4113</text>
</g>
<!-- Perishable Theater: 41.8207,&#45;71.4148 -->
<g id="node17" class="node">
<title>Perishable Theater: 41.8207,&#45;71.4148</title>
<ellipse fill="none" stroke="#000000" cx="592" cy="-34" rx="144.0747" ry="18"/>
<text text-anchor="middle" x="592" y="-30.3" font-family="Times,serif" font-size="14.00" fill="#000000">Perishable Theater: 41.8207,&#45;71.4148</text>
</g>
<!-- Ultimate Home Theater: 41.8214,&#45;71.4113&#45;&gt;Perishable Theater: 41.8207,&#45;71.4148 -->
<g id="edge13" class="edge">
<title>Ultimate Home Theater: 41.8214,&#45;71.4113&#45;&gt;Perishable Theater: 41.8207,&#45;71.4148</title>
<path fill="none" stroke="#5f9ea0" d="M592,-87.8314C592,-80.131 592,-70.9743 592,-62.4166"/>
<polygon fill="#5f9ea0" stroke="#5f9ea0" points="595.5001,-62.4132 592,-52.4133 588.5001,-62.4133 595.5001,-62.4132"/>
</g>
<!-- Pell Chafee Performance Center: 41.8216,&#45;71.4162 -->
<g id="node18" class="node">
<title>Pell Chafee Performance Center: 41.8216,&#45;71.4162</title>
<ellipse fill="none" stroke="#000000" cx="829" cy="-178" rx="193.0657" ry="18"/>
<text text-anchor="middle" x="829" y="-174.3" font-family="Times,serif" font-size="14.00" fill="#000000">Pell Chafee Performance Center: 41.8216,&#45;71.4162</text>
</g>
<!-- Pell Chafee Performance Center: 41.8216,&#45;71.4162&#45;&gt;Ultimate Home Theater: 41.8214,&#45;71.4113 -->
<g id="edge14" class="edge">
<title>Pell Chafee Performance Center: 41.8216,&#45;71.4162&#45;&gt;Ultimate Home Theater: 41.8214,&#45;71.4113</title>
<path fill="none" stroke="#deb887" d="M772.2326,-160.7542C737.8098,-150.2967 693.7448,-136.9098 657.8023,-125.9906"/>
<polygon fill="#deb887" stroke="#deb887" points="658.4805,-122.5387 647.8949,-122.9807 656.4457,-129.2365 658.4805,-122.5387"/>
</g>
<!-- Improv Jones: 41.8216,&#45;71.4159 -->
<g id="node19" class="node">
<title>Improv Jones: 41.8216,&#45;71.4159</title>
<ellipse fill="none" stroke="#000000" cx="900" cy="-106" rx="126.978" ry="18"/>
<text text-anchor="middle" x="900" y="-102.3" font-family="Times,serif" font-size="14.00" fill="#000000">Improv Jones: 41.8216,&#45;71.4159</text>
</g>
<!-- Pell Chafee Performance Center: 41.8216,&#45;71.4162&#45;&gt;Improv Jones: 41.8216,&#45;71.4159 -->
<g id="edge15" class="edge">
<title>Pell Chafee Performance Center: 41.8216,&#45;71.4162&#45;&gt;Improv Jones: 41.8216,&#45;71.4159</title>
<path fill="none" stroke="#deb887" d="M846.9163,-159.8314C855.4739,-151.1533 865.8552,-140.6257 875.1597,-131.1902"/>
<polygon fill="#deb887" stroke="#deb887" points="877.806,-133.4913 882.3354,-123.9134 872.8218,-128.5763 877.806,-133.4913"/>
</g>
<!-- Stereo Discount Audio and Video: 41.82,&#45;71.3688 -->
<g id="node20" class="node">
<title>Stereo Discount Audio and Video: 41.82,&#45;71.3688</title>
<ellipse fill="none" stroke="#000000" cx="1230" cy="-178" rx="189.5666" ry="18"/>
<text text-anchor="middle" x="1230" y="-174.3" font-family="Times,serif" font-size="14.00" fill="#000000">Stereo Discount Audio and Video: 41.82,&#45;71.3688</text>
</g>
<!-- Sound FX: 41.8067,&#45;71.3412 -->
<g id="node21" class="node">
<title>Sound FX: 41.8067,&#45;71.3412</title>
<ellipse fill="none" stroke="#000000" cx="1230" cy="-106" rx="114.2798" ry="18"/>
<text text-anchor="middle" x="1230" y="-102.3" font-family="Times,serif" font-size="14.00" fill="#000000">Sound FX: 41.8067,&#45;71.3412</text>
</g>
<!-- Stereo Discount Audio and Video: 41.82,&#45;71.3688&#45;&gt;Sound FX: 41.8067,&#45;71.3412 -->
<g id="edge16" class="edge">
<title>Stereo Discount Audio and Video: 41.82,&#45;71.3688&#45;&gt;Sound FX: 41.8067,&#45;71.3412</title>
<path fill="none" stroke="#deb887" d="M1230,-159.8314C1230,-152.131 1230,-142.9743 1230,-134.4166"/>
<polygon fill="#deb887" stroke="#deb887" points="1233.5001,-134.4132 1230,-124.4133 1226.5001,-134.4133 1233.5001,-134.4132"/>
</g>
<!-- Players: 41.8205,&#45;71.402 -->
<g id="node22" class="node">
<title>Players: 41.8205,&#45;71.402</title>
<ellipse fill="none" stroke="#000000" cx="829" cy="-250" rx="100.1823" ry="18"/>
<text text-anchor="middle" x="829" y="-246.3" font-family="Times,serif" font-size="14.00" fill="#000000">Players: 41.8205,&#45;71.402</text>
</g>
<!-- Players: 41.8205,&#45;71.402&#45;&gt;Pell Chafee Performance Center: 41.8216,&#45;71.4162 -->
<g id="edge17" class="edge">
<title>Players: 41.8205,&#45;71.402&#45;&gt;Pell Chafee Performance Center: 41.8216,&#45;71.4162</title>
<path fill="none" stroke="#a52a2a" d="M829,-231.8314C829,-224.131 829,-214.9743 829,-206.4166"/>
<polygon fill="#a52a2a" stroke="#a52a2a" points="832.5001,-206.4132 829,-196.4133 825.5001,-206.4133 832.5001,-206.4132"/>
</g>
<!-- Players: 41.8205,&#45;71.402&#45;&gt;Stereo Discount Audio and Video: 41.82,&#45;71.3688 -->
<g id="edge18" class="edge">
<title>Players: 41.8205,&#45;71.402&#45;&gt;Stereo Discount Audio and Video: 41.82,&#45;71.3688</title>
<path fill="none" stroke="#a52a2a" d="M900.2287,-237.2108C964.4991,-225.671 1059.663,-208.5842 1131.265,-195.728"/>
<polygon fill="#a52a2a" stroke="#a52a2a" points="1131.9822,-199.1553 1141.2063,-193.943 1130.7451,-192.2654 1131.9822,-199.1553"/>
</g>
<!-- Showcase Cinemas Seekonk Route 6: 41.7971,&#45;71.3231 -->
<g id="node23" class="node">
<title>Showcase Cinemas Seekonk Route 6: 41.7971,&#45;71.3231</title>
<ellipse fill="none" stroke="#000000" cx="692" cy="-322" rx="209.8628" ry="18"/>
<text text-anchor="middle" x="692" y="-318.3" font-family="Times,serif" font-size="14.00" fill="#000000">Showcase Cinemas Seekonk Route 6: 41.7971,&#45;71.3231</text>
</g>
<!-- Showcase Cinemas Seekonk Route 6: 41.7971,&#45;71.3231&#45;&gt;DB Designs: 41.7433,&#45;71.4064 -->
<g id="edge19" class="edge">
<title>Showcase Cinemas Seekonk Route 6: 41.7971,&#45;71.3231&#45;&gt;DB Designs: 41.7433,&#45;71.4064</title>
<path fill="none" stroke="#8a2be2" d="M662.2782,-304.0171C646.7114,-294.5985 627.4806,-282.963 610.8586,-272.906"/>
<polygon fill="#8a2be2" stroke="#8a2be2" points="612.3001,-269.6874 601.9324,-267.5053 608.6764,-275.6765 612.3001,-269.6874"/>
</g>
<!-- Showcase Cinemas Seekonk Route 6: 41.7971,&#45;71.3231&#45;&gt;Players: 41.8205,&#45;71.402 -->
<g id="edge20" class="edge">
<title>Showcase Cinemas Seekonk Route 6: 41.7971,&#45;71.3231&#45;&gt;Players: 41.8205,&#45;71.402</title>
<path fill="none" stroke="#8a2be2" d="M725.8652,-304.2022C744.4711,-294.4239 767.7035,-282.2142 787.4053,-271.86"/>
<polygon fill="#8a2be2" stroke="#8a2be2" points="789.2441,-274.8476 796.4678,-267.0972 785.9875,-268.6512 789.2441,-274.8476"/>
</g>
<!-- Providence Improv Guild: 41.8129,&#45;71.4223 -->
<g id="node24" class="node">
<title>Providence Improv Guild: 41.8129,&#45;71.4223</title>
<ellipse fill="none" stroke="#000000" cx="876" cy="-394" rx="168.97" ry="18"/>
<text text-anchor="middle" x="876" y="-390.3" font-family="Times,serif" font-size="14.00" fill="#000000">Providence Improv Guild: 41.8129,&#45;71.4223</text>
</g>
<!-- Providence Improv Guild: 41.8129,&#45;71.4223&#45;&gt;Showcase Cinemas Seekonk Route 6: 41.7971,&#45;71.3231 -->
<g id="edge21" class="edge">
<title>Providence Improv Guild: 41.8129,&#45;71.4223&#45;&gt;Showcase Cinemas Seekonk Route 6: 41.7971,&#45;71.3231</title>
<path fill="none" stroke="#0000ff" d="M831.4587,-376.5708C805.8659,-366.5562 773.5256,-353.9013 746.4332,-343.2999"/>
<polygon fill="#0000ff" stroke="#0000ff" points="747.6766,-340.0281 737.0887,-339.6434 745.1258,-346.5468 747.6766,-340.0281"/>
</g>
<!-- Murder On Us Dinner Theater: 41.8218,&#45;71.4162 -->
<g id="node25" class="node">
<title>Murder On Us Dinner Theater: 41.8218,&#45;71.4162</title>
<ellipse fill="none" stroke="#000000" cx="1250" cy="-394" rx="186.5669" ry="18"/>
<text text-anchor="middle" x="1250" y="-390.3" font-family="Times,serif" font-size="14.00" fill="#000000">Murder On Us Dinner Theater: 41.8218,&#45;71.4162</text>
</g>
<!-- AS220: 41.8218,&#45;71.4162 -->
<g id="node26" class="node">
<title>AS220: 41.8218,&#45;71.4162</title>
<ellipse fill="none" stroke="#000000" cx="1023" cy="-322" rx="102.8821" ry="18"/>
<text text-anchor="middle" x="1023" y="-318.3" font-family="Times,serif" font-size="14.00" fill="#000000">AS220: 41.8218,&#45;71.4162</text>
</g>
<!-- Murder On Us Dinner Theater: 41.8218,&#45;71.4162&#45;&gt;AS220: 41.8218,&#45;71.4162 -->
<g id="edge22" class="edge">
<title>Murder On Us Dinner Theater: 41.8218,&#45;71.4162&#45;&gt;AS220: 41.8218,&#45;71.4162</title>
<path fill="none" stroke="#0000ff" d="M1195.6278,-376.7542C1161.5785,-365.9544 1117.6793,-352.0305 1082.6715,-340.9266"/>
<polygon fill="#0000ff" stroke="#0000ff" points="1083.639,-337.5617 1073.0488,-337.8745 1081.5226,-344.2342 1083.639,-337.5617"/>
</g>
<!-- 95 Empire: 41.8217,&#45;71.4159 -->
<g id="node27" class="node">
<title>95 Empire: 41.8217,&#45;71.4159</title>
<ellipse fill="none" stroke="#000000" cx="1063" cy="-466" rx="116.1796" ry="18"/>
<text text-anchor="middle" x="1063" y="-462.3" font-family="Times,serif" font-size="14.00" fill="#000000">95 Empire: 41.8217,&#45;71.4159</text>
</g>
<!-- 95 Empire: 41.8217,&#45;71.4159&#45;&gt;Providence Improv Guild: 41.8129,&#45;71.4223 -->
<g id="edge23" class="edge">
<title>95 Empire: 41.8217,&#45;71.4159&#45;&gt;Providence Improv Guild: 41.8129,&#45;71.4223</title>
<path fill="none" stroke="#000000" d="M1019.1568,-449.1192C992.7941,-438.9689 959.0119,-425.9618 930.8853,-415.1323"/>
<polygon fill="#000000" stroke="#000000" points="931.7837,-411.7278 921.1939,-411.4009 929.2684,-418.2603 931.7837,-411.7278"/>
</g>
<!-- 95 Empire: 41.8217,&#45;71.4159&#45;&gt;Murder On Us Dinner Theater: 41.8218,&#45;71.4162 -->
<g id="edge24" class="edge">
<title>95 Empire: 41.8217,&#45;71.4159&#45;&gt;Murder On Us Dinner Theater: 41.8218,&#45;71.4162</title>
<path fill="none" stroke="#000000" d="M1106.8432,-449.1192C1133.1093,-439.006 1166.7407,-426.057 1194.8054,-415.2514"/>
<polygon fill="#000000" stroke="#000000" points="1196.4043,-418.3863 1204.4788,-411.5269 1193.889,-411.8538 1196.4043,-418.3863"/>
</g>
<!-- Columbus Theatre: 41.8203,&#45;71.4265 -->
<g id="node28" class="node">
<title>Columbus Theatre: 41.8203,&#45;71.4265</title>
<ellipse fill="none" stroke="#000000" cx="1063" cy="-538" rx="144.0747" ry="18"/>
<text text-anchor="middle" x="1063" y="-534.3" font-family="Times,serif" font-size="14.00" fill="#000000">Columbus Theatre: 41.8203,&#45;71.4265</text>
</g>
<!-- Columbus Theatre: 41.8203,&#45;71.4265&#45;&gt;The Park Theatre: 41.7789,&#45;71.4361 -->
<g id="edge25" class="edge">
<title>Columbus Theatre: 41.8203,&#45;71.4265&#45;&gt;The Park Theatre: 41.7789,&#45;71.4361</title>
<path fill="none" stroke="#ffe4c4" d="M967.8253,-524.4574C880.3533,-512.0107 750.9738,-493.601 660.8568,-480.778"/>
<polygon fill="#ffe4c4" stroke="#ffe4c4" points="661.2852,-477.3038 650.8918,-479.3601 660.299,-484.234 661.2852,-477.3038"/>
</g>
<!-- Columbus Theatre: 41.8203,&#45;71.4265&#45;&gt;95 Empire: 41.8217,&#45;71.4159 -->
<g id="edge26" class="edge">
<title>Columbus Theatre: 41.8203,&#45;71.4265&#45;&gt;95 Empire: 41.8217,&#45;71.4159</title>
<path fill="none" stroke="#ffe4c4" d="M1063,-519.8314C1063,-512.131 1063,-502.9743 1063,-494.4166"/>
<polygon fill="#ffe4c4" stroke="#ffe4c4" points="1066.5001,-494.4132 1063,-484.4133 1059.5001,-494.4133 1066.5001,-494.4132"/>
</g>
<!-- The Dinner Detective: 41.8253,&#45;71.416 -->
<g id="node29" class="node">
<title>The Dinner Detective: 41.8253,&#45;71.416</title>
<ellipse fill="none" stroke="#000000" cx="1294" cy="-322" rx="150.5735" ry="18"/>
<text text-anchor="middle" x="1294" y="-318.3" font-family="Times,serif" font-size="14.00" fill="#000000">The Dinner Detective: 41.8253,&#45;71.416</text>
</g>
<!-- Dunkin&#39; Donuts Center: 41.8235,&#45;71.4182 -->
<g id="node30" class="node">
<title>Dunkin&#39; Donuts Center: 41.8235,&#45;71.4182</title>
<ellipse fill="none" stroke="#000000" cx="1287" cy="-250" rx="159.7717" ry="18"/>
<text text-anchor="middle" x="1287" y="-246.3" font-family="Times,serif" font-size="14.00" fill="#000000">Dunkin&#39; Donuts Center: 41.8235,&#45;71.4182</text>
</g>
<!-- The Dinner Detective: 41.8253,&#45;71.416&#45;&gt;Dunkin&#39; Donuts Center: 41.8235,&#45;71.4182 -->
<g id="edge27" class="edge">
<title>The Dinner Detective: 41.8253,&#45;71.416&#45;&gt;Dunkin&#39; Donuts Center: 41.8235,&#45;71.4182</title>
<path fill="none" stroke="#8a2be2" d="M1292.2336,-303.8314C1291.485,-296.131 1290.5947,-286.9743 1289.7627,-278.4166"/>
<polygon fill="#8a2be2" stroke="#8a2be2" points="1293.2415,-278.0276 1288.7902,-268.4133 1286.2744,-278.7051 1293.2415,-278.0276"/>
</g>
<!-- The Arcade Providence: 41.8237,&#45;71.4101 -->
<g id="node31" class="node">
<title>The Arcade Providence: 41.8237,&#45;71.4101</title>
<ellipse fill="none" stroke="#000000" cx="1622" cy="-178" rx="161.6714" ry="18"/>
<text text-anchor="middle" x="1622" y="-174.3" font-family="Times,serif" font-size="14.00" fill="#000000">The Arcade Providence: 41.8237,&#45;71.4101</text>
</g>
<!-- Kennedy Plaza: 41.8252,&#45;71.4127 -->
<g id="node32" class="node">
<title>Kennedy Plaza: 41.8252,&#45;71.4127</title>
<ellipse fill="none" stroke="#000000" cx="1622" cy="-106" rx="131.8766" ry="18"/>
<text text-anchor="middle" x="1622" y="-102.3" font-family="Times,serif" font-size="14.00" fill="#000000">Kennedy Plaza: 41.8252,&#45;71.4127</text>
</g>
<!-- The Arcade Providence: 41.8237,&#45;71.4101&#45;&gt;Kennedy Plaza: 41.8252,&#45;71.4127 -->
<g id="edge28" class="edge">
<title>The Arcade Providence: 41.8237,&#45;71.4101&#45;&gt;Kennedy Plaza: 41.8252,&#45;71.4127</title>
<path fill="none" stroke="#deb887" d="M1622,-159.8314C1622,-152.131 1622,-142.9743 1622,-134.4166"/>
<polygon fill="#deb887" stroke="#deb887" points="1625.5001,-134.4132 1622,-124.4133 1618.5001,-134.4133 1625.5001,-134.4132"/>
</g>
<!-- WaterFire Providence: 41.8258,&#45;71.4083 -->
<g id="node33" class="node">
<title>WaterFire Providence: 41.8258,&#45;71.4083</title>
<ellipse fill="none" stroke="#000000" cx="1622" cy="-250" rx="156.7723" ry="18"/>
<text text-anchor="middle" x="1622" y="-246.3" font-family="Times,serif" font-size="14.00" fill="#000000">WaterFire Providence: 41.8258,&#45;71.4083</text>
</g>
<!-- WaterFire Providence: 41.8258,&#45;71.4083&#45;&gt;The Arcade Providence: 41.8237,&#45;71.4101 -->
<g id="edge29" class="edge">
<title>WaterFire Providence: 41.8258,&#45;71.4083&#45;&gt;The Arcade Providence: 41.8237,&#45;71.4101</title>
<path fill="none" stroke="#a52a2a" d="M1622,-231.8314C1622,-224.131 1622,-214.9743 1622,-206.4166"/>
<polygon fill="#a52a2a" stroke="#a52a2a" points="1625.5001,-206.4132 1622,-196.4133 1618.5001,-206.4133 1625.5001,-206.4132"/>
</g>
<!-- Movies On The Block: 41.8227,&#45;71.413 -->
<g id="node34" class="node">
<title>Movies On The Block: 41.8227,&#45;71.413</title>
<ellipse fill="none" stroke="#000000" cx="1616" cy="-322" rx="153.2729" ry="18"/>
<text text-anchor="middle" x="1616" y="-318.3" font-family="Times,serif" font-size="14.00" fill="#000000">Movies On The Block: 41.8227,&#45;71.413</text>
</g>
<!-- Movies On The Block: 41.8227,&#45;71.413&#45;&gt;WaterFire Providence: 41.8258,&#45;71.4083 -->
<g id="edge30" class="edge">
<title>Movies On The Block: 41.8227,&#45;71.413&#45;&gt;WaterFire Providence: 41.8258,&#45;71.4083</title>
<path fill="none" stroke="#8a2be2" d="M1617.5141,-303.8314C1618.1558,-296.131 1618.9188,-286.9743 1619.6319,-278.4166"/>
<polygon fill="#8a2be2" stroke="#8a2be2" points="1623.1229,-278.6694 1620.4656,-268.4133 1616.1471,-278.088 1623.1229,-278.6694"/>
</g>
<!-- The Strand: 41.8236,&#45;71.4143 -->
<g id="node35" class="node">
<title>The Strand: 41.8236,&#45;71.4143</title>
<ellipse fill="none" stroke="#000000" cx="1616" cy="-394" rx="117.7793" ry="18"/>
<text text-anchor="middle" x="1616" y="-390.3" font-family="Times,serif" font-size="14.00" fill="#000000">The Strand: 41.8236,&#45;71.4143</text>
</g>
<!-- The Strand: 41.8236,&#45;71.4143&#45;&gt;The Dinner Detective: 41.8253,&#45;71.416 -->
<g id="edge31" class="edge">
<title>The Strand: 41.8236,&#45;71.4143&#45;&gt;The Dinner Detective: 41.8253,&#45;71.416</title>
<path fill="none" stroke="#0000ff" d="M1549.2814,-379.0816C1498.6436,-367.7588 1428.7936,-352.1402 1374.958,-340.1024"/>
<polygon fill="#0000ff" stroke="#0000ff" points="1375.6231,-336.6648 1365.1003,-337.8982 1374.0955,-343.4961 1375.6231,-336.6648"/>
</g>
<!-- The Strand: 41.8236,&#45;71.4143&#45;&gt;Movies On The Block: 41.8227,&#45;71.413 -->
<g id="edge32" class="edge">
<title>The Strand: 41.8236,&#45;71.4143&#45;&gt;Movies On The Block: 41.8227,&#45;71.413</title>
<path fill="none" stroke="#0000ff" d="M1616,-375.8314C1616,-368.131 1616,-358.9743 1616,-350.4166"/>
<polygon fill="#0000ff" stroke="#0000ff" points="1619.5001,-350.4132 1616,-340.4133 1612.5001,-350.4133 1619.5001,-350.4132"/>
</g>
<!-- JMD AV: 41.9581,&#45;71.8635 -->
<g id="node36" class="node">
<title>JMD AV: 41.9581,&#45;71.8635</title>
<ellipse fill="none" stroke="#000000" cx="1960" cy="-178" rx="111.5806" ry="18"/>
<text text-anchor="middle" x="1960" y="-174.3" font-family="Times,serif" font-size="14.00" fill="#000000">JMD AV: 41.9581,&#45;71.8635</text>
</g>
<!-- Twin River Casino Hotel: 41.8882,&#45;71.4486 -->
<g id="node37" class="node">
<title>Twin River Casino Hotel: 41.8882,&#45;71.4486</title>
<ellipse fill="none" stroke="#000000" cx="1953" cy="-106" rx="167.8704" ry="18"/>
<text text-anchor="middle" x="1953" y="-102.3" font-family="Times,serif" font-size="14.00" fill="#000000">Twin River Casino Hotel: 41.8882,&#45;71.4486</text>
</g>
<!-- JMD AV: 41.9581,&#45;71.8635&#45;&gt;Twin River Casino Hotel: 41.8882,&#45;71.4486 -->
<g id="edge33" class="edge">
<title>JMD AV: 41.9581,&#45;71.8635&#45;&gt;Twin River Casino Hotel: 41.8882,&#45;71.4486</title>
<path fill="none" stroke="#deb887" d="M1958.2336,-159.8314C1957.485,-152.131 1956.5947,-142.9743 1955.7627,-134.4166"/>
<polygon fill="#deb887" stroke="#deb887" points="1959.2415,-134.0276 1954.7902,-124.4133 1952.2744,-134.7051 1959.2415,-134.0276"/>
</g>
<!-- Providence Place: 41.8277,&#45;71.4176 -->
<g id="node38" class="node">
<title>Providence Place: 41.8277,&#45;71.4176</title>
<ellipse fill="none" stroke="#000000" cx="2267" cy="-178" rx="139.9756" ry="18"/>
<text text-anchor="middle" x="2267" y="-174.3" font-family="Times,serif" font-size="14.00" fill="#000000">Providence Place: 41.8277,&#45;71.4176</text>
</g>
<!-- WaterFire Arts Center: 41.8287,&#45;71.4333 -->
<g id="node39" class="node">
<title>WaterFire Arts Center: 41.8287,&#45;71.4333</title>
<ellipse fill="none" stroke="#000000" cx="2297" cy="-106" rx="157.872" ry="18"/>
<text text-anchor="middle" x="2297" y="-102.3" font-family="Times,serif" font-size="14.00" fill="#000000">WaterFire Arts Center: 41.8287,&#45;71.4333</text>
</g>
<!-- Providence Place: 41.8277,&#45;71.4176&#45;&gt;WaterFire Arts Center: 41.8287,&#45;71.4333 -->
<g id="edge34" class="edge">
<title>Providence Place: 41.8277,&#45;71.4176&#45;&gt;WaterFire Arts Center: 41.8287,&#45;71.4333</title>
<path fill="none" stroke="#deb887" d="M2274.5703,-159.8314C2277.8493,-151.9617 2281.762,-142.5712 2285.3945,-133.8533"/>
<polygon fill="#deb887" stroke="#deb887" points="2288.7124,-134.9902 2289.3278,-124.4133 2282.2508,-132.2979 2288.7124,-134.9902"/>
</g>
<!-- CAV Installations: 41.865,&#45;71.4462 -->
<g id="node40" class="node">
<title>CAV Installations: 41.865,&#45;71.4462</title>
<ellipse fill="none" stroke="#000000" cx="1986" cy="-250" rx="137.5759" ry="18"/>
<text text-anchor="middle" x="1986" y="-246.3" font-family="Times,serif" font-size="14.00" fill="#000000">CAV Installations: 41.865,&#45;71.4462</text>
</g>
<!-- CAV Installations: 41.865,&#45;71.4462&#45;&gt;JMD AV: 41.9581,&#45;71.8635 -->
<g id="edge35" class="edge">
<title>CAV Installations: 41.865,&#45;71.4462&#45;&gt;JMD AV: 41.9581,&#45;71.8635</title>
<path fill="none" stroke="#a52a2a" d="M1979.4391,-231.8314C1976.5973,-223.9617 1973.2063,-214.5712 1970.0581,-205.8533"/>
<polygon fill="#a52a2a" stroke="#a52a2a" points="1973.3377,-204.63 1966.6492,-196.4133 1966.7538,-207.0076 1973.3377,-204.63"/>
</g>
<!-- CAV Installations: 41.865,&#45;71.4462&#45;&gt;Providence Place: 41.8277,&#45;71.4176 -->
<g id="edge36" class="edge">
<title>CAV Installations: 41.865,&#45;71.4462&#45;&gt;Providence Place: 41.8277,&#45;71.4176</title>
<path fill="none" stroke="#a52a2a" d="M2048.7121,-233.9314C2091.8109,-222.8883 2149.1695,-208.1914 2194.2739,-196.6344"/>
<polygon fill="#a52a2a" stroke="#a52a2a" points="2195.1759,-200.0165 2203.9942,-194.1438 2193.4383,-193.2355 2195.1759,-200.0165"/>
</g>
<!-- Christalight Auditorium and Event Hall: 42.051,&#45;71.4818 -->
<g id="node41" class="node">
<title>Christalight Auditorium and Event Hall: 42.051,&#45;71.4818</title>
<ellipse fill="none" stroke="#000000" cx="2003" cy="-322" rx="215.2619" ry="18"/>
<text text-anchor="middle" x="2003" y="-318.3" font-family="Times,serif" font-size="14.00" fill="#000000">Christalight Auditorium and Event Hall: 42.051,&#45;71.4818</text>
</g>
<!-- Christalight Auditorium and Event Hall: 42.051,&#45;71.4818&#45;&gt;CAV Installations: 41.865,&#45;71.4462 -->
<g id="edge37" class="edge">
<title>Christalight Auditorium and Event Hall: 42.051,&#45;71.4818&#45;&gt;CAV Installations: 41.865,&#45;71.4462</title>
<path fill="none" stroke="#8a2be2" d="M1998.7102,-303.8314C1996.892,-296.131 1994.7301,-286.9743 1992.7095,-278.4166"/>
<polygon fill="#8a2be2" stroke="#8a2be2" points="1996.0519,-277.3414 1990.3476,-268.4133 1989.2392,-278.95 1996.0519,-277.3414"/>
</g>
<!-- Providence Ghost Tour: 41.83,&#45;71.4074 -->
<g id="node42" class="node">
<title>Providence Ghost Tour: 41.83,&#45;71.4074</title>
<ellipse fill="none" stroke="#000000" cx="2388" cy="-322" rx="152.1731" ry="18"/>
<text text-anchor="middle" x="2388" y="-318.3" font-family="Times,serif" font-size="14.00" fill="#000000">Providence Ghost Tour: 41.83,&#45;71.4074</text>
</g>
<!-- Dave &amp; Buster&#39;s: 41.8279,&#45;71.4165 -->
<g id="node43" class="node">
<title>Dave &amp; Buster&#39;s: 41.8279,&#45;71.4165</title>
<ellipse fill="none" stroke="#000000" cx="2279" cy="-250" rx="137.2758" ry="18"/>
<text text-anchor="middle" x="2279" y="-246.3" font-family="Times,serif" font-size="14.00" fill="#000000">Dave &amp; Buster&#39;s: 41.8279,&#45;71.4165</text>
</g>
<!-- Providence Ghost Tour: 41.83,&#45;71.4074&#45;&gt;Dave &amp; Buster&#39;s: 41.8279,&#45;71.4165 -->
<g id="edge38" class="edge">
<title>Providence Ghost Tour: 41.83,&#45;71.4074&#45;&gt;Dave &amp; Buster&#39;s: 41.8279,&#45;71.4165</title>
<path fill="none" stroke="#8a2be2" d="M2361.0562,-304.2022C2347.038,-294.9425 2329.719,-283.5025 2314.6103,-273.5224"/>
<polygon fill="#8a2be2" stroke="#8a2be2" points="2316.2847,-270.4338 2306.0116,-267.8425 2312.4265,-276.2746 2316.2847,-270.4338"/>
</g>
<!-- Wage House: 41.8722,&#45;71.406 -->
<g id="node44" class="node">
<title>Wage House: 41.8722,&#45;71.406</title>
<ellipse fill="none" stroke="#000000" cx="2554" cy="-250" rx="120.4791" ry="18"/>
<text text-anchor="middle" x="2554" y="-246.3" font-family="Times,serif" font-size="14.00" fill="#000000">Wage House: 41.8722,&#45;71.406</text>
</g>
<!-- Providence Ghost Tour: 41.83,&#45;71.4074&#45;&gt;Wage House: 41.8722,&#45;71.406 -->
<g id="edge39" class="edge">
<title>Providence Ghost Tour: 41.83,&#45;71.4074&#45;&gt;Wage House: 41.8722,&#45;71.406</title>
<path fill="none" stroke="#8a2be2" d="M2428.184,-304.5708C2451.3942,-294.5037 2480.7558,-281.7686 2505.2759,-271.1333"/>
<polygon fill="#8a2be2" stroke="#8a2be2" points="2506.9774,-274.2104 2514.7589,-267.0202 2504.1919,-267.7885 2506.9774,-274.2104"/>
</g>
<!-- Veterans Memorial Auditorium: 41.8298,&#45;71.4171 -->
<g id="node45" class="node">
<title>Veterans Memorial Auditorium: 41.8298,&#45;71.4171</title>
<ellipse fill="none" stroke="#000000" cx="2003" cy="-394" rx="191.9663" ry="18"/>
<text text-anchor="middle" x="2003" y="-390.3" font-family="Times,serif" font-size="14.00" fill="#000000">Veterans Memorial Auditorium: 41.8298,&#45;71.4171</text>
</g>
<!-- Veterans Memorial Auditorium: 41.8298,&#45;71.4171&#45;&gt;Christalight Auditorium and Event Hall: 42.051,&#45;71.4818 -->
<g id="edge40" class="edge">
<title>Veterans Memorial Auditorium: 41.8298,&#45;71.4171&#45;&gt;Christalight Auditorium and Event Hall: 42.051,&#45;71.4818</title>
<path fill="none" stroke="#0000ff" d="M2003,-375.8314C2003,-368.131 2003,-358.9743 2003,-350.4166"/>
<polygon fill="#0000ff" stroke="#0000ff" points="2006.5001,-350.4132 2003,-340.4133 1999.5001,-350.4133 2006.5001,-350.4132"/>
</g>
<!-- Veterans Memorial Auditorium: 41.8298,&#45;71.4171&#45;&gt;Providence Ghost Tour: 41.83,&#45;71.4074 -->
<g id="edge41" class="edge">
<title>Veterans Memorial Auditorium: 41.8298,&#45;71.4171&#45;&gt;Providence Ghost Tour: 41.83,&#45;71.4074</title>
<path fill="none" stroke="#0000ff" d="M2089.4015,-377.8418C2151.0612,-366.3106 2233.8412,-350.8297 2296.6021,-339.0926"/>
<polygon fill="#0000ff" stroke="#0000ff" points="2297.3105,-342.5209 2306.4967,-337.2422 2296.0237,-335.6402 2297.3105,-342.5209"/>
</g>
<!-- Providence Place Cinemas 16 and IMAX: 41.8269,&#45;71.417 -->
<g id="node46" class="node">
<title>Providence Place Cinemas 16 and IMAX: 41.8269,&#45;71.417</title>
<ellipse fill="none" stroke="#000000" cx="1809" cy="-466" rx="221.7607" ry="18"/>
<text text-anchor="middle" x="1809" y="-462.3" font-family="Times,serif" font-size="14.00" fill="#000000">Providence Place Cinemas 16 and IMAX: 41.8269,&#45;71.417</text>
</g>
<!-- Providence Place Cinemas 16 and IMAX: 41.8269,&#45;71.417&#45;&gt;The Strand: 41.8236,&#45;71.4143 -->
<g id="edge42" class="edge">
<title>Providence Place Cinemas 16 and IMAX: 41.8269,&#45;71.417&#45;&gt;The Strand: 41.8236,&#45;71.4143</title>
<path fill="none" stroke="#000000" d="M1761.7869,-448.3868C1734.1145,-438.0634 1699.0505,-424.9826 1670.2456,-414.2367"/>
<polygon fill="#000000" stroke="#000000" points="1671.3292,-410.9054 1660.7366,-410.6893 1668.8825,-417.4639 1671.3292,-410.9054"/>
</g>
<!-- Providence Place Cinemas 16 and IMAX: 41.8269,&#45;71.417&#45;&gt;Veterans Memorial Auditorium: 41.8298,&#45;71.4171 -->
<g id="edge43" class="edge">
<title>Providence Place Cinemas 16 and IMAX: 41.8269,&#45;71.417&#45;&gt;Veterans Memorial Auditorium: 41.8298,&#45;71.4171</title>
<path fill="none" stroke="#000000" d="M1856.4577,-448.3868C1883.5681,-438.3252 1917.7361,-425.6443 1946.2584,-415.0587"/>
<polygon fill="#000000" stroke="#000000" points="1947.5391,-418.3168 1955.6964,-411.556 1945.1034,-411.7542 1947.5391,-418.3168"/>
</g>
<!-- Simply Sight &amp; Sound: 41.8391,&#45;71.3902 -->
<g id="node47" class="node">
<title>Simply Sight &amp; Sound: 41.8391,&#45;71.3902</title>
<ellipse fill="none" stroke="#000000" cx="2642" cy="-394" rx="159.7717" ry="18"/>
<text text-anchor="middle" x="2642" y="-390.3" font-family="Times,serif" font-size="14.00" fill="#000000">Simply Sight &amp; Sound: 41.8391,&#45;71.3902</text>
</g>
<!-- Avolutions: 41.8298,&#45;71.3252 -->
<g id="node48" class="node">
<title>Avolutions: 41.8298,&#45;71.3252</title>
<ellipse fill="none" stroke="#000000" cx="2676" cy="-322" rx="117.7793" ry="18"/>
<text text-anchor="middle" x="2676" y="-318.3" font-family="Times,serif" font-size="14.00" fill="#000000">Avolutions: 41.8298,&#45;71.3252</text>
</g>
<!-- Simply Sight &amp; Sound: 41.8391,&#45;71.3902&#45;&gt;Avolutions: 41.8298,&#45;71.3252 -->
<g id="edge44" class="edge">
<title>Simply Sight &amp; Sound: 41.8391,&#45;71.3902&#45;&gt;Avolutions: 41.8298,&#45;71.3252</title>
<path fill="none" stroke="#0000ff" d="M2650.5796,-375.8314C2654.3358,-367.8771 2658.8257,-358.369 2662.9798,-349.5723"/>
<polygon fill="#0000ff" stroke="#0000ff" points="2666.1996,-350.9503 2667.3048,-340.4133 2659.8699,-347.9612 2666.1996,-350.9503"/>
</g>
<!-- Davey The Clown: 42.2832,&#45;71.127 -->
<g id="node49" class="node">
<title>Davey The Clown: 42.2832,&#45;71.127</title>
<ellipse fill="none" stroke="#000000" cx="2951" cy="-322" rx="139.1754" ry="18"/>
<text text-anchor="middle" x="2951" y="-318.3" font-family="Times,serif" font-size="14.00" fill="#000000">Davey The Clown: 42.2832,&#45;71.127</text>
</g>
<!-- Burbage Theatre Company: 41.8819,&#45;71.3805 -->
<g id="node50" class="node">
<title>Burbage Theatre Company: 41.8819,&#45;71.3805</title>
<ellipse fill="none" stroke="#000000" cx="2867" cy="-250" rx="174.6691" ry="18"/>
<text text-anchor="middle" x="2867" y="-246.3" font-family="Times,serif" font-size="14.00" fill="#000000">Burbage Theatre Company: 41.8819,&#45;71.3805</text>
</g>
<!-- Davey The Clown: 42.2832,&#45;71.127&#45;&gt;Burbage Theatre Company: 41.8819,&#45;71.3805 -->
<g id="edge45" class="edge">
<title>Davey The Clown: 42.2832,&#45;71.127&#45;&gt;Burbage Theatre Company: 41.8819,&#45;71.3805</title>
<path fill="none" stroke="#8a2be2" d="M2929.8033,-303.8314C2919.4783,-294.9814 2906.9094,-284.2081 2895.7361,-274.631"/>
<polygon fill="#8a2be2" stroke="#8a2be2" points="2897.7694,-271.764 2887.899,-267.9134 2893.2138,-277.0788 2897.7694,-271.764"/>
</g>
<!-- Running Solutions: 42.1155,&#45;70.8301 -->
<g id="node51" class="node">
<title>Running Solutions: 42.1155,&#45;70.8301</title>
<ellipse fill="none" stroke="#000000" cx="3252" cy="-322" rx="144.0747" ry="18"/>
<text text-anchor="middle" x="3252" y="-318.3" font-family="Times,serif" font-size="14.00" fill="#000000">Running Solutions: 42.1155,&#45;70.8301</text>
</g>
<!-- Kauffman Audio &amp; Video: 42.559,&#45;70.8859 -->
<g id="node52" class="node">
<title>Kauffman Audio &amp; Video: 42.559,&#45;70.8859</title>
<ellipse fill="none" stroke="#000000" cx="3228" cy="-250" rx="168.1703" ry="18"/>
<text text-anchor="middle" x="3228" y="-246.3" font-family="Times,serif" font-size="14.00" fill="#000000">Kauffman Audio &amp; Video: 42.559,&#45;70.8859</text>
</g>
<!-- Running Solutions: 42.1155,&#45;70.8301&#45;&gt;Kauffman Audio &amp; Video: 42.559,&#45;70.8859 -->
<g id="edge46" class="edge">
<title>Running Solutions: 42.1155,&#45;70.8301&#45;&gt;Kauffman Audio &amp; Video: 42.559,&#45;70.8859</title>
<path fill="none" stroke="#8a2be2" d="M3245.9438,-303.8314C3243.3488,-296.0463 3240.2576,-286.7729 3237.3782,-278.1347"/>
<polygon fill="#8a2be2" stroke="#8a2be2" points="3240.6205,-276.7933 3234.1378,-268.4133 3233.9797,-279.0069 3240.6205,-276.7933"/>
</g>
<!-- Home Theaters By Sean: 41.9608,&#45;71.0413 -->
<g id="node53" class="node">
<title>Home Theaters By Sean: 41.9608,&#45;71.0413</title>
<ellipse fill="none" stroke="#000000" cx="2985" cy="-394" rx="165.1707" ry="18"/>
<text text-anchor="middle" x="2985" y="-390.3" font-family="Times,serif" font-size="14.00" fill="#000000">Home Theaters By Sean: 41.9608,&#45;71.0413</text>
</g>
<!-- Home Theaters By Sean: 41.9608,&#45;71.0413&#45;&gt;Davey The Clown: 42.2832,&#45;71.127 -->
<g id="edge47" class="edge">
<title>Home Theaters By Sean: 41.9608,&#45;71.0413&#45;&gt;Davey The Clown: 42.2832,&#45;71.127</title>
<path fill="none" stroke="#0000ff" d="M2976.4204,-375.8314C2972.6642,-367.8771 2968.1743,-358.369 2964.0202,-349.5723"/>
<polygon fill="#0000ff" stroke="#0000ff" points="2967.1301,-347.9612 2959.6952,-340.4133 2960.8004,-350.9503 2967.1301,-347.9612"/>
</g>
<!-- Home Theaters By Sean: 41.9608,&#45;71.0413&#45;&gt;Running Solutions: 42.1155,&#45;70.8301 -->
<g id="edge48" class="edge">
<title>Home Theaters By Sean: 41.9608,&#45;71.0413&#45;&gt;Running Solutions: 42.1155,&#45;70.8301</title>
<path fill="none" stroke="#0000ff" d="M3046.9263,-377.3008C3087.1446,-366.4554 3139.6674,-352.2919 3181.4897,-341.014"/>
<polygon fill="#0000ff" stroke="#0000ff" points="3182.5863,-344.3434 3191.3301,-338.3604 3180.7637,-337.5848 3182.5863,-344.3434"/>
</g>
<!-- Festival Ballet Providence: 41.8494,&#45;71.3944 -->
<g id="node54" class="node">
<title>Festival Ballet Providence: 41.8494,&#45;71.3944</title>
<ellipse fill="none" stroke="#000000" cx="2642" cy="-466" rx="171.6696" ry="18"/>
<text text-anchor="middle" x="2642" y="-462.3" font-family="Times,serif" font-size="14.00" fill="#000000">Festival Ballet Providence: 41.8494,&#45;71.3944</text>
</g>
<!-- Festival Ballet Providence: 41.8494,&#45;71.3944&#45;&gt;Simply Sight &amp; Sound: 41.8391,&#45;71.3902 -->
<g id="edge49" class="edge">
<title>Festival Ballet Providence: 41.8494,&#45;71.3944&#45;&gt;Simply Sight &amp; Sound: 41.8391,&#45;71.3902</title>
<path fill="none" stroke="#000000" d="M2642,-447.8314C2642,-440.131 2642,-430.9743 2642,-422.4166"/>
<polygon fill="#000000" stroke="#000000" points="2645.5001,-422.4132 2642,-412.4133 2638.5001,-422.4133 2645.5001,-422.4132"/>
</g>
<!-- Festival Ballet Providence: 41.8494,&#45;71.3944&#45;&gt;Home Theaters By Sean: 41.9608,&#45;71.0413 -->
<g id="edge50" class="edge">
<title>Festival Ballet Providence: 41.8494,&#45;71.3944&#45;&gt;Home Theaters By Sean: 41.9608,&#45;71.0413</title>
<path fill="none" stroke="#000000" d="M2718.9759,-449.8418C2772.3413,-438.6397 2843.4643,-423.7101 2898.7427,-412.1065"/>
<polygon fill="#000000" stroke="#000000" points="2899.8045,-415.46 2908.8722,-409.9802 2898.3664,-408.6093 2899.8045,-415.46"/>
</g>
<!-- Avon Cinema: 41.8289,&#45;71.401 -->
<g id="node55" class="node">
<title>Avon Cinema: 41.8289,&#45;71.401</title>
<ellipse fill="none" stroke="#000000" cx="1809" cy="-538" rx="124.2781" ry="18"/>
<text text-anchor="middle" x="1809" y="-534.3" font-family="Times,serif" font-size="14.00" fill="#000000">Avon Cinema: 41.8289,&#45;71.401</text>
</g>
<!-- Avon Cinema: 41.8289,&#45;71.401&#45;&gt;Providence Place Cinemas 16 and IMAX: 41.8269,&#45;71.417 -->
<g id="edge51" class="edge">
<title>Avon Cinema: 41.8289,&#45;71.401&#45;&gt;Providence Place Cinemas 16 and IMAX: 41.8269,&#45;71.417</title>
<path fill="none" stroke="#ffe4c4" d="M1809,-519.8314C1809,-512.131 1809,-502.9743 1809,-494.4166"/>
<polygon fill="#ffe4c4" stroke="#ffe4c4" points="1812.5001,-494.4132 1809,-484.4133 1805.5001,-494.4133 1812.5001,-494.4132"/>
</g>
<!-- Avon Cinema: 41.8289,&#45;71.401&#45;&gt;Festival Ballet Providence: 41.8494,&#45;71.3944 -->
<g id="edge52" class="edge">
<title>Avon Cinema: 41.8289,&#45;71.401&#45;&gt;Festival Ballet Providence: 41.8494,&#45;71.3944</title>
<path fill="none" stroke="#ffe4c4" d="M1915.7702,-528.7714C2064.2305,-515.9393 2333.3917,-492.6744 2499.0461,-478.3562"/>
<polygon fill="#ffe4c4" stroke="#ffe4c4" points="2499.6515,-481.817 2509.3129,-477.4688 2499.0486,-474.843 2499.6515,-481.817"/>
</g>
<!-- Trinity Rep: 41.8222,&#45;71.4164 -->
<g id="node56" class="node">
<title>Trinity Rep: 41.8222,&#45;71.4164</title>
<ellipse fill="none" stroke="#000000" cx="1436" cy="-610" rx="119.6788" ry="18"/>
<text text-anchor="middle" x="1436" y="-606.3" font-family="Times,serif" font-size="14.00" fill="#000000">Trinity Rep: 41.8222,&#45;71.4164</text>
</g>
<!-- Trinity Rep: 41.8222,&#45;71.4164&#45;&gt;Columbus Theatre: 41.8203,&#45;71.4265 -->
<g id="edge53" class="edge">
<title>Trinity Rep: 41.8222,&#45;71.4164&#45;&gt;Columbus Theatre: 41.8203,&#45;71.4265</title>
<path fill="none" stroke="#7fffd4" d="M1362.3072,-595.7751C1301.7474,-584.0853 1215.7681,-567.4887 1151.4883,-555.0808"/>
<polygon fill="#7fffd4" stroke="#7fffd4" points="1151.8474,-551.5856 1141.3653,-553.1268 1150.5207,-558.4588 1151.8474,-551.5856"/>
</g>
<!-- Trinity Rep: 41.8222,&#45;71.4164&#45;&gt;Avon Cinema: 41.8289,&#45;71.401 -->
<g id="edge54" class="edge">
<title>Trinity Rep: 41.8222,&#45;71.4164&#45;&gt;Avon Cinema: 41.8289,&#45;71.401</title>
<path fill="none" stroke="#7fffd4" d="M1509.6928,-595.7751C1571.3611,-583.8713 1659.3877,-566.8796 1724.0191,-554.4038"/>
<polygon fill="#7fffd4" stroke="#7fffd4" points="1725.0282,-557.7737 1734.1836,-552.4418 1723.7014,-550.9006 1725.0282,-557.7737"/>
</g>
</g>
</svg>
