<?xml version="1.0" encoding="UTF-8" standalone="no"?>
<!DOCTYPE svg PUBLIC "-//W3C//DTD SVG 1.1//EN"
 "http://www.w3.org/Graphics/SVG/1.1/DTD/svg11.dtd">
<!-- Generated by graphviz version 2.40.1 (20161225.0304)
 -->
<!-- Title: G Pages: 1 -->
<svg width="1566pt" height="508pt"
 viewBox="0.00 0.00 1566.00 508.00" xmlns="http://www.w3.org/2000/svg" xmlns:xlink="http://www.w3.org/1999/xlink">
<g id="graph0" class="graph" transform="scale(1 1) rotate(0) translate(4 504)">
<title>G</title>
<polygon fill="#ffffff" stroke="transparent" points="-4,4 -4,-504 1562,-504 1562,4 -4,4"/>
<g id="clust1" class="cluster">
<title>cluster_0</title>
<polygon fill="none" stroke="#000000" points="8,-8 8,-492 92,-492 92,-8 8,-8"/>
</g>
<g id="clust2" class="cluster">
<title>cluster_1</title>
<polygon fill="none" stroke="#000000" points="100,-8 100,-492 1550,-492 1550,-8 100,-8"/>
</g>
<!-- root: x -->
<g id="node1" class="node">
<title>root: x</title>
<ellipse fill="none" stroke="#000000" cx="50" cy="-466" rx="34.394" ry="18"/>
<text text-anchor="middle" x="50" y="-462.3" font-family="Times,serif" font-size="14.00" fill="#000000">root: x</text>
</g>
<!-- 1:y -->
<g id="node2" class="node">
<title>1:y</title>
<ellipse fill="none" stroke="#000000" cx="50" cy="-394" rx="27" ry="18"/>
<text text-anchor="middle" x="50" y="-390.3" font-family="Times,serif" font-size="14.00" fill="#000000">1:y</text>
</g>
<!-- root: x&#45;&gt;1:y -->
<g id="edge1" class="edge">
<title>root: x&#45;&gt;1:y</title>
<path fill="none" stroke="#000000" d="M50,-447.8314C50,-440.131 50,-430.9743 50,-422.4166"/>
<polygon fill="#000000" stroke="#000000" points="53.5001,-422.4132 50,-412.4133 46.5001,-422.4133 53.5001,-422.4132"/>
</g>
<!-- 2:x -->
<g id="node3" class="node">
<title>2:x</title>
<ellipse fill="none" stroke="#000000" cx="50" cy="-322" rx="27" ry="18"/>
<text text-anchor="middle" x="50" y="-318.3" font-family="Times,serif" font-size="14.00" fill="#000000">2:x</text>
</g>
<!-- 1:y&#45;&gt;2:x -->
<g id="edge2" class="edge">
<title>1:y&#45;&gt;2:x</title>
<path fill="none" stroke="#000000" d="M50,-375.8314C50,-368.131 50,-358.9743 50,-350.4166"/>
<polygon fill="#000000" stroke="#000000" points="53.5001,-350.4132 50,-340.4133 46.5001,-350.4133 53.5001,-350.4132"/>
</g>
<!-- 3:y -->
<g id="node4" class="node">
<title>3:y</title>
<ellipse fill="none" stroke="#000000" cx="50" cy="-250" rx="27" ry="18"/>
<text text-anchor="middle" x="50" y="-246.3" font-family="Times,serif" font-size="14.00" fill="#000000">3:y</text>
</g>
<!-- 2:x&#45;&gt;3:y -->
<g id="edge3" class="edge">
<title>2:x&#45;&gt;3:y</title>
<path fill="none" stroke="#000000" d="M50,-303.8314C50,-296.131 50,-286.9743 50,-278.4166"/>
<polygon fill="#000000" stroke="#000000" points="53.5001,-278.4132 50,-268.4133 46.5001,-278.4133 53.5001,-278.4132"/>
</g>
<!-- 4:x -->
<g id="node5" class="node">
<title>4:x</title>
<ellipse fill="none" stroke="#000000" cx="50" cy="-178" rx="27" ry="18"/>
<text text-anchor="middle" x="50" y="-174.3" font-family="Times,serif" font-size="14.00" fill="#000000">4:x</text>
</g>
<!-- 3:y&#45;&gt;4:x -->
<g id="edge4" class="edge">
<title>3:y&#45;&gt;4:x</title>
<path fill="none" stroke="#000000" d="M50,-231.8314C50,-224.131 50,-214.9743 50,-206.4166"/>
<polygon fill="#000000" stroke="#000000" points="53.5001,-206.4132 50,-196.4133 46.5001,-206.4133 53.5001,-206.4132"/>
</g>
<!-- 5:y -->
<g id="node6" class="node">
<title>5:y</title>
<ellipse fill="none" stroke="#000000" cx="50" cy="-106" rx="27" ry="18"/>
<text text-anchor="middle" x="50" y="-102.3" font-family="Times,serif" font-size="14.00" fill="#000000">5:y</text>
</g>
<!-- 4:x&#45;&gt;5:y -->
<g id="edge5" class="edge">
<title>4:x&#45;&gt;5:y</title>
<path fill="none" stroke="#000000" d="M50,-159.8314C50,-152.131 50,-142.9743 50,-134.4166"/>
<polygon fill="#000000" stroke="#000000" points="53.5001,-134.4132 50,-124.4133 46.5001,-134.4133 53.5001,-134.4132"/>
</g>
<!-- 6:x -->
<g id="node7" class="node">
<title>6:x</title>
<ellipse fill="none" stroke="#000000" cx="50" cy="-34" rx="27" ry="18"/>
<text text-anchor="middle" x="50" y="-30.3" font-family="Times,serif" font-size="14.00" fill="#000000">6:x</text>
</g>
<!-- 5:y&#45;&gt;6:x -->
<g id="edge6" class="edge">
<title>5:y&#45;&gt;6:x</title>
<path fill="none" stroke="#000000" d="M50,-87.8314C50,-80.131 50,-70.9743 50,-62.4166"/>
<polygon fill="#000000" stroke="#000000" points="53.5001,-62.4132 50,-52.4133 46.5001,-62.4133 53.5001,-62.4132"/>
</g>
<!-- Heritage Liquors: 41.7845,&#45;71.4374 -->
<g id="node8" class="node">
<title>Heritage Liquors: 41.7845,&#45;71.4374</title>
<ellipse fill="none" stroke="#000000" cx="246" cy="-250" rx="138.3755" ry="18"/>
<text text-anchor="middle" x="246" y="-246.3" font-family="Times,serif" font-size="14.00" fill="#000000">Heritage Liquors: 41.7845,&#45;71.4374</text>
</g>
<!-- Wines &amp; More: 41.7555,&#45;71.4553 -->
<g id="node9" class="node">
<title>Wines &amp; More: 41.7555,&#45;71.4553</title>
<ellipse fill="none" stroke="#000000" cx="241" cy="-178" rx="133.4768" ry="18"/>
<text text-anchor="middle" x="241" y="-174.3" font-family="Times,serif" font-size="14.00" fill="#000000">Wines &amp; More: 41.7555,&#45;71.4553</text>
</g>
<!-- Heritage Liquors: 41.7845,&#45;71.4374&#45;&gt;Wines &amp; More: 41.7555,&#45;71.4553 -->
<g id="edge7" class="edge">
<title>Heritage Liquors: 41.7845,&#45;71.4374&#45;&gt;Wines &amp; More: 41.7555,&#45;71.4553</title>
<path fill="none" stroke="#0000ff" d="M244.7383,-231.8314C244.2035,-224.131 243.5677,-214.9743 242.9734,-206.4166"/>
<polygon fill="#0000ff" stroke="#0000ff" points="246.4632,-206.1467 242.2787,-196.4133 239.48,-206.6317 246.4632,-206.1467"/>
</g>
<!-- Tropical Liquors: 41.8127,&#45;71.4291 -->
<g id="node10" class="node">
<title>Tropical Liquors: 41.8127,&#45;71.4291</title>
<ellipse fill="none" stroke="#000000" cx="332" cy="-322" rx="137.5759" ry="18"/>
<text text-anchor="middle" x="332" y="-318.3" font-family="Times,serif" font-size="14.00" fill="#000000">Tropical Liquors: 41.8127,&#45;71.4291</text>
</g>
<!-- Tropical Liquors: 41.8127,&#45;71.4291&#45;&gt;Heritage Liquors: 41.7845,&#45;71.4374 -->
<g id="edge8" class="edge">
<title>Tropical Liquors: 41.8127,&#45;71.4291&#45;&gt;Heritage Liquors: 41.7845,&#45;71.4374</title>
<path fill="none" stroke="#000000" d="M310.7416,-304.2022C299.9914,-295.2021 286.781,-284.1423 275.1029,-274.3652"/>
<polygon fill="#000000" stroke="#000000" points="277.2263,-271.5783 267.3119,-267.8425 272.7327,-276.9456 277.2263,-271.5783"/>
</g>
<!-- Broadway Liquor: 41.8199,&#45;71.4297 -->
<g id="node11" class="node">
<title>Broadway Liquor: 41.8199,&#45;71.4297</title>
<ellipse fill="none" stroke="#000000" cx="543" cy="-250" rx="141.075" ry="18"/>
<text text-anchor="middle" x="543" y="-246.3" font-family="Times,serif" font-size="14.00" fill="#000000">Broadway Liquor: 41.8199,&#45;71.4297</text>
</g>
<!-- Tropical Liquors: 41.8127,&#45;71.4291&#45;&gt;Broadway Liquor: 41.8199,&#45;71.4297 -->
<g id="edge9" class="edge">
<title>Tropical Liquors: 41.8127,&#45;71.4291&#45;&gt;Broadway Liquor: 41.8199,&#45;71.4297</title>
<path fill="none" stroke="#000000" d="M381.4701,-305.1192C412.0475,-294.6852 451.4711,-281.2326 483.7159,-270.2296"/>
<polygon fill="#000000" stroke="#000000" points="485.1409,-273.4416 493.4747,-266.8996 482.8802,-266.8167 485.1409,-273.4416"/>
</g>
<!-- Fernandez Square Liquors: 41.8138,&#45;71.4213 -->
<g id="node12" class="node">
<title>Fernandez Square Liquors: 41.8138,&#45;71.4213</title>
<ellipse fill="none" stroke="#000000" cx="557" cy="-394" rx="171.6696" ry="18"/>
<text text-anchor="middle" x="557" y="-390.3" font-family="Times,serif" font-size="14.00" fill="#000000">Fernandez Square Liquors: 41.8138,&#45;71.4213</text>
</g>
<!-- Fernandez Square Liquors: 41.8138,&#45;71.4213&#45;&gt;Tropical Liquors: 41.8127,&#45;71.4291 -->
<g id="edge10" class="edge">
<title>Fernandez Square Liquors: 41.8138,&#45;71.4213&#45;&gt;Tropical Liquors: 41.8127,&#45;71.4291</title>
<path fill="none" stroke="#ffe4c4" d="M503.3928,-376.8457C470.6228,-366.3593 428.5683,-352.9018 394.3184,-341.9419"/>
<polygon fill="#ffe4c4" stroke="#ffe4c4" points="395.0113,-338.4888 384.4203,-338.7745 392.8778,-345.1558 395.0113,-338.4888"/>
</g>
<!-- Tiny Bar: 41.8168,&#45;71.4075 -->
<g id="node13" class="node">
<title>Tiny Bar: 41.8168,&#45;71.4075</title>
<ellipse fill="none" stroke="#000000" cx="598" cy="-322" rx="110.4804" ry="18"/>
<text text-anchor="middle" x="598" y="-318.3" font-family="Times,serif" font-size="14.00" fill="#000000">Tiny Bar: 41.8168,&#45;71.4075</text>
</g>
<!-- Fernandez Square Liquors: 41.8138,&#45;71.4213&#45;&gt;Tiny Bar: 41.8168,&#45;71.4075 -->
<g id="edge11" class="edge">
<title>Fernandez Square Liquors: 41.8138,&#45;71.4213&#45;&gt;Tiny Bar: 41.8168,&#45;71.4075</title>
<path fill="none" stroke="#ffe4c4" d="M567.346,-375.8314C571.9237,-367.7925 577.4052,-358.1666 582.4588,-349.2918"/>
<polygon fill="#ffe4c4" stroke="#ffe4c4" points="585.6077,-350.8351 587.5147,-340.4133 579.5248,-347.3712 585.6077,-350.8351"/>
</g>
<!-- ISCO Spirits: 41.8266,&#45;71.4337 -->
<g id="node14" class="node">
<title>ISCO Spirits: 41.8266,&#45;71.4337</title>
<ellipse fill="none" stroke="#000000" cx="370" cy="-106" rx="124.2781" ry="18"/>
<text text-anchor="middle" x="370" y="-102.3" font-family="Times,serif" font-size="14.00" fill="#000000">ISCO Spirits: 41.8266,&#45;71.4337</text>
</g>
<!-- B and C Liquors: 41.868,&#45;71.5052 -->
<g id="node15" class="node">
<title>B and C Liquors: 41.868,&#45;71.5052</title>
<ellipse fill="none" stroke="#000000" cx="370" cy="-34" rx="133.4768" ry="18"/>
<text text-anchor="middle" x="370" y="-30.3" font-family="Times,serif" font-size="14.00" fill="#000000">B and C Liquors: 41.868,&#45;71.5052</text>
</g>
<!-- ISCO Spirits: 41.8266,&#45;71.4337&#45;&gt;B and C Liquors: 41.868,&#45;71.5052 -->
<g id="edge12" class="edge">
<title>ISCO Spirits: 41.8266,&#45;71.4337&#45;&gt;B and C Liquors: 41.868,&#45;71.5052</title>
<path fill="none" stroke="#a52a2a" d="M370,-87.8314C370,-80.131 370,-70.9743 370,-62.4166"/>
<polygon fill="#a52a2a" stroke="#a52a2a" points="373.5001,-62.4132 370,-52.4133 366.5001,-62.4133 373.5001,-62.4132"/>
</g>
<!-- Eno Fine Wine: 41.8231,&#45;71.4126 -->
<g id="node16" class="node">
<title>Eno Fine Wine: 41.8231,&#45;71.4126</title>
<ellipse fill="none" stroke="#000000" cx="525" cy="-178" rx="132.6765" ry="18"/>
<text text-anchor="middle" x="525" y="-174.3" font-family="Times,serif" font-size="14.00" fill="#000000">Eno Fine Wine: 41.8231,&#45;71.4126</text>
</g>
<!-- Eno Fine Wine: 41.8231,&#45;71.4126&#45;&gt;ISCO Spirits: 41.8266,&#45;71.4337 -->
<g id="edge14" class="edge">
<title>Eno Fine Wine: 41.8231,&#45;71.4126&#45;&gt;ISCO Spirits: 41.8266,&#45;71.4337</title>
<path fill="none" stroke="#8a2be2" d="M487.4788,-160.5708C466.06,-150.6214 439.0309,-138.066 416.3003,-127.5072"/>
<polygon fill="#8a2be2" stroke="#8a2be2" points="417.7195,-124.3073 407.1756,-123.2687 414.7704,-130.6558 417.7195,-124.3073"/>
</g>
<!-- Trinity Brewhouse: 41.8224,&#45;71.4168 -->
<g id="node17" class="node">
<title>Trinity Brewhouse: 41.8224,&#45;71.4168</title>
<ellipse fill="none" stroke="#000000" cx="657" cy="-106" rx="144.8743" ry="18"/>
<text text-anchor="middle" x="657" y="-102.3" font-family="Times,serif" font-size="14.00" fill="#000000">Trinity Brewhouse: 41.8224,&#45;71.4168</text>
</g>
<!-- Eno Fine Wine: 41.8231,&#45;71.4126&#45;&gt;Trinity Brewhouse: 41.8224,&#45;71.4168 -->
<g id="edge13" class="edge">
<title>Eno Fine Wine: 41.8231,&#45;71.4126&#45;&gt;Trinity Brewhouse: 41.8224,&#45;71.4168</title>
<path fill="none" stroke="#8a2be2" d="M557.2908,-160.3868C574.8694,-150.7985 596.8091,-138.8314 615.6294,-128.5658"/>
<polygon fill="#8a2be2" stroke="#8a2be2" points="617.4821,-131.5421 624.585,-123.6809 614.1301,-125.3968 617.4821,-131.5421"/>
</g>
<!-- Nikki&#39;s Liquors: 41.8424,&#45;71.4085 -->
<g id="node18" class="node">
<title>Nikki&#39;s Liquors: 41.8424,&#45;71.4085</title>
<ellipse fill="none" stroke="#000000" cx="835" cy="-250" rx="133.4768" ry="18"/>
<text text-anchor="middle" x="835" y="-246.3" font-family="Times,serif" font-size="14.00" fill="#000000">Nikki&#39;s Liquors: 41.8424,&#45;71.4085</text>
</g>
<!-- Nikki&#39;s Liquors: 41.8424,&#45;71.4085&#45;&gt;Eno Fine Wine: 41.8231,&#45;71.4126 -->
<g id="edge15" class="edge">
<title>Nikki&#39;s Liquors: 41.8424,&#45;71.4085&#45;&gt;Eno Fine Wine: 41.8231,&#45;71.4126</title>
<path fill="none" stroke="#0000ff" d="M767.7346,-234.3771C718.9871,-223.0551 652.9765,-207.7236 602.0984,-195.9067"/>
<polygon fill="#0000ff" stroke="#0000ff" points="602.6667,-192.4456 592.1341,-193.5924 601.083,-199.2641 602.6667,-192.4456"/>
</g>
<!-- High Spirits Liquors: 41.8368,&#45;71.4082 -->
<g id="node19" class="node">
<title>High Spirits Liquors: 41.8368,&#45;71.4082</title>
<ellipse fill="none" stroke="#000000" cx="827" cy="-178" rx="151.3732" ry="18"/>
<text text-anchor="middle" x="827" y="-174.3" font-family="Times,serif" font-size="14.00" fill="#000000">High Spirits Liquors: 41.8368,&#45;71.4082</text>
</g>
<!-- Nikki&#39;s Liquors: 41.8424,&#45;71.4085&#45;&gt;High Spirits Liquors: 41.8368,&#45;71.4082 -->
<g id="edge16" class="edge">
<title>Nikki&#39;s Liquors: 41.8424,&#45;71.4085&#45;&gt;High Spirits Liquors: 41.8368,&#45;71.4082</title>
<path fill="none" stroke="#0000ff" d="M832.9813,-231.8314C832.1257,-224.131 831.1083,-214.9743 830.1574,-206.4166"/>
<polygon fill="#0000ff" stroke="#0000ff" points="833.6289,-205.9656 829.0459,-196.4133 826.6717,-206.7386 833.6289,-205.9656"/>
</g>
<!-- Bin 312: 41.822,&#45;71.4045 -->
<g id="node20" class="node">
<title>Bin 312: 41.822,&#45;71.4045</title>
<ellipse fill="none" stroke="#000000" cx="850" cy="-322" rx="102.8821" ry="18"/>
<text text-anchor="middle" x="850" y="-318.3" font-family="Times,serif" font-size="14.00" fill="#000000">Bin 312: 41.822,&#45;71.4045</text>
</g>
<!-- Bin 312: 41.822,&#45;71.4045&#45;&gt;Nikki&#39;s Liquors: 41.8424,&#45;71.4085 -->
<g id="edge17" class="edge">
<title>Bin 312: 41.822,&#45;71.4045&#45;&gt;Nikki&#39;s Liquors: 41.8424,&#45;71.4085</title>
<path fill="none" stroke="#000000" d="M846.2149,-303.8314C844.6106,-296.131 842.703,-286.9743 840.9201,-278.4166"/>
<polygon fill="#000000" stroke="#000000" points="844.3021,-277.4892 838.8361,-268.4133 837.4493,-278.9169 844.3021,-277.4892"/>
</g>
<!-- Eastside Mart: 41.8344,&#45;71.3905 -->
<g id="node21" class="node">
<title>Eastside Mart: 41.8344,&#45;71.3905</title>
<ellipse fill="none" stroke="#000000" cx="1124" cy="-178" rx="128.0773" ry="18"/>
<text text-anchor="middle" x="1124" y="-174.3" font-family="Times,serif" font-size="14.00" fill="#000000">Eastside Mart: 41.8344,&#45;71.3905</text>
</g>
<!-- Beverage Hill Liquor Store: 41.8606,&#45;71.3644 -->
<g id="node22" class="node">
<title>Beverage Hill Liquor Store: 41.8606,&#45;71.3644</title>
<ellipse fill="none" stroke="#000000" cx="1124" cy="-106" rx="174.6691" ry="18"/>
<text text-anchor="middle" x="1124" y="-102.3" font-family="Times,serif" font-size="14.00" fill="#000000">Beverage Hill Liquor Store: 41.8606,&#45;71.3644</text>
</g>
<!-- Eastside Mart: 41.8344,&#45;71.3905&#45;&gt;Beverage Hill Liquor Store: 41.8606,&#45;71.3644 -->
<g id="edge18" class="edge">
<title>Eastside Mart: 41.8344,&#45;71.3905&#45;&gt;Beverage Hill Liquor Store: 41.8606,&#45;71.3644</title>
<path fill="none" stroke="#8a2be2" d="M1124,-159.8314C1124,-152.131 1124,-142.9743 1124,-134.4166"/>
<polygon fill="#8a2be2" stroke="#8a2be2" points="1127.5001,-134.4132 1124,-124.4133 1120.5001,-134.4133 1127.5001,-134.4132"/>
</g>
<!-- East Side Wine and Spirits: 41.8439,&#45;71.3978 -->
<g id="node23" class="node">
<title>East Side Wine and Spirits: 41.8439,&#45;71.3978</title>
<ellipse fill="none" stroke="#000000" cx="1160" cy="-250" rx="174.3693" ry="18"/>
<text text-anchor="middle" x="1160" y="-246.3" font-family="Times,serif" font-size="14.00" fill="#000000">East Side Wine and Spirits: 41.8439,&#45;71.3978</text>
</g>
<!-- East Side Wine and Spirits: 41.8439,&#45;71.3978&#45;&gt;Eastside Mart: 41.8344,&#45;71.3905 -->
<g id="edge20" class="edge">
<title>East Side Wine and Spirits: 41.8439,&#45;71.3978&#45;&gt;Eastside Mart: 41.8344,&#45;71.3905</title>
<path fill="none" stroke="#0000ff" d="M1150.9157,-231.8314C1146.9385,-223.8771 1142.1845,-214.369 1137.7861,-205.5723"/>
<polygon fill="#0000ff" stroke="#0000ff" points="1140.8093,-203.7923 1133.2066,-196.4133 1134.5483,-206.9228 1140.8093,-203.7923"/>
</g>
<!-- Spiritus Fermenti: 41.8293,&#45;71.401 -->
<g id="node24" class="node">
<title>Spiritus Fermenti: 41.8293,&#45;71.401</title>
<ellipse fill="none" stroke="#000000" cx="1406" cy="-178" rx="135.6761" ry="18"/>
<text text-anchor="middle" x="1406" y="-174.3" font-family="Times,serif" font-size="14.00" fill="#000000">Spiritus Fermenti: 41.8293,&#45;71.401</text>
</g>
<!-- East Side Wine and Spirits: 41.8439,&#45;71.3978&#45;&gt;Spiritus Fermenti: 41.8293,&#45;71.401 -->
<g id="edge19" class="edge">
<title>East Side Wine and Spirits: 41.8439,&#45;71.3978&#45;&gt;Spiritus Fermenti: 41.8293,&#45;71.401</title>
<path fill="none" stroke="#0000ff" d="M1218.2986,-232.937C1254.8179,-222.2484 1301.9749,-208.4464 1339.8856,-197.3506"/>
<polygon fill="#0000ff" stroke="#0000ff" points="1341.199,-200.6131 1349.8132,-194.4449 1339.2327,-193.8949 1341.199,-200.6131"/>
</g>
<!-- Bottles Fine Wine: 41.8257,&#45;71.3868 -->
<g id="node25" class="node">
<title>Bottles Fine Wine: 41.8257,&#45;71.3868</title>
<ellipse fill="none" stroke="#000000" cx="1144" cy="-322" rx="143.7746" ry="18"/>
<text text-anchor="middle" x="1144" y="-318.3" font-family="Times,serif" font-size="14.00" fill="#000000">Bottles Fine Wine: 41.8257,&#45;71.3868</text>
</g>
<!-- Bottles Fine Wine: 41.8257,&#45;71.3868&#45;&gt;East Side Wine and Spirits: 41.8439,&#45;71.3978 -->
<g id="edge21" class="edge">
<title>Bottles Fine Wine: 41.8257,&#45;71.3868&#45;&gt;East Side Wine and Spirits: 41.8439,&#45;71.3978</title>
<path fill="none" stroke="#000000" d="M1148.0375,-303.8314C1149.7487,-296.131 1151.7835,-286.9743 1153.6852,-278.4166"/>
<polygon fill="#000000" stroke="#000000" points="1157.1554,-278.9344 1155.9082,-268.4133 1150.3221,-277.4159 1157.1554,-278.9344"/>
</g>
<!-- City Liquors: 41.8522,&#45;71.4013 -->
<g id="node26" class="node">
<title>City Liquors: 41.8522,&#45;71.4013</title>
<ellipse fill="none" stroke="#000000" cx="870" cy="-394" rx="123.4781" ry="18"/>
<text text-anchor="middle" x="870" y="-390.3" font-family="Times,serif" font-size="14.00" fill="#000000">City Liquors: 41.8522,&#45;71.4013</text>
</g>
<!-- City Liquors: 41.8522,&#45;71.4013&#45;&gt;Bin 312: 41.822,&#45;71.4045 -->
<g id="edge22" class="edge">
<title>City Liquors: 41.8522,&#45;71.4013&#45;&gt;Bin 312: 41.822,&#45;71.4045</title>
<path fill="none" stroke="#ffe4c4" d="M864.9532,-375.8314C862.7906,-368.0463 860.2147,-358.7729 857.8152,-350.1347"/>
<polygon fill="#ffe4c4" stroke="#ffe4c4" points="861.1636,-349.1117 855.1148,-340.4133 854.419,-350.9852 861.1636,-349.1117"/>
</g>
<!-- City Liquors: 41.8522,&#45;71.4013&#45;&gt;Bottles Fine Wine: 41.8257,&#45;71.3868 -->
<g id="edge23" class="edge">
<title>City Liquors: 41.8522,&#45;71.4013&#45;&gt;Bottles Fine Wine: 41.8257,&#45;71.3868</title>
<path fill="none" stroke="#ffe4c4" d="M930.1305,-378.1993C972.0168,-367.1927 1028.0771,-352.4615 1072.2935,-340.8426"/>
<polygon fill="#ffe4c4" stroke="#ffe4c4" points="1073.3292,-344.1893 1082.1113,-338.2627 1071.5501,-337.4192 1073.3292,-344.1893"/>
</g>
<!-- Campus Fine Wines: 41.8201,&#45;71.3982 -->
<g id="node27" class="node">
<title>Campus Fine Wines: 41.8201,&#45;71.3982</title>
<ellipse fill="none" stroke="#000000" cx="713" cy="-466" rx="151.3732" ry="18"/>
<text text-anchor="middle" x="713" y="-462.3" font-family="Times,serif" font-size="14.00" fill="#000000">Campus Fine Wines: 41.8201,&#45;71.3982</text>
</g>
<!-- Campus Fine Wines: 41.8201,&#45;71.3982&#45;&gt;Fernandez Square Liquors: 41.8138,&#45;71.4213 -->
<g id="edge24" class="edge">
<title>Campus Fine Wines: 41.8201,&#45;71.3982&#45;&gt;Fernandez Square Liquors: 41.8138,&#45;71.4213</title>
<path fill="none" stroke="#7fffd4" d="M674.8381,-448.3868C653.512,-438.544 626.7546,-426.1944 604.1294,-415.752"/>
<polygon fill="#7fffd4" stroke="#7fffd4" points="605.5843,-412.5688 595.038,-411.556 602.6508,-418.9245 605.5843,-412.5688"/>
</g>
<!-- Campus Fine Wines: 41.8201,&#45;71.3982&#45;&gt;City Liquors: 41.8522,&#45;71.4013 -->
<g id="edge25" class="edge">
<title>Campus Fine Wines: 41.8201,&#45;71.3982&#45;&gt;City Liquors: 41.8522,&#45;71.4013</title>
<path fill="none" stroke="#7fffd4" d="M751.0053,-448.5708C772.7005,-438.6214 800.0783,-426.066 823.1023,-415.5072"/>
<polygon fill="#7fffd4" stroke="#7fffd4" points="824.7139,-418.6187 832.3447,-411.2687 821.7959,-412.2559 824.7139,-418.6187"/>
</g>
</g>
</svg>
