<?xml version="1.0" encoding="UTF-8" standalone="no"?>
<!DOCTYPE svg PUBLIC "-//W3C//DTD SVG 1.1//EN"
 "http://www.w3.org/Graphics/SVG/1.1/DTD/svg11.dtd">
<!-- Generated by graphviz version 2.40.1 (20161225.0304)
 -->
<!-- Title: G Pages: 1 -->
<svg width="1528pt" height="508pt"
 viewBox="0.00 0.00 1528.00 508.00" xmlns="http://www.w3.org/2000/svg" xmlns:xlink="http://www.w3.org/1999/xlink">
<g id="graph0" class="graph" transform="scale(1 1) rotate(0) translate(4 504)">
<title>G</title>
<polygon fill="#ffffff" stroke="transparent" points="-4,4 -4,-504 1524,-504 1524,4 -4,4"/>
<g id="clust1" class="cluster">
<title>cluster_0</title>
<polygon fill="none" stroke="#000000" points="8,-8 8,-492 92,-492 92,-8 8,-8"/>
</g>
<g id="clust2" class="cluster">
<title>cluster_1</title>
<polygon fill="none" stroke="#000000" points="100,-8 100,-492 1512,-492 1512,-8 100,-8"/>
</g>
<!-- root: x -->
<g id="node1" class="node">
<title>root: x</title>
<ellipse fill="none" stroke="#000000" cx="50" cy="-466" rx="34.394" ry="18"/>
<text text-anchor="middle" x="50" y="-462.3" font-family="Times,serif" font-size="14.00" fill="#000000">root: x</text>
</g>
<!-- 1:y -->
<g id="node2" class="node">
<title>1:y</title>
<ellipse fill="none" stroke="#000000" cx="50" cy="-394" rx="27" ry="18"/>
<text text-anchor="middle" x="50" y="-390.3" font-family="Times,serif" font-size="14.00" fill="#000000">1:y</text>
</g>
<!-- root: x&#45;&gt;1:y -->
<g id="edge1" class="edge">
<title>root: x&#45;&gt;1:y</title>
<path fill="none" stroke="#000000" d="M50,-447.8314C50,-440.131 50,-430.9743 50,-422.4166"/>
<polygon fill="#000000" stroke="#000000" points="53.5001,-422.4132 50,-412.4133 46.5001,-422.4133 53.5001,-422.4132"/>
</g>
<!-- 2:x -->
<g id="node3" class="node">
<title>2:x</title>
<ellipse fill="none" stroke="#000000" cx="50" cy="-322" rx="27" ry="18"/>
<text text-anchor="middle" x="50" y="-318.3" font-family="Times,serif" font-size="14.00" fill="#000000">2:x</text>
</g>
<!-- 1:y&#45;&gt;2:x -->
<g id="edge2" class="edge">
<title>1:y&#45;&gt;2:x</title>
<path fill="none" stroke="#000000" d="M50,-375.8314C50,-368.131 50,-358.9743 50,-350.4166"/>
<polygon fill="#000000" stroke="#000000" points="53.5001,-350.4132 50,-340.4133 46.5001,-350.4133 53.5001,-350.4132"/>
</g>
<!-- 3:y -->
<g id="node4" class="node">
<title>3:y</title>
<ellipse fill="none" stroke="#000000" cx="50" cy="-250" rx="27" ry="18"/>
<text text-anchor="middle" x="50" y="-246.3" font-family="Times,serif" font-size="14.00" fill="#000000">3:y</text>
</g>
<!-- 2:x&#45;&gt;3:y -->
<g id="edge3" class="edge">
<title>2:x&#45;&gt;3:y</title>
<path fill="none" stroke="#000000" d="M50,-303.8314C50,-296.131 50,-286.9743 50,-278.4166"/>
<polygon fill="#000000" stroke="#000000" points="53.5001,-278.4132 50,-268.4133 46.5001,-278.4133 53.5001,-278.4132"/>
</g>
<!-- 4:x -->
<g id="node5" class="node">
<title>4:x</title>
<ellipse fill="none" stroke="#000000" cx="50" cy="-178" rx="27" ry="18"/>
<text text-anchor="middle" x="50" y="-174.3" font-family="Times,serif" font-size="14.00" fill="#000000">4:x</text>
</g>
<!-- 3:y&#45;&gt;4:x -->
<g id="edge4" class="edge">
<title>3:y&#45;&gt;4:x</title>
<path fill="none" stroke="#000000" d="M50,-231.8314C50,-224.131 50,-214.9743 50,-206.4166"/>
<polygon fill="#000000" stroke="#000000" points="53.5001,-206.4132 50,-196.4133 46.5001,-206.4133 53.5001,-206.4132"/>
</g>
<!-- 5:y -->
<g id="node6" class="node">
<title>5:y</title>
<ellipse fill="none" stroke="#000000" cx="50" cy="-106" rx="27" ry="18"/>
<text text-anchor="middle" x="50" y="-102.3" font-family="Times,serif" font-size="14.00" fill="#000000">5:y</text>
</g>
<!-- 4:x&#45;&gt;5:y -->
<g id="edge5" class="edge">
<title>4:x&#45;&gt;5:y</title>
<path fill="none" stroke="#000000" d="M50,-159.8314C50,-152.131 50,-142.9743 50,-134.4166"/>
<polygon fill="#000000" stroke="#000000" points="53.5001,-134.4132 50,-124.4133 46.5001,-134.4133 53.5001,-134.4132"/>
</g>
<!-- 6:x -->
<g id="node7" class="node">
<title>6:x</title>
<ellipse fill="none" stroke="#000000" cx="50" cy="-34" rx="27" ry="18"/>
<text text-anchor="middle" x="50" y="-30.3" font-family="Times,serif" font-size="14.00" fill="#000000">6:x</text>
</g>
<!-- 5:y&#45;&gt;6:x -->
<g id="edge6" class="edge">
<title>5:y&#45;&gt;6:x</title>
<path fill="none" stroke="#000000" d="M50,-87.8314C50,-80.131 50,-70.9743 50,-62.4166"/>
<polygon fill="#000000" stroke="#000000" points="53.5001,-62.4132 50,-52.4133 46.5001,-62.4133 53.5001,-62.4132"/>
</g>
<!-- Vinnie D Barber Salon: 41.8215,&#45;71.4228 -->
<g id="node8" class="node">
<title>Vinnie D Barber Salon: 41.8215,&#45;71.4228</title>
<ellipse fill="none" stroke="#000000" cx="268" cy="-106" rx="159.7717" ry="18"/>
<text text-anchor="middle" x="268" y="-102.3" font-family="Times,serif" font-size="14.00" fill="#000000">Vinnie D Barber Salon: 41.8215,&#45;71.4228</text>
</g>
<!-- Ariels Cuts: 41.7933,&#45;71.4234 -->
<g id="node9" class="node">
<title>Ariels Cuts: 41.7933,&#45;71.4234</title>
<ellipse fill="none" stroke="#000000" cx="268" cy="-34" rx="118.0794" ry="18"/>
<text text-anchor="middle" x="268" y="-30.3" font-family="Times,serif" font-size="14.00" fill="#000000">Ariels Cuts: 41.7933,&#45;71.4234</text>
</g>
<!-- Vinnie D Barber Salon: 41.8215,&#45;71.4228&#45;&gt;Ariels Cuts: 41.7933,&#45;71.4234 -->
<g id="edge7" class="edge">
<title>Vinnie D Barber Salon: 41.8215,&#45;71.4228&#45;&gt;Ariels Cuts: 41.7933,&#45;71.4234</title>
<path fill="none" stroke="#a52a2a" d="M268,-87.8314C268,-80.131 268,-70.9743 268,-62.4166"/>
<polygon fill="#a52a2a" stroke="#a52a2a" points="271.5001,-62.4132 268,-52.4133 264.5001,-62.4133 271.5001,-62.4132"/>
</g>
<!-- Details Barbershop: 41.7808,&#45;71.4391 -->
<g id="node10" class="node">
<title>Details Barbershop: 41.7808,&#45;71.4391</title>
<ellipse fill="none" stroke="#000000" cx="254" cy="-178" rx="146.4744" ry="18"/>
<text text-anchor="middle" x="254" y="-174.3" font-family="Times,serif" font-size="14.00" fill="#000000">Details Barbershop: 41.7808,&#45;71.4391</text>
</g>
<!-- Details Barbershop: 41.7808,&#45;71.4391&#45;&gt;Vinnie D Barber Salon: 41.8215,&#45;71.4228 -->
<g id="edge8" class="edge">
<title>Details Barbershop: 41.7808,&#45;71.4391&#45;&gt;Vinnie D Barber Salon: 41.8215,&#45;71.4228</title>
<path fill="none" stroke="#8a2be2" d="M257.5328,-159.8314C259.0301,-152.131 260.8105,-142.9743 262.4745,-134.4166"/>
<polygon fill="#8a2be2" stroke="#8a2be2" points="265.9465,-134.8975 264.4196,-124.4133 259.0752,-133.5614 265.9465,-134.8975"/>
</g>
<!-- Roberto&#39;s Barber &amp; Styling Salon: 41.8218,&#45;71.416 -->
<g id="node11" class="node">
<title>Roberto&#39;s Barber &amp; Styling Salon: 41.8218,&#45;71.416</title>
<ellipse fill="none" stroke="#000000" cx="612" cy="-178" rx="193.8658" ry="18"/>
<text text-anchor="middle" x="612" y="-174.3" font-family="Times,serif" font-size="14.00" fill="#000000">Roberto&#39;s Barber &amp; Styling Salon: 41.8218,&#45;71.416</text>
</g>
<!-- DaPoint Barber Shop: 41.8222,&#45;71.3963 -->
<g id="node12" class="node">
<title>DaPoint Barber Shop: 41.8222,&#45;71.3963</title>
<ellipse fill="none" stroke="#000000" cx="612" cy="-106" rx="154.0727" ry="18"/>
<text text-anchor="middle" x="612" y="-102.3" font-family="Times,serif" font-size="14.00" fill="#000000">DaPoint Barber Shop: 41.8222,&#45;71.3963</text>
</g>
<!-- Roberto&#39;s Barber &amp; Styling Salon: 41.8218,&#45;71.416&#45;&gt;DaPoint Barber Shop: 41.8222,&#45;71.3963 -->
<g id="edge9" class="edge">
<title>Roberto&#39;s Barber &amp; Styling Salon: 41.8218,&#45;71.416&#45;&gt;DaPoint Barber Shop: 41.8222,&#45;71.3963</title>
<path fill="none" stroke="#8a2be2" d="M612,-159.8314C612,-152.131 612,-142.9743 612,-134.4166"/>
<polygon fill="#8a2be2" stroke="#8a2be2" points="615.5001,-134.4132 612,-124.4133 608.5001,-134.4133 615.5001,-134.4132"/>
</g>
<!-- The Art of Barbering: 41.8068,&#45;71.42 -->
<g id="node13" class="node">
<title>The Art of Barbering: 41.8068,&#45;71.42</title>
<ellipse fill="none" stroke="#000000" cx="254" cy="-250" rx="144.8743" ry="18"/>
<text text-anchor="middle" x="254" y="-246.3" font-family="Times,serif" font-size="14.00" fill="#000000">The Art of Barbering: 41.8068,&#45;71.42</text>
</g>
<!-- The Art of Barbering: 41.8068,&#45;71.42&#45;&gt;Details Barbershop: 41.7808,&#45;71.4391 -->
<g id="edge10" class="edge">
<title>The Art of Barbering: 41.8068,&#45;71.42&#45;&gt;Details Barbershop: 41.7808,&#45;71.4391</title>
<path fill="none" stroke="#0000ff" d="M254,-231.8314C254,-224.131 254,-214.9743 254,-206.4166"/>
<polygon fill="#0000ff" stroke="#0000ff" points="257.5001,-206.4132 254,-196.4133 250.5001,-206.4133 257.5001,-206.4132"/>
</g>
<!-- The Art of Barbering: 41.8068,&#45;71.42&#45;&gt;Roberto&#39;s Barber &amp; Styling Salon: 41.8218,&#45;71.416 -->
<g id="edge11" class="edge">
<title>The Art of Barbering: 41.8068,&#45;71.42&#45;&gt;Roberto&#39;s Barber &amp; Styling Salon: 41.8218,&#45;71.416</title>
<path fill="none" stroke="#0000ff" d="M330.3609,-234.6425C385.977,-223.4571 461.5596,-208.2562 520.4236,-196.4176"/>
<polygon fill="#0000ff" stroke="#0000ff" points="521.3511,-199.8012 530.4647,-194.3982 519.9709,-192.9386 521.3511,-199.8012"/>
</g>
<!-- Enzo Barber Shop: 41.8232,&#45;71.4238 -->
<g id="node14" class="node">
<title>Enzo Barber Shop: 41.8232,&#45;71.4238</title>
<ellipse fill="none" stroke="#000000" cx="252" cy="-322" rx="143.7746" ry="18"/>
<text text-anchor="middle" x="252" y="-318.3" font-family="Times,serif" font-size="14.00" fill="#000000">Enzo Barber Shop: 41.8232,&#45;71.4238</text>
</g>
<!-- Enzo Barber Shop: 41.8232,&#45;71.4238&#45;&gt;The Art of Barbering: 41.8068,&#45;71.42 -->
<g id="edge12" class="edge">
<title>Enzo Barber Shop: 41.8232,&#45;71.4238&#45;&gt;The Art of Barbering: 41.8068,&#45;71.42</title>
<path fill="none" stroke="#000000" d="M252.5047,-303.8314C252.7186,-296.131 252.9729,-286.9743 253.2106,-278.4166"/>
<polygon fill="#000000" stroke="#000000" points="256.7094,-278.5066 253.4885,-268.4133 249.7121,-278.3122 256.7094,-278.5066"/>
</g>
<!-- Executive &#160;Cuts: 41.8233,&#45;71.41 -->
<g id="node15" class="node">
<title>Executive &#160;Cuts: 41.8233,&#45;71.41</title>
<ellipse fill="none" stroke="#000000" cx="543" cy="-250" rx="126.1777" ry="18"/>
<text text-anchor="middle" x="543" y="-246.3" font-family="Times,serif" font-size="14.00" fill="#000000">Executive &#160;Cuts: 41.8233,&#45;71.41</text>
</g>
<!-- Enzo Barber Shop: 41.8232,&#45;71.4238&#45;&gt;Executive &#160;Cuts: 41.8233,&#45;71.41 -->
<g id="edge13" class="edge">
<title>Enzo Barber Shop: 41.8232,&#45;71.4238&#45;&gt;Executive &#160;Cuts: 41.8233,&#45;71.41</title>
<path fill="none" stroke="#000000" d="M316.9439,-305.9314C362.2955,-294.7104 422.8942,-279.7169 469.9335,-268.0783"/>
<polygon fill="#000000" stroke="#000000" points="470.8884,-271.4477 479.7551,-265.6482 469.2071,-264.6526 470.8884,-271.4477"/>
</g>
<!-- Chez Moustache: 41.8218,&#45;71.3962 -->
<g id="node16" class="node">
<title>Chez Moustache: 41.8218,&#45;71.3962</title>
<ellipse fill="none" stroke="#000000" cx="618" cy="-394" rx="137.5759" ry="18"/>
<text text-anchor="middle" x="618" y="-390.3" font-family="Times,serif" font-size="14.00" fill="#000000">Chez Moustache: 41.8218,&#45;71.3962</text>
</g>
<!-- Chez Moustache: 41.8218,&#45;71.3962&#45;&gt;Enzo Barber Shop: 41.8232,&#45;71.4238 -->
<g id="edge14" class="edge">
<title>Chez Moustache: 41.8218,&#45;71.3962&#45;&gt;Enzo Barber Shop: 41.8232,&#45;71.4238</title>
<path fill="none" stroke="#ffe4c4" d="M541.7199,-378.9941C482.7796,-367.3993 401.1361,-351.3382 339.5359,-339.2202"/>
<polygon fill="#ffe4c4" stroke="#ffe4c4" points="339.9293,-335.7306 329.4418,-337.2344 338.5781,-342.5989 339.9293,-335.7306"/>
</g>
<!-- The Shaving Parlour &amp; Barbershop: 41.8242,&#45;71.3755 -->
<g id="node17" class="node">
<title>The Shaving Parlour &amp; Barbershop: 41.8242,&#45;71.3755</title>
<ellipse fill="none" stroke="#000000" cx="618" cy="-322" rx="204.1638" ry="18"/>
<text text-anchor="middle" x="618" y="-318.3" font-family="Times,serif" font-size="14.00" fill="#000000">The Shaving Parlour &amp; Barbershop: 41.8242,&#45;71.3755</text>
</g>
<!-- Chez Moustache: 41.8218,&#45;71.3962&#45;&gt;The Shaving Parlour &amp; Barbershop: 41.8242,&#45;71.3755 -->
<g id="edge15" class="edge">
<title>Chez Moustache: 41.8218,&#45;71.3962&#45;&gt;The Shaving Parlour &amp; Barbershop: 41.8242,&#45;71.3755</title>
<path fill="none" stroke="#ffe4c4" d="M618,-375.8314C618,-368.131 618,-358.9743 618,-350.4166"/>
<polygon fill="#ffe4c4" stroke="#ffe4c4" points="621.5001,-350.4132 618,-340.4133 614.5001,-350.4133 621.5001,-350.4132"/>
</g>
<!-- Smith Street Barbershop: 41.8373,&#45;71.4336 -->
<g id="node18" class="node">
<title>Smith Street Barbershop: 41.8373,&#45;71.4336</title>
<ellipse fill="none" stroke="#000000" cx="1006" cy="-322" rx="165.9709" ry="18"/>
<text text-anchor="middle" x="1006" y="-318.3" font-family="Times,serif" font-size="14.00" fill="#000000">Smith Street Barbershop: 41.8373,&#45;71.4336</text>
</g>
<!-- Cutting Edge Barbershop: 41.8656,&#45;71.4243 -->
<g id="node19" class="node">
<title>Cutting Edge Barbershop: 41.8656,&#45;71.4243</title>
<ellipse fill="none" stroke="#000000" cx="968" cy="-250" rx="168.1703" ry="18"/>
<text text-anchor="middle" x="968" y="-246.3" font-family="Times,serif" font-size="14.00" fill="#000000">Cutting Edge Barbershop: 41.8656,&#45;71.4243</text>
</g>
<!-- Smith Street Barbershop: 41.8373,&#45;71.4336&#45;&gt;Cutting Edge Barbershop: 41.8656,&#45;71.4243 -->
<g id="edge16" class="edge">
<title>Smith Street Barbershop: 41.8373,&#45;71.4336&#45;&gt;Cutting Edge Barbershop: 41.8656,&#45;71.4243</title>
<path fill="none" stroke="#000000" d="M996.411,-303.8314C992.1683,-295.7925 987.0879,-286.1666 982.404,-277.2918"/>
<polygon fill="#000000" stroke="#000000" points="985.4811,-275.6235 977.7181,-268.4133 979.2904,-278.8908 985.4811,-275.6235"/>
</g>
<!-- V Salon: 41.8468,&#45;71.3959 -->
<g id="node20" class="node">
<title>V Salon: 41.8468,&#45;71.3959</title>
<ellipse fill="none" stroke="#000000" cx="1108" cy="-178" rx="107.4815" ry="18"/>
<text text-anchor="middle" x="1108" y="-174.3" font-family="Times,serif" font-size="14.00" fill="#000000">V Salon: 41.8468,&#45;71.3959</text>
</g>
<!-- Stefano&#39;s European Barber Salon: 41.8468,&#45;71.3958 -->
<g id="node21" class="node">
<title>Stefano&#39;s European Barber Salon: 41.8468,&#45;71.3958</title>
<ellipse fill="none" stroke="#000000" cx="986" cy="-106" rx="194.9654" ry="18"/>
<text text-anchor="middle" x="986" y="-102.3" font-family="Times,serif" font-size="14.00" fill="#000000">Stefano&#39;s European Barber Salon: 41.8468,&#45;71.3958</text>
</g>
<!-- V Salon: 41.8468,&#45;71.3959&#45;&gt;Stefano&#39;s European Barber Salon: 41.8468,&#45;71.3958 -->
<g id="edge17" class="edge">
<title>V Salon: 41.8468,&#45;71.3959&#45;&gt;Stefano&#39;s European Barber Salon: 41.8468,&#45;71.3958</title>
<path fill="none" stroke="#8a2be2" d="M1078.4672,-160.5708C1062.4933,-151.1436 1042.555,-139.3767 1025.2866,-129.1855"/>
<polygon fill="#8a2be2" stroke="#8a2be2" points="1026.9259,-126.0889 1016.5349,-124.0206 1023.3681,-132.1174 1026.9259,-126.0889"/>
</g>
<!-- Executive Hair Salon: 41.8498,&#45;71.395 -->
<g id="node22" class="node">
<title>Executive Hair Salon: 41.8498,&#45;71.395</title>
<ellipse fill="none" stroke="#000000" cx="1348" cy="-106" rx="149.4735" ry="18"/>
<text text-anchor="middle" x="1348" y="-102.3" font-family="Times,serif" font-size="14.00" fill="#000000">Executive Hair Salon: 41.8498,&#45;71.395</text>
</g>
<!-- V Salon: 41.8468,&#45;71.3959&#45;&gt;Executive Hair Salon: 41.8498,&#45;71.395 -->
<g id="edge18" class="edge">
<title>V Salon: 41.8468,&#45;71.3959&#45;&gt;Executive Hair Salon: 41.8498,&#45;71.395</title>
<path fill="none" stroke="#8a2be2" d="M1160.3724,-162.2883C1196.0766,-151.577 1243.6402,-137.3079 1281.9439,-125.8168"/>
<polygon fill="#8a2be2" stroke="#8a2be2" points="1283.4031,-129.0333 1291.9756,-122.8073 1281.3916,-122.3285 1283.4031,-129.0333"/>
</g>
<!-- Mighty Sharp Barber Shop: 41.8296,&#45;71.4006 -->
<g id="node23" class="node">
<title>Mighty Sharp Barber Shop: 41.8296,&#45;71.4006</title>
<ellipse fill="none" stroke="#000000" cx="1329" cy="-250" rx="174.6691" ry="18"/>
<text text-anchor="middle" x="1329" y="-246.3" font-family="Times,serif" font-size="14.00" fill="#000000">Mighty Sharp Barber Shop: 41.8296,&#45;71.4006</text>
</g>
<!-- Mighty Sharp Barber Shop: 41.8296,&#45;71.4006&#45;&gt;V Salon: 41.8468,&#45;71.3959 -->
<g id="edge20" class="edge">
<title>Mighty Sharp Barber Shop: 41.8296,&#45;71.4006&#45;&gt;V Salon: 41.8468,&#45;71.3959</title>
<path fill="none" stroke="#0000ff" d="M1276.065,-232.7542C1243.2897,-222.0763 1201.1403,-208.3443 1167.2515,-197.3036"/>
<polygon fill="#0000ff" stroke="#0000ff" points="1168.0665,-193.8882 1157.4742,-194.1183 1165.8981,-200.5439 1168.0665,-193.8882"/>
</g>
<!-- Salon Persia: 41.8305,&#45;71.4011 -->
<g id="node24" class="node">
<title>Salon Persia: 41.8305,&#45;71.4011</title>
<ellipse fill="none" stroke="#000000" cx="1355" cy="-178" rx="122.3786" ry="18"/>
<text text-anchor="middle" x="1355" y="-174.3" font-family="Times,serif" font-size="14.00" fill="#000000">Salon Persia: 41.8305,&#45;71.4011</text>
</g>
<!-- Mighty Sharp Barber Shop: 41.8296,&#45;71.4006&#45;&gt;Salon Persia: 41.8305,&#45;71.4011 -->
<g id="edge19" class="edge">
<title>Mighty Sharp Barber Shop: 41.8296,&#45;71.4006&#45;&gt;Salon Persia: 41.8305,&#45;71.4011</title>
<path fill="none" stroke="#0000ff" d="M1335.5609,-231.8314C1338.4027,-223.9617 1341.7937,-214.5712 1344.9419,-205.8533"/>
<polygon fill="#0000ff" stroke="#0000ff" points="1348.2462,-207.0076 1348.3508,-196.4133 1341.6623,-204.63 1348.2462,-207.0076"/>
</g>
<!-- Stefano&#39;s Barber Shop: 41.8572,&#45;71.3913 -->
<g id="node25" class="node">
<title>Stefano&#39;s Barber Shop: 41.8572,&#45;71.3913</title>
<ellipse fill="none" stroke="#000000" cx="1347" cy="-322" rx="157.0724" ry="18"/>
<text text-anchor="middle" x="1347" y="-318.3" font-family="Times,serif" font-size="14.00" fill="#000000">Stefano&#39;s Barber Shop: 41.8572,&#45;71.3913</text>
</g>
<!-- Stefano&#39;s Barber Shop: 41.8572,&#45;71.3913&#45;&gt;Mighty Sharp Barber Shop: 41.8296,&#45;71.4006 -->
<g id="edge21" class="edge">
<title>Stefano&#39;s Barber Shop: 41.8572,&#45;71.3913&#45;&gt;Mighty Sharp Barber Shop: 41.8296,&#45;71.4006</title>
<path fill="none" stroke="#000000" d="M1342.4578,-303.8314C1340.5116,-296.0463 1338.1932,-286.7729 1336.0337,-278.1347"/>
<polygon fill="#000000" stroke="#000000" points="1339.4242,-277.2658 1333.6033,-268.4133 1332.6332,-278.9636 1339.4242,-277.2658"/>
</g>
<!-- Frankie The Barber: 41.8602,&#45;71.4224 -->
<g id="node26" class="node">
<title>Frankie The Barber: 41.8602,&#45;71.4224</title>
<ellipse fill="none" stroke="#000000" cx="1006" cy="-394" rx="147.5738" ry="18"/>
<text text-anchor="middle" x="1006" y="-390.3" font-family="Times,serif" font-size="14.00" fill="#000000">Frankie The Barber: 41.8602,&#45;71.4224</text>
</g>
<!-- Frankie The Barber: 41.8602,&#45;71.4224&#45;&gt;Smith Street Barbershop: 41.8373,&#45;71.4336 -->
<g id="edge22" class="edge">
<title>Frankie The Barber: 41.8602,&#45;71.4224&#45;&gt;Smith Street Barbershop: 41.8373,&#45;71.4336</title>
<path fill="none" stroke="#ffe4c4" d="M1006,-375.8314C1006,-368.131 1006,-358.9743 1006,-350.4166"/>
<polygon fill="#ffe4c4" stroke="#ffe4c4" points="1009.5001,-350.4132 1006,-340.4133 1002.5001,-350.4133 1009.5001,-350.4132"/>
</g>
<!-- Frankie The Barber: 41.8602,&#45;71.4224&#45;&gt;Stefano&#39;s Barber Shop: 41.8572,&#45;71.3913 -->
<g id="edge23" class="edge">
<title>Frankie The Barber: 41.8602,&#45;71.4224&#45;&gt;Stefano&#39;s Barber Shop: 41.8572,&#45;71.3913</title>
<path fill="none" stroke="#ffe4c4" d="M1079.9919,-378.3771C1133.5798,-367.0623 1206.1326,-351.7433 1262.084,-339.9295"/>
<polygon fill="#ffe4c4" stroke="#ffe4c4" points="1262.9137,-343.3315 1271.9749,-337.8411 1261.4675,-336.4825 1262.9137,-343.3315"/>
</g>
<!-- The Barbershop: 41.8274,&#45;71.4008 -->
<g id="node27" class="node">
<title>The Barbershop: 41.8274,&#45;71.4008</title>
<ellipse fill="none" stroke="#000000" cx="812" cy="-466" rx="135.3763" ry="18"/>
<text text-anchor="middle" x="812" y="-462.3" font-family="Times,serif" font-size="14.00" fill="#000000">The Barbershop: 41.8274,&#45;71.4008</text>
</g>
<!-- The Barbershop: 41.8274,&#45;71.4008&#45;&gt;Chez Moustache: 41.8218,&#45;71.3962 -->
<g id="edge24" class="edge">
<title>The Barbershop: 41.8274,&#45;71.4008&#45;&gt;Chez Moustache: 41.8218,&#45;71.3962</title>
<path fill="none" stroke="#7fffd4" d="M766.0247,-448.937C738.341,-438.6627 702.9059,-425.5115 673.6468,-414.6524"/>
<polygon fill="#7fffd4" stroke="#7fffd4" points="674.574,-411.2633 663.9811,-411.0651 672.1384,-417.8259 674.574,-411.2633"/>
</g>
<!-- The Barbershop: 41.8274,&#45;71.4008&#45;&gt;Frankie The Barber: 41.8602,&#45;71.4224 -->
<g id="edge25" class="edge">
<title>The Barbershop: 41.8274,&#45;71.4008&#45;&gt;Frankie The Barber: 41.8602,&#45;71.4224</title>
<path fill="none" stroke="#7fffd4" d="M857.9753,-448.937C885.5583,-438.7 920.8365,-425.6071 950.0338,-414.771"/>
<polygon fill="#7fffd4" stroke="#7fffd4" points="951.5251,-417.9508 959.6824,-411.19 949.0894,-411.3882 951.5251,-417.9508"/>
</g>
</g>
</svg>
