<?xml version="1.0" encoding="UTF-8" standalone="no"?>
<!DOCTYPE svg PUBLIC "-//W3C//DTD SVG 1.1//EN"
 "http://www.w3.org/Graphics/SVG/1.1/DTD/svg11.dtd">
<!-- Generated by graphviz version 2.40.1 (20161225.0304)
 -->
<!-- Title: G Pages: 1 -->
<svg width="1768pt" height="508pt"
 viewBox="0.00 0.00 1768.00 508.00" xmlns="http://www.w3.org/2000/svg" xmlns:xlink="http://www.w3.org/1999/xlink">
<g id="graph0" class="graph" transform="scale(1 1) rotate(0) translate(4 504)">
<title>G</title>
<polygon fill="#ffffff" stroke="transparent" points="-4,4 -4,-504 1764,-504 1764,4 -4,4"/>
<g id="clust1" class="cluster">
<title>cluster_0</title>
<polygon fill="none" stroke="#000000" points="8,-8 8,-492 92,-492 92,-8 8,-8"/>
</g>
<g id="clust2" class="cluster">
<title>cluster_1</title>
<polygon fill="none" stroke="#000000" points="100,-8 100,-492 1752,-492 1752,-8 100,-8"/>
</g>
<!-- root: x -->
<g id="node1" class="node">
<title>root: x</title>
<ellipse fill="none" stroke="#000000" cx="50" cy="-466" rx="34.394" ry="18"/>
<text text-anchor="middle" x="50" y="-462.3" font-family="Times,serif" font-size="14.00" fill="#000000">root: x</text>
</g>
<!-- 1:y -->
<g id="node2" class="node">
<title>1:y</title>
<ellipse fill="none" stroke="#000000" cx="50" cy="-394" rx="27" ry="18"/>
<text text-anchor="middle" x="50" y="-390.3" font-family="Times,serif" font-size="14.00" fill="#000000">1:y</text>
</g>
<!-- root: x&#45;&gt;1:y -->
<g id="edge1" class="edge">
<title>root: x&#45;&gt;1:y</title>
<path fill="none" stroke="#000000" d="M50,-447.8314C50,-440.131 50,-430.9743 50,-422.4166"/>
<polygon fill="#000000" stroke="#000000" points="53.5001,-422.4132 50,-412.4133 46.5001,-422.4133 53.5001,-422.4132"/>
</g>
<!-- 2:x -->
<g id="node3" class="node">
<title>2:x</title>
<ellipse fill="none" stroke="#000000" cx="50" cy="-322" rx="27" ry="18"/>
<text text-anchor="middle" x="50" y="-318.3" font-family="Times,serif" font-size="14.00" fill="#000000">2:x</text>
</g>
<!-- 1:y&#45;&gt;2:x -->
<g id="edge2" class="edge">
<title>1:y&#45;&gt;2:x</title>
<path fill="none" stroke="#000000" d="M50,-375.8314C50,-368.131 50,-358.9743 50,-350.4166"/>
<polygon fill="#000000" stroke="#000000" points="53.5001,-350.4132 50,-340.4133 46.5001,-350.4133 53.5001,-350.4132"/>
</g>
<!-- 3:y -->
<g id="node4" class="node">
<title>3:y</title>
<ellipse fill="none" stroke="#000000" cx="50" cy="-250" rx="27" ry="18"/>
<text text-anchor="middle" x="50" y="-246.3" font-family="Times,serif" font-size="14.00" fill="#000000">3:y</text>
</g>
<!-- 2:x&#45;&gt;3:y -->
<g id="edge3" class="edge">
<title>2:x&#45;&gt;3:y</title>
<path fill="none" stroke="#000000" d="M50,-303.8314C50,-296.131 50,-286.9743 50,-278.4166"/>
<polygon fill="#000000" stroke="#000000" points="53.5001,-278.4132 50,-268.4133 46.5001,-278.4133 53.5001,-278.4132"/>
</g>
<!-- 4:x -->
<g id="node5" class="node">
<title>4:x</title>
<ellipse fill="none" stroke="#000000" cx="50" cy="-178" rx="27" ry="18"/>
<text text-anchor="middle" x="50" y="-174.3" font-family="Times,serif" font-size="14.00" fill="#000000">4:x</text>
</g>
<!-- 3:y&#45;&gt;4:x -->
<g id="edge4" class="edge">
<title>3:y&#45;&gt;4:x</title>
<path fill="none" stroke="#000000" d="M50,-231.8314C50,-224.131 50,-214.9743 50,-206.4166"/>
<polygon fill="#000000" stroke="#000000" points="53.5001,-206.4132 50,-196.4133 46.5001,-206.4133 53.5001,-206.4132"/>
</g>
<!-- 5:y -->
<g id="node6" class="node">
<title>5:y</title>
<ellipse fill="none" stroke="#000000" cx="50" cy="-106" rx="27" ry="18"/>
<text text-anchor="middle" x="50" y="-102.3" font-family="Times,serif" font-size="14.00" fill="#000000">5:y</text>
</g>
<!-- 4:x&#45;&gt;5:y -->
<g id="edge5" class="edge">
<title>4:x&#45;&gt;5:y</title>
<path fill="none" stroke="#000000" d="M50,-159.8314C50,-152.131 50,-142.9743 50,-134.4166"/>
<polygon fill="#000000" stroke="#000000" points="53.5001,-134.4132 50,-124.4133 46.5001,-134.4133 53.5001,-134.4132"/>
</g>
<!-- 6:x -->
<g id="node7" class="node">
<title>6:x</title>
<ellipse fill="none" stroke="#000000" cx="50" cy="-34" rx="27" ry="18"/>
<text text-anchor="middle" x="50" y="-30.3" font-family="Times,serif" font-size="14.00" fill="#000000">6:x</text>
</g>
<!-- 5:y&#45;&gt;6:x -->
<g id="edge6" class="edge">
<title>5:y&#45;&gt;6:x</title>
<path fill="none" stroke="#000000" d="M50,-87.8314C50,-80.131 50,-70.9743 50,-62.4166"/>
<polygon fill="#000000" stroke="#000000" points="53.5001,-62.4132 50,-52.4133 46.5001,-62.4133 53.5001,-62.4132"/>
</g>
<!-- Coffee Exchange: 41.8193,&#45;71.3992 -->
<g id="node8" class="node">
<title>Coffee Exchange: 41.8193,&#45;71.3992</title>
<ellipse fill="none" stroke="#000000" cx="605" cy="-250" rx="139.9756" ry="18"/>
<text text-anchor="middle" x="605" y="-246.3" font-family="Times,serif" font-size="14.00" fill="#000000">Coffee Exchange: 41.8193,&#45;71.3992</text>
</g>
<!-- White Electric Coffee: 41.8185,&#45;71.4199 -->
<g id="node9" class="node">
<title>White Electric Coffee: 41.8185,&#45;71.4199</title>
<ellipse fill="none" stroke="#000000" cx="265" cy="-178" rx="156.7723" ry="18"/>
<text text-anchor="middle" x="265" y="-174.3" font-family="Times,serif" font-size="14.00" fill="#000000">White Electric Coffee: 41.8185,&#45;71.4199</text>
</g>
<!-- Coffee Exchange: 41.8193,&#45;71.3992&#45;&gt;White Electric Coffee: 41.8185,&#45;71.4199 -->
<g id="edge7" class="edge">
<title>Coffee Exchange: 41.8193,&#45;71.3992&#45;&gt;White Electric Coffee: 41.8185,&#45;71.4199</title>
<path fill="none" stroke="#0000ff" d="M532.0615,-234.5542C478.5887,-223.2305 405.8481,-207.8267 349.7851,-195.9545"/>
<polygon fill="#0000ff" stroke="#0000ff" points="350.3831,-192.5036 339.875,-193.8559 348.9329,-199.3517 350.3831,-192.5036"/>
</g>
<!-- Cafe Zara Coffee House: 41.8199,&#45;71.3769 -->
<g id="node10" class="node">
<title>Cafe Zara Coffee House: 41.8199,&#45;71.3769</title>
<ellipse fill="none" stroke="#000000" cx="605" cy="-178" rx="165.1707" ry="18"/>
<text text-anchor="middle" x="605" y="-174.3" font-family="Times,serif" font-size="14.00" fill="#000000">Cafe Zara Coffee House: 41.8199,&#45;71.3769</text>
</g>
<!-- Coffee Exchange: 41.8193,&#45;71.3992&#45;&gt;Cafe Zara Coffee House: 41.8199,&#45;71.3769 -->
<g id="edge8" class="edge">
<title>Coffee Exchange: 41.8193,&#45;71.3992&#45;&gt;Cafe Zara Coffee House: 41.8199,&#45;71.3769</title>
<path fill="none" stroke="#0000ff" d="M605,-231.8314C605,-224.131 605,-214.9743 605,-206.4166"/>
<polygon fill="#0000ff" stroke="#0000ff" points="608.5001,-206.4132 605,-196.4133 601.5001,-206.4133 608.5001,-206.4132"/>
</g>
<!-- Small Point Café: 41.823,&#45;71.4125 -->
<g id="node11" class="node">
<title>Small Point Café: 41.823,&#45;71.4125</title>
<ellipse fill="none" stroke="#000000" cx="912" cy="-250" rx="135.3763" ry="18"/>
<text text-anchor="middle" x="912" y="-246.3" font-family="Times,serif" font-size="14.00" fill="#000000">Small Point Café: 41.823,&#45;71.4125</text>
</g>
<!-- Ellie&#39;s Bakery: 41.8216,&#45;71.413 -->
<g id="node12" class="node">
<title>Ellie&#39;s Bakery: 41.8216,&#45;71.413</title>
<ellipse fill="none" stroke="#000000" cx="912" cy="-178" rx="123.4781" ry="18"/>
<text text-anchor="middle" x="912" y="-174.3" font-family="Times,serif" font-size="14.00" fill="#000000">Ellie&#39;s Bakery: 41.8216,&#45;71.413</text>
</g>
<!-- Small Point Café: 41.823,&#45;71.4125&#45;&gt;Ellie&#39;s Bakery: 41.8216,&#45;71.413 -->
<g id="edge9" class="edge">
<title>Small Point Café: 41.823,&#45;71.4125&#45;&gt;Ellie&#39;s Bakery: 41.8216,&#45;71.413</title>
<path fill="none" stroke="#0000ff" d="M912,-231.8314C912,-224.131 912,-214.9743 912,-206.4166"/>
<polygon fill="#0000ff" stroke="#0000ff" points="915.5001,-206.4132 912,-196.4133 908.5001,-206.4133 915.5001,-206.4132"/>
</g>
<!-- Malachi&#39;s: 41.8219,&#45;71.3922 -->
<g id="node13" class="node">
<title>Malachi&#39;s: 41.8219,&#45;71.3922</title>
<ellipse fill="none" stroke="#000000" cx="1166" cy="-178" rx="112.3801" ry="18"/>
<text text-anchor="middle" x="1166" y="-174.3" font-family="Times,serif" font-size="14.00" fill="#000000">Malachi&#39;s: 41.8219,&#45;71.3922</text>
</g>
<!-- Small Point Café: 41.823,&#45;71.4125&#45;&gt;Malachi&#39;s: 41.8219,&#45;71.3922 -->
<g id="edge10" class="edge">
<title>Small Point Café: 41.823,&#45;71.4125&#45;&gt;Malachi&#39;s: 41.8219,&#45;71.3922</title>
<path fill="none" stroke="#0000ff" d="M969.6365,-233.6621C1008.5797,-222.6231 1060.0749,-208.026 1100.5605,-196.5498"/>
<polygon fill="#0000ff" stroke="#0000ff" points="1101.6707,-199.873 1110.3371,-193.7784 1099.7617,-193.1384 1101.6707,-199.873"/>
</g>
<!-- The Shop: 41.8203,&#45;71.3942 -->
<g id="node14" class="node">
<title>The Shop: 41.8203,&#45;71.3942</title>
<ellipse fill="none" stroke="#000000" cx="809" cy="-322" rx="112.3801" ry="18"/>
<text text-anchor="middle" x="809" y="-318.3" font-family="Times,serif" font-size="14.00" fill="#000000">The Shop: 41.8203,&#45;71.3942</text>
</g>
<!-- The Shop: 41.8203,&#45;71.3942&#45;&gt;Coffee Exchange: 41.8193,&#45;71.3992 -->
<g id="edge11" class="edge">
<title>The Shop: 41.8203,&#45;71.3942&#45;&gt;Coffee Exchange: 41.8193,&#45;71.3992</title>
<path fill="none" stroke="#000000" d="M762.454,-305.572C732.8274,-295.1156 694.2332,-281.4941 662.6701,-270.3541"/>
<polygon fill="#000000" stroke="#000000" points="663.7129,-267.0107 653.1181,-266.9829 661.3831,-273.6116 663.7129,-267.0107"/>
</g>
<!-- The Shop: 41.8203,&#45;71.3942&#45;&gt;Small Point Café: 41.823,&#45;71.4125 -->
<g id="edge12" class="edge">
<title>The Shop: 41.8203,&#45;71.3942&#45;&gt;Small Point Café: 41.823,&#45;71.4125</title>
<path fill="none" stroke="#000000" d="M834.1966,-304.3868C847.3158,-295.2161 863.548,-283.8693 877.7861,-273.9165"/>
<polygon fill="#000000" stroke="#000000" points="880.1572,-276.5295 886.348,-267.9315 876.1467,-270.7922 880.1572,-276.5295"/>
</g>
<!-- The Nitro Bar: 41.8207,&#45;71.425 -->
<g id="node15" class="node">
<title>The Nitro Bar: 41.8207,&#45;71.425</title>
<ellipse fill="none" stroke="#000000" cx="1083" cy="-394" rx="124.2781" ry="18"/>
<text text-anchor="middle" x="1083" y="-390.3" font-family="Times,serif" font-size="14.00" fill="#000000">The Nitro Bar: 41.8207,&#45;71.425</text>
</g>
<!-- The Nitro Bar: 41.8207,&#45;71.425&#45;&gt;The Shop: 41.8203,&#45;71.3942 -->
<g id="edge14" class="edge">
<title>The Nitro Bar: 41.8207,&#45;71.425&#45;&gt;The Shop: 41.8203,&#45;71.3942</title>
<path fill="none" stroke="#ffe4c4" d="M1022.8695,-378.1993C979.9581,-366.9233 922.1702,-351.7382 877.4815,-339.9951"/>
<polygon fill="#ffe4c4" stroke="#ffe4c4" points="878.1401,-336.5495 867.5789,-337.393 876.3611,-343.3196 878.1401,-336.5495"/>
</g>
<!-- Seven Stars Bakery: 41.8198,&#45;71.429 -->
<g id="node16" class="node">
<title>Seven Stars Bakery: 41.8198,&#45;71.429</title>
<ellipse fill="none" stroke="#000000" cx="1083" cy="-322" rx="143.7746" ry="18"/>
<text text-anchor="middle" x="1083" y="-318.3" font-family="Times,serif" font-size="14.00" fill="#000000">Seven Stars Bakery: 41.8198,&#45;71.429</text>
</g>
<!-- The Nitro Bar: 41.8207,&#45;71.425&#45;&gt;Seven Stars Bakery: 41.8198,&#45;71.429 -->
<g id="edge13" class="edge">
<title>The Nitro Bar: 41.8207,&#45;71.425&#45;&gt;Seven Stars Bakery: 41.8198,&#45;71.429</title>
<path fill="none" stroke="#ffe4c4" d="M1083,-375.8314C1083,-368.131 1083,-358.9743 1083,-350.4166"/>
<polygon fill="#ffe4c4" stroke="#ffe4c4" points="1086.5001,-350.4132 1083,-340.4133 1079.5001,-350.4133 1086.5001,-350.4132"/>
</g>
<!-- Friskie Fries: 41.8232,&#45;71.4145 -->
<g id="node17" class="node">
<title>Friskie Fries: 41.8232,&#45;71.4145</title>
<ellipse fill="none" stroke="#000000" cx="1285" cy="-250" rx="122.6784" ry="18"/>
<text text-anchor="middle" x="1285" y="-246.3" font-family="Times,serif" font-size="14.00" fill="#000000">Friskie Fries: 41.8232,&#45;71.4145</text>
</g>
<!-- Rspace: 41.8236,&#45;71.4086 -->
<g id="node18" class="node">
<title>Rspace: 41.8236,&#45;71.4086</title>
<ellipse fill="none" stroke="#000000" cx="1400" cy="-178" rx="103.9815" ry="18"/>
<text text-anchor="middle" x="1400" y="-174.3" font-family="Times,serif" font-size="14.00" fill="#000000">Rspace: 41.8236,&#45;71.4086</text>
</g>
<!-- Friskie Fries: 41.8232,&#45;71.4145&#45;&gt;Rspace: 41.8236,&#45;71.4086 -->
<g id="edge15" class="edge">
<title>Friskie Fries: 41.8232,&#45;71.4145&#45;&gt;Rspace: 41.8236,&#45;71.4086</title>
<path fill="none" stroke="#0000ff" d="M1313.1322,-232.3868C1328.2806,-222.9026 1347.1464,-211.0909 1363.4225,-200.9007"/>
<polygon fill="#0000ff" stroke="#0000ff" points="1365.5397,-203.7046 1372.1583,-195.4313 1361.8251,-197.7715 1365.5397,-203.7046"/>
</g>
<!-- Brewed Awakenings: 41.8249,&#45;71.4106 -->
<g id="node19" class="node">
<title>Brewed Awakenings: 41.8249,&#45;71.4106</title>
<ellipse fill="none" stroke="#000000" cx="1171" cy="-106" rx="152.1731" ry="18"/>
<text text-anchor="middle" x="1171" y="-102.3" font-family="Times,serif" font-size="14.00" fill="#000000">Brewed Awakenings: 41.8249,&#45;71.4106</text>
</g>
<!-- Bolt Coffee: 41.8268,&#45;71.4075 -->
<g id="node20" class="node">
<title>Bolt Coffee: 41.8268,&#45;71.4075</title>
<ellipse fill="none" stroke="#000000" cx="1171" cy="-34" rx="120.4791" ry="18"/>
<text text-anchor="middle" x="1171" y="-30.3" font-family="Times,serif" font-size="14.00" fill="#000000">Bolt Coffee: 41.8268,&#45;71.4075</text>
</g>
<!-- Brewed Awakenings: 41.8249,&#45;71.4106&#45;&gt;Bolt Coffee: 41.8268,&#45;71.4075 -->
<g id="edge16" class="edge">
<title>Brewed Awakenings: 41.8249,&#45;71.4106&#45;&gt;Bolt Coffee: 41.8268,&#45;71.4075</title>
<path fill="none" stroke="#a52a2a" d="M1171,-87.8314C1171,-80.131 1171,-70.9743 1171,-62.4166"/>
<polygon fill="#a52a2a" stroke="#a52a2a" points="1174.5001,-62.4132 1171,-52.4133 1167.5001,-62.4133 1174.5001,-62.4132"/>
</g>
<!-- Brooklyn Coffee Tea Guest House: 41.8376,&#45;71.4229 -->
<g id="node21" class="node">
<title>Brooklyn Coffee Tea Guest House: 41.8376,&#45;71.4229</title>
<ellipse fill="none" stroke="#000000" cx="1543" cy="-106" rx="201.4642" ry="18"/>
<text text-anchor="middle" x="1543" y="-102.3" font-family="Times,serif" font-size="14.00" fill="#000000">Brooklyn Coffee Tea Guest House: 41.8376,&#45;71.4229</text>
</g>
<!-- The Coffee Shop: 41.8355,&#45;71.4129 -->
<g id="node22" class="node">
<title>The Coffee Shop: 41.8355,&#45;71.4129</title>
<ellipse fill="none" stroke="#000000" cx="1543" cy="-34" rx="139.1754" ry="18"/>
<text text-anchor="middle" x="1543" y="-30.3" font-family="Times,serif" font-size="14.00" fill="#000000">The Coffee Shop: 41.8355,&#45;71.4129</text>
</g>
<!-- Brooklyn Coffee Tea Guest House: 41.8376,&#45;71.4229&#45;&gt;The Coffee Shop: 41.8355,&#45;71.4129 -->
<g id="edge17" class="edge">
<title>Brooklyn Coffee Tea Guest House: 41.8376,&#45;71.4229&#45;&gt;The Coffee Shop: 41.8355,&#45;71.4129</title>
<path fill="none" stroke="#a52a2a" d="M1543,-87.8314C1543,-80.131 1543,-70.9743 1543,-62.4166"/>
<polygon fill="#a52a2a" stroke="#a52a2a" points="1546.5001,-62.4132 1543,-52.4133 1539.5001,-62.4133 1546.5001,-62.4132"/>
</g>
<!-- Ceremony: 41.828,&#45;71.4005 -->
<g id="node23" class="node">
<title>Ceremony: 41.828,&#45;71.4005</title>
<ellipse fill="none" stroke="#000000" cx="1633" cy="-178" rx="111.2805" ry="18"/>
<text text-anchor="middle" x="1633" y="-174.3" font-family="Times,serif" font-size="14.00" fill="#000000">Ceremony: 41.828,&#45;71.4005</text>
</g>
<!-- Ceremony: 41.828,&#45;71.4005&#45;&gt;Brewed Awakenings: 41.8249,&#45;71.4106 -->
<g id="edge18" class="edge">
<title>Ceremony: 41.828,&#45;71.4005&#45;&gt;Brewed Awakenings: 41.8249,&#45;71.4106</title>
<path fill="none" stroke="#8a2be2" d="M1552.7896,-165.4997C1475.3194,-153.4264 1357.6646,-135.0906 1273.4511,-121.9664"/>
<polygon fill="#8a2be2" stroke="#8a2be2" points="1273.7716,-118.4742 1263.3519,-120.3925 1272.6937,-125.3907 1273.7716,-118.4742"/>
</g>
<!-- Ceremony: 41.828,&#45;71.4005&#45;&gt;Brooklyn Coffee Tea Guest House: 41.8376,&#45;71.4229 -->
<g id="edge19" class="edge">
<title>Ceremony: 41.828,&#45;71.4005&#45;&gt;Brooklyn Coffee Tea Guest House: 41.8376,&#45;71.4229</title>
<path fill="none" stroke="#8a2be2" d="M1610.7528,-160.2022C1599.5873,-151.2698 1585.8856,-140.3085 1573.7325,-130.586"/>
<polygon fill="#8a2be2" stroke="#8a2be2" points="1575.6116,-127.6071 1565.6164,-124.0931 1571.2387,-133.0732 1575.6116,-127.6071"/>
</g>
<!-- L&#39;Artisan Cafe &amp; Bakery: 41.83,&#45;71.3878 -->
<g id="node24" class="node">
<title>L&#39;Artisan Cafe &amp; Bakery: 41.83,&#45;71.3878</title>
<ellipse fill="none" stroke="#000000" cx="1585" cy="-250" rx="159.4721" ry="18"/>
<text text-anchor="middle" x="1585" y="-246.3" font-family="Times,serif" font-size="14.00" fill="#000000">L&#39;Artisan Cafe &amp; Bakery: 41.83,&#45;71.3878</text>
</g>
<!-- L&#39;Artisan Cafe &amp; Bakery: 41.83,&#45;71.3878&#45;&gt;Ceremony: 41.828,&#45;71.4005 -->
<g id="edge20" class="edge">
<title>L&#39;Artisan Cafe &amp; Bakery: 41.83,&#45;71.3878&#45;&gt;Ceremony: 41.828,&#45;71.4005</title>
<path fill="none" stroke="#0000ff" d="M1597.1124,-231.8314C1602.6687,-223.497 1609.3622,-213.4567 1615.4559,-204.3162"/>
<polygon fill="#0000ff" stroke="#0000ff" points="1618.4229,-206.1754 1621.0577,-195.9134 1612.5985,-202.2925 1618.4229,-206.1754"/>
</g>
<!-- Poindexter Coffee: 41.8243,&#45;71.4134 -->
<g id="node25" class="node">
<title>Poindexter Coffee: 41.8243,&#45;71.4134</title>
<ellipse fill="none" stroke="#000000" cx="1388" cy="-322" rx="142.9746" ry="18"/>
<text text-anchor="middle" x="1388" y="-318.3" font-family="Times,serif" font-size="14.00" fill="#000000">Poindexter Coffee: 41.8243,&#45;71.4134</text>
</g>
<!-- Poindexter Coffee: 41.8243,&#45;71.4134&#45;&gt;Friskie Fries: 41.8232,&#45;71.4145 -->
<g id="edge21" class="edge">
<title>Poindexter Coffee: 41.8243,&#45;71.4134&#45;&gt;Friskie Fries: 41.8232,&#45;71.4145</title>
<path fill="none" stroke="#000000" d="M1362.5393,-304.2022C1349.4166,-295.0291 1333.2328,-283.7161 1319.051,-273.8026"/>
<polygon fill="#000000" stroke="#000000" points="1320.7261,-270.7032 1310.5248,-267.8425 1316.7156,-276.4405 1320.7261,-270.7032"/>
</g>
<!-- Poindexter Coffee: 41.8243,&#45;71.4134&#45;&gt;L&#39;Artisan Cafe &amp; Bakery: 41.83,&#45;71.3878 -->
<g id="edge22" class="edge">
<title>Poindexter Coffee: 41.8243,&#45;71.4134&#45;&gt;L&#39;Artisan Cafe &amp; Bakery: 41.83,&#45;71.3878</title>
<path fill="none" stroke="#000000" d="M1434.6863,-304.937C1462.7149,-294.693 1498.5685,-281.5892 1528.229,-270.7488"/>
<polygon fill="#000000" stroke="#000000" points="1529.4328,-274.0353 1537.6236,-267.3152 1527.0298,-267.4607 1529.4328,-274.0353"/>
</g>
<!-- Pastiche: 41.8241,&#45;71.4266 -->
<g id="node26" class="node">
<title>Pastiche: 41.8241,&#45;71.4266</title>
<ellipse fill="none" stroke="#000000" cx="1360" cy="-394" rx="107.781" ry="18"/>
<text text-anchor="middle" x="1360" y="-390.3" font-family="Times,serif" font-size="14.00" fill="#000000">Pastiche: 41.8241,&#45;71.4266</text>
</g>
<!-- Pastiche: 41.8241,&#45;71.4266&#45;&gt;Poindexter Coffee: 41.8243,&#45;71.4134 -->
<g id="edge23" class="edge">
<title>Pastiche: 41.8241,&#45;71.4266&#45;&gt;Poindexter Coffee: 41.8243,&#45;71.4134</title>
<path fill="none" stroke="#ffe4c4" d="M1367.0656,-375.8314C1370.126,-367.9617 1373.7779,-358.5712 1377.1682,-349.8533"/>
<polygon fill="#ffe4c4" stroke="#ffe4c4" points="1380.4768,-351.0019 1380.8393,-340.4133 1373.9527,-348.4647 1380.4768,-351.0019"/>
</g>
<!-- Bolt Coffee: 41.8231,&#45;71.4161 -->
<g id="node27" class="node">
<title>Bolt Coffee: 41.8231,&#45;71.4161</title>
<ellipse fill="none" stroke="#000000" cx="1221" cy="-466" rx="120.4791" ry="18"/>
<text text-anchor="middle" x="1221" y="-462.3" font-family="Times,serif" font-size="14.00" fill="#000000">Bolt Coffee: 41.8231,&#45;71.4161</text>
</g>
<!-- Bolt Coffee: 41.8231,&#45;71.4161&#45;&gt;The Nitro Bar: 41.8207,&#45;71.425 -->
<g id="edge24" class="edge">
<title>Bolt Coffee: 41.8231,&#45;71.4161&#45;&gt;The Nitro Bar: 41.8207,&#45;71.425</title>
<path fill="none" stroke="#7fffd4" d="M1187.594,-448.5708C1168.917,-438.8263 1145.4486,-426.5819 1125.4769,-416.1619"/>
<polygon fill="#7fffd4" stroke="#7fffd4" points="1127.0615,-413.0409 1116.5766,-411.5182 1123.8235,-419.247 1127.0615,-413.0409"/>
</g>
<!-- Bolt Coffee: 41.8231,&#45;71.4161&#45;&gt;Pastiche: 41.8241,&#45;71.4266 -->
<g id="edge25" class="edge">
<title>Bolt Coffee: 41.8231,&#45;71.4161&#45;&gt;Pastiche: 41.8241,&#45;71.4266</title>
<path fill="none" stroke="#7fffd4" d="M1254.648,-448.5708C1273.5998,-438.7541 1297.4494,-426.4003 1317.6617,-415.9306"/>
<polygon fill="#7fffd4" stroke="#7fffd4" points="1319.3922,-418.976 1326.6618,-411.2687 1316.1725,-412.7604 1319.3922,-418.976"/>
</g>
</g>
</svg>
