<?xml version="1.0" encoding="UTF-8" standalone="no"?>
<!DOCTYPE svg PUBLIC "-//W3C//DTD SVG 1.1//EN"
 "http://www.w3.org/Graphics/SVG/1.1/DTD/svg11.dtd">
<!-- Generated by graphviz version 2.40.1 (20161225.0304)
 -->
<!-- Title: G Pages: 1 -->
<svg width="1579pt" height="796pt"
 viewBox="0.00 0.00 1579.00 796.00" xmlns="http://www.w3.org/2000/svg" xmlns:xlink="http://www.w3.org/1999/xlink">
<g id="graph0" class="graph" transform="scale(1 1) rotate(0) translate(4 792)">
<title>G</title>
<polygon fill="#ffffff" stroke="transparent" points="-4,4 -4,-792 1575,-792 1575,4 -4,4"/>
<g id="clust1" class="cluster">
<title>cluster_0</title>
<polygon fill="none" stroke="#000000" points="8,-8 8,-780 92,-780 92,-8 8,-8"/>
</g>
<g id="clust2" class="cluster">
<title>cluster_1</title>
<polygon fill="none" stroke="#000000" points="100,-8 100,-780 1563,-780 1563,-8 100,-8"/>
</g>
<!-- root: x -->
<g id="node1" class="node">
<title>root: x</title>
<ellipse fill="none" stroke="#000000" cx="50" cy="-754" rx="34.394" ry="18"/>
<text text-anchor="middle" x="50" y="-750.3" font-family="Times,serif" font-size="14.00" fill="#000000">root: x</text>
</g>
<!-- 1:y -->
<g id="node2" class="node">
<title>1:y</title>
<ellipse fill="none" stroke="#000000" cx="50" cy="-682" rx="27" ry="18"/>
<text text-anchor="middle" x="50" y="-678.3" font-family="Times,serif" font-size="14.00" fill="#000000">1:y</text>
</g>
<!-- root: x&#45;&gt;1:y -->
<g id="edge1" class="edge">
<title>root: x&#45;&gt;1:y</title>
<path fill="none" stroke="#000000" d="M50,-735.8314C50,-728.131 50,-718.9743 50,-710.4166"/>
<polygon fill="#000000" stroke="#000000" points="53.5001,-710.4132 50,-700.4133 46.5001,-710.4133 53.5001,-710.4132"/>
</g>
<!-- 2:z -->
<g id="node3" class="node">
<title>2:z</title>
<ellipse fill="none" stroke="#000000" cx="50" cy="-610" rx="27" ry="18"/>
<text text-anchor="middle" x="50" y="-606.3" font-family="Times,serif" font-size="14.00" fill="#000000">2:z</text>
</g>
<!-- 1:y&#45;&gt;2:z -->
<g id="edge2" class="edge">
<title>1:y&#45;&gt;2:z</title>
<path fill="none" stroke="#000000" d="M50,-663.8314C50,-656.131 50,-646.9743 50,-638.4166"/>
<polygon fill="#000000" stroke="#000000" points="53.5001,-638.4132 50,-628.4133 46.5001,-638.4133 53.5001,-638.4132"/>
</g>
<!-- 3:x -->
<g id="node4" class="node">
<title>3:x</title>
<ellipse fill="none" stroke="#000000" cx="50" cy="-538" rx="27" ry="18"/>
<text text-anchor="middle" x="50" y="-534.3" font-family="Times,serif" font-size="14.00" fill="#000000">3:x</text>
</g>
<!-- 2:z&#45;&gt;3:x -->
<g id="edge3" class="edge">
<title>2:z&#45;&gt;3:x</title>
<path fill="none" stroke="#000000" d="M50,-591.8314C50,-584.131 50,-574.9743 50,-566.4166"/>
<polygon fill="#000000" stroke="#000000" points="53.5001,-566.4132 50,-556.4133 46.5001,-566.4133 53.5001,-566.4132"/>
</g>
<!-- 4:y -->
<g id="node5" class="node">
<title>4:y</title>
<ellipse fill="none" stroke="#000000" cx="50" cy="-466" rx="27" ry="18"/>
<text text-anchor="middle" x="50" y="-462.3" font-family="Times,serif" font-size="14.00" fill="#000000">4:y</text>
</g>
<!-- 3:x&#45;&gt;4:y -->
<g id="edge4" class="edge">
<title>3:x&#45;&gt;4:y</title>
<path fill="none" stroke="#000000" d="M50,-519.8314C50,-512.131 50,-502.9743 50,-494.4166"/>
<polygon fill="#000000" stroke="#000000" points="53.5001,-494.4132 50,-484.4133 46.5001,-494.4133 53.5001,-494.4132"/>
</g>
<!-- 5:z -->
<g id="node6" class="node">
<title>5:z</title>
<ellipse fill="none" stroke="#000000" cx="50" cy="-394" rx="27" ry="18"/>
<text text-anchor="middle" x="50" y="-390.3" font-family="Times,serif" font-size="14.00" fill="#000000">5:z</text>
</g>
<!-- 4:y&#45;&gt;5:z -->
<g id="edge5" class="edge">
<title>4:y&#45;&gt;5:z</title>
<path fill="none" stroke="#000000" d="M50,-447.8314C50,-440.131 50,-430.9743 50,-422.4166"/>
<polygon fill="#000000" stroke="#000000" points="53.5001,-422.4132 50,-412.4133 46.5001,-422.4133 53.5001,-422.4132"/>
</g>
<!-- 6:x -->
<g id="node7" class="node">
<title>6:x</title>
<ellipse fill="none" stroke="#000000" cx="50" cy="-322" rx="27" ry="18"/>
<text text-anchor="middle" x="50" y="-318.3" font-family="Times,serif" font-size="14.00" fill="#000000">6:x</text>
</g>
<!-- 5:z&#45;&gt;6:x -->
<g id="edge6" class="edge">
<title>5:z&#45;&gt;6:x</title>
<path fill="none" stroke="#000000" d="M50,-375.8314C50,-368.131 50,-358.9743 50,-350.4166"/>
<polygon fill="#000000" stroke="#000000" points="53.5001,-350.4132 50,-340.4133 46.5001,-350.4133 53.5001,-350.4132"/>
</g>
<!-- 7:y -->
<g id="node8" class="node">
<title>7:y</title>
<ellipse fill="none" stroke="#000000" cx="50" cy="-250" rx="27" ry="18"/>
<text text-anchor="middle" x="50" y="-246.3" font-family="Times,serif" font-size="14.00" fill="#000000">7:y</text>
</g>
<!-- 6:x&#45;&gt;7:y -->
<g id="edge7" class="edge">
<title>6:x&#45;&gt;7:y</title>
<path fill="none" stroke="#000000" d="M50,-303.8314C50,-296.131 50,-286.9743 50,-278.4166"/>
<polygon fill="#000000" stroke="#000000" points="53.5001,-278.4132 50,-268.4133 46.5001,-278.4133 53.5001,-278.4132"/>
</g>
<!-- 8:z -->
<g id="node9" class="node">
<title>8:z</title>
<ellipse fill="none" stroke="#000000" cx="50" cy="-178" rx="27" ry="18"/>
<text text-anchor="middle" x="50" y="-174.3" font-family="Times,serif" font-size="14.00" fill="#000000">8:z</text>
</g>
<!-- 7:y&#45;&gt;8:z -->
<g id="edge8" class="edge">
<title>7:y&#45;&gt;8:z</title>
<path fill="none" stroke="#000000" d="M50,-231.8314C50,-224.131 50,-214.9743 50,-206.4166"/>
<polygon fill="#000000" stroke="#000000" points="53.5001,-206.4132 50,-196.4133 46.5001,-206.4133 53.5001,-206.4132"/>
</g>
<!-- 9:x -->
<g id="node10" class="node">
<title>9:x</title>
<ellipse fill="none" stroke="#000000" cx="50" cy="-106" rx="27" ry="18"/>
<text text-anchor="middle" x="50" y="-102.3" font-family="Times,serif" font-size="14.00" fill="#000000">9:x</text>
</g>
<!-- 8:z&#45;&gt;9:x -->
<g id="edge9" class="edge">
<title>8:z&#45;&gt;9:x</title>
<path fill="none" stroke="#000000" d="M50,-159.8314C50,-152.131 50,-142.9743 50,-134.4166"/>
<polygon fill="#000000" stroke="#000000" points="53.5001,-134.4132 50,-124.4133 46.5001,-134.4133 53.5001,-134.4132"/>
</g>
<!-- 10:y -->
<g id="node11" class="node">
<title>10:y</title>
<ellipse fill="none" stroke="#000000" cx="50" cy="-34" rx="27" ry="18"/>
<text text-anchor="middle" x="50" y="-30.3" font-family="Times,serif" font-size="14.00" fill="#000000">10:y</text>
</g>
<!-- 9:x&#45;&gt;10:y -->
<g id="edge10" class="edge">
<title>9:x&#45;&gt;10:y</title>
<path fill="none" stroke="#000000" d="M50,-87.8314C50,-80.131 50,-70.9743 50,-62.4166"/>
<polygon fill="#000000" stroke="#000000" points="53.5001,-62.4132 50,-52.4133 46.5001,-62.4133 53.5001,-62.4132"/>
</g>
<!-- White: &#45;60,&#45;13,&#45;2 -->
<g id="node12" class="node">
<title>White: &#45;60,&#45;13,&#45;2</title>
<ellipse fill="none" stroke="#000000" cx="181" cy="-250" rx="73.387" ry="18"/>
<text text-anchor="middle" x="181" y="-246.3" font-family="Times,serif" font-size="14.00" fill="#000000">White: &#45;60,&#45;13,&#45;2</text>
</g>
<!-- Green: &#45;59,&#45;89,0 -->
<g id="node13" class="node">
<title>Green: &#45;59,&#45;89,0</title>
<ellipse fill="none" stroke="#000000" cx="178" cy="-178" rx="69.5877" ry="18"/>
<text text-anchor="middle" x="178" y="-174.3" font-family="Times,serif" font-size="14.00" fill="#000000">Green: &#45;59,&#45;89,0</text>
</g>
<!-- White: &#45;60,&#45;13,&#45;2&#45;&gt;Green: &#45;59,&#45;89,0 -->
<g id="edge11" class="edge">
<title>White: &#45;60,&#45;13,&#45;2&#45;&gt;Green: &#45;59,&#45;89,0</title>
<path fill="none" stroke="#7fff00" d="M180.243,-231.8314C179.9221,-224.131 179.5406,-214.9743 179.184,-206.4166"/>
<polygon fill="#7fff00" stroke="#7fff00" points="182.6806,-206.2589 178.7672,-196.4133 175.6867,-206.5503 182.6806,-206.2589"/>
</g>
<!-- Blue: &#45;56,31,4 -->
<g id="node14" class="node">
<title>Blue: &#45;56,31,4</title>
<ellipse fill="none" stroke="#000000" cx="327" cy="-178" rx="61.99" ry="18"/>
<text text-anchor="middle" x="327" y="-174.3" font-family="Times,serif" font-size="14.00" fill="#000000">Blue: &#45;56,31,4</text>
</g>
<!-- White: &#45;60,&#45;13,&#45;2&#45;&gt;Blue: &#45;56,31,4 -->
<g id="edge12" class="edge">
<title>White: &#45;60,&#45;13,&#45;2&#45;&gt;Blue: &#45;56,31,4</title>
<path fill="none" stroke="#7fff00" d="M213.7652,-233.8418C235.1942,-223.2741 263.3498,-209.3891 286.2243,-198.1086"/>
<polygon fill="#7fff00" stroke="#7fff00" points="287.9262,-201.1718 295.3469,-193.6098 284.8301,-194.8937 287.9262,-201.1718"/>
</g>
<!-- Orange: &#45;75,&#45;5,&#45;22 -->
<g id="node15" class="node">
<title>Orange: &#45;75,&#45;5,&#45;22</title>
<ellipse fill="none" stroke="#000000" cx="185" cy="-322" rx="77.1866" ry="18"/>
<text text-anchor="middle" x="185" y="-318.3" font-family="Times,serif" font-size="14.00" fill="#000000">Orange: &#45;75,&#45;5,&#45;22</text>
</g>
<!-- Orange: &#45;75,&#45;5,&#45;22&#45;&gt;White: &#45;60,&#45;13,&#45;2 -->
<g id="edge13" class="edge">
<title>Orange: &#45;75,&#45;5,&#45;22&#45;&gt;White: &#45;60,&#45;13,&#45;2</title>
<path fill="none" stroke="#5f9ea0" d="M183.9906,-303.8314C183.5628,-296.131 183.0541,-286.9743 182.5787,-278.4166"/>
<polygon fill="#5f9ea0" stroke="#5f9ea0" points="186.0724,-278.2037 182.023,-268.4133 179.0831,-278.592 186.0724,-278.2037"/>
</g>
<!-- White: &#45;35,&#45;44,89 -->
<g id="node16" class="node">
<title>White: &#45;35,&#45;44,89</title>
<ellipse fill="none" stroke="#000000" cx="486" cy="-106" rx="74.9875" ry="18"/>
<text text-anchor="middle" x="486" y="-102.3" font-family="Times,serif" font-size="14.00" fill="#000000">White: &#45;35,&#45;44,89</text>
</g>
<!-- Orange: &#45;54,&#45;17,53 -->
<g id="node17" class="node">
<title>Orange: &#45;54,&#45;17,53</title>
<ellipse fill="none" stroke="#000000" cx="486" cy="-34" rx="78.7863" ry="18"/>
<text text-anchor="middle" x="486" y="-30.3" font-family="Times,serif" font-size="14.00" fill="#000000">Orange: &#45;54,&#45;17,53</text>
</g>
<!-- White: &#45;35,&#45;44,89&#45;&gt;Orange: &#45;54,&#45;17,53 -->
<g id="edge14" class="edge">
<title>White: &#45;35,&#45;44,89&#45;&gt;Orange: &#45;54,&#45;17,53</title>
<path fill="none" stroke="#ff7f50" d="M486,-87.8314C486,-80.131 486,-70.9743 486,-62.4166"/>
<polygon fill="#ff7f50" stroke="#ff7f50" points="489.5001,-62.4132 486,-52.4133 482.5001,-62.4133 489.5001,-62.4132"/>
</g>
<!-- Auburn: &#45;22,&#45;40,38 -->
<g id="node18" class="node">
<title>Auburn: &#45;22,&#45;40,38</title>
<ellipse fill="none" stroke="#000000" cx="486" cy="-178" rx="79.0865" ry="18"/>
<text text-anchor="middle" x="486" y="-174.3" font-family="Times,serif" font-size="14.00" fill="#000000">Auburn: &#45;22,&#45;40,38</text>
</g>
<!-- Auburn: &#45;22,&#45;40,38&#45;&gt;White: &#45;35,&#45;44,89 -->
<g id="edge15" class="edge">
<title>Auburn: &#45;22,&#45;40,38&#45;&gt;White: &#45;35,&#45;44,89</title>
<path fill="none" stroke="#d2691e" d="M486,-159.8314C486,-152.131 486,-142.9743 486,-134.4166"/>
<polygon fill="#d2691e" stroke="#d2691e" points="489.5001,-134.4132 486,-124.4133 482.5001,-134.4133 489.5001,-134.4132"/>
</g>
<!-- Magenta: &#45;16,&#45;12,76 -->
<g id="node19" class="node">
<title>Magenta: &#45;16,&#45;12,76</title>
<ellipse fill="none" stroke="#000000" cx="356" cy="-250" rx="83.6854" ry="18"/>
<text text-anchor="middle" x="356" y="-246.3" font-family="Times,serif" font-size="14.00" fill="#000000">Magenta: &#45;16,&#45;12,76</text>
</g>
<!-- Magenta: &#45;16,&#45;12,76&#45;&gt;Auburn: &#45;22,&#45;40,38 -->
<g id="edge16" class="edge">
<title>Magenta: &#45;16,&#45;12,76&#45;&gt;Auburn: &#45;22,&#45;40,38</title>
<path fill="none" stroke="#7fff00" d="M386.4792,-233.1192C404.4899,-223.144 427.4821,-210.4099 446.8286,-199.695"/>
<polygon fill="#7fff00" stroke="#7fff00" points="448.6596,-202.6819 455.7117,-194.775 445.268,-196.5583 448.6596,-202.6819"/>
</g>
<!-- Auburn: &#45;59,&#45;11,55 -->
<g id="node20" class="node">
<title>Auburn: &#45;59,&#45;11,55</title>
<ellipse fill="none" stroke="#000000" cx="663" cy="-178" rx="79.0865" ry="18"/>
<text text-anchor="middle" x="663" y="-174.3" font-family="Times,serif" font-size="14.00" fill="#000000">Auburn: &#45;59,&#45;11,55</text>
</g>
<!-- Magenta: &#45;16,&#45;12,76&#45;&gt;Auburn: &#45;59,&#45;11,55 -->
<g id="edge17" class="edge">
<title>Magenta: &#45;16,&#45;12,76&#45;&gt;Auburn: &#45;59,&#45;11,55</title>
<path fill="none" stroke="#7fff00" d="M412.6663,-236.7102C465.0221,-224.4313 542.7807,-206.1948 597.7173,-193.3106"/>
<polygon fill="#7fff00" stroke="#7fff00" points="598.7616,-196.6607 607.6983,-190.9698 597.1632,-189.8456 598.7616,-196.6607"/>
</g>
<!-- Yellow: &#45;7,8,34 -->
<g id="node21" class="node">
<title>Yellow: &#45;7,8,34</title>
<ellipse fill="none" stroke="#000000" cx="347" cy="-322" rx="66.8882" ry="18"/>
<text text-anchor="middle" x="347" y="-318.3" font-family="Times,serif" font-size="14.00" fill="#000000">Yellow: &#45;7,8,34</text>
</g>
<!-- Yellow: &#45;7,8,34&#45;&gt;Magenta: &#45;16,&#45;12,76 -->
<g id="edge18" class="edge">
<title>Yellow: &#45;7,8,34&#45;&gt;Magenta: &#45;16,&#45;12,76</title>
<path fill="none" stroke="#5f9ea0" d="M349.2711,-303.8314C350.2336,-296.131 351.3782,-286.9743 352.4479,-278.4166"/>
<polygon fill="#5f9ea0" stroke="#5f9ea0" points="355.9309,-278.7702 353.6983,-268.4133 348.9849,-277.9019 355.9309,-278.7702"/>
</g>
<!-- Orange: &#45;22,15,22 -->
<g id="node22" class="node">
<title>Orange: &#45;22,15,22</title>
<ellipse fill="none" stroke="#000000" cx="283" cy="-394" rx="75.2868" ry="18"/>
<text text-anchor="middle" x="283" y="-390.3" font-family="Times,serif" font-size="14.00" fill="#000000">Orange: &#45;22,15,22</text>
</g>
<!-- Orange: &#45;22,15,22&#45;&gt;Orange: &#45;75,&#45;5,&#45;22 -->
<g id="edge19" class="edge">
<title>Orange: &#45;22,15,22&#45;&gt;Orange: &#45;75,&#45;5,&#45;22</title>
<path fill="none" stroke="#deb887" d="M259.2769,-376.5708C246.5171,-367.1963 230.6083,-355.5081 216.7908,-345.3565"/>
<polygon fill="#deb887" stroke="#deb887" points="218.6357,-342.3689 208.5046,-339.2687 214.4912,-348.0101 218.6357,-342.3689"/>
</g>
<!-- Orange: &#45;22,15,22&#45;&gt;Yellow: &#45;7,8,34 -->
<g id="edge20" class="edge">
<title>Orange: &#45;22,15,22&#45;&gt;Yellow: &#45;7,8,34</title>
<path fill="none" stroke="#deb887" d="M298.8202,-376.2022C306.5705,-367.4832 316.039,-356.8311 324.5245,-347.2849"/>
<polygon fill="#deb887" stroke="#deb887" points="327.334,-349.3924 331.3618,-339.593 322.1021,-344.7419 327.334,-349.3924"/>
</g>
<!-- Blue: &#45;71,33,31 -->
<g id="node23" class="node">
<title>Blue: &#45;71,33,31</title>
<ellipse fill="none" stroke="#000000" cx="478" cy="-394" rx="66.0889" ry="18"/>
<text text-anchor="middle" x="478" y="-390.3" font-family="Times,serif" font-size="14.00" fill="#000000">Blue: &#45;71,33,31</text>
</g>
<!-- Blue: &#45;36,46,&#45;74 -->
<g id="node24" class="node">
<title>Blue: &#45;36,46,&#45;74</title>
<ellipse fill="none" stroke="#000000" cx="501" cy="-322" rx="69.5877" ry="18"/>
<text text-anchor="middle" x="501" y="-318.3" font-family="Times,serif" font-size="14.00" fill="#000000">Blue: &#45;36,46,&#45;74</text>
</g>
<!-- Blue: &#45;71,33,31&#45;&gt;Blue: &#45;36,46,&#45;74 -->
<g id="edge21" class="edge">
<title>Blue: &#45;71,33,31&#45;&gt;Blue: &#45;36,46,&#45;74</title>
<path fill="none" stroke="#deb887" d="M483.8039,-375.8314C486.2908,-368.0463 489.2531,-358.7729 492.0125,-350.1347"/>
<polygon fill="#deb887" stroke="#deb887" points="495.409,-351.0041 495.118,-340.4133 488.7409,-348.874 495.409,-351.0041"/>
</g>
<!-- Yellow: &#45;11,33,13 -->
<g id="node25" class="node">
<title>Yellow: &#45;11,33,13</title>
<ellipse fill="none" stroke="#000000" cx="283" cy="-466" rx="75.2868" ry="18"/>
<text text-anchor="middle" x="283" y="-462.3" font-family="Times,serif" font-size="14.00" fill="#000000">Yellow: &#45;11,33,13</text>
</g>
<!-- Yellow: &#45;11,33,13&#45;&gt;Orange: &#45;22,15,22 -->
<g id="edge22" class="edge">
<title>Yellow: &#45;11,33,13&#45;&gt;Orange: &#45;22,15,22</title>
<path fill="none" stroke="#a52a2a" d="M283,-447.8314C283,-440.131 283,-430.9743 283,-422.4166"/>
<polygon fill="#a52a2a" stroke="#a52a2a" points="286.5001,-422.4132 283,-412.4133 279.5001,-422.4133 286.5001,-422.4132"/>
</g>
<!-- Yellow: &#45;11,33,13&#45;&gt;Blue: &#45;71,33,31 -->
<g id="edge23" class="edge">
<title>Yellow: &#45;11,33,13&#45;&gt;Blue: &#45;71,33,31</title>
<path fill="none" stroke="#a52a2a" d="M324.3545,-450.7307C354.9522,-439.4331 396.7407,-424.0034 429.013,-412.0875"/>
<polygon fill="#a52a2a" stroke="#a52a2a" points="430.5315,-415.2579 438.7002,-408.5107 428.1069,-408.6912 430.5315,-415.2579"/>
</g>
<!-- Magenta: &#45;79,&#45;20,38 -->
<g id="node26" class="node">
<title>Magenta: &#45;79,&#45;20,38</title>
<ellipse fill="none" stroke="#000000" cx="248" cy="-538" rx="83.6854" ry="18"/>
<text text-anchor="middle" x="248" y="-534.3" font-family="Times,serif" font-size="14.00" fill="#000000">Magenta: &#45;79,&#45;20,38</text>
</g>
<!-- Magenta: &#45;79,&#45;20,38&#45;&gt;Yellow: &#45;11,33,13 -->
<g id="edge24" class="edge">
<title>Magenta: &#45;79,&#45;20,38&#45;&gt;Yellow: &#45;11,33,13</title>
<path fill="none" stroke="#8a2be2" d="M256.832,-519.8314C260.7581,-511.7547 265.463,-502.0761 269.7939,-493.1668"/>
<polygon fill="#8a2be2" stroke="#8a2be2" points="273.0679,-494.4373 274.2921,-483.9134 266.7723,-491.3769 273.0679,-494.4373"/>
</g>
<!-- Yellow: &#45;64,&#45;47,&#45;98 -->
<g id="node27" class="node">
<title>Yellow: &#45;64,&#45;47,&#45;98</title>
<ellipse fill="none" stroke="#000000" cx="292" cy="-610" rx="81.4863" ry="18"/>
<text text-anchor="middle" x="292" y="-606.3" font-family="Times,serif" font-size="14.00" fill="#000000">Yellow: &#45;64,&#45;47,&#45;98</text>
</g>
<!-- Yellow: &#45;64,&#45;47,&#45;98&#45;&gt;Magenta: &#45;79,&#45;20,38 -->
<g id="edge25" class="edge">
<title>Yellow: &#45;64,&#45;47,&#45;98&#45;&gt;Magenta: &#45;79,&#45;20,38</title>
<path fill="none" stroke="#0000ff" d="M280.8969,-591.8314C275.8562,-583.5829 269.7944,-573.6635 264.2551,-564.5992"/>
<polygon fill="#0000ff" stroke="#0000ff" points="267.1481,-562.6212 258.9471,-555.9134 261.1751,-566.2713 267.1481,-562.6212"/>
</g>
<!-- Red: &#45;88,88,&#45;51 -->
<g id="node28" class="node">
<title>Red: &#45;88,88,&#45;51</title>
<ellipse fill="none" stroke="#000000" cx="501" cy="-610" rx="66.8882" ry="18"/>
<text text-anchor="middle" x="501" y="-606.3" font-family="Times,serif" font-size="14.00" fill="#000000">Red: &#45;88,88,&#45;51</text>
</g>
<!-- Blue: &#45;81,93,&#45;95 -->
<g id="node29" class="node">
<title>Blue: &#45;81,93,&#45;95</title>
<ellipse fill="none" stroke="#000000" cx="419" cy="-538" rx="69.5877" ry="18"/>
<text text-anchor="middle" x="419" y="-534.3" font-family="Times,serif" font-size="14.00" fill="#000000">Blue: &#45;81,93,&#45;95</text>
</g>
<!-- Red: &#45;88,88,&#45;51&#45;&gt;Blue: &#45;81,93,&#45;95 -->
<g id="edge26" class="edge">
<title>Red: &#45;88,88,&#45;51&#45;&gt;Blue: &#45;81,93,&#45;95</title>
<path fill="none" stroke="#0000ff" d="M481.1501,-592.5708C470.675,-583.3732 457.6634,-571.9484 446.2567,-561.9328"/>
<polygon fill="#0000ff" stroke="#0000ff" points="448.4909,-559.2367 438.6671,-555.2687 443.8722,-564.4968 448.4909,-559.2367"/>
</g>
<!-- Auburn: &#45;98,87,44 -->
<g id="node30" class="node">
<title>Auburn: &#45;98,87,44</title>
<ellipse fill="none" stroke="#000000" cx="583" cy="-538" rx="76.8869" ry="18"/>
<text text-anchor="middle" x="583" y="-534.3" font-family="Times,serif" font-size="14.00" fill="#000000">Auburn: &#45;98,87,44</text>
</g>
<!-- Red: &#45;88,88,&#45;51&#45;&gt;Auburn: &#45;98,87,44 -->
<g id="edge27" class="edge">
<title>Red: &#45;88,88,&#45;51&#45;&gt;Auburn: &#45;98,87,44</title>
<path fill="none" stroke="#0000ff" d="M520.8499,-592.5708C531.248,-583.4408 544.1454,-572.1163 555.4914,-562.1539"/>
<polygon fill="#0000ff" stroke="#0000ff" points="557.8436,-564.7463 563.0487,-555.5182 553.2249,-559.4862 557.8436,-564.7463"/>
</g>
<!-- Blue: &#45;91,74,&#45;5 -->
<g id="node31" class="node">
<title>Blue: &#45;91,74,&#45;5</title>
<ellipse fill="none" stroke="#000000" cx="501" cy="-682" rx="64.9885" ry="18"/>
<text text-anchor="middle" x="501" y="-678.3" font-family="Times,serif" font-size="14.00" fill="#000000">Blue: &#45;91,74,&#45;5</text>
</g>
<!-- Blue: &#45;91,74,&#45;5&#45;&gt;Yellow: &#45;64,&#45;47,&#45;98 -->
<g id="edge28" class="edge">
<title>Blue: &#45;91,74,&#45;5&#45;&gt;Yellow: &#45;64,&#45;47,&#45;98</title>
<path fill="none" stroke="#000000" d="M460.2065,-667.9468C427.6309,-656.7245 381.6992,-640.9011 346.0623,-628.6243"/>
<polygon fill="#000000" stroke="#000000" points="346.8983,-625.2105 336.3036,-625.2625 344.6182,-631.8288 346.8983,-625.2105"/>
</g>
<!-- Blue: &#45;91,74,&#45;5&#45;&gt;Red: &#45;88,88,&#45;51 -->
<g id="edge29" class="edge">
<title>Blue: &#45;91,74,&#45;5&#45;&gt;Red: &#45;88,88,&#45;51</title>
<path fill="none" stroke="#000000" d="M501,-663.8314C501,-656.131 501,-646.9743 501,-638.4166"/>
<polygon fill="#000000" stroke="#000000" points="504.5001,-638.4132 501,-628.4133 497.5001,-638.4133 504.5001,-638.4132"/>
</g>
<!-- Green: 69,&#45;37,&#45;88 -->
<g id="node32" class="node">
<title>Green: 69,&#45;37,&#45;88</title>
<ellipse fill="none" stroke="#000000" cx="752" cy="-538" rx="74.187" ry="18"/>
<text text-anchor="middle" x="752" y="-534.3" font-family="Times,serif" font-size="14.00" fill="#000000">Green: 69,&#45;37,&#45;88</text>
</g>
<!-- White: 61,63,&#45;75 -->
<g id="node33" class="node">
<title>White: 61,63,&#45;75</title>
<ellipse fill="none" stroke="#000000" cx="538" cy="-466" rx="71.4873" ry="18"/>
<text text-anchor="middle" x="538" y="-462.3" font-family="Times,serif" font-size="14.00" fill="#000000">White: 61,63,&#45;75</text>
</g>
<!-- Green: 69,&#45;37,&#45;88&#45;&gt;White: 61,63,&#45;75 -->
<g id="edge30" class="edge">
<title>Green: 69,&#45;37,&#45;88&#45;&gt;White: 61,63,&#45;75</title>
<path fill="none" stroke="#8a2be2" d="M708.436,-523.3429C674.4774,-511.9176 627.1773,-496.0036 591.0196,-483.8384"/>
<polygon fill="#8a2be2" stroke="#8a2be2" points="591.7312,-480.385 581.1371,-480.5134 589.4989,-487.0196 591.7312,-480.385"/>
</g>
<!-- Orange: 70,&#45;81,&#45;92 -->
<g id="node34" class="node">
<title>Orange: 70,&#45;81,&#45;92</title>
<ellipse fill="none" stroke="#000000" cx="706" cy="-466" rx="78.7863" ry="18"/>
<text text-anchor="middle" x="706" y="-462.3" font-family="Times,serif" font-size="14.00" fill="#000000">Orange: 70,&#45;81,&#45;92</text>
</g>
<!-- Green: 69,&#45;37,&#45;88&#45;&gt;Orange: 70,&#45;81,&#45;92 -->
<g id="edge31" class="edge">
<title>Green: 69,&#45;37,&#45;88&#45;&gt;Orange: 70,&#45;81,&#45;92</title>
<path fill="none" stroke="#8a2be2" d="M740.6292,-520.2022C735.2662,-511.8079 728.7583,-501.6218 722.8385,-492.3558"/>
<polygon fill="#8a2be2" stroke="#8a2be2" points="725.7328,-490.3851 717.3994,-483.8425 719.8339,-494.1539 725.7328,-490.3851"/>
</g>
<!-- Orange: 6,72,10 -->
<g id="node35" class="node">
<title>Orange: 6,72,10</title>
<ellipse fill="none" stroke="#000000" cx="657" cy="-322" rx="68.4888" ry="18"/>
<text text-anchor="middle" x="657" y="-318.3" font-family="Times,serif" font-size="14.00" fill="#000000">Orange: 6,72,10</text>
</g>
<!-- Purple: 11,&#45;93,49 -->
<g id="node36" class="node">
<title>Purple: 11,&#45;93,49</title>
<ellipse fill="none" stroke="#000000" cx="531" cy="-250" rx="72.5877" ry="18"/>
<text text-anchor="middle" x="531" y="-246.3" font-family="Times,serif" font-size="14.00" fill="#000000">Purple: 11,&#45;93,49</text>
</g>
<!-- Orange: 6,72,10&#45;&gt;Purple: 11,&#45;93,49 -->
<g id="edge32" class="edge">
<title>Orange: 6,72,10&#45;&gt;Purple: 11,&#45;93,49</title>
<path fill="none" stroke="#5f9ea0" d="M628.0931,-305.4817C610.5309,-295.4462 587.9106,-282.5203 568.9225,-271.67"/>
<polygon fill="#5f9ea0" stroke="#5f9ea0" points="570.6277,-268.6133 560.2088,-266.6907 567.1547,-274.691 570.6277,-268.6133"/>
</g>
<!-- White: 11,65,&#45;54 -->
<g id="node37" class="node">
<title>White: 11,65,&#45;54</title>
<ellipse fill="none" stroke="#000000" cx="746" cy="-394" rx="71.4873" ry="18"/>
<text text-anchor="middle" x="746" y="-390.3" font-family="Times,serif" font-size="14.00" fill="#000000">White: 11,65,&#45;54</text>
</g>
<!-- White: 11,65,&#45;54&#45;&gt;Orange: 6,72,10 -->
<g id="edge33" class="edge">
<title>White: 11,65,&#45;54&#45;&gt;Orange: 6,72,10</title>
<path fill="none" stroke="#deb887" d="M724.4556,-376.5708C712.9769,-367.2847 698.6921,-355.7285 686.2269,-345.6442"/>
<polygon fill="#deb887" stroke="#deb887" points="688.3218,-342.8371 678.346,-339.2687 683.9192,-348.2793 688.3218,-342.8371"/>
</g>
<!-- Auburn: 0,79,&#45;6 -->
<g id="node38" class="node">
<title>Auburn: 0,79,&#45;6</title>
<ellipse fill="none" stroke="#000000" cx="870" cy="-466" rx="67.6881" ry="18"/>
<text text-anchor="middle" x="870" y="-462.3" font-family="Times,serif" font-size="14.00" fill="#000000">Auburn: 0,79,&#45;6</text>
</g>
<!-- Auburn: 0,79,&#45;6&#45;&gt;White: 11,65,&#45;54 -->
<g id="edge34" class="edge">
<title>Auburn: 0,79,&#45;6&#45;&gt;White: 11,65,&#45;54</title>
<path fill="none" stroke="#a52a2a" d="M841.5519,-449.4817C824.3467,-439.4916 802.2086,-426.6373 783.5744,-415.8174"/>
<polygon fill="#a52a2a" stroke="#a52a2a" points="785.1505,-412.6854 774.7451,-410.6907 781.6355,-418.7389 785.1505,-412.6854"/>
</g>
<!-- Auburn: 55,&#45;88,&#45;12 -->
<g id="node39" class="node">
<title>Auburn: 55,&#45;88,&#45;12</title>
<ellipse fill="none" stroke="#000000" cx="701" cy="-250" rx="79.0865" ry="18"/>
<text text-anchor="middle" x="701" y="-246.3" font-family="Times,serif" font-size="14.00" fill="#000000">Auburn: 55,&#45;88,&#45;12</text>
</g>
<!-- Magenta: 77,&#45;79,6 -->
<g id="node40" class="node">
<title>Magenta: 77,&#45;79,6</title>
<ellipse fill="none" stroke="#000000" cx="837" cy="-178" rx="76.8869" ry="18"/>
<text text-anchor="middle" x="837" y="-174.3" font-family="Times,serif" font-size="14.00" fill="#000000">Magenta: 77,&#45;79,6</text>
</g>
<!-- Auburn: 55,&#45;88,&#45;12&#45;&gt;Magenta: 77,&#45;79,6 -->
<g id="edge35" class="edge">
<title>Auburn: 55,&#45;88,&#45;12&#45;&gt;Magenta: 77,&#45;79,6</title>
<path fill="none" stroke="#7fff00" d="M732.543,-233.3008C751.5961,-223.2139 776.0706,-210.2567 796.5393,-199.4204"/>
<polygon fill="#7fff00" stroke="#7fff00" points="798.4278,-202.3808 805.6281,-194.6087 795.1526,-196.1943 798.4278,-202.3808"/>
</g>
<!-- Purple: 17,&#45;83,&#45;36 -->
<g id="node41" class="node">
<title>Purple: 17,&#45;83,&#45;36</title>
<ellipse fill="none" stroke="#000000" cx="819" cy="-322" rx="75.2868" ry="18"/>
<text text-anchor="middle" x="819" y="-318.3" font-family="Times,serif" font-size="14.00" fill="#000000">Purple: 17,&#45;83,&#45;36</text>
</g>
<!-- Purple: 17,&#45;83,&#45;36&#45;&gt;Auburn: 55,&#45;88,&#45;12 -->
<g id="edge36" class="edge">
<title>Purple: 17,&#45;83,&#45;36&#45;&gt;Auburn: 55,&#45;88,&#45;12</title>
<path fill="none" stroke="#5f9ea0" d="M791.3342,-305.1192C775.324,-295.3502 754.9771,-282.9352 737.6488,-272.362"/>
<polygon fill="#5f9ea0" stroke="#5f9ea0" points="739.2607,-269.2455 728.9013,-267.0245 735.6146,-275.2209 739.2607,-269.2455"/>
</g>
<!-- Yellow: 88,&#45;90,75 -->
<g id="node42" class="node">
<title>Yellow: 88,&#45;90,75</title>
<ellipse fill="none" stroke="#000000" cx="988" cy="-322" rx="75.2868" ry="18"/>
<text text-anchor="middle" x="988" y="-318.3" font-family="Times,serif" font-size="14.00" fill="#000000">Yellow: 88,&#45;90,75</text>
</g>
<!-- White: 99,&#45;49,96 -->
<g id="node43" class="node">
<title>White: 99,&#45;49,96</title>
<ellipse fill="none" stroke="#000000" cx="870" cy="-250" rx="71.4873" ry="18"/>
<text text-anchor="middle" x="870" y="-246.3" font-family="Times,serif" font-size="14.00" fill="#000000">White: 99,&#45;49,96</text>
</g>
<!-- Yellow: 88,&#45;90,75&#45;&gt;White: 99,&#45;49,96 -->
<g id="edge37" class="edge">
<title>Yellow: 88,&#45;90,75&#45;&gt;White: 99,&#45;49,96</title>
<path fill="none" stroke="#5f9ea0" d="M960.3342,-305.1192C944.208,-295.2794 923.682,-282.7551 906.2726,-272.1324"/>
<polygon fill="#5f9ea0" stroke="#5f9ea0" points="907.8519,-268.996 897.4924,-266.775 904.2058,-274.9715 907.8519,-268.996"/>
</g>
<!-- Red: 91,&#45;84,51 -->
<g id="node44" class="node">
<title>Red: 91,&#45;84,51</title>
<ellipse fill="none" stroke="#000000" cx="988" cy="-394" rx="63.8893" ry="18"/>
<text text-anchor="middle" x="988" y="-390.3" font-family="Times,serif" font-size="14.00" fill="#000000">Red: 91,&#45;84,51</text>
</g>
<!-- Red: 91,&#45;84,51&#45;&gt;Purple: 17,&#45;83,&#45;36 -->
<g id="edge38" class="edge">
<title>Red: 91,&#45;84,51&#45;&gt;Purple: 17,&#45;83,&#45;36</title>
<path fill="none" stroke="#deb887" d="M952.5721,-378.9064C927.2903,-368.1355 893.04,-353.5437 865.5518,-341.8327"/>
<polygon fill="#deb887" stroke="#deb887" points="866.7085,-338.5212 856.1368,-337.8216 863.9648,-344.9611 866.7085,-338.5212"/>
</g>
<!-- Red: 91,&#45;84,51&#45;&gt;Yellow: 88,&#45;90,75 -->
<g id="edge39" class="edge">
<title>Red: 91,&#45;84,51&#45;&gt;Yellow: 88,&#45;90,75</title>
<path fill="none" stroke="#deb887" d="M988,-375.8314C988,-368.131 988,-358.9743 988,-350.4166"/>
<polygon fill="#deb887" stroke="#deb887" points="991.5001,-350.4132 988,-340.4133 984.5001,-350.4133 991.5001,-350.4132"/>
</g>
<!-- Black: 45,67,2 -->
<g id="node45" class="node">
<title>Black: 45,67,2</title>
<ellipse fill="none" stroke="#000000" cx="1023" cy="-250" rx="63.0888" ry="18"/>
<text text-anchor="middle" x="1023" y="-246.3" font-family="Times,serif" font-size="14.00" fill="#000000">Black: 45,67,2</text>
</g>
<!-- Orange: 18,54,13 -->
<g id="node46" class="node">
<title>Orange: 18,54,13</title>
<ellipse fill="none" stroke="#000000" cx="1023" cy="-178" rx="72.5877" ry="18"/>
<text text-anchor="middle" x="1023" y="-174.3" font-family="Times,serif" font-size="14.00" fill="#000000">Orange: 18,54,13</text>
</g>
<!-- Black: 45,67,2&#45;&gt;Orange: 18,54,13 -->
<g id="edge40" class="edge">
<title>Black: 45,67,2&#45;&gt;Orange: 18,54,13</title>
<path fill="none" stroke="#7fff00" d="M1023,-231.8314C1023,-224.131 1023,-214.9743 1023,-206.4166"/>
<polygon fill="#7fff00" stroke="#7fff00" points="1026.5001,-206.4132 1023,-196.4133 1019.5001,-206.4133 1026.5001,-206.4132"/>
</g>
<!-- Black: 83,9,3 -->
<g id="node47" class="node">
<title>Black: 83,9,3</title>
<ellipse fill="none" stroke="#000000" cx="1156" cy="-322" rx="58.4896" ry="18"/>
<text text-anchor="middle" x="1156" y="-318.3" font-family="Times,serif" font-size="14.00" fill="#000000">Black: 83,9,3</text>
</g>
<!-- Black: 83,9,3&#45;&gt;Black: 45,67,2 -->
<g id="edge41" class="edge">
<title>Black: 83,9,3&#45;&gt;Black: 45,67,2</title>
<path fill="none" stroke="#5f9ea0" d="M1126.8126,-306.1993C1107.6291,-295.8143 1082.3207,-282.1134 1061.4954,-270.8396"/>
<polygon fill="#5f9ea0" stroke="#5f9ea0" points="1063.0393,-267.6955 1052.5789,-266.0127 1059.7068,-273.8513 1063.0393,-267.6955"/>
</g>
<!-- Green: 100,8,10 -->
<g id="node48" class="node">
<title>Green: 100,8,10</title>
<ellipse fill="none" stroke="#000000" cx="1172" cy="-250" rx="68.4888" ry="18"/>
<text text-anchor="middle" x="1172" y="-246.3" font-family="Times,serif" font-size="14.00" fill="#000000">Green: 100,8,10</text>
</g>
<!-- Black: 83,9,3&#45;&gt;Green: 100,8,10 -->
<g id="edge42" class="edge">
<title>Black: 83,9,3&#45;&gt;Green: 100,8,10</title>
<path fill="none" stroke="#5f9ea0" d="M1160.0375,-303.8314C1161.7487,-296.131 1163.7835,-286.9743 1165.6852,-278.4166"/>
<polygon fill="#5f9ea0" stroke="#5f9ea0" points="1169.1554,-278.9344 1167.9082,-268.4133 1162.3221,-277.4159 1169.1554,-278.9344"/>
</g>
<!-- Green: 81,26,23 -->
<g id="node49" class="node">
<title>Green: 81,26,23</title>
<ellipse fill="none" stroke="#000000" cx="1328" cy="-322" rx="68.4888" ry="18"/>
<text text-anchor="middle" x="1328" y="-318.3" font-family="Times,serif" font-size="14.00" fill="#000000">Green: 81,26,23</text>
</g>
<!-- Purple: 21,38,62 -->
<g id="node50" class="node">
<title>Purple: 21,38,62</title>
<ellipse fill="none" stroke="#000000" cx="1328" cy="-250" rx="69.5877" ry="18"/>
<text text-anchor="middle" x="1328" y="-246.3" font-family="Times,serif" font-size="14.00" fill="#000000">Purple: 21,38,62</text>
</g>
<!-- Green: 81,26,23&#45;&gt;Purple: 21,38,62 -->
<g id="edge43" class="edge">
<title>Green: 81,26,23&#45;&gt;Purple: 21,38,62</title>
<path fill="none" stroke="#5f9ea0" d="M1328,-303.8314C1328,-296.131 1328,-286.9743 1328,-278.4166"/>
<polygon fill="#5f9ea0" stroke="#5f9ea0" points="1331.5001,-278.4132 1328,-268.4133 1324.5001,-278.4133 1331.5001,-278.4132"/>
</g>
<!-- Purple: 93,71,84 -->
<g id="node51" class="node">
<title>Purple: 93,71,84</title>
<ellipse fill="none" stroke="#000000" cx="1485" cy="-250" rx="69.5877" ry="18"/>
<text text-anchor="middle" x="1485" y="-246.3" font-family="Times,serif" font-size="14.00" fill="#000000">Purple: 93,71,84</text>
</g>
<!-- Green: 81,26,23&#45;&gt;Purple: 93,71,84 -->
<g id="edge44" class="edge">
<title>Green: 81,26,23&#45;&gt;Purple: 93,71,84</title>
<path fill="none" stroke="#5f9ea0" d="M1362.0667,-306.3771C1385.3377,-295.705 1416.3766,-281.4706 1441.4432,-269.9751"/>
<polygon fill="#5f9ea0" stroke="#5f9ea0" points="1443.0984,-273.0666 1450.7291,-265.7166 1440.1803,-266.7038 1443.0984,-273.0666"/>
</g>
<!-- Black: 43,64,22 -->
<g id="node52" class="node">
<title>Black: 43,64,22</title>
<ellipse fill="none" stroke="#000000" cx="1156" cy="-394" rx="67.6881" ry="18"/>
<text text-anchor="middle" x="1156" y="-390.3" font-family="Times,serif" font-size="14.00" fill="#000000">Black: 43,64,22</text>
</g>
<!-- Black: 43,64,22&#45;&gt;Black: 83,9,3 -->
<g id="edge45" class="edge">
<title>Black: 43,64,22&#45;&gt;Black: 83,9,3</title>
<path fill="none" stroke="#deb887" d="M1156,-375.8314C1156,-368.131 1156,-358.9743 1156,-350.4166"/>
<polygon fill="#deb887" stroke="#deb887" points="1159.5001,-350.4132 1156,-340.4133 1152.5001,-350.4133 1159.5001,-350.4132"/>
</g>
<!-- Black: 43,64,22&#45;&gt;Green: 81,26,23 -->
<g id="edge46" class="edge">
<title>Black: 43,64,22&#45;&gt;Green: 81,26,23</title>
<path fill="none" stroke="#deb887" d="M1192.4768,-378.7307C1218.5872,-367.8007 1253.9366,-353.0033 1281.986,-341.2617"/>
<polygon fill="#deb887" stroke="#deb887" points="1283.7029,-344.3373 1291.5758,-337.2473 1280.9999,-337.8802 1283.7029,-344.3373"/>
</g>
<!-- Orange: 37,&#45;13,&#45;66 -->
<g id="node53" class="node">
<title>Orange: 37,&#45;13,&#45;66</title>
<ellipse fill="none" stroke="#000000" cx="1034" cy="-466" rx="78.7863" ry="18"/>
<text text-anchor="middle" x="1034" y="-462.3" font-family="Times,serif" font-size="14.00" fill="#000000">Orange: 37,&#45;13,&#45;66</text>
</g>
<!-- Orange: 37,&#45;13,&#45;66&#45;&gt;Red: 91,&#45;84,51 -->
<g id="edge47" class="edge">
<title>Orange: 37,&#45;13,&#45;66&#45;&gt;Red: 91,&#45;84,51</title>
<path fill="none" stroke="#a52a2a" d="M1022.3923,-447.8314C1017.1224,-439.5829 1010.785,-429.6635 1004.9939,-420.5992"/>
<polygon fill="#a52a2a" stroke="#a52a2a" points="1007.7781,-418.456 999.4447,-411.9134 1001.8792,-422.2248 1007.7781,-418.456"/>
</g>
<!-- Orange: 37,&#45;13,&#45;66&#45;&gt;Black: 43,64,22 -->
<g id="edge48" class="edge">
<title>Orange: 37,&#45;13,&#45;66&#45;&gt;Black: 43,64,22</title>
<path fill="none" stroke="#a52a2a" d="M1062.6036,-449.1192C1079.5505,-439.1177 1101.197,-426.3427 1119.3827,-415.6102"/>
<polygon fill="#a52a2a" stroke="#a52a2a" points="1121.1632,-418.6235 1127.9964,-410.5267 1117.6054,-412.5951 1121.1632,-418.6235"/>
</g>
<!-- Magenta: 16,77,&#45;45 -->
<g id="node54" class="node">
<title>Magenta: 16,77,&#45;45</title>
<ellipse fill="none" stroke="#000000" cx="925" cy="-538" rx="81.4863" ry="18"/>
<text text-anchor="middle" x="925" y="-534.3" font-family="Times,serif" font-size="14.00" fill="#000000">Magenta: 16,77,&#45;45</text>
</g>
<!-- Magenta: 16,77,&#45;45&#45;&gt;Auburn: 0,79,&#45;6 -->
<g id="edge49" class="edge">
<title>Magenta: 16,77,&#45;45&#45;&gt;Auburn: 0,79,&#45;6</title>
<path fill="none" stroke="#8a2be2" d="M911.4045,-520.2022C904.926,-511.7214 897.0505,-501.4115 889.9143,-492.0696"/>
<polygon fill="#8a2be2" stroke="#8a2be2" points="892.4815,-489.6646 883.6297,-483.8425 886.9188,-493.9139 892.4815,-489.6646"/>
</g>
<!-- Magenta: 16,77,&#45;45&#45;&gt;Orange: 37,&#45;13,&#45;66 -->
<g id="edge50" class="edge">
<title>Magenta: 16,77,&#45;45&#45;&gt;Orange: 37,&#45;13,&#45;66</title>
<path fill="none" stroke="#8a2be2" d="M951.1082,-520.7542C965.6688,-511.1362 983.9806,-499.0403 999.6873,-488.6653"/>
<polygon fill="#8a2be2" stroke="#8a2be2" points="1001.6899,-491.5371 1008.1048,-483.1051 997.8317,-485.6963 1001.6899,-491.5371"/>
</g>
<!-- White: 82,42,&#45;74 -->
<g id="node55" class="node">
<title>White: 82,42,&#45;74</title>
<ellipse fill="none" stroke="#000000" cx="838" cy="-610" rx="71.4873" ry="18"/>
<text text-anchor="middle" x="838" y="-606.3" font-family="Times,serif" font-size="14.00" fill="#000000">White: 82,42,&#45;74</text>
</g>
<!-- White: 82,42,&#45;74&#45;&gt;Green: 69,&#45;37,&#45;88 -->
<g id="edge51" class="edge">
<title>White: 82,42,&#45;74&#45;&gt;Green: 69,&#45;37,&#45;88</title>
<path fill="none" stroke="#0000ff" d="M817.1818,-592.5708C806.2765,-583.4408 792.75,-572.1163 780.8505,-562.1539"/>
<polygon fill="#0000ff" stroke="#0000ff" points="782.839,-559.254 772.9246,-555.5182 778.3454,-564.6213 782.839,-559.254"/>
</g>
<!-- White: 82,42,&#45;74&#45;&gt;Magenta: 16,77,&#45;45 -->
<g id="edge52" class="edge">
<title>White: 82,42,&#45;74&#45;&gt;Magenta: 16,77,&#45;45</title>
<path fill="none" stroke="#0000ff" d="M859.0603,-592.5708C870.0924,-583.4408 883.7762,-572.1163 895.814,-562.1539"/>
<polygon fill="#0000ff" stroke="#0000ff" points="898.3597,-564.5903 903.8321,-555.5182 893.8967,-559.1976 898.3597,-564.5903"/>
</g>
<!-- Auburn: 94,100,&#45;27 -->
<g id="node56" class="node">
<title>Auburn: 94,100,&#45;27</title>
<ellipse fill="none" stroke="#000000" cx="1160" cy="-538" rx="81.4863" ry="18"/>
<text text-anchor="middle" x="1160" y="-534.3" font-family="Times,serif" font-size="14.00" fill="#000000">Auburn: 94,100,&#45;27</text>
</g>
<!-- Orange: 62,97,&#45;28 -->
<g id="node57" class="node">
<title>Orange: 62,97,&#45;28</title>
<ellipse fill="none" stroke="#000000" cx="1206" cy="-466" rx="75.2868" ry="18"/>
<text text-anchor="middle" x="1206" y="-462.3" font-family="Times,serif" font-size="14.00" fill="#000000">Orange: 62,97,&#45;28</text>
</g>
<!-- Auburn: 94,100,&#45;27&#45;&gt;Orange: 62,97,&#45;28 -->
<g id="edge53" class="edge">
<title>Auburn: 94,100,&#45;27&#45;&gt;Orange: 62,97,&#45;28</title>
<path fill="none" stroke="#8a2be2" d="M1171.6077,-519.8314C1176.8776,-511.5829 1183.215,-501.6635 1189.0061,-492.5992"/>
<polygon fill="#8a2be2" stroke="#8a2be2" points="1192.1208,-494.2248 1194.5553,-483.9134 1186.2219,-490.456 1192.1208,-494.2248"/>
</g>
<!-- Orange: 49,98,&#45;10 -->
<g id="node58" class="node">
<title>Orange: 49,98,&#45;10</title>
<ellipse fill="none" stroke="#000000" cx="1160" cy="-610" rx="75.2868" ry="18"/>
<text text-anchor="middle" x="1160" y="-606.3" font-family="Times,serif" font-size="14.00" fill="#000000">Orange: 49,98,&#45;10</text>
</g>
<!-- Orange: 49,98,&#45;10&#45;&gt;Auburn: 94,100,&#45;27 -->
<g id="edge54" class="edge">
<title>Orange: 49,98,&#45;10&#45;&gt;Auburn: 94,100,&#45;27</title>
<path fill="none" stroke="#0000ff" d="M1160,-591.8314C1160,-584.131 1160,-574.9743 1160,-566.4166"/>
<polygon fill="#0000ff" stroke="#0000ff" points="1163.5001,-566.4132 1160,-556.4133 1156.5001,-566.4133 1163.5001,-566.4132"/>
</g>
<!-- White: 21,97,53 -->
<g id="node59" class="node">
<title>White: 21,97,53</title>
<ellipse fill="none" stroke="#000000" cx="1328" cy="-538" rx="68.7879" ry="18"/>
<text text-anchor="middle" x="1328" y="-534.3" font-family="Times,serif" font-size="14.00" fill="#000000">White: 21,97,53</text>
</g>
<!-- Orange: 49,98,&#45;10&#45;&gt;White: 21,97,53 -->
<g id="edge55" class="edge">
<title>Orange: 49,98,&#45;10&#45;&gt;White: 21,97,53</title>
<path fill="none" stroke="#0000ff" d="M1196.8683,-594.1993C1222.1841,-583.3497 1255.9443,-568.881 1282.8694,-557.3417"/>
<polygon fill="#0000ff" stroke="#0000ff" points="1284.2703,-560.5493 1292.083,-553.393 1281.5128,-554.1152 1284.2703,-560.5493"/>
</g>
<!-- Purple: 63,87,70 -->
<g id="node60" class="node">
<title>Purple: 63,87,70</title>
<ellipse fill="none" stroke="#000000" cx="838" cy="-682" rx="69.5877" ry="18"/>
<text text-anchor="middle" x="838" y="-678.3" font-family="Times,serif" font-size="14.00" fill="#000000">Purple: 63,87,70</text>
</g>
<!-- Purple: 63,87,70&#45;&gt;White: 82,42,&#45;74 -->
<g id="edge56" class="edge">
<title>Purple: 63,87,70&#45;&gt;White: 82,42,&#45;74</title>
<path fill="none" stroke="#000000" d="M838,-663.8314C838,-656.131 838,-646.9743 838,-638.4166"/>
<polygon fill="#000000" stroke="#000000" points="841.5001,-638.4132 838,-628.4133 834.5001,-638.4133 841.5001,-638.4132"/>
</g>
<!-- Purple: 63,87,70&#45;&gt;Orange: 49,98,&#45;10 -->
<g id="edge57" class="edge">
<title>Purple: 63,87,70&#45;&gt;Orange: 49,98,&#45;10</title>
<path fill="none" stroke="#000000" d="M890.8112,-670.1913C946.669,-657.7013 1034.864,-637.9807 1094.9651,-624.542"/>
<polygon fill="#000000" stroke="#000000" points="1095.7357,-627.9562 1104.731,-622.3583 1094.2082,-621.1249 1095.7357,-627.9562"/>
</g>
<!-- Orange: 0,0,68,65,&#45;42 -->
<g id="node61" class="node">
<title>Orange: 0,0,68,65,&#45;42</title>
<ellipse fill="none" stroke="#000000" cx="669" cy="-754" rx="89.0842" ry="18"/>
<text text-anchor="middle" x="669" y="-750.3" font-family="Times,serif" font-size="14.00" fill="#000000">Orange: 0,0,68,65,&#45;42</text>
</g>
<!-- Orange: 0,0,68,65,&#45;42&#45;&gt;Blue: &#45;91,74,&#45;5 -->
<g id="edge58" class="edge">
<title>Orange: 0,0,68,65,&#45;42&#45;&gt;Blue: &#45;91,74,&#45;5</title>
<path fill="none" stroke="#7fffd4" d="M630.8782,-737.6621C605.6152,-726.8351 572.3658,-712.5853 545.8335,-701.2143"/>
<polygon fill="#7fffd4" stroke="#7fffd4" points="546.9598,-697.8892 536.3896,-697.167 544.2023,-704.3232 546.9598,-697.8892"/>
</g>
<!-- Orange: 0,0,68,65,&#45;42&#45;&gt;Purple: 63,87,70 -->
<g id="edge59" class="edge">
<title>Orange: 0,0,68,65,&#45;42&#45;&gt;Purple: 63,87,70</title>
<path fill="none" stroke="#7fffd4" d="M707.3487,-737.6621C732.5887,-726.909 765.7532,-712.7797 792.3522,-701.4476"/>
<polygon fill="#7fffd4" stroke="#7fffd4" points="793.9999,-704.5501 801.8279,-697.4106 791.2562,-698.1102 793.9999,-704.5501"/>
</g>
</g>
</svg>
