<?xml version="1.0" encoding="UTF-8" standalone="no"?>
<!DOCTYPE svg PUBLIC "-//W3C//DTD SVG 1.1//EN"
 "http://www.w3.org/Graphics/SVG/1.1/DTD/svg11.dtd">
<!-- Generated by graphviz version 2.40.1 (20161225.0304)
 -->
<!-- Title: G Pages: 1 -->
<svg width="1528pt" height="796pt"
 viewBox="0.00 0.00 1528.00 796.00" xmlns="http://www.w3.org/2000/svg" xmlns:xlink="http://www.w3.org/1999/xlink">
<g id="graph0" class="graph" transform="scale(1 1) rotate(0) translate(4 792)">
<title>G</title>
<polygon fill="#ffffff" stroke="transparent" points="-4,4 -4,-792 1524,-792 1524,4 -4,4"/>
<g id="clust1" class="cluster">
<title>cluster_0</title>
<polygon fill="none" stroke="#000000" points="8,-8 8,-780 92,-780 92,-8 8,-8"/>
</g>
<g id="clust2" class="cluster">
<title>cluster_1</title>
<polygon fill="none" stroke="#000000" points="100,-8 100,-780 1512,-780 1512,-8 100,-8"/>
</g>
<!-- root: x -->
<g id="node1" class="node">
<title>root: x</title>
<ellipse fill="none" stroke="#000000" cx="50" cy="-754" rx="34.394" ry="18"/>
<text text-anchor="middle" x="50" y="-750.3" font-family="Times,serif" font-size="14.00" fill="#000000">root: x</text>
</g>
<!-- 1:y -->
<g id="node2" class="node">
<title>1:y</title>
<ellipse fill="none" stroke="#000000" cx="50" cy="-682" rx="27" ry="18"/>
<text text-anchor="middle" x="50" y="-678.3" font-family="Times,serif" font-size="14.00" fill="#000000">1:y</text>
</g>
<!-- root: x&#45;&gt;1:y -->
<g id="edge1" class="edge">
<title>root: x&#45;&gt;1:y</title>
<path fill="none" stroke="#000000" d="M50,-735.8314C50,-728.131 50,-718.9743 50,-710.4166"/>
<polygon fill="#000000" stroke="#000000" points="53.5001,-710.4132 50,-700.4133 46.5001,-710.4133 53.5001,-710.4132"/>
</g>
<!-- 2:x -->
<g id="node3" class="node">
<title>2:x</title>
<ellipse fill="none" stroke="#000000" cx="50" cy="-610" rx="27" ry="18"/>
<text text-anchor="middle" x="50" y="-606.3" font-family="Times,serif" font-size="14.00" fill="#000000">2:x</text>
</g>
<!-- 1:y&#45;&gt;2:x -->
<g id="edge2" class="edge">
<title>1:y&#45;&gt;2:x</title>
<path fill="none" stroke="#000000" d="M50,-663.8314C50,-656.131 50,-646.9743 50,-638.4166"/>
<polygon fill="#000000" stroke="#000000" points="53.5001,-638.4132 50,-628.4133 46.5001,-638.4133 53.5001,-638.4132"/>
</g>
<!-- 3:y -->
<g id="node4" class="node">
<title>3:y</title>
<ellipse fill="none" stroke="#000000" cx="50" cy="-538" rx="27" ry="18"/>
<text text-anchor="middle" x="50" y="-534.3" font-family="Times,serif" font-size="14.00" fill="#000000">3:y</text>
</g>
<!-- 2:x&#45;&gt;3:y -->
<g id="edge3" class="edge">
<title>2:x&#45;&gt;3:y</title>
<path fill="none" stroke="#000000" d="M50,-591.8314C50,-584.131 50,-574.9743 50,-566.4166"/>
<polygon fill="#000000" stroke="#000000" points="53.5001,-566.4132 50,-556.4133 46.5001,-566.4133 53.5001,-566.4132"/>
</g>
<!-- 4:x -->
<g id="node5" class="node">
<title>4:x</title>
<ellipse fill="none" stroke="#000000" cx="50" cy="-466" rx="27" ry="18"/>
<text text-anchor="middle" x="50" y="-462.3" font-family="Times,serif" font-size="14.00" fill="#000000">4:x</text>
</g>
<!-- 3:y&#45;&gt;4:x -->
<g id="edge4" class="edge">
<title>3:y&#45;&gt;4:x</title>
<path fill="none" stroke="#000000" d="M50,-519.8314C50,-512.131 50,-502.9743 50,-494.4166"/>
<polygon fill="#000000" stroke="#000000" points="53.5001,-494.4132 50,-484.4133 46.5001,-494.4133 53.5001,-494.4132"/>
</g>
<!-- 5:y -->
<g id="node6" class="node">
<title>5:y</title>
<ellipse fill="none" stroke="#000000" cx="50" cy="-394" rx="27" ry="18"/>
<text text-anchor="middle" x="50" y="-390.3" font-family="Times,serif" font-size="14.00" fill="#000000">5:y</text>
</g>
<!-- 4:x&#45;&gt;5:y -->
<g id="edge5" class="edge">
<title>4:x&#45;&gt;5:y</title>
<path fill="none" stroke="#000000" d="M50,-447.8314C50,-440.131 50,-430.9743 50,-422.4166"/>
<polygon fill="#000000" stroke="#000000" points="53.5001,-422.4132 50,-412.4133 46.5001,-422.4133 53.5001,-422.4132"/>
</g>
<!-- 6:x -->
<g id="node7" class="node">
<title>6:x</title>
<ellipse fill="none" stroke="#000000" cx="50" cy="-322" rx="27" ry="18"/>
<text text-anchor="middle" x="50" y="-318.3" font-family="Times,serif" font-size="14.00" fill="#000000">6:x</text>
</g>
<!-- 5:y&#45;&gt;6:x -->
<g id="edge6" class="edge">
<title>5:y&#45;&gt;6:x</title>
<path fill="none" stroke="#000000" d="M50,-375.8314C50,-368.131 50,-358.9743 50,-350.4166"/>
<polygon fill="#000000" stroke="#000000" points="53.5001,-350.4132 50,-340.4133 46.5001,-350.4133 53.5001,-350.4132"/>
</g>
<!-- 7:y -->
<g id="node8" class="node">
<title>7:y</title>
<ellipse fill="none" stroke="#000000" cx="50" cy="-250" rx="27" ry="18"/>
<text text-anchor="middle" x="50" y="-246.3" font-family="Times,serif" font-size="14.00" fill="#000000">7:y</text>
</g>
<!-- 6:x&#45;&gt;7:y -->
<g id="edge7" class="edge">
<title>6:x&#45;&gt;7:y</title>
<path fill="none" stroke="#000000" d="M50,-303.8314C50,-296.131 50,-286.9743 50,-278.4166"/>
<polygon fill="#000000" stroke="#000000" points="53.5001,-278.4132 50,-268.4133 46.5001,-278.4133 53.5001,-278.4132"/>
</g>
<!-- 8:x -->
<g id="node9" class="node">
<title>8:x</title>
<ellipse fill="none" stroke="#000000" cx="50" cy="-178" rx="27" ry="18"/>
<text text-anchor="middle" x="50" y="-174.3" font-family="Times,serif" font-size="14.00" fill="#000000">8:x</text>
</g>
<!-- 7:y&#45;&gt;8:x -->
<g id="edge8" class="edge">
<title>7:y&#45;&gt;8:x</title>
<path fill="none" stroke="#000000" d="M50,-231.8314C50,-224.131 50,-214.9743 50,-206.4166"/>
<polygon fill="#000000" stroke="#000000" points="53.5001,-206.4132 50,-196.4133 46.5001,-206.4133 53.5001,-206.4132"/>
</g>
<!-- 9:y -->
<g id="node10" class="node">
<title>9:y</title>
<ellipse fill="none" stroke="#000000" cx="50" cy="-106" rx="27" ry="18"/>
<text text-anchor="middle" x="50" y="-102.3" font-family="Times,serif" font-size="14.00" fill="#000000">9:y</text>
</g>
<!-- 8:x&#45;&gt;9:y -->
<g id="edge9" class="edge">
<title>8:x&#45;&gt;9:y</title>
<path fill="none" stroke="#000000" d="M50,-159.8314C50,-152.131 50,-142.9743 50,-134.4166"/>
<polygon fill="#000000" stroke="#000000" points="53.5001,-134.4132 50,-124.4133 46.5001,-134.4133 53.5001,-134.4132"/>
</g>
<!-- 10:x -->
<g id="node11" class="node">
<title>10:x</title>
<ellipse fill="none" stroke="#000000" cx="50" cy="-34" rx="27" ry="18"/>
<text text-anchor="middle" x="50" y="-30.3" font-family="Times,serif" font-size="14.00" fill="#000000">10:x</text>
</g>
<!-- 9:y&#45;&gt;10:x -->
<g id="edge10" class="edge">
<title>9:y&#45;&gt;10:x</title>
<path fill="none" stroke="#000000" d="M50,-87.8314C50,-80.131 50,-70.9743 50,-62.4166"/>
<polygon fill="#000000" stroke="#000000" points="53.5001,-62.4132 50,-52.4133 46.5001,-62.4133 53.5001,-62.4132"/>
</g>
<!-- Orange: &#45;86,&#45;53 -->
<g id="node12" class="node">
<title>Orange: &#45;86,&#45;53</title>
<ellipse fill="none" stroke="#000000" cx="176" cy="-466" rx="67.6881" ry="18"/>
<text text-anchor="middle" x="176" y="-462.3" font-family="Times,serif" font-size="14.00" fill="#000000">Orange: &#45;86,&#45;53</text>
</g>
<!-- Red: &#45;66,&#45;54 -->
<g id="node13" class="node">
<title>Red: &#45;66,&#45;54</title>
<ellipse fill="none" stroke="#000000" cx="164" cy="-394" rx="55.7903" ry="18"/>
<text text-anchor="middle" x="164" y="-390.3" font-family="Times,serif" font-size="14.00" fill="#000000">Red: &#45;66,&#45;54</text>
</g>
<!-- Orange: &#45;86,&#45;53&#45;&gt;Red: &#45;66,&#45;54 -->
<g id="edge11" class="edge">
<title>Orange: &#45;86,&#45;53&#45;&gt;Red: &#45;66,&#45;54</title>
<path fill="none" stroke="#8a2be2" d="M172.9719,-447.8314C171.6885,-440.131 170.1624,-430.9743 168.7361,-422.4166"/>
<polygon fill="#8a2be2" stroke="#8a2be2" points="172.1653,-421.7018 167.0689,-412.4133 165.2606,-422.8526 172.1653,-421.7018"/>
</g>
<!-- Auburn: &#45;63,&#45;47 -->
<g id="node14" class="node">
<title>Auburn: &#45;63,&#45;47</title>
<ellipse fill="none" stroke="#000000" cx="176" cy="-538" rx="68.4888" ry="18"/>
<text text-anchor="middle" x="176" y="-534.3" font-family="Times,serif" font-size="14.00" fill="#000000">Auburn: &#45;63,&#45;47</text>
</g>
<!-- Auburn: &#45;63,&#45;47&#45;&gt;Orange: &#45;86,&#45;53 -->
<g id="edge12" class="edge">
<title>Auburn: &#45;63,&#45;47&#45;&gt;Orange: &#45;86,&#45;53</title>
<path fill="none" stroke="#0000ff" d="M176,-519.8314C176,-512.131 176,-502.9743 176,-494.4166"/>
<polygon fill="#0000ff" stroke="#0000ff" points="179.5001,-494.4132 176,-484.4133 172.5001,-494.4133 179.5001,-494.4132"/>
</g>
<!-- Red: &#45;39,&#45;70 -->
<g id="node15" class="node">
<title>Red: &#45;39,&#45;70</title>
<ellipse fill="none" stroke="#000000" cx="322" cy="-466" rx="55.7903" ry="18"/>
<text text-anchor="middle" x="322" y="-462.3" font-family="Times,serif" font-size="14.00" fill="#000000">Red: &#45;39,&#45;70</text>
</g>
<!-- Yellow: &#45;14,&#45;89 -->
<g id="node16" class="node">
<title>Yellow: &#45;14,&#45;89</title>
<ellipse fill="none" stroke="#000000" cx="305" cy="-394" rx="67.6881" ry="18"/>
<text text-anchor="middle" x="305" y="-390.3" font-family="Times,serif" font-size="14.00" fill="#000000">Yellow: &#45;14,&#45;89</text>
</g>
<!-- Red: &#45;39,&#45;70&#45;&gt;Yellow: &#45;14,&#45;89 -->
<g id="edge13" class="edge">
<title>Red: &#45;39,&#45;70&#45;&gt;Yellow: &#45;14,&#45;89</title>
<path fill="none" stroke="#8a2be2" d="M317.7102,-447.8314C315.892,-440.131 313.7301,-430.9743 311.7095,-422.4166"/>
<polygon fill="#8a2be2" stroke="#8a2be2" points="315.0519,-421.3414 309.3476,-412.4133 308.2392,-422.95 315.0519,-421.3414"/>
</g>
<!-- White: &#45;40,&#45;54 -->
<g id="node17" class="node">
<title>White: &#45;40,&#45;54</title>
<ellipse fill="none" stroke="#000000" cx="326" cy="-538" rx="63.8893" ry="18"/>
<text text-anchor="middle" x="326" y="-534.3" font-family="Times,serif" font-size="14.00" fill="#000000">White: &#45;40,&#45;54</text>
</g>
<!-- White: &#45;40,&#45;54&#45;&gt;Red: &#45;39,&#45;70 -->
<g id="edge14" class="edge">
<title>White: &#45;40,&#45;54&#45;&gt;Red: &#45;39,&#45;70</title>
<path fill="none" stroke="#0000ff" d="M324.9906,-519.8314C324.5628,-512.131 324.0541,-502.9743 323.5787,-494.4166"/>
<polygon fill="#0000ff" stroke="#0000ff" points="327.0724,-494.2037 323.023,-484.4133 320.0831,-494.592 327.0724,-494.2037"/>
</g>
<!-- Auburn: &#45;45,&#45;53 -->
<g id="node18" class="node">
<title>Auburn: &#45;45,&#45;53</title>
<ellipse fill="none" stroke="#000000" cx="326" cy="-610" rx="68.4888" ry="18"/>
<text text-anchor="middle" x="326" y="-606.3" font-family="Times,serif" font-size="14.00" fill="#000000">Auburn: &#45;45,&#45;53</text>
</g>
<!-- Auburn: &#45;45,&#45;53&#45;&gt;Auburn: &#45;63,&#45;47 -->
<g id="edge15" class="edge">
<title>Auburn: &#45;45,&#45;53&#45;&gt;Auburn: &#45;63,&#45;47</title>
<path fill="none" stroke="#000000" d="M293.0819,-594.1993C271.0792,-583.638 241.9321,-569.6474 218.2244,-558.2677"/>
<polygon fill="#000000" stroke="#000000" points="219.63,-555.0601 209.1002,-553.8881 216.6009,-561.3708 219.63,-555.0601"/>
</g>
<!-- Auburn: &#45;45,&#45;53&#45;&gt;White: &#45;40,&#45;54 -->
<g id="edge16" class="edge">
<title>Auburn: &#45;45,&#45;53&#45;&gt;White: &#45;40,&#45;54</title>
<path fill="none" stroke="#000000" d="M326,-591.8314C326,-584.131 326,-574.9743 326,-566.4166"/>
<polygon fill="#000000" stroke="#000000" points="329.5001,-566.4132 326,-556.4133 322.5001,-566.4133 329.5001,-566.4132"/>
</g>
<!-- Magenta: &#45;71,16 -->
<g id="node19" class="node">
<title>Magenta: &#45;71,16</title>
<ellipse fill="none" stroke="#000000" cx="302" cy="-322" rx="69.5877" ry="18"/>
<text text-anchor="middle" x="302" y="-318.3" font-family="Times,serif" font-size="14.00" fill="#000000">Magenta: &#45;71,16</text>
</g>
<!-- Blue: &#45;94,&#45;32 -->
<g id="node20" class="node">
<title>Blue: &#45;94,&#45;32</title>
<ellipse fill="none" stroke="#000000" cx="302" cy="-250" rx="57.6901" ry="18"/>
<text text-anchor="middle" x="302" y="-246.3" font-family="Times,serif" font-size="14.00" fill="#000000">Blue: &#45;94,&#45;32</text>
</g>
<!-- Magenta: &#45;71,16&#45;&gt;Blue: &#45;94,&#45;32 -->
<g id="edge17" class="edge">
<title>Magenta: &#45;71,16&#45;&gt;Blue: &#45;94,&#45;32</title>
<path fill="none" stroke="#deb887" d="M302,-303.8314C302,-296.131 302,-286.9743 302,-278.4166"/>
<polygon fill="#deb887" stroke="#deb887" points="305.5001,-278.4132 302,-268.4133 298.5001,-278.4133 305.5001,-278.4132"/>
</g>
<!-- Black: &#45;91,28 -->
<g id="node21" class="node">
<title>Black: &#45;91,28</title>
<ellipse fill="none" stroke="#000000" cx="450" cy="-394" rx="59.2899" ry="18"/>
<text text-anchor="middle" x="450" y="-390.3" font-family="Times,serif" font-size="14.00" fill="#000000">Black: &#45;91,28</text>
</g>
<!-- Black: &#45;91,28&#45;&gt;Magenta: &#45;71,16 -->
<g id="edge18" class="edge">
<title>Black: &#45;91,28&#45;&gt;Magenta: &#45;71,16</title>
<path fill="none" stroke="#a52a2a" d="M418.613,-378.7307C396.8897,-368.1625 367.7342,-353.9788 344.0106,-342.4376"/>
<polygon fill="#a52a2a" stroke="#a52a2a" points="345.404,-339.2233 334.8804,-337.9959 342.3417,-345.5179 345.404,-339.2233"/>
</g>
<!-- Purple: &#45;67,36 -->
<g id="node22" class="node">
<title>Purple: &#45;67,36</title>
<ellipse fill="none" stroke="#000000" cx="451" cy="-322" rx="61.99" ry="18"/>
<text text-anchor="middle" x="451" y="-318.3" font-family="Times,serif" font-size="14.00" fill="#000000">Purple: &#45;67,36</text>
</g>
<!-- Black: &#45;91,28&#45;&gt;Purple: &#45;67,36 -->
<g id="edge19" class="edge">
<title>Black: &#45;91,28&#45;&gt;Purple: &#45;67,36</title>
<path fill="none" stroke="#a52a2a" d="M450.2523,-375.8314C450.3593,-368.131 450.4865,-358.9743 450.6053,-350.4166"/>
<polygon fill="#a52a2a" stroke="#a52a2a" points="454.1049,-350.4609 450.7443,-340.4133 447.1056,-350.3637 454.1049,-350.4609"/>
</g>
<!-- Black: &#45;18,52 -->
<g id="node23" class="node">
<title>Black: &#45;18,52</title>
<ellipse fill="none" stroke="#000000" cx="592" cy="-322" rx="59.2899" ry="18"/>
<text text-anchor="middle" x="592" y="-318.3" font-family="Times,serif" font-size="14.00" fill="#000000">Black: &#45;18,52</text>
</g>
<!-- Red: &#45;9,18 -->
<g id="node24" class="node">
<title>Red: &#45;9,18</title>
<ellipse fill="none" stroke="#000000" cx="592" cy="-250" rx="48.1917" ry="18"/>
<text text-anchor="middle" x="592" y="-246.3" font-family="Times,serif" font-size="14.00" fill="#000000">Red: &#45;9,18</text>
</g>
<!-- Black: &#45;18,52&#45;&gt;Red: &#45;9,18 -->
<g id="edge20" class="edge">
<title>Black: &#45;18,52&#45;&gt;Red: &#45;9,18</title>
<path fill="none" stroke="#deb887" d="M592,-303.8314C592,-296.131 592,-286.9743 592,-278.4166"/>
<polygon fill="#deb887" stroke="#deb887" points="595.5001,-278.4132 592,-268.4133 588.5001,-278.4133 595.5001,-278.4132"/>
</g>
<!-- Orange: &#45;22,&#45;22 -->
<g id="node25" class="node">
<title>Orange: &#45;22,&#45;22</title>
<ellipse fill="none" stroke="#000000" cx="595" cy="-394" rx="67.6881" ry="18"/>
<text text-anchor="middle" x="595" y="-390.3" font-family="Times,serif" font-size="14.00" fill="#000000">Orange: &#45;22,&#45;22</text>
</g>
<!-- Orange: &#45;22,&#45;22&#45;&gt;Black: &#45;18,52 -->
<g id="edge22" class="edge">
<title>Orange: &#45;22,&#45;22&#45;&gt;Black: &#45;18,52</title>
<path fill="none" stroke="#a52a2a" d="M594.243,-375.8314C593.9221,-368.131 593.5406,-358.9743 593.184,-350.4166"/>
<polygon fill="#a52a2a" stroke="#a52a2a" points="596.6806,-350.2589 592.7672,-340.4133 589.6867,-350.5503 596.6806,-350.2589"/>
</g>
<!-- Green: &#45;24,&#45;26 -->
<g id="node26" class="node">
<title>Green: &#45;24,&#45;26</title>
<ellipse fill="none" stroke="#000000" cx="732" cy="-322" rx="63.0888" ry="18"/>
<text text-anchor="middle" x="732" y="-318.3" font-family="Times,serif" font-size="14.00" fill="#000000">Green: &#45;24,&#45;26</text>
</g>
<!-- Orange: &#45;22,&#45;22&#45;&gt;Green: &#45;24,&#45;26 -->
<g id="edge21" class="edge">
<title>Orange: &#45;22,&#45;22&#45;&gt;Green: &#45;24,&#45;26</title>
<path fill="none" stroke="#a52a2a" d="M625.7455,-377.8418C645.5372,-367.4403 671.4442,-353.825 692.7217,-342.6426"/>
<polygon fill="#a52a2a" stroke="#a52a2a" points="694.6051,-345.6068 701.8288,-337.8564 691.3485,-339.4104 694.6051,-345.6068"/>
</g>
<!-- Blue: &#45;31,43 -->
<g id="node27" class="node">
<title>Blue: &#45;31,43</title>
<ellipse fill="none" stroke="#000000" cx="595" cy="-466" rx="55.4913" ry="18"/>
<text text-anchor="middle" x="595" y="-462.3" font-family="Times,serif" font-size="14.00" fill="#000000">Blue: &#45;31,43</text>
</g>
<!-- Blue: &#45;31,43&#45;&gt;Black: &#45;91,28 -->
<g id="edge23" class="edge">
<title>Blue: &#45;31,43&#45;&gt;Black: &#45;91,28</title>
<path fill="none" stroke="#8a2be2" d="M564.6032,-450.9064C542.9761,-440.1674 513.6994,-425.63 490.1506,-413.9368"/>
<polygon fill="#8a2be2" stroke="#8a2be2" points="491.62,-410.7588 481.1068,-409.4462 488.5068,-417.0284 491.62,-410.7588"/>
</g>
<!-- Blue: &#45;31,43&#45;&gt;Orange: &#45;22,&#45;22 -->
<g id="edge24" class="edge">
<title>Blue: &#45;31,43&#45;&gt;Orange: &#45;22,&#45;22</title>
<path fill="none" stroke="#8a2be2" d="M595,-447.8314C595,-440.131 595,-430.9743 595,-422.4166"/>
<polygon fill="#8a2be2" stroke="#8a2be2" points="598.5001,-422.4132 595,-412.4133 591.5001,-422.4133 598.5001,-422.4132"/>
</g>
<!-- Orange: &#45;25,86 -->
<g id="node28" class="node">
<title>Orange: &#45;25,86</title>
<ellipse fill="none" stroke="#000000" cx="740" cy="-466" rx="64.189" ry="18"/>
<text text-anchor="middle" x="740" y="-462.3" font-family="Times,serif" font-size="14.00" fill="#000000">Orange: &#45;25,86</text>
</g>
<!-- Auburn: &#45;56,94 -->
<g id="node29" class="node">
<title>Auburn: &#45;56,94</title>
<ellipse fill="none" stroke="#000000" cx="746" cy="-394" rx="65.7887" ry="18"/>
<text text-anchor="middle" x="746" y="-390.3" font-family="Times,serif" font-size="14.00" fill="#000000">Auburn: &#45;56,94</text>
</g>
<!-- Orange: &#45;25,86&#45;&gt;Auburn: &#45;56,94 -->
<g id="edge25" class="edge">
<title>Orange: &#45;25,86&#45;&gt;Auburn: &#45;56,94</title>
<path fill="none" stroke="#8a2be2" d="M741.5141,-447.8314C742.1558,-440.131 742.9188,-430.9743 743.6319,-422.4166"/>
<polygon fill="#8a2be2" stroke="#8a2be2" points="747.1229,-422.6694 744.4656,-412.4133 740.1471,-422.088 747.1229,-422.6694"/>
</g>
<!-- Orange: &#45;9,74 -->
<g id="node30" class="node">
<title>Orange: &#45;9,74</title>
<ellipse fill="none" stroke="#000000" cx="595" cy="-538" rx="59.5901" ry="18"/>
<text text-anchor="middle" x="595" y="-534.3" font-family="Times,serif" font-size="14.00" fill="#000000">Orange: &#45;9,74</text>
</g>
<!-- Orange: &#45;9,74&#45;&gt;Blue: &#45;31,43 -->
<g id="edge26" class="edge">
<title>Orange: &#45;9,74&#45;&gt;Blue: &#45;31,43</title>
<path fill="none" stroke="#0000ff" d="M595,-519.8314C595,-512.131 595,-502.9743 595,-494.4166"/>
<polygon fill="#0000ff" stroke="#0000ff" points="598.5001,-494.4132 595,-484.4133 591.5001,-494.4133 598.5001,-494.4132"/>
</g>
<!-- Orange: &#45;9,74&#45;&gt;Orange: &#45;25,86 -->
<g id="edge27" class="edge">
<title>Orange: &#45;9,74&#45;&gt;Orange: &#45;25,86</title>
<path fill="none" stroke="#0000ff" d="M626.1061,-522.5542C647.3892,-511.9861 675.8295,-497.864 698.9656,-486.3757"/>
<polygon fill="#0000ff" stroke="#0000ff" points="700.7939,-489.3757 708.1938,-481.7934 697.6806,-483.1061 700.7939,-489.3757"/>
</g>
<!-- Green: &#45;96,&#45;4 -->
<g id="node31" class="node">
<title>Green: &#45;96,&#45;4</title>
<ellipse fill="none" stroke="#000000" cx="667" cy="-610" rx="58.4896" ry="18"/>
<text text-anchor="middle" x="667" y="-606.3" font-family="Times,serif" font-size="14.00" fill="#000000">Green: &#45;96,&#45;4</text>
</g>
<!-- Green: &#45;96,&#45;4&#45;&gt;Orange: &#45;9,74 -->
<g id="edge29" class="edge">
<title>Green: &#45;96,&#45;4&#45;&gt;Orange: &#45;9,74</title>
<path fill="none" stroke="#000000" d="M649.5708,-592.5708C640.55,-583.55 629.387,-572.387 619.5121,-562.5121"/>
<polygon fill="#000000" stroke="#000000" points="621.8147,-559.8649 612.2687,-555.2687 616.8649,-564.8147 621.8147,-559.8649"/>
</g>
<!-- Orange: &#45;98,&#45;30 -->
<g id="node32" class="node">
<title>Orange: &#45;98,&#45;30</title>
<ellipse fill="none" stroke="#000000" cx="740" cy="-538" rx="67.6881" ry="18"/>
<text text-anchor="middle" x="740" y="-534.3" font-family="Times,serif" font-size="14.00" fill="#000000">Orange: &#45;98,&#45;30</text>
</g>
<!-- Green: &#45;96,&#45;4&#45;&gt;Orange: &#45;98,&#45;30 -->
<g id="edge28" class="edge">
<title>Green: &#45;96,&#45;4&#45;&gt;Orange: &#45;98,&#45;30</title>
<path fill="none" stroke="#000000" d="M684.6713,-592.5708C693.7501,-583.6164 704.9691,-572.551 714.9264,-562.7302"/>
<polygon fill="#000000" stroke="#000000" points="717.5765,-565.0323 722.2385,-555.5182 712.661,-560.0485 717.5765,-565.0323"/>
</g>
<!-- Black: &#45;8,&#45;46 -->
<g id="node33" class="node">
<title>Black: &#45;8,&#45;46</title>
<ellipse fill="none" stroke="#000000" cx="667" cy="-682" rx="57.6901" ry="18"/>
<text text-anchor="middle" x="667" y="-678.3" font-family="Times,serif" font-size="14.00" fill="#000000">Black: &#45;8,&#45;46</text>
</g>
<!-- Black: &#45;8,&#45;46&#45;&gt;Auburn: &#45;45,&#45;53 -->
<g id="edge30" class="edge">
<title>Black: &#45;8,&#45;46&#45;&gt;Auburn: &#45;45,&#45;53</title>
<path fill="none" stroke="#ffe4c4" d="M618.8663,-671.8369C558.7958,-659.1534 455.8945,-637.4264 389.4394,-623.3948"/>
<polygon fill="#ffe4c4" stroke="#ffe4c4" points="390.0112,-619.9385 379.5039,-621.297 388.5651,-626.7875 390.0112,-619.9385"/>
</g>
<!-- Black: &#45;8,&#45;46&#45;&gt;Green: &#45;96,&#45;4 -->
<g id="edge31" class="edge">
<title>Black: &#45;8,&#45;46&#45;&gt;Green: &#45;96,&#45;4</title>
<path fill="none" stroke="#ffe4c4" d="M667,-663.8314C667,-656.131 667,-646.9743 667,-638.4166"/>
<polygon fill="#ffe4c4" stroke="#ffe4c4" points="670.5001,-638.4132 667,-628.4133 663.5001,-638.4133 670.5001,-638.4132"/>
</g>
<!-- Blue: 18,&#45;57 -->
<g id="node34" class="node">
<title>Blue: 18,&#45;57</title>
<ellipse fill="none" stroke="#000000" cx="894" cy="-466" rx="55.4913" ry="18"/>
<text text-anchor="middle" x="894" y="-462.3" font-family="Times,serif" font-size="14.00" fill="#000000">Blue: 18,&#45;57</text>
</g>
<!-- Orange: 73,&#45;87 -->
<g id="node35" class="node">
<title>Orange: 73,&#45;87</title>
<ellipse fill="none" stroke="#000000" cx="894" cy="-394" rx="64.189" ry="18"/>
<text text-anchor="middle" x="894" y="-390.3" font-family="Times,serif" font-size="14.00" fill="#000000">Orange: 73,&#45;87</text>
</g>
<!-- Blue: 18,&#45;57&#45;&gt;Orange: 73,&#45;87 -->
<g id="edge32" class="edge">
<title>Blue: 18,&#45;57&#45;&gt;Orange: 73,&#45;87</title>
<path fill="none" stroke="#8a2be2" d="M894,-447.8314C894,-440.131 894,-430.9743 894,-422.4166"/>
<polygon fill="#8a2be2" stroke="#8a2be2" points="897.5001,-422.4132 894,-412.4133 890.5001,-422.4133 897.5001,-422.4132"/>
</g>
<!-- Yellow: 73,&#45;100 -->
<g id="node36" class="node">
<title>Yellow: 73,&#45;100</title>
<ellipse fill="none" stroke="#000000" cx="894" cy="-538" rx="68.7879" ry="18"/>
<text text-anchor="middle" x="894" y="-534.3" font-family="Times,serif" font-size="14.00" fill="#000000">Yellow: 73,&#45;100</text>
</g>
<!-- Yellow: 73,&#45;100&#45;&gt;Blue: 18,&#45;57 -->
<g id="edge33" class="edge">
<title>Yellow: 73,&#45;100&#45;&gt;Blue: 18,&#45;57</title>
<path fill="none" stroke="#0000ff" d="M894,-519.8314C894,-512.131 894,-502.9743 894,-494.4166"/>
<polygon fill="#0000ff" stroke="#0000ff" points="897.5001,-494.4132 894,-484.4133 890.5001,-494.4133 897.5001,-494.4132"/>
</g>
<!-- Auburn: 82,&#45;77 -->
<g id="node37" class="node">
<title>Auburn: 82,&#45;77</title>
<ellipse fill="none" stroke="#000000" cx="928" cy="-610" rx="65.7887" ry="18"/>
<text text-anchor="middle" x="928" y="-606.3" font-family="Times,serif" font-size="14.00" fill="#000000">Auburn: 82,&#45;77</text>
</g>
<!-- Auburn: 82,&#45;77&#45;&gt;Yellow: 73,&#45;100 -->
<g id="edge34" class="edge">
<title>Auburn: 82,&#45;77&#45;&gt;Yellow: 73,&#45;100</title>
<path fill="none" stroke="#000000" d="M919.4204,-591.8314C915.6064,-583.7547 911.0359,-574.0761 906.8288,-565.1668"/>
<polygon fill="#000000" stroke="#000000" points="909.8941,-563.4614 902.4591,-555.9134 903.5644,-566.4504 909.8941,-563.4614"/>
</g>
<!-- Green: 86,&#45;57 -->
<g id="node38" class="node">
<title>Green: 86,&#45;57</title>
<ellipse fill="none" stroke="#000000" cx="1041" cy="-538" rx="59.5901" ry="18"/>
<text text-anchor="middle" x="1041" y="-534.3" font-family="Times,serif" font-size="14.00" fill="#000000">Green: 86,&#45;57</text>
</g>
<!-- Auburn: 82,&#45;77&#45;&gt;Green: 86,&#45;57 -->
<g id="edge35" class="edge">
<title>Auburn: 82,&#45;77&#45;&gt;Green: 86,&#45;57</title>
<path fill="none" stroke="#000000" d="M954.2085,-593.3008C969.8652,-583.3248 989.9279,-570.5415 1006.8193,-559.7789"/>
<polygon fill="#000000" stroke="#000000" points="1008.7704,-562.6858 1015.3232,-554.3604 1005.0089,-556.7823 1008.7704,-562.6858"/>
</g>
<!-- Purple: 58,&#45;31 -->
<g id="node39" class="node">
<title>Purple: 58,&#45;31</title>
<ellipse fill="none" stroke="#000000" cx="721" cy="-178" rx="61.99" ry="18"/>
<text text-anchor="middle" x="721" y="-174.3" font-family="Times,serif" font-size="14.00" fill="#000000">Purple: 58,&#45;31</text>
</g>
<!-- Red: 93,&#45;30 -->
<g id="node40" class="node">
<title>Red: 93,&#45;30</title>
<ellipse fill="none" stroke="#000000" cx="721" cy="-106" rx="52.7911" ry="18"/>
<text text-anchor="middle" x="721" y="-102.3" font-family="Times,serif" font-size="14.00" fill="#000000">Red: 93,&#45;30</text>
</g>
<!-- Purple: 58,&#45;31&#45;&gt;Red: 93,&#45;30 -->
<g id="edge36" class="edge">
<title>Purple: 58,&#45;31&#45;&gt;Red: 93,&#45;30</title>
<path fill="none" stroke="#7fff00" d="M721,-159.8314C721,-152.131 721,-142.9743 721,-134.4166"/>
<polygon fill="#7fff00" stroke="#7fff00" points="724.5001,-134.4132 721,-124.4133 717.5001,-134.4133 724.5001,-134.4132"/>
</g>
<!-- Magenta: 68,&#45;25 -->
<g id="node41" class="node">
<title>Magenta: 68,&#45;25</title>
<ellipse fill="none" stroke="#000000" cx="791" cy="-250" rx="69.5877" ry="18"/>
<text text-anchor="middle" x="791" y="-246.3" font-family="Times,serif" font-size="14.00" fill="#000000">Magenta: 68,&#45;25</text>
</g>
<!-- Magenta: 68,&#45;25&#45;&gt;Purple: 58,&#45;31 -->
<g id="edge37" class="edge">
<title>Magenta: 68,&#45;25&#45;&gt;Purple: 58,&#45;31</title>
<path fill="none" stroke="#5f9ea0" d="M773.6966,-232.2022C765.0711,-223.3303 754.4997,-212.4569 745.0953,-202.7837"/>
<polygon fill="#5f9ea0" stroke="#5f9ea0" points="747.3431,-200.0748 737.8628,-195.3446 742.3241,-204.9543 747.3431,-200.0748"/>
</g>
<!-- Yellow: 87,&#45;7 -->
<g id="node42" class="node">
<title>Yellow: 87,&#45;7</title>
<ellipse fill="none" stroke="#000000" cx="861" cy="-178" rx="59.5901" ry="18"/>
<text text-anchor="middle" x="861" y="-174.3" font-family="Times,serif" font-size="14.00" fill="#000000">Yellow: 87,&#45;7</text>
</g>
<!-- Magenta: 68,&#45;25&#45;&gt;Yellow: 87,&#45;7 -->
<g id="edge38" class="edge">
<title>Magenta: 68,&#45;25&#45;&gt;Yellow: 87,&#45;7</title>
<path fill="none" stroke="#5f9ea0" d="M808.3034,-232.2022C816.9289,-223.3303 827.5003,-212.4569 836.9047,-202.7837"/>
<polygon fill="#5f9ea0" stroke="#5f9ea0" points="839.6759,-204.9543 844.1372,-195.3446 834.6569,-200.0748 839.6759,-204.9543"/>
</g>
<!-- White: 23,&#45;20 -->
<g id="node43" class="node">
<title>White: 23,&#45;20</title>
<ellipse fill="none" stroke="#000000" cx="929" cy="-322" rx="60.3893" ry="18"/>
<text text-anchor="middle" x="929" y="-318.3" font-family="Times,serif" font-size="14.00" fill="#000000">White: 23,&#45;20</text>
</g>
<!-- White: 23,&#45;20&#45;&gt;Magenta: 68,&#45;25 -->
<g id="edge40" class="edge">
<title>White: 23,&#45;20&#45;&gt;Magenta: 68,&#45;25</title>
<path fill="none" stroke="#deb887" d="M898.7153,-306.1993C878.8602,-295.8401 852.6816,-282.1817 831.1041,-270.9239"/>
<polygon fill="#deb887" stroke="#deb887" points="832.6551,-267.7854 822.1702,-266.2627 829.4171,-273.9915 832.6551,-267.7854"/>
</g>
<!-- Orange: 13,2 -->
<g id="node44" class="node">
<title>Orange: 13,2</title>
<ellipse fill="none" stroke="#000000" cx="936" cy="-250" rx="57.3905" ry="18"/>
<text text-anchor="middle" x="936" y="-246.3" font-family="Times,serif" font-size="14.00" fill="#000000">Orange: 13,2</text>
</g>
<!-- White: 23,&#45;20&#45;&gt;Orange: 13,2 -->
<g id="edge39" class="edge">
<title>White: 23,&#45;20&#45;&gt;Orange: 13,2</title>
<path fill="none" stroke="#deb887" d="M930.7664,-303.8314C931.515,-296.131 932.4053,-286.9743 933.2373,-278.4166"/>
<polygon fill="#deb887" stroke="#deb887" points="936.7256,-278.7051 934.2098,-268.4133 929.7585,-278.0276 936.7256,-278.7051"/>
</g>
<!-- Purple: 9,42 -->
<g id="node45" class="node">
<title>Purple: 9,42</title>
<ellipse fill="none" stroke="#000000" cx="1065" cy="-106" rx="53.8905" ry="18"/>
<text text-anchor="middle" x="1065" y="-102.3" font-family="Times,serif" font-size="14.00" fill="#000000">Purple: 9,42</text>
</g>
<!-- Blue: 29,23 -->
<g id="node46" class="node">
<title>Blue: 29,23</title>
<ellipse fill="none" stroke="#000000" cx="1065" cy="-34" rx="51.9908" ry="18"/>
<text text-anchor="middle" x="1065" y="-30.3" font-family="Times,serif" font-size="14.00" fill="#000000">Blue: 29,23</text>
</g>
<!-- Purple: 9,42&#45;&gt;Blue: 29,23 -->
<g id="edge41" class="edge">
<title>Purple: 9,42&#45;&gt;Blue: 29,23</title>
<path fill="none" stroke="#d2691e" d="M1065,-87.8314C1065,-80.131 1065,-70.9743 1065,-62.4166"/>
<polygon fill="#d2691e" stroke="#d2691e" points="1068.5001,-62.4132 1065,-52.4133 1061.5001,-62.4133 1068.5001,-62.4132"/>
</g>
<!-- Orange: 7,27 -->
<g id="node47" class="node">
<title>Orange: 7,27</title>
<ellipse fill="none" stroke="#000000" cx="1065" cy="-178" rx="57.3905" ry="18"/>
<text text-anchor="middle" x="1065" y="-174.3" font-family="Times,serif" font-size="14.00" fill="#000000">Orange: 7,27</text>
</g>
<!-- Orange: 7,27&#45;&gt;Purple: 9,42 -->
<g id="edge42" class="edge">
<title>Orange: 7,27&#45;&gt;Purple: 9,42</title>
<path fill="none" stroke="#7fff00" d="M1065,-159.8314C1065,-152.131 1065,-142.9743 1065,-134.4166"/>
<polygon fill="#7fff00" stroke="#7fff00" points="1068.5001,-134.4132 1065,-124.4133 1061.5001,-134.4133 1068.5001,-134.4132"/>
</g>
<!-- Red: 56,9 -->
<g id="node48" class="node">
<title>Red: 56,9</title>
<ellipse fill="none" stroke="#000000" cx="1065" cy="-250" rx="45.4919" ry="18"/>
<text text-anchor="middle" x="1065" y="-246.3" font-family="Times,serif" font-size="14.00" fill="#000000">Red: 56,9</text>
</g>
<!-- Red: 56,9&#45;&gt;Orange: 7,27 -->
<g id="edge43" class="edge">
<title>Red: 56,9&#45;&gt;Orange: 7,27</title>
<path fill="none" stroke="#5f9ea0" d="M1065,-231.8314C1065,-224.131 1065,-214.9743 1065,-206.4166"/>
<polygon fill="#5f9ea0" stroke="#5f9ea0" points="1068.5001,-206.4132 1065,-196.4133 1061.5001,-206.4133 1068.5001,-206.4132"/>
</g>
<!-- Green: 87,20 -->
<g id="node49" class="node">
<title>Green: 87,20</title>
<ellipse fill="none" stroke="#000000" cx="1065" cy="-322" rx="57.3905" ry="18"/>
<text text-anchor="middle" x="1065" y="-318.3" font-family="Times,serif" font-size="14.00" fill="#000000">Green: 87,20</text>
</g>
<!-- Green: 87,20&#45;&gt;Red: 56,9 -->
<g id="edge44" class="edge">
<title>Green: 87,20&#45;&gt;Red: 56,9</title>
<path fill="none" stroke="#deb887" d="M1065,-303.8314C1065,-296.131 1065,-286.9743 1065,-278.4166"/>
<polygon fill="#deb887" stroke="#deb887" points="1068.5001,-278.4132 1065,-268.4133 1061.5001,-278.4133 1068.5001,-278.4132"/>
</g>
<!-- Green: 7,6 -->
<g id="node50" class="node">
<title>Green: 7,6</title>
<ellipse fill="none" stroke="#000000" cx="1024" cy="-394" rx="48.1917" ry="18"/>
<text text-anchor="middle" x="1024" y="-390.3" font-family="Times,serif" font-size="14.00" fill="#000000">Green: 7,6</text>
</g>
<!-- Green: 7,6&#45;&gt;White: 23,&#45;20 -->
<g id="edge45" class="edge">
<title>Green: 7,6&#45;&gt;White: 23,&#45;20</title>
<path fill="none" stroke="#a52a2a" d="M1002.443,-377.6621C989.6295,-367.9508 973.1827,-355.4858 959.1024,-344.8144"/>
<polygon fill="#a52a2a" stroke="#a52a2a" points="961.2147,-342.0237 951.1309,-338.7729 956.9866,-347.6025 961.2147,-342.0237"/>
</g>
<!-- Green: 7,6&#45;&gt;Green: 87,20 -->
<g id="edge46" class="edge">
<title>Green: 7,6&#45;&gt;Green: 87,20</title>
<path fill="none" stroke="#a52a2a" d="M1034.1348,-376.2022C1038.8657,-367.8944 1044.5959,-357.8316 1049.8285,-348.6427"/>
<polygon fill="#a52a2a" stroke="#a52a2a" points="1052.9327,-350.2644 1054.8397,-339.8425 1046.8498,-346.8005 1052.9327,-350.2644"/>
</g>
<!-- Orange: 7,15 -->
<g id="node51" class="node">
<title>Orange: 7,15</title>
<ellipse fill="none" stroke="#000000" cx="1150" cy="-466" rx="57.3905" ry="18"/>
<text text-anchor="middle" x="1150" y="-462.3" font-family="Times,serif" font-size="14.00" fill="#000000">Orange: 7,15</text>
</g>
<!-- Orange: 7,15&#45;&gt;Green: 7,6 -->
<g id="edge48" class="edge">
<title>Orange: 7,15&#45;&gt;Green: 7,6</title>
<path fill="none" stroke="#8a2be2" d="M1122.3488,-450.1993C1103.8795,-439.6454 1079.4175,-425.6671 1059.5106,-414.2917"/>
<polygon fill="#8a2be2" stroke="#8a2be2" points="1061.1415,-411.1926 1050.7226,-409.27 1057.6685,-417.2703 1061.1415,-411.1926"/>
</g>
<!-- Orange: 3,&#45;51 -->
<g id="node52" class="node">
<title>Orange: 3,&#45;51</title>
<ellipse fill="none" stroke="#000000" cx="1150" cy="-394" rx="59.5901" ry="18"/>
<text text-anchor="middle" x="1150" y="-390.3" font-family="Times,serif" font-size="14.00" fill="#000000">Orange: 3,&#45;51</text>
</g>
<!-- Orange: 7,15&#45;&gt;Orange: 3,&#45;51 -->
<g id="edge47" class="edge">
<title>Orange: 7,15&#45;&gt;Orange: 3,&#45;51</title>
<path fill="none" stroke="#8a2be2" d="M1150,-447.8314C1150,-440.131 1150,-430.9743 1150,-422.4166"/>
<polygon fill="#8a2be2" stroke="#8a2be2" points="1153.5001,-422.4132 1150,-412.4133 1146.5001,-422.4133 1153.5001,-422.4132"/>
</g>
<!-- Magenta: 25,58 -->
<g id="node53" class="node">
<title>Magenta: 25,58</title>
<ellipse fill="none" stroke="#000000" cx="1295" cy="-394" rx="66.8882" ry="18"/>
<text text-anchor="middle" x="1295" y="-390.3" font-family="Times,serif" font-size="14.00" fill="#000000">Magenta: 25,58</text>
</g>
<!-- Blue: 23,48 -->
<g id="node54" class="node">
<title>Blue: 23,48</title>
<ellipse fill="none" stroke="#000000" cx="1233" cy="-322" rx="51.9908" ry="18"/>
<text text-anchor="middle" x="1233" y="-318.3" font-family="Times,serif" font-size="14.00" fill="#000000">Blue: 23,48</text>
</g>
<!-- Magenta: 25,58&#45;&gt;Blue: 23,48 -->
<g id="edge49" class="edge">
<title>Magenta: 25,58&#45;&gt;Blue: 23,48</title>
<path fill="none" stroke="#a52a2a" d="M1279.6742,-376.2022C1272.1101,-367.4182 1262.8564,-356.672 1254.5893,-347.0714"/>
<polygon fill="#a52a2a" stroke="#a52a2a" points="1257.1131,-344.6385 1247.9356,-339.3446 1251.8087,-349.2061 1257.1131,-344.6385"/>
</g>
<!-- Green: 6,72 -->
<g id="node55" class="node">
<title>Green: 6,72</title>
<ellipse fill="none" stroke="#000000" cx="1356" cy="-322" rx="52.7911" ry="18"/>
<text text-anchor="middle" x="1356" y="-318.3" font-family="Times,serif" font-size="14.00" fill="#000000">Green: 6,72</text>
</g>
<!-- Magenta: 25,58&#45;&gt;Green: 6,72 -->
<g id="edge50" class="edge">
<title>Magenta: 25,58&#45;&gt;Green: 6,72</title>
<path fill="none" stroke="#a52a2a" d="M1310.0787,-376.2022C1317.5207,-367.4182 1326.6251,-356.672 1334.7589,-347.0714"/>
<polygon fill="#a52a2a" stroke="#a52a2a" points="1337.5115,-349.2369 1341.3053,-339.3446 1332.1706,-344.712 1337.5115,-349.2369"/>
</g>
<!-- Red: 27,68 -->
<g id="node56" class="node">
<title>Red: 27,68</title>
<ellipse fill="none" stroke="#000000" cx="1295" cy="-466" rx="50.0912" ry="18"/>
<text text-anchor="middle" x="1295" y="-462.3" font-family="Times,serif" font-size="14.00" fill="#000000">Red: 27,68</text>
</g>
<!-- Red: 27,68&#45;&gt;Magenta: 25,58 -->
<g id="edge51" class="edge">
<title>Red: 27,68&#45;&gt;Magenta: 25,58</title>
<path fill="none" stroke="#8a2be2" d="M1295,-447.8314C1295,-440.131 1295,-430.9743 1295,-422.4166"/>
<polygon fill="#8a2be2" stroke="#8a2be2" points="1298.5001,-422.4132 1295,-412.4133 1291.5001,-422.4133 1298.5001,-422.4132"/>
</g>
<!-- Yellow: 96,85 -->
<g id="node57" class="node">
<title>Yellow: 96,85</title>
<ellipse fill="none" stroke="#000000" cx="1442" cy="-394" rx="61.99" ry="18"/>
<text text-anchor="middle" x="1442" y="-390.3" font-family="Times,serif" font-size="14.00" fill="#000000">Yellow: 96,85</text>
</g>
<!-- Red: 27,68&#45;&gt;Yellow: 96,85 -->
<g id="edge52" class="edge">
<title>Red: 27,68&#45;&gt;Yellow: 96,85</title>
<path fill="none" stroke="#8a2be2" d="M1324.7476,-451.4297C1346.6702,-440.6921 1376.7576,-425.9554 1400.9651,-414.0987"/>
<polygon fill="#8a2be2" stroke="#8a2be2" points="1402.8205,-417.0873 1410.2616,-409.5454 1399.7414,-410.8009 1402.8205,-417.0873"/>
</g>
<!-- Black: 23,45 -->
<g id="node58" class="node">
<title>Black: 23,45</title>
<ellipse fill="none" stroke="#000000" cx="1175" cy="-538" rx="55.7903" ry="18"/>
<text text-anchor="middle" x="1175" y="-534.3" font-family="Times,serif" font-size="14.00" fill="#000000">Black: 23,45</text>
</g>
<!-- Black: 23,45&#45;&gt;Orange: 7,15 -->
<g id="edge53" class="edge">
<title>Black: 23,45&#45;&gt;Orange: 7,15</title>
<path fill="none" stroke="#0000ff" d="M1168.6914,-519.8314C1165.9169,-511.8406 1162.5979,-502.2819 1159.5317,-493.4514"/>
<polygon fill="#0000ff" stroke="#0000ff" points="1162.8065,-492.2121 1156.2199,-483.9134 1156.1938,-494.5082 1162.8065,-492.2121"/>
</g>
<!-- Black: 23,45&#45;&gt;Red: 27,68 -->
<g id="edge54" class="edge">
<title>Black: 23,45&#45;&gt;Red: 27,68</title>
<path fill="none" stroke="#0000ff" d="M1201.6319,-522.0209C1218.9588,-511.6247 1241.7294,-497.9623 1260.4456,-486.7327"/>
<polygon fill="#0000ff" stroke="#0000ff" points="1262.492,-489.5865 1269.2662,-481.4403 1258.8905,-483.5841 1262.492,-489.5865"/>
</g>
<!-- Magenta: 0,92 -->
<g id="node59" class="node">
<title>Magenta: 0,92</title>
<ellipse fill="none" stroke="#000000" cx="1141" cy="-610" rx="62.2891" ry="18"/>
<text text-anchor="middle" x="1141" y="-606.3" font-family="Times,serif" font-size="14.00" fill="#000000">Magenta: 0,92</text>
</g>
<!-- Magenta: 0,92&#45;&gt;Black: 23,45 -->
<g id="edge55" class="edge">
<title>Magenta: 0,92&#45;&gt;Black: 23,45</title>
<path fill="none" stroke="#000000" d="M1149.5796,-591.8314C1153.3936,-583.7547 1157.9641,-574.0761 1162.1712,-565.1668"/>
<polygon fill="#000000" stroke="#000000" points="1165.4356,-566.4504 1166.5409,-555.9134 1159.1059,-563.4614 1165.4356,-566.4504"/>
</g>
<!-- Magenta: 25,&#45;56 -->
<g id="node60" class="node">
<title>Magenta: 25,&#45;56</title>
<ellipse fill="none" stroke="#000000" cx="928" cy="-682" rx="69.5877" ry="18"/>
<text text-anchor="middle" x="928" y="-678.3" font-family="Times,serif" font-size="14.00" fill="#000000">Magenta: 25,&#45;56</text>
</g>
<!-- Magenta: 25,&#45;56&#45;&gt;Auburn: 82,&#45;77 -->
<g id="edge56" class="edge">
<title>Magenta: 25,&#45;56&#45;&gt;Auburn: 82,&#45;77</title>
<path fill="none" stroke="#ffe4c4" d="M928,-663.8314C928,-656.131 928,-646.9743 928,-638.4166"/>
<polygon fill="#ffe4c4" stroke="#ffe4c4" points="931.5001,-638.4132 928,-628.4133 924.5001,-638.4133 931.5001,-638.4132"/>
</g>
<!-- Magenta: 25,&#45;56&#45;&gt;Magenta: 0,92 -->
<g id="edge57" class="edge">
<title>Magenta: 25,&#45;56&#45;&gt;Magenta: 0,92</title>
<path fill="none" stroke="#ffe4c4" d="M970.3366,-667.689C1004.9728,-655.981 1054.0443,-639.3935 1090.6842,-627.0081"/>
<polygon fill="#ffe4c4" stroke="#ffe4c4" points="1091.8373,-630.313 1100.1899,-623.795 1089.5956,-623.6816 1091.8373,-630.313"/>
</g>
<!-- Red: 0,0 -->
<g id="node61" class="node">
<title>Red: 0,0</title>
<ellipse fill="none" stroke="#000000" cx="797" cy="-754" rx="40.8928" ry="18"/>
<text text-anchor="middle" x="797" y="-750.3" font-family="Times,serif" font-size="14.00" fill="#000000">Red: 0,0</text>
</g>
<!-- Red: 0,0&#45;&gt;Black: &#45;8,&#45;46 -->
<g id="edge58" class="edge">
<title>Red: 0,0&#45;&gt;Black: &#45;8,&#45;46</title>
<path fill="none" stroke="#7fffd4" d="M771.3162,-739.7751C752.1512,-729.1607 725.6819,-714.5008 704.2025,-702.6044"/>
<polygon fill="#7fffd4" stroke="#7fffd4" points="705.782,-699.4783 695.3383,-697.6951 702.3905,-705.6019 705.782,-699.4783"/>
</g>
<!-- Red: 0,0&#45;&gt;Magenta: 25,&#45;56 -->
<g id="edge59" class="edge">
<title>Red: 0,0&#45;&gt;Magenta: 25,&#45;56</title>
<path fill="none" stroke="#7fffd4" d="M822.8814,-739.7751C841.8023,-729.3758 867.7884,-715.0934 889.189,-703.3312"/>
<polygon fill="#7fffd4" stroke="#7fffd4" points="890.9683,-706.3472 898.046,-698.4632 887.5966,-700.2127 890.9683,-706.3472"/>
</g>
</g>
</svg>
