<?xml version="1.0" encoding="UTF-8" standalone="no"?>
<!DOCTYPE svg PUBLIC "-//W3C//DTD SVG 1.1//EN"
 "http://www.w3.org/Graphics/SVG/1.1/DTD/svg11.dtd">
<!-- Generated by graphviz version 2.40.1 (20161225.0304)
 -->
<!-- Title: G Pages: 1 -->
<svg width="1686pt" height="436pt"
 viewBox="0.00 0.00 1686.00 436.00" xmlns="http://www.w3.org/2000/svg" xmlns:xlink="http://www.w3.org/1999/xlink">
<g id="graph0" class="graph" transform="scale(1 1) rotate(0) translate(4 432)">
<title>G</title>
<polygon fill="#ffffff" stroke="transparent" points="-4,4 -4,-432 1682,-432 1682,4 -4,4"/>
<g id="clust1" class="cluster">
<title>cluster_0</title>
<polygon fill="none" stroke="#000000" points="8,-8 8,-420 78,-420 78,-8 8,-8"/>
</g>
<g id="clust2" class="cluster">
<title>cluster_1</title>
<polygon fill="none" stroke="#000000" points="86,-8 86,-420 1670,-420 1670,-8 86,-8"/>
</g>
<!-- root -->
<g id="node1" class="node">
<title>root</title>
<ellipse fill="none" stroke="#000000" cx="43" cy="-394" rx="27" ry="18"/>
<text text-anchor="middle" x="43" y="-390.3" font-family="Times,serif" font-size="14.00" fill="#000000">root</text>
</g>
<!-- 1 -->
<g id="node2" class="node">
<title>1</title>
<ellipse fill="none" stroke="#000000" cx="43" cy="-322" rx="27" ry="18"/>
<text text-anchor="middle" x="43" y="-318.3" font-family="Times,serif" font-size="14.00" fill="#000000">1</text>
</g>
<!-- root&#45;&gt;1 -->
<g id="edge1" class="edge">
<title>root&#45;&gt;1</title>
<path fill="none" stroke="#000000" d="M43,-375.8314C43,-368.131 43,-358.9743 43,-350.4166"/>
<polygon fill="#000000" stroke="#000000" points="46.5001,-350.4132 43,-340.4133 39.5001,-350.4133 46.5001,-350.4132"/>
</g>
<!-- 2 -->
<g id="node3" class="node">
<title>2</title>
<ellipse fill="none" stroke="#000000" cx="43" cy="-250" rx="27" ry="18"/>
<text text-anchor="middle" x="43" y="-246.3" font-family="Times,serif" font-size="14.00" fill="#000000">2</text>
</g>
<!-- 1&#45;&gt;2 -->
<g id="edge2" class="edge">
<title>1&#45;&gt;2</title>
<path fill="none" stroke="#000000" d="M43,-303.8314C43,-296.131 43,-286.9743 43,-278.4166"/>
<polygon fill="#000000" stroke="#000000" points="46.5001,-278.4132 43,-268.4133 39.5001,-278.4133 46.5001,-278.4132"/>
</g>
<!-- 3 -->
<g id="node4" class="node">
<title>3</title>
<ellipse fill="none" stroke="#000000" cx="43" cy="-178" rx="27" ry="18"/>
<text text-anchor="middle" x="43" y="-174.3" font-family="Times,serif" font-size="14.00" fill="#000000">3</text>
</g>
<!-- 2&#45;&gt;3 -->
<g id="edge3" class="edge">
<title>2&#45;&gt;3</title>
<path fill="none" stroke="#000000" d="M43,-231.8314C43,-224.131 43,-214.9743 43,-206.4166"/>
<polygon fill="#000000" stroke="#000000" points="46.5001,-206.4132 43,-196.4133 39.5001,-206.4133 46.5001,-206.4132"/>
</g>
<!-- 4 -->
<g id="node5" class="node">
<title>4</title>
<ellipse fill="none" stroke="#000000" cx="43" cy="-106" rx="27" ry="18"/>
<text text-anchor="middle" x="43" y="-102.3" font-family="Times,serif" font-size="14.00" fill="#000000">4</text>
</g>
<!-- 3&#45;&gt;4 -->
<g id="edge4" class="edge">
<title>3&#45;&gt;4</title>
<path fill="none" stroke="#000000" d="M43,-159.8314C43,-152.131 43,-142.9743 43,-134.4166"/>
<polygon fill="#000000" stroke="#000000" points="46.5001,-134.4132 43,-124.4133 39.5001,-134.4133 46.5001,-134.4132"/>
</g>
<!-- 5 -->
<g id="node6" class="node">
<title>5</title>
<ellipse fill="none" stroke="#000000" cx="43" cy="-34" rx="27" ry="18"/>
<text text-anchor="middle" x="43" y="-30.3" font-family="Times,serif" font-size="14.00" fill="#000000">5</text>
</g>
<!-- 4&#45;&gt;5 -->
<g id="edge5" class="edge">
<title>4&#45;&gt;5</title>
<path fill="none" stroke="#000000" d="M43,-87.8314C43,-80.131 43,-70.9743 43,-62.4166"/>
<polygon fill="#000000" stroke="#000000" points="46.5001,-62.4132 43,-52.4133 39.5001,-62.4133 46.5001,-62.4132"/>
</g>
<!-- Washington Secondary Bike Way: 41.7792,&#45;71.4384 -->
<g id="node7" class="node">
<title>Washington Secondary Bike Way: 41.7792,&#45;71.4384</title>
<ellipse fill="none" stroke="#000000" cx="294" cy="-106" rx="199.5646" ry="18"/>
<text text-anchor="middle" x="294" y="-102.3" font-family="Times,serif" font-size="14.00" fill="#000000">Washington Secondary Bike Way: 41.7792,&#45;71.4384</text>
</g>
<!-- Belmont Park: 41.7616,&#45;71.4228 -->
<g id="node8" class="node">
<title>Belmont Park: 41.7616,&#45;71.4228</title>
<ellipse fill="none" stroke="#000000" cx="294" cy="-34" rx="128.0773" ry="18"/>
<text text-anchor="middle" x="294" y="-30.3" font-family="Times,serif" font-size="14.00" fill="#000000">Belmont Park: 41.7616,&#45;71.4228</text>
</g>
<!-- Washington Secondary Bike Way: 41.7792,&#45;71.4384&#45;&gt;Belmont Park: 41.7616,&#45;71.4228 -->
<g id="edge6" class="edge">
<title>Washington Secondary Bike Way: 41.7792,&#45;71.4384&#45;&gt;Belmont Park: 41.7616,&#45;71.4228</title>
<path fill="none" stroke="#8a2be2" d="M294,-87.8314C294,-80.131 294,-70.9743 294,-62.4166"/>
<polygon fill="#8a2be2" stroke="#8a2be2" points="297.5001,-62.4132 294,-52.4133 290.5001,-62.4133 297.5001,-62.4132"/>
</g>
<!-- Pawtuxet River Trail: 41.768,&#45;71.3929 -->
<g id="node9" class="node">
<title>Pawtuxet River Trail: 41.768,&#45;71.3929</title>
<ellipse fill="none" stroke="#000000" cx="242" cy="-178" rx="148.3739" ry="18"/>
<text text-anchor="middle" x="242" y="-174.3" font-family="Times,serif" font-size="14.00" fill="#000000">Pawtuxet River Trail: 41.768,&#45;71.3929</text>
</g>
<!-- Pawtuxet River Trail: 41.768,&#45;71.3929&#45;&gt;Washington Secondary Bike Way: 41.7792,&#45;71.4384 -->
<g id="edge7" class="edge">
<title>Pawtuxet River Trail: 41.768,&#45;71.3929&#45;&gt;Washington Secondary Bike Way: 41.7792,&#45;71.4384</title>
<path fill="none" stroke="#0000ff" d="M255.1218,-159.8314C261.0499,-151.6232 268.1729,-141.7606 274.6933,-132.7323"/>
<polygon fill="#0000ff" stroke="#0000ff" points="277.684,-134.5693 280.7015,-124.4133 272.0092,-130.4708 277.684,-134.5693"/>
</g>
<!-- Woonasquatucket River Greenway Bike Path: 41.8274,&#45;71.4332 -->
<g id="node10" class="node">
<title>Woonasquatucket River Greenway Bike Path: 41.8274,&#45;71.4332</title>
<ellipse fill="none" stroke="#000000" cx="647" cy="-178" rx="239.3577" ry="18"/>
<text text-anchor="middle" x="647" y="-174.3" font-family="Times,serif" font-size="14.00" fill="#000000">Woonasquatucket River Greenway Bike Path: 41.8274,&#45;71.4332</text>
</g>
<!-- Roger Williams National Memorial: 41.8305,&#45;71.4105 -->
<g id="node11" class="node">
<title>Roger Williams National Memorial: 41.8305,&#45;71.4105</title>
<ellipse fill="none" stroke="#000000" cx="718" cy="-106" rx="206.0634" ry="18"/>
<text text-anchor="middle" x="718" y="-102.3" font-family="Times,serif" font-size="14.00" fill="#000000">Roger Williams National Memorial: 41.8305,&#45;71.4105</text>
</g>
<!-- Woonasquatucket River Greenway Bike Path: 41.8274,&#45;71.4332&#45;&gt;Roger Williams National Memorial: 41.8305,&#45;71.4105 -->
<g id="edge8" class="edge">
<title>Woonasquatucket River Greenway Bike Path: 41.8274,&#45;71.4332&#45;&gt;Roger Williams National Memorial: 41.8305,&#45;71.4105</title>
<path fill="none" stroke="#0000ff" d="M664.9163,-159.8314C673.3442,-151.2848 683.541,-140.9443 692.736,-131.6198"/>
<polygon fill="#0000ff" stroke="#0000ff" points="695.3131,-133.9912 699.8425,-124.4133 690.3289,-129.0761 695.3131,-133.9912"/>
</g>
<!-- Roger Williams Park: 41.7846,&#45;71.4188 -->
<g id="node12" class="node">
<title>Roger Williams Park: 41.7846,&#45;71.4188</title>
<ellipse fill="none" stroke="#000000" cx="502" cy="-250" rx="154.0727" ry="18"/>
<text text-anchor="middle" x="502" y="-246.3" font-family="Times,serif" font-size="14.00" fill="#000000">Roger Williams Park: 41.7846,&#45;71.4188</text>
</g>
<!-- Roger Williams Park: 41.7846,&#45;71.4188&#45;&gt;Pawtuxet River Trail: 41.768,&#45;71.3929 -->
<g id="edge9" class="edge">
<title>Roger Williams Park: 41.7846,&#45;71.4188&#45;&gt;Pawtuxet River Trail: 41.768,&#45;71.3929</title>
<path fill="none" stroke="#000000" d="M442.0243,-233.3913C403.0929,-222.6103 352.219,-208.5222 311.5211,-197.252"/>
<polygon fill="#000000" stroke="#000000" points="312.2455,-193.8209 301.6741,-194.5251 310.3773,-200.5671 312.2455,-193.8209"/>
</g>
<!-- Roger Williams Park: 41.7846,&#45;71.4188&#45;&gt;Woonasquatucket River Greenway Bike Path: 41.8274,&#45;71.4332 -->
<g id="edge10" class="edge">
<title>Roger Williams Park: 41.7846,&#45;71.4188&#45;&gt;Woonasquatucket River Greenway Bike Path: 41.8274,&#45;71.4332</title>
<path fill="none" stroke="#000000" d="M537.471,-232.3868C556.9711,-222.704 581.3566,-210.5953 602.1651,-200.2628"/>
<polygon fill="#000000" stroke="#000000" points="603.7406,-203.3883 611.1406,-195.8061 600.6274,-197.1187 603.7406,-203.3883"/>
</g>
<!-- Blackstone Park Conservation District: 41.8328,&#45;71.3805 -->
<g id="node13" class="node">
<title>Blackstone Park Conservation District: 41.8328,&#45;71.3805</title>
<ellipse fill="none" stroke="#000000" cx="843" cy="-322" rx="213.6622" ry="18"/>
<text text-anchor="middle" x="843" y="-318.3" font-family="Times,serif" font-size="14.00" fill="#000000">Blackstone Park Conservation District: 41.8328,&#45;71.3805</text>
</g>
<!-- Blackstone Park Conservation District: 41.8328,&#45;71.3805&#45;&gt;Roger Williams Park: 41.7846,&#45;71.4188 -->
<g id="edge11" class="edge">
<title>Blackstone Park Conservation District: 41.8328,&#45;71.3805&#45;&gt;Roger Williams Park: 41.7846,&#45;71.4188</title>
<path fill="none" stroke="#ffe4c4" d="M763.481,-305.2101C710.4009,-294.0025 640.6831,-279.2821 586.5863,-267.8599"/>
<polygon fill="#ffe4c4" stroke="#ffe4c4" points="587.1819,-264.4085 576.6746,-265.7671 585.7357,-271.2575 587.1819,-264.4085"/>
</g>
<!-- Osamequin Wildlife Sanctuary: 41.7609,&#45;71.3223 -->
<g id="node14" class="node">
<title>Osamequin Wildlife Sanctuary: 41.7609,&#45;71.3223</title>
<ellipse fill="none" stroke="#000000" cx="863" cy="-250" rx="188.4666" ry="18"/>
<text text-anchor="middle" x="863" y="-246.3" font-family="Times,serif" font-size="14.00" fill="#000000">Osamequin Wildlife Sanctuary: 41.7609,&#45;71.3223</text>
</g>
<!-- Blackstone Park Conservation District: 41.8328,&#45;71.3805&#45;&gt;Osamequin Wildlife Sanctuary: 41.7609,&#45;71.3223 -->
<g id="edge12" class="edge">
<title>Blackstone Park Conservation District: 41.8328,&#45;71.3805&#45;&gt;Osamequin Wildlife Sanctuary: 41.7609,&#45;71.3223</title>
<path fill="none" stroke="#ffe4c4" d="M848.0468,-303.8314C850.2094,-296.0463 852.7853,-286.7729 855.1848,-278.1347"/>
<polygon fill="#ffe4c4" stroke="#ffe4c4" points="858.581,-278.9852 857.8852,-268.4133 851.8364,-277.1117 858.581,-278.9852"/>
</g>
<!-- Lincoln Jogging and Fitness Trail: 41.8813,&#45;71.4674 -->
<g id="node15" class="node">
<title>Lincoln Jogging and Fitness Trail: 41.8813,&#45;71.4674</title>
<ellipse fill="none" stroke="#000000" cx="1102" cy="-178" rx="198.4651" ry="18"/>
<text text-anchor="middle" x="1102" y="-174.3" font-family="Times,serif" font-size="14.00" fill="#000000">Lincoln Jogging and Fitness Trail: 41.8813,&#45;71.4674</text>
</g>
<!-- Slater Memorial Park: 41.869,&#45;71.3543 -->
<g id="node16" class="node">
<title>Slater Memorial Park: 41.869,&#45;71.3543</title>
<ellipse fill="none" stroke="#000000" cx="1102" cy="-106" rx="151.3732" ry="18"/>
<text text-anchor="middle" x="1102" y="-102.3" font-family="Times,serif" font-size="14.00" fill="#000000">Slater Memorial Park: 41.869,&#45;71.3543</text>
</g>
<!-- Lincoln Jogging and Fitness Trail: 41.8813,&#45;71.4674&#45;&gt;Slater Memorial Park: 41.869,&#45;71.3543 -->
<g id="edge13" class="edge">
<title>Lincoln Jogging and Fitness Trail: 41.8813,&#45;71.4674&#45;&gt;Slater Memorial Park: 41.869,&#45;71.3543</title>
<path fill="none" stroke="#0000ff" d="M1102,-159.8314C1102,-152.131 1102,-142.9743 1102,-134.4166"/>
<polygon fill="#0000ff" stroke="#0000ff" points="1105.5001,-134.4132 1102,-124.4133 1098.5001,-134.4133 1105.5001,-134.4132"/>
</g>
<!-- Georgiaville Pond Beach: 41.9018,&#45;71.516 -->
<g id="node17" class="node">
<title>Georgiaville Pond Beach: 41.9018,&#45;71.516</title>
<ellipse fill="none" stroke="#000000" cx="1469" cy="-106" rx="163.2712" ry="18"/>
<text text-anchor="middle" x="1469" y="-102.3" font-family="Times,serif" font-size="14.00" fill="#000000">Georgiaville Pond Beach: 41.9018,&#45;71.516</text>
</g>
<!-- EMS Kayak School &amp; Kayak Rentals: 41.8885,&#45;71.4356 -->
<g id="node18" class="node">
<title>EMS Kayak School &amp; Kayak Rentals: 41.8885,&#45;71.4356</title>
<ellipse fill="none" stroke="#000000" cx="1449" cy="-34" rx="213.3623" ry="18"/>
<text text-anchor="middle" x="1449" y="-30.3" font-family="Times,serif" font-size="14.00" fill="#000000">EMS Kayak School &amp; Kayak Rentals: 41.8885,&#45;71.4356</text>
</g>
<!-- Georgiaville Pond Beach: 41.9018,&#45;71.516&#45;&gt;EMS Kayak School &amp; Kayak Rentals: 41.8885,&#45;71.4356 -->
<g id="edge14" class="edge">
<title>Georgiaville Pond Beach: 41.9018,&#45;71.516&#45;&gt;EMS Kayak School &amp; Kayak Rentals: 41.8885,&#45;71.4356</title>
<path fill="none" stroke="#8a2be2" d="M1463.9532,-87.8314C1461.7906,-80.0463 1459.2147,-70.7729 1456.8152,-62.1347"/>
<polygon fill="#8a2be2" stroke="#8a2be2" points="1460.1636,-61.1117 1454.1148,-52.4133 1453.419,-62.9852 1460.1636,-61.1117"/>
</g>
<!-- Lincoln Woods State Park: 41.8975,&#45;71.4329 -->
<g id="node19" class="node">
<title>Lincoln Woods State Park: 41.8975,&#45;71.4329</title>
<ellipse fill="none" stroke="#000000" cx="1490" cy="-178" rx="172.4698" ry="18"/>
<text text-anchor="middle" x="1490" y="-174.3" font-family="Times,serif" font-size="14.00" fill="#000000">Lincoln Woods State Park: 41.8975,&#45;71.4329</text>
</g>
<!-- Lincoln Woods State Park: 41.8975,&#45;71.4329&#45;&gt;Georgiaville Pond Beach: 41.9018,&#45;71.516 -->
<g id="edge15" class="edge">
<title>Lincoln Woods State Park: 41.8975,&#45;71.4329&#45;&gt;Georgiaville Pond Beach: 41.9018,&#45;71.516</title>
<path fill="none" stroke="#0000ff" d="M1484.7008,-159.8314C1482.4302,-152.0463 1479.7254,-142.7729 1477.206,-134.1347"/>
<polygon fill="#0000ff" stroke="#0000ff" points="1480.5306,-133.0332 1474.3705,-124.4133 1473.8106,-134.9933 1480.5306,-133.0332"/>
</g>
<!-- Stillwater Scenic Trail: 41.8854,&#45;71.5093 -->
<g id="node20" class="node">
<title>Stillwater Scenic Trail: 41.8854,&#45;71.5093</title>
<ellipse fill="none" stroke="#000000" cx="1246" cy="-250" rx="157.872" ry="18"/>
<text text-anchor="middle" x="1246" y="-246.3" font-family="Times,serif" font-size="14.00" fill="#000000">Stillwater Scenic Trail: 41.8854,&#45;71.5093</text>
</g>
<!-- Stillwater Scenic Trail: 41.8854,&#45;71.5093&#45;&gt;Lincoln Jogging and Fitness Trail: 41.8813,&#45;71.4674 -->
<g id="edge16" class="edge">
<title>Stillwater Scenic Trail: 41.8854,&#45;71.5093&#45;&gt;Lincoln Jogging and Fitness Trail: 41.8813,&#45;71.4674</title>
<path fill="none" stroke="#000000" d="M1210.7736,-232.3868C1191.4948,-222.7474 1167.4078,-210.7039 1146.8039,-200.4019"/>
<polygon fill="#000000" stroke="#000000" points="1148.1217,-197.1478 1137.6121,-195.8061 1144.9911,-203.4088 1148.1217,-197.1478"/>
</g>
<!-- Stillwater Scenic Trail: 41.8854,&#45;71.5093&#45;&gt;Lincoln Woods State Park: 41.8975,&#45;71.4329 -->
<g id="edge17" class="edge">
<title>Stillwater Scenic Trail: 41.8854,&#45;71.5093&#45;&gt;Lincoln Woods State Park: 41.8975,&#45;71.4329</title>
<path fill="none" stroke="#000000" d="M1303.2072,-233.1192C1338.8947,-222.5884 1385.0027,-208.9828 1422.4793,-197.9242"/>
<polygon fill="#000000" stroke="#000000" points="1423.7053,-201.2117 1432.3058,-195.0245 1421.7241,-194.4979 1423.7053,-201.2117"/>
</g>
<!-- Caratunk Wildlife Refuge: 41.8744,&#45;71.3215 -->
<g id="node21" class="node">
<title>Caratunk Wildlife Refuge: 41.8744,&#45;71.3215</title>
<ellipse fill="none" stroke="#000000" cx="1246" cy="-322" rx="170.8697" ry="18"/>
<text text-anchor="middle" x="1246" y="-318.3" font-family="Times,serif" font-size="14.00" fill="#000000">Caratunk Wildlife Refuge: 41.8744,&#45;71.3215</text>
</g>
<!-- Caratunk Wildlife Refuge: 41.8744,&#45;71.3215&#45;&gt;Stillwater Scenic Trail: 41.8854,&#45;71.5093 -->
<g id="edge18" class="edge">
<title>Caratunk Wildlife Refuge: 41.8744,&#45;71.3215&#45;&gt;Stillwater Scenic Trail: 41.8854,&#45;71.5093</title>
<path fill="none" stroke="#ffe4c4" d="M1246,-303.8314C1246,-296.131 1246,-286.9743 1246,-278.4166"/>
<polygon fill="#ffe4c4" stroke="#ffe4c4" points="1249.5001,-278.4132 1246,-268.4133 1242.5001,-278.4133 1249.5001,-278.4132"/>
</g>
<!-- Governor Notte Park: 41.8573,&#45;71.4444 -->
<g id="node22" class="node">
<title>Governor Notte Park: 41.8573,&#45;71.4444</title>
<ellipse fill="none" stroke="#000000" cx="1044" cy="-394" rx="152.9733" ry="18"/>
<text text-anchor="middle" x="1044" y="-390.3" font-family="Times,serif" font-size="14.00" fill="#000000">Governor Notte Park: 41.8573,&#45;71.4444</text>
</g>
<!-- Governor Notte Park: 41.8573,&#45;71.4444&#45;&gt;Blackstone Park Conservation District: 41.8328,&#45;71.3805 -->
<g id="edge19" class="edge">
<title>Governor Notte Park: 41.8573,&#45;71.4444&#45;&gt;Blackstone Park Conservation District: 41.8328,&#45;71.3805</title>
<path fill="none" stroke="#7fffd4" d="M996.1109,-376.8457C967.7163,-366.6745 931.5187,-353.7082 901.4486,-342.9368"/>
<polygon fill="#7fffd4" stroke="#7fffd4" points="902.5132,-339.6004 891.9186,-339.5231 900.1526,-346.1904 902.5132,-339.6004"/>
</g>
<!-- Governor Notte Park: 41.8573,&#45;71.4444&#45;&gt;Caratunk Wildlife Refuge: 41.8744,&#45;71.3215 -->
<g id="edge20" class="edge">
<title>Governor Notte Park: 41.8573,&#45;71.4444&#45;&gt;Caratunk Wildlife Refuge: 41.8744,&#45;71.3215</title>
<path fill="none" stroke="#7fffd4" d="M1092.1274,-376.8457C1120.8738,-366.5994 1157.5783,-353.5166 1187.9286,-342.6987"/>
<polygon fill="#7fffd4" stroke="#7fffd4" points="1189.2968,-345.9268 1197.5412,-339.2724 1186.9465,-339.3331 1189.2968,-345.9268"/>
</g>
</g>
</svg>
