<?xml version="1.0" encoding="UTF-8" standalone="no"?>
<!DOCTYPE svg PUBLIC "-//W3C//DTD SVG 1.1//EN"
 "http://www.w3.org/Graphics/SVG/1.1/DTD/svg11.dtd">
<!-- Generated by graphviz version 2.40.1 (20161225.0304)
 -->
<!-- Title: G Pages: 1 -->
<svg width="1700pt" height="436pt"
 viewBox="0.00 0.00 1700.00 436.00" xmlns="http://www.w3.org/2000/svg" xmlns:xlink="http://www.w3.org/1999/xlink">
<g id="graph0" class="graph" transform="scale(1 1) rotate(0) translate(4 432)">
<title>G</title>
<polygon fill="#ffffff" stroke="transparent" points="-4,4 -4,-432 1696,-432 1696,4 -4,4"/>
<g id="clust1" class="cluster">
<title>cluster_0</title>
<polygon fill="none" stroke="#000000" points="8,-8 8,-420 92,-420 92,-8 8,-8"/>
</g>
<g id="clust2" class="cluster">
<title>cluster_1</title>
<polygon fill="none" stroke="#000000" points="100,-8 100,-420 1684,-420 1684,-8 100,-8"/>
</g>
<!-- root: x -->
<g id="node1" class="node">
<title>root: x</title>
<ellipse fill="none" stroke="#000000" cx="50" cy="-394" rx="34.394" ry="18"/>
<text text-anchor="middle" x="50" y="-390.3" font-family="Times,serif" font-size="14.00" fill="#000000">root: x</text>
</g>
<!-- 1:y -->
<g id="node2" class="node">
<title>1:y</title>
<ellipse fill="none" stroke="#000000" cx="50" cy="-322" rx="27" ry="18"/>
<text text-anchor="middle" x="50" y="-318.3" font-family="Times,serif" font-size="14.00" fill="#000000">1:y</text>
</g>
<!-- root: x&#45;&gt;1:y -->
<g id="edge1" class="edge">
<title>root: x&#45;&gt;1:y</title>
<path fill="none" stroke="#000000" d="M50,-375.8314C50,-368.131 50,-358.9743 50,-350.4166"/>
<polygon fill="#000000" stroke="#000000" points="53.5001,-350.4132 50,-340.4133 46.5001,-350.4133 53.5001,-350.4132"/>
</g>
<!-- 2:x -->
<g id="node3" class="node">
<title>2:x</title>
<ellipse fill="none" stroke="#000000" cx="50" cy="-250" rx="27" ry="18"/>
<text text-anchor="middle" x="50" y="-246.3" font-family="Times,serif" font-size="14.00" fill="#000000">2:x</text>
</g>
<!-- 1:y&#45;&gt;2:x -->
<g id="edge2" class="edge">
<title>1:y&#45;&gt;2:x</title>
<path fill="none" stroke="#000000" d="M50,-303.8314C50,-296.131 50,-286.9743 50,-278.4166"/>
<polygon fill="#000000" stroke="#000000" points="53.5001,-278.4132 50,-268.4133 46.5001,-278.4133 53.5001,-278.4132"/>
</g>
<!-- 3:y -->
<g id="node4" class="node">
<title>3:y</title>
<ellipse fill="none" stroke="#000000" cx="50" cy="-178" rx="27" ry="18"/>
<text text-anchor="middle" x="50" y="-174.3" font-family="Times,serif" font-size="14.00" fill="#000000">3:y</text>
</g>
<!-- 2:x&#45;&gt;3:y -->
<g id="edge3" class="edge">
<title>2:x&#45;&gt;3:y</title>
<path fill="none" stroke="#000000" d="M50,-231.8314C50,-224.131 50,-214.9743 50,-206.4166"/>
<polygon fill="#000000" stroke="#000000" points="53.5001,-206.4132 50,-196.4133 46.5001,-206.4133 53.5001,-206.4132"/>
</g>
<!-- 4:x -->
<g id="node5" class="node">
<title>4:x</title>
<ellipse fill="none" stroke="#000000" cx="50" cy="-106" rx="27" ry="18"/>
<text text-anchor="middle" x="50" y="-102.3" font-family="Times,serif" font-size="14.00" fill="#000000">4:x</text>
</g>
<!-- 3:y&#45;&gt;4:x -->
<g id="edge4" class="edge">
<title>3:y&#45;&gt;4:x</title>
<path fill="none" stroke="#000000" d="M50,-159.8314C50,-152.131 50,-142.9743 50,-134.4166"/>
<polygon fill="#000000" stroke="#000000" points="53.5001,-134.4132 50,-124.4133 46.5001,-134.4133 53.5001,-134.4132"/>
</g>
<!-- 5:y -->
<g id="node6" class="node">
<title>5:y</title>
<ellipse fill="none" stroke="#000000" cx="50" cy="-34" rx="27" ry="18"/>
<text text-anchor="middle" x="50" y="-30.3" font-family="Times,serif" font-size="14.00" fill="#000000">5:y</text>
</g>
<!-- 4:x&#45;&gt;5:y -->
<g id="edge5" class="edge">
<title>4:x&#45;&gt;5:y</title>
<path fill="none" stroke="#000000" d="M50,-87.8314C50,-80.131 50,-70.9743 50,-62.4166"/>
<polygon fill="#000000" stroke="#000000" points="53.5001,-62.4132 50,-52.4133 46.5001,-62.4133 53.5001,-62.4132"/>
</g>
<!-- Washington Secondary Bike Way: 41.7792,&#45;71.4384 -->
<g id="node7" class="node">
<title>Washington Secondary Bike Way: 41.7792,&#45;71.4384</title>
<ellipse fill="none" stroke="#000000" cx="308" cy="-106" rx="199.5646" ry="18"/>
<text text-anchor="middle" x="308" y="-102.3" font-family="Times,serif" font-size="14.00" fill="#000000">Washington Secondary Bike Way: 41.7792,&#45;71.4384</text>
</g>
<!-- Belmont Park: 41.7616,&#45;71.4228 -->
<g id="node8" class="node">
<title>Belmont Park: 41.7616,&#45;71.4228</title>
<ellipse fill="none" stroke="#000000" cx="308" cy="-34" rx="128.0773" ry="18"/>
<text text-anchor="middle" x="308" y="-30.3" font-family="Times,serif" font-size="14.00" fill="#000000">Belmont Park: 41.7616,&#45;71.4228</text>
</g>
<!-- Washington Secondary Bike Way: 41.7792,&#45;71.4384&#45;&gt;Belmont Park: 41.7616,&#45;71.4228 -->
<g id="edge6" class="edge">
<title>Washington Secondary Bike Way: 41.7792,&#45;71.4384&#45;&gt;Belmont Park: 41.7616,&#45;71.4228</title>
<path fill="none" stroke="#8a2be2" d="M308,-87.8314C308,-80.131 308,-70.9743 308,-62.4166"/>
<polygon fill="#8a2be2" stroke="#8a2be2" points="311.5001,-62.4132 308,-52.4133 304.5001,-62.4133 311.5001,-62.4132"/>
</g>
<!-- Pawtuxet River Trail: 41.768,&#45;71.3929 -->
<g id="node9" class="node">
<title>Pawtuxet River Trail: 41.768,&#45;71.3929</title>
<ellipse fill="none" stroke="#000000" cx="256" cy="-178" rx="148.3739" ry="18"/>
<text text-anchor="middle" x="256" y="-174.3" font-family="Times,serif" font-size="14.00" fill="#000000">Pawtuxet River Trail: 41.768,&#45;71.3929</text>
</g>
<!-- Pawtuxet River Trail: 41.768,&#45;71.3929&#45;&gt;Washington Secondary Bike Way: 41.7792,&#45;71.4384 -->
<g id="edge7" class="edge">
<title>Pawtuxet River Trail: 41.768,&#45;71.3929&#45;&gt;Washington Secondary Bike Way: 41.7792,&#45;71.4384</title>
<path fill="none" stroke="#0000ff" d="M269.1218,-159.8314C275.0499,-151.6232 282.1729,-141.7606 288.6933,-132.7323"/>
<polygon fill="#0000ff" stroke="#0000ff" points="291.684,-134.5693 294.7015,-124.4133 286.0092,-130.4708 291.684,-134.5693"/>
</g>
<!-- Woonasquatucket River Greenway Bike Path: 41.8274,&#45;71.4332 -->
<g id="node10" class="node">
<title>Woonasquatucket River Greenway Bike Path: 41.8274,&#45;71.4332</title>
<ellipse fill="none" stroke="#000000" cx="661" cy="-178" rx="239.3577" ry="18"/>
<text text-anchor="middle" x="661" y="-174.3" font-family="Times,serif" font-size="14.00" fill="#000000">Woonasquatucket River Greenway Bike Path: 41.8274,&#45;71.4332</text>
</g>
<!-- Roger Williams National Memorial: 41.8305,&#45;71.4105 -->
<g id="node11" class="node">
<title>Roger Williams National Memorial: 41.8305,&#45;71.4105</title>
<ellipse fill="none" stroke="#000000" cx="732" cy="-106" rx="206.0634" ry="18"/>
<text text-anchor="middle" x="732" y="-102.3" font-family="Times,serif" font-size="14.00" fill="#000000">Roger Williams National Memorial: 41.8305,&#45;71.4105</text>
</g>
<!-- Woonasquatucket River Greenway Bike Path: 41.8274,&#45;71.4332&#45;&gt;Roger Williams National Memorial: 41.8305,&#45;71.4105 -->
<g id="edge8" class="edge">
<title>Woonasquatucket River Greenway Bike Path: 41.8274,&#45;71.4332&#45;&gt;Roger Williams National Memorial: 41.8305,&#45;71.4105</title>
<path fill="none" stroke="#0000ff" d="M678.9163,-159.8314C687.3442,-151.2848 697.541,-140.9443 706.736,-131.6198"/>
<polygon fill="#0000ff" stroke="#0000ff" points="709.3131,-133.9912 713.8425,-124.4133 704.3289,-129.0761 709.3131,-133.9912"/>
</g>
<!-- Roger Williams Park: 41.7846,&#45;71.4188 -->
<g id="node12" class="node">
<title>Roger Williams Park: 41.7846,&#45;71.4188</title>
<ellipse fill="none" stroke="#000000" cx="516" cy="-250" rx="154.0727" ry="18"/>
<text text-anchor="middle" x="516" y="-246.3" font-family="Times,serif" font-size="14.00" fill="#000000">Roger Williams Park: 41.7846,&#45;71.4188</text>
</g>
<!-- Roger Williams Park: 41.7846,&#45;71.4188&#45;&gt;Pawtuxet River Trail: 41.768,&#45;71.3929 -->
<g id="edge9" class="edge">
<title>Roger Williams Park: 41.7846,&#45;71.4188&#45;&gt;Pawtuxet River Trail: 41.768,&#45;71.3929</title>
<path fill="none" stroke="#000000" d="M456.0243,-233.3913C417.0929,-222.6103 366.219,-208.5222 325.5211,-197.252"/>
<polygon fill="#000000" stroke="#000000" points="326.2455,-193.8209 315.6741,-194.5251 324.3773,-200.5671 326.2455,-193.8209"/>
</g>
<!-- Roger Williams Park: 41.7846,&#45;71.4188&#45;&gt;Woonasquatucket River Greenway Bike Path: 41.8274,&#45;71.4332 -->
<g id="edge10" class="edge">
<title>Roger Williams Park: 41.7846,&#45;71.4188&#45;&gt;Woonasquatucket River Greenway Bike Path: 41.8274,&#45;71.4332</title>
<path fill="none" stroke="#000000" d="M551.471,-232.3868C570.9711,-222.704 595.3566,-210.5953 616.1651,-200.2628"/>
<polygon fill="#000000" stroke="#000000" points="617.7406,-203.3883 625.1406,-195.8061 614.6274,-197.1187 617.7406,-203.3883"/>
</g>
<!-- Blackstone Park Conservation District: 41.8328,&#45;71.3805 -->
<g id="node13" class="node">
<title>Blackstone Park Conservation District: 41.8328,&#45;71.3805</title>
<ellipse fill="none" stroke="#000000" cx="857" cy="-322" rx="213.6622" ry="18"/>
<text text-anchor="middle" x="857" y="-318.3" font-family="Times,serif" font-size="14.00" fill="#000000">Blackstone Park Conservation District: 41.8328,&#45;71.3805</text>
</g>
<!-- Blackstone Park Conservation District: 41.8328,&#45;71.3805&#45;&gt;Roger Williams Park: 41.7846,&#45;71.4188 -->
<g id="edge11" class="edge">
<title>Blackstone Park Conservation District: 41.8328,&#45;71.3805&#45;&gt;Roger Williams Park: 41.7846,&#45;71.4188</title>
<path fill="none" stroke="#ffe4c4" d="M777.481,-305.2101C724.4009,-294.0025 654.6831,-279.2821 600.5863,-267.8599"/>
<polygon fill="#ffe4c4" stroke="#ffe4c4" points="601.1819,-264.4085 590.6746,-265.7671 599.7357,-271.2575 601.1819,-264.4085"/>
</g>
<!-- Osamequin Wildlife Sanctuary: 41.7609,&#45;71.3223 -->
<g id="node14" class="node">
<title>Osamequin Wildlife Sanctuary: 41.7609,&#45;71.3223</title>
<ellipse fill="none" stroke="#000000" cx="877" cy="-250" rx="188.4666" ry="18"/>
<text text-anchor="middle" x="877" y="-246.3" font-family="Times,serif" font-size="14.00" fill="#000000">Osamequin Wildlife Sanctuary: 41.7609,&#45;71.3223</text>
</g>
<!-- Blackstone Park Conservation District: 41.8328,&#45;71.3805&#45;&gt;Osamequin Wildlife Sanctuary: 41.7609,&#45;71.3223 -->
<g id="edge12" class="edge">
<title>Blackstone Park Conservation District: 41.8328,&#45;71.3805&#45;&gt;Osamequin Wildlife Sanctuary: 41.7609,&#45;71.3223</title>
<path fill="none" stroke="#ffe4c4" d="M862.0468,-303.8314C864.2094,-296.0463 866.7853,-286.7729 869.1848,-278.1347"/>
<polygon fill="#ffe4c4" stroke="#ffe4c4" points="872.581,-278.9852 871.8852,-268.4133 865.8364,-277.1117 872.581,-278.9852"/>
</g>
<!-- Lincoln Jogging and Fitness Trail: 41.8813,&#45;71.4674 -->
<g id="node15" class="node">
<title>Lincoln Jogging and Fitness Trail: 41.8813,&#45;71.4674</title>
<ellipse fill="none" stroke="#000000" cx="1116" cy="-178" rx="198.4651" ry="18"/>
<text text-anchor="middle" x="1116" y="-174.3" font-family="Times,serif" font-size="14.00" fill="#000000">Lincoln Jogging and Fitness Trail: 41.8813,&#45;71.4674</text>
</g>
<!-- Slater Memorial Park: 41.869,&#45;71.3543 -->
<g id="node16" class="node">
<title>Slater Memorial Park: 41.869,&#45;71.3543</title>
<ellipse fill="none" stroke="#000000" cx="1116" cy="-106" rx="151.3732" ry="18"/>
<text text-anchor="middle" x="1116" y="-102.3" font-family="Times,serif" font-size="14.00" fill="#000000">Slater Memorial Park: 41.869,&#45;71.3543</text>
</g>
<!-- Lincoln Jogging and Fitness Trail: 41.8813,&#45;71.4674&#45;&gt;Slater Memorial Park: 41.869,&#45;71.3543 -->
<g id="edge13" class="edge">
<title>Lincoln Jogging and Fitness Trail: 41.8813,&#45;71.4674&#45;&gt;Slater Memorial Park: 41.869,&#45;71.3543</title>
<path fill="none" stroke="#0000ff" d="M1116,-159.8314C1116,-152.131 1116,-142.9743 1116,-134.4166"/>
<polygon fill="#0000ff" stroke="#0000ff" points="1119.5001,-134.4132 1116,-124.4133 1112.5001,-134.4133 1119.5001,-134.4132"/>
</g>
<!-- Georgiaville Pond Beach: 41.9018,&#45;71.516 -->
<g id="node17" class="node">
<title>Georgiaville Pond Beach: 41.9018,&#45;71.516</title>
<ellipse fill="none" stroke="#000000" cx="1483" cy="-106" rx="163.2712" ry="18"/>
<text text-anchor="middle" x="1483" y="-102.3" font-family="Times,serif" font-size="14.00" fill="#000000">Georgiaville Pond Beach: 41.9018,&#45;71.516</text>
</g>
<!-- EMS Kayak School &amp; Kayak Rentals: 41.8885,&#45;71.4356 -->
<g id="node18" class="node">
<title>EMS Kayak School &amp; Kayak Rentals: 41.8885,&#45;71.4356</title>
<ellipse fill="none" stroke="#000000" cx="1463" cy="-34" rx="213.3623" ry="18"/>
<text text-anchor="middle" x="1463" y="-30.3" font-family="Times,serif" font-size="14.00" fill="#000000">EMS Kayak School &amp; Kayak Rentals: 41.8885,&#45;71.4356</text>
</g>
<!-- Georgiaville Pond Beach: 41.9018,&#45;71.516&#45;&gt;EMS Kayak School &amp; Kayak Rentals: 41.8885,&#45;71.4356 -->
<g id="edge14" class="edge">
<title>Georgiaville Pond Beach: 41.9018,&#45;71.516&#45;&gt;EMS Kayak School &amp; Kayak Rentals: 41.8885,&#45;71.4356</title>
<path fill="none" stroke="#8a2be2" d="M1477.9532,-87.8314C1475.7906,-80.0463 1473.2147,-70.7729 1470.8152,-62.1347"/>
<polygon fill="#8a2be2" stroke="#8a2be2" points="1474.1636,-61.1117 1468.1148,-52.4133 1467.419,-62.9852 1474.1636,-61.1117"/>
</g>
<!-- Lincoln Woods State Park: 41.8975,&#45;71.4329 -->
<g id="node19" class="node">
<title>Lincoln Woods State Park: 41.8975,&#45;71.4329</title>
<ellipse fill="none" stroke="#000000" cx="1504" cy="-178" rx="172.4698" ry="18"/>
<text text-anchor="middle" x="1504" y="-174.3" font-family="Times,serif" font-size="14.00" fill="#000000">Lincoln Woods State Park: 41.8975,&#45;71.4329</text>
</g>
<!-- Lincoln Woods State Park: 41.8975,&#45;71.4329&#45;&gt;Georgiaville Pond Beach: 41.9018,&#45;71.516 -->
<g id="edge15" class="edge">
<title>Lincoln Woods State Park: 41.8975,&#45;71.4329&#45;&gt;Georgiaville Pond Beach: 41.9018,&#45;71.516</title>
<path fill="none" stroke="#0000ff" d="M1498.7008,-159.8314C1496.4302,-152.0463 1493.7254,-142.7729 1491.206,-134.1347"/>
<polygon fill="#0000ff" stroke="#0000ff" points="1494.5306,-133.0332 1488.3705,-124.4133 1487.8106,-134.9933 1494.5306,-133.0332"/>
</g>
<!-- Stillwater Scenic Trail: 41.8854,&#45;71.5093 -->
<g id="node20" class="node">
<title>Stillwater Scenic Trail: 41.8854,&#45;71.5093</title>
<ellipse fill="none" stroke="#000000" cx="1260" cy="-250" rx="157.872" ry="18"/>
<text text-anchor="middle" x="1260" y="-246.3" font-family="Times,serif" font-size="14.00" fill="#000000">Stillwater Scenic Trail: 41.8854,&#45;71.5093</text>
</g>
<!-- Stillwater Scenic Trail: 41.8854,&#45;71.5093&#45;&gt;Lincoln Jogging and Fitness Trail: 41.8813,&#45;71.4674 -->
<g id="edge16" class="edge">
<title>Stillwater Scenic Trail: 41.8854,&#45;71.5093&#45;&gt;Lincoln Jogging and Fitness Trail: 41.8813,&#45;71.4674</title>
<path fill="none" stroke="#000000" d="M1224.7736,-232.3868C1205.4948,-222.7474 1181.4078,-210.7039 1160.8039,-200.4019"/>
<polygon fill="#000000" stroke="#000000" points="1162.1217,-197.1478 1151.6121,-195.8061 1158.9911,-203.4088 1162.1217,-197.1478"/>
</g>
<!-- Stillwater Scenic Trail: 41.8854,&#45;71.5093&#45;&gt;Lincoln Woods State Park: 41.8975,&#45;71.4329 -->
<g id="edge17" class="edge">
<title>Stillwater Scenic Trail: 41.8854,&#45;71.5093&#45;&gt;Lincoln Woods State Park: 41.8975,&#45;71.4329</title>
<path fill="none" stroke="#000000" d="M1317.2072,-233.1192C1352.8947,-222.5884 1399.0027,-208.9828 1436.4793,-197.9242"/>
<polygon fill="#000000" stroke="#000000" points="1437.7053,-201.2117 1446.3058,-195.0245 1435.7241,-194.4979 1437.7053,-201.2117"/>
</g>
<!-- Caratunk Wildlife Refuge: 41.8744,&#45;71.3215 -->
<g id="node21" class="node">
<title>Caratunk Wildlife Refuge: 41.8744,&#45;71.3215</title>
<ellipse fill="none" stroke="#000000" cx="1260" cy="-322" rx="170.8697" ry="18"/>
<text text-anchor="middle" x="1260" y="-318.3" font-family="Times,serif" font-size="14.00" fill="#000000">Caratunk Wildlife Refuge: 41.8744,&#45;71.3215</text>
</g>
<!-- Caratunk Wildlife Refuge: 41.8744,&#45;71.3215&#45;&gt;Stillwater Scenic Trail: 41.8854,&#45;71.5093 -->
<g id="edge18" class="edge">
<title>Caratunk Wildlife Refuge: 41.8744,&#45;71.3215&#45;&gt;Stillwater Scenic Trail: 41.8854,&#45;71.5093</title>
<path fill="none" stroke="#ffe4c4" d="M1260,-303.8314C1260,-296.131 1260,-286.9743 1260,-278.4166"/>
<polygon fill="#ffe4c4" stroke="#ffe4c4" points="1263.5001,-278.4132 1260,-268.4133 1256.5001,-278.4133 1263.5001,-278.4132"/>
</g>
<!-- Governor Notte Park: 41.8573,&#45;71.4444 -->
<g id="node22" class="node">
<title>Governor Notte Park: 41.8573,&#45;71.4444</title>
<ellipse fill="none" stroke="#000000" cx="1058" cy="-394" rx="152.9733" ry="18"/>
<text text-anchor="middle" x="1058" y="-390.3" font-family="Times,serif" font-size="14.00" fill="#000000">Governor Notte Park: 41.8573,&#45;71.4444</text>
</g>
<!-- Governor Notte Park: 41.8573,&#45;71.4444&#45;&gt;Blackstone Park Conservation District: 41.8328,&#45;71.3805 -->
<g id="edge19" class="edge">
<title>Governor Notte Park: 41.8573,&#45;71.4444&#45;&gt;Blackstone Park Conservation District: 41.8328,&#45;71.3805</title>
<path fill="none" stroke="#7fffd4" d="M1010.1109,-376.8457C981.7163,-366.6745 945.5187,-353.7082 915.4486,-342.9368"/>
<polygon fill="#7fffd4" stroke="#7fffd4" points="916.5132,-339.6004 905.9186,-339.5231 914.1526,-346.1904 916.5132,-339.6004"/>
</g>
<!-- Governor Notte Park: 41.8573,&#45;71.4444&#45;&gt;Caratunk Wildlife Refuge: 41.8744,&#45;71.3215 -->
<g id="edge20" class="edge">
<title>Governor Notte Park: 41.8573,&#45;71.4444&#45;&gt;Caratunk Wildlife Refuge: 41.8744,&#45;71.3215</title>
<path fill="none" stroke="#7fffd4" d="M1106.1274,-376.8457C1134.8738,-366.5994 1171.5783,-353.5166 1201.9286,-342.6987"/>
<polygon fill="#7fffd4" stroke="#7fffd4" points="1203.2968,-345.9268 1211.5412,-339.2724 1200.9465,-339.3331 1203.2968,-345.9268"/>
</g>
</g>
</svg>
