<?xml version="1.0" encoding="UTF-8" standalone="no"?>
<!DOCTYPE svg PUBLIC "-//W3C//DTD SVG 1.1//EN"
 "http://www.w3.org/Graphics/SVG/1.1/DTD/svg11.dtd">
<!-- Generated by graphviz version 2.40.1 (20161225.0304)
 -->
<!-- Title: G Pages: 1 -->
<svg width="3725pt" height="652pt"
 viewBox="0.00 0.00 3725.00 652.00" xmlns="http://www.w3.org/2000/svg" xmlns:xlink="http://www.w3.org/1999/xlink">
<g id="graph0" class="graph" transform="scale(1 1) rotate(0) translate(4 648)">
<title>G</title>
<polygon fill="#ffffff" stroke="transparent" points="-4,4 -4,-648 3721,-648 3721,4 -4,4"/>
<g id="clust1" class="cluster">
<title>cluster_0</title>
<polygon fill="none" stroke="#000000" points="8,-80 8,-636 92,-636 92,-80 8,-80"/>
</g>
<g id="clust2" class="cluster">
<title>cluster_1</title>
<polygon fill="none" stroke="#000000" points="100,-8 100,-636 3709,-636 3709,-8 100,-8"/>
</g>
<!-- root: x -->
<g id="node1" class="node">
<title>root: x</title>
<ellipse fill="none" stroke="#000000" cx="50" cy="-610" rx="34.394" ry="18"/>
<text text-anchor="middle" x="50" y="-606.3" font-family="Times,serif" font-size="14.00" fill="#000000">root: x</text>
</g>
<!-- 1:y -->
<g id="node2" class="node">
<title>1:y</title>
<ellipse fill="none" stroke="#000000" cx="50" cy="-538" rx="27" ry="18"/>
<text text-anchor="middle" x="50" y="-534.3" font-family="Times,serif" font-size="14.00" fill="#000000">1:y</text>
</g>
<!-- root: x&#45;&gt;1:y -->
<g id="edge1" class="edge">
<title>root: x&#45;&gt;1:y</title>
<path fill="none" stroke="#000000" d="M50,-591.8314C50,-584.131 50,-574.9743 50,-566.4166"/>
<polygon fill="#000000" stroke="#000000" points="53.5001,-566.4132 50,-556.4133 46.5001,-566.4133 53.5001,-566.4132"/>
</g>
<!-- 2:x -->
<g id="node3" class="node">
<title>2:x</title>
<ellipse fill="none" stroke="#000000" cx="50" cy="-466" rx="27" ry="18"/>
<text text-anchor="middle" x="50" y="-462.3" font-family="Times,serif" font-size="14.00" fill="#000000">2:x</text>
</g>
<!-- 1:y&#45;&gt;2:x -->
<g id="edge2" class="edge">
<title>1:y&#45;&gt;2:x</title>
<path fill="none" stroke="#000000" d="M50,-519.8314C50,-512.131 50,-502.9743 50,-494.4166"/>
<polygon fill="#000000" stroke="#000000" points="53.5001,-494.4132 50,-484.4133 46.5001,-494.4133 53.5001,-494.4132"/>
</g>
<!-- 3:y -->
<g id="node4" class="node">
<title>3:y</title>
<ellipse fill="none" stroke="#000000" cx="50" cy="-394" rx="27" ry="18"/>
<text text-anchor="middle" x="50" y="-390.3" font-family="Times,serif" font-size="14.00" fill="#000000">3:y</text>
</g>
<!-- 2:x&#45;&gt;3:y -->
<g id="edge3" class="edge">
<title>2:x&#45;&gt;3:y</title>
<path fill="none" stroke="#000000" d="M50,-447.8314C50,-440.131 50,-430.9743 50,-422.4166"/>
<polygon fill="#000000" stroke="#000000" points="53.5001,-422.4132 50,-412.4133 46.5001,-422.4133 53.5001,-422.4132"/>
</g>
<!-- 4:x -->
<g id="node5" class="node">
<title>4:x</title>
<ellipse fill="none" stroke="#000000" cx="50" cy="-322" rx="27" ry="18"/>
<text text-anchor="middle" x="50" y="-318.3" font-family="Times,serif" font-size="14.00" fill="#000000">4:x</text>
</g>
<!-- 3:y&#45;&gt;4:x -->
<g id="edge4" class="edge">
<title>3:y&#45;&gt;4:x</title>
<path fill="none" stroke="#000000" d="M50,-375.8314C50,-368.131 50,-358.9743 50,-350.4166"/>
<polygon fill="#000000" stroke="#000000" points="53.5001,-350.4132 50,-340.4133 46.5001,-350.4133 53.5001,-350.4132"/>
</g>
<!-- 5:y -->
<g id="node6" class="node">
<title>5:y</title>
<ellipse fill="none" stroke="#000000" cx="50" cy="-250" rx="27" ry="18"/>
<text text-anchor="middle" x="50" y="-246.3" font-family="Times,serif" font-size="14.00" fill="#000000">5:y</text>
</g>
<!-- 4:x&#45;&gt;5:y -->
<g id="edge5" class="edge">
<title>4:x&#45;&gt;5:y</title>
<path fill="none" stroke="#000000" d="M50,-303.8314C50,-296.131 50,-286.9743 50,-278.4166"/>
<polygon fill="#000000" stroke="#000000" points="53.5001,-278.4132 50,-268.4133 46.5001,-278.4133 53.5001,-278.4132"/>
</g>
<!-- 6:x -->
<g id="node7" class="node">
<title>6:x</title>
<ellipse fill="none" stroke="#000000" cx="50" cy="-178" rx="27" ry="18"/>
<text text-anchor="middle" x="50" y="-174.3" font-family="Times,serif" font-size="14.00" fill="#000000">6:x</text>
</g>
<!-- 5:y&#45;&gt;6:x -->
<g id="edge6" class="edge">
<title>5:y&#45;&gt;6:x</title>
<path fill="none" stroke="#000000" d="M50,-231.8314C50,-224.131 50,-214.9743 50,-206.4166"/>
<polygon fill="#000000" stroke="#000000" points="53.5001,-206.4132 50,-196.4133 46.5001,-206.4133 53.5001,-206.4132"/>
</g>
<!-- 7:y -->
<g id="node8" class="node">
<title>7:y</title>
<ellipse fill="none" stroke="#000000" cx="50" cy="-106" rx="27" ry="18"/>
<text text-anchor="middle" x="50" y="-102.3" font-family="Times,serif" font-size="14.00" fill="#000000">7:y</text>
</g>
<!-- 6:x&#45;&gt;7:y -->
<g id="edge7" class="edge">
<title>6:x&#45;&gt;7:y</title>
<path fill="none" stroke="#000000" d="M50,-159.8314C50,-152.131 50,-142.9743 50,-134.4166"/>
<polygon fill="#000000" stroke="#000000" points="53.5001,-134.4132 50,-124.4133 46.5001,-134.4133 53.5001,-134.4132"/>
</g>
<!-- Econo Lodge: 41.7627,&#45;71.4601 -->
<g id="node9" class="node">
<title>Econo Lodge: 41.7627,&#45;71.4601</title>
<ellipse fill="none" stroke="#000000" cx="378" cy="-106" rx="126.1777" ry="18"/>
<text text-anchor="middle" x="378" y="-102.3" font-family="Times,serif" font-size="14.00" fill="#000000">Econo Lodge: 41.7627,&#45;71.4601</text>
</g>
<!-- Procaccianti Group: 41.7706,&#45;71.4536 -->
<g id="node10" class="node">
<title>Procaccianti Group: 41.7706,&#45;71.4536</title>
<ellipse fill="none" stroke="#000000" cx="378" cy="-34" rx="146.774" ry="18"/>
<text text-anchor="middle" x="378" y="-30.3" font-family="Times,serif" font-size="14.00" fill="#000000">Procaccianti Group: 41.7706,&#45;71.4536</text>
</g>
<!-- Econo Lodge: 41.7627,&#45;71.4601&#45;&gt;Procaccianti Group: 41.7706,&#45;71.4536 -->
<g id="edge8" class="edge">
<title>Econo Lodge: 41.7627,&#45;71.4601&#45;&gt;Procaccianti Group: 41.7706,&#45;71.4536</title>
<path fill="none" stroke="#5f9ea0" d="M378,-87.8314C378,-80.131 378,-70.9743 378,-62.4166"/>
<polygon fill="#5f9ea0" stroke="#5f9ea0" points="381.5001,-62.4132 378,-52.4133 374.5001,-62.4133 381.5001,-62.4132"/>
</g>
<!-- Motel 6: 41.7533,&#45;71.4358 -->
<g id="node11" class="node">
<title>Motel 6: 41.7533,&#45;71.4358</title>
<ellipse fill="none" stroke="#000000" cx="378" cy="-178" rx="106.6812" ry="18"/>
<text text-anchor="middle" x="378" y="-174.3" font-family="Times,serif" font-size="14.00" fill="#000000">Motel 6: 41.7533,&#45;71.4358</text>
</g>
<!-- Motel 6: 41.7533,&#45;71.4358&#45;&gt;Econo Lodge: 41.7627,&#45;71.4601 -->
<g id="edge9" class="edge">
<title>Motel 6: 41.7533,&#45;71.4358&#45;&gt;Econo Lodge: 41.7627,&#45;71.4601</title>
<path fill="none" stroke="#deb887" d="M378,-159.8314C378,-152.131 378,-142.9743 378,-134.4166"/>
<polygon fill="#deb887" stroke="#deb887" points="381.5001,-134.4132 378,-124.4133 374.5001,-134.4133 381.5001,-134.4132"/>
</g>
<!-- Courtyard by Marriott Providence Warwick: 41.7542,&#45;71.4344 -->
<g id="node12" class="node">
<title>Courtyard by Marriott Providence Warwick: 41.7542,&#45;71.4344</title>
<ellipse fill="none" stroke="#000000" cx="378" cy="-250" rx="234.7584" ry="18"/>
<text text-anchor="middle" x="378" y="-246.3" font-family="Times,serif" font-size="14.00" fill="#000000">Courtyard by Marriott Providence Warwick: 41.7542,&#45;71.4344</text>
</g>
<!-- Courtyard by Marriott Providence Warwick: 41.7542,&#45;71.4344&#45;&gt;Motel 6: 41.7533,&#45;71.4358 -->
<g id="edge10" class="edge">
<title>Courtyard by Marriott Providence Warwick: 41.7542,&#45;71.4344&#45;&gt;Motel 6: 41.7533,&#45;71.4358</title>
<path fill="none" stroke="#a52a2a" d="M378,-231.8314C378,-224.131 378,-214.9743 378,-206.4166"/>
<polygon fill="#a52a2a" stroke="#a52a2a" points="381.5001,-206.4132 378,-196.4133 374.5001,-206.4133 381.5001,-206.4132"/>
</g>
<!-- La Quinta by Wyndham Warwick Providence Airport: 41.7525,&#45;71.4343 -->
<g id="node13" class="node">
<title>La Quinta by Wyndham Warwick Providence Airport: 41.7525,&#45;71.4343</title>
<ellipse fill="none" stroke="#000000" cx="378" cy="-322" rx="270.2521" ry="18"/>
<text text-anchor="middle" x="378" y="-318.3" font-family="Times,serif" font-size="14.00" fill="#000000">La Quinta by Wyndham Warwick Providence Airport: 41.7525,&#45;71.4343</text>
</g>
<!-- La Quinta by Wyndham Warwick Providence Airport: 41.7525,&#45;71.4343&#45;&gt;Courtyard by Marriott Providence Warwick: 41.7542,&#45;71.4344 -->
<g id="edge11" class="edge">
<title>La Quinta by Wyndham Warwick Providence Airport: 41.7525,&#45;71.4343&#45;&gt;Courtyard by Marriott Providence Warwick: 41.7542,&#45;71.4344</title>
<path fill="none" stroke="#8a2be2" d="M378,-303.8314C378,-296.131 378,-286.9743 378,-278.4166"/>
<polygon fill="#8a2be2" stroke="#8a2be2" points="381.5001,-278.4132 378,-268.4133 374.5001,-278.4133 381.5001,-278.4132"/>
</g>
<!-- Downcity Inn: 41.8228,&#45;71.4149 -->
<g id="node14" class="node">
<title>Downcity Inn: 41.8228,&#45;71.4149</title>
<ellipse fill="none" stroke="#000000" cx="426" cy="-394" rx="127.2775" ry="18"/>
<text text-anchor="middle" x="426" y="-390.3" font-family="Times,serif" font-size="14.00" fill="#000000">Downcity Inn: 41.8228,&#45;71.4149</text>
</g>
<!-- Downcity Inn: 41.8228,&#45;71.4149&#45;&gt;La Quinta by Wyndham Warwick Providence Airport: 41.7525,&#45;71.4343 -->
<g id="edge12" class="edge">
<title>Downcity Inn: 41.8228,&#45;71.4149&#45;&gt;La Quinta by Wyndham Warwick Providence Airport: 41.7525,&#45;71.4343</title>
<path fill="none" stroke="#0000ff" d="M413.8876,-375.8314C408.4719,-367.7079 401.9758,-357.9637 396.0079,-349.0118"/>
<polygon fill="#0000ff" stroke="#0000ff" points="398.7347,-346.7923 390.2755,-340.4133 392.9104,-350.6753 398.7347,-346.7923"/>
</g>
<!-- Hilton Providence: 41.8229,&#45;71.4185 -->
<g id="node15" class="node">
<title>Hilton Providence: 41.8229,&#45;71.4185</title>
<ellipse fill="none" stroke="#000000" cx="742" cy="-466" rx="142.9746" ry="18"/>
<text text-anchor="middle" x="742" y="-462.3" font-family="Times,serif" font-size="14.00" fill="#000000">Hilton Providence: 41.8229,&#45;71.4185</text>
</g>
<!-- Hilton Providence: 41.8229,&#45;71.4185&#45;&gt;Downcity Inn: 41.8228,&#45;71.4149 -->
<g id="edge13" class="edge">
<title>Hilton Providence: 41.8229,&#45;71.4185&#45;&gt;Downcity Inn: 41.8228,&#45;71.4149</title>
<path fill="none" stroke="#000000" d="M672.6525,-450.1993C622.5581,-438.7854 554.8849,-423.3662 503.0948,-411.5659"/>
<polygon fill="#000000" stroke="#000000" points="503.8158,-408.1406 493.2882,-409.3315 502.2607,-414.9656 503.8158,-408.1406"/>
</g>
<!-- Sportsman&#39;s: 41.8232,&#45;71.4158 -->
<g id="node16" class="node">
<title>Sportsman&#39;s: 41.8232,&#45;71.4158</title>
<ellipse fill="none" stroke="#000000" cx="742" cy="-394" rx="121.5784" ry="18"/>
<text text-anchor="middle" x="742" y="-390.3" font-family="Times,serif" font-size="14.00" fill="#000000">Sportsman&#39;s: 41.8232,&#45;71.4158</text>
</g>
<!-- Hilton Providence: 41.8229,&#45;71.4185&#45;&gt;Sportsman&#39;s: 41.8232,&#45;71.4158 -->
<g id="edge14" class="edge">
<title>Hilton Providence: 41.8229,&#45;71.4185&#45;&gt;Sportsman&#39;s: 41.8232,&#45;71.4158</title>
<path fill="none" stroke="#000000" d="M742,-447.8314C742,-440.131 742,-430.9743 742,-422.4166"/>
<polygon fill="#000000" stroke="#000000" points="745.5001,-422.4132 742,-412.4133 738.5001,-422.4133 745.5001,-422.4132"/>
</g>
<!-- Best Western Providence&#45;Seekonk Inn: 41.7939,&#45;71.3307 -->
<g id="node17" class="node">
<title>Best Western Providence&#45;Seekonk Inn: 41.7939,&#45;71.3307</title>
<ellipse fill="none" stroke="#000000" cx="887" cy="-106" rx="215.5619" ry="18"/>
<text text-anchor="middle" x="887" y="-102.3" font-family="Times,serif" font-size="14.00" fill="#000000">Best Western Providence&#45;Seekonk Inn: 41.7939,&#45;71.3307</text>
</g>
<!-- Quality Inn Seekonk&#45;Providence: 41.7959,&#45;71.3316 -->
<g id="node18" class="node">
<title>Quality Inn Seekonk&#45;Providence: 41.7959,&#45;71.3316</title>
<ellipse fill="none" stroke="#000000" cx="787" cy="-34" rx="194.1657" ry="18"/>
<text text-anchor="middle" x="787" y="-30.3" font-family="Times,serif" font-size="14.00" fill="#000000">Quality Inn Seekonk&#45;Providence: 41.7959,&#45;71.3316</text>
</g>
<!-- Best Western Providence&#45;Seekonk Inn: 41.7939,&#45;71.3307&#45;&gt;Quality Inn Seekonk&#45;Providence: 41.7959,&#45;71.3316 -->
<g id="edge15" class="edge">
<title>Best Western Providence&#45;Seekonk Inn: 41.7939,&#45;71.3307&#45;&gt;Quality Inn Seekonk&#45;Providence: 41.7959,&#45;71.3316</title>
<path fill="none" stroke="#5f9ea0" d="M862.0237,-88.0171C849.3762,-78.9109 833.8506,-67.7324 820.2108,-57.9118"/>
<polygon fill="#5f9ea0" stroke="#5f9ea0" points="822.1649,-55.0059 812.0044,-52.0032 818.0747,-60.6867 822.1649,-55.0059"/>
</g>
<!-- Town &amp; Country Motel: 41.7967,&#45;71.3304 -->
<g id="node19" class="node">
<title>Town &amp; Country Motel: 41.7967,&#45;71.3304</title>
<ellipse fill="none" stroke="#000000" cx="1163" cy="-34" rx="163.5712" ry="18"/>
<text text-anchor="middle" x="1163" y="-30.3" font-family="Times,serif" font-size="14.00" fill="#000000">Town &amp; Country Motel: 41.7967,&#45;71.3304</text>
</g>
<!-- Best Western Providence&#45;Seekonk Inn: 41.7939,&#45;71.3307&#45;&gt;Town &amp; Country Motel: 41.7967,&#45;71.3304 -->
<g id="edge16" class="edge">
<title>Best Western Providence&#45;Seekonk Inn: 41.7939,&#45;71.3307&#45;&gt;Town &amp; Country Motel: 41.7967,&#45;71.3304</title>
<path fill="none" stroke="#5f9ea0" d="M952.7582,-88.8457C993.8803,-78.1182 1046.9212,-64.2814 1089.4387,-53.1899"/>
<polygon fill="#5f9ea0" stroke="#5f9ea0" points="1090.3795,-56.5617 1099.1722,-50.6507 1088.6125,-49.7884 1090.3795,-56.5617"/>
</g>
<!-- Hampton Inn Seekonk: 41.7974,&#45;71.33 -->
<g id="node20" class="node">
<title>Hampton Inn Seekonk: 41.7974,&#45;71.33</title>
<ellipse fill="none" stroke="#000000" cx="937" cy="-178" rx="149.4735" ry="18"/>
<text text-anchor="middle" x="937" y="-174.3" font-family="Times,serif" font-size="14.00" fill="#000000">Hampton Inn Seekonk: 41.7974,&#45;71.33</text>
</g>
<!-- Hampton Inn Seekonk: 41.7974,&#45;71.33&#45;&gt;Best Western Providence&#45;Seekonk Inn: 41.7939,&#45;71.3307 -->
<g id="edge17" class="edge">
<title>Hampton Inn Seekonk: 41.7974,&#45;71.33&#45;&gt;Best Western Providence&#45;Seekonk Inn: 41.7939,&#45;71.3307</title>
<path fill="none" stroke="#deb887" d="M924.3829,-159.8314C918.6828,-151.6232 911.8337,-141.7606 905.5641,-132.7323"/>
<polygon fill="#deb887" stroke="#deb887" points="908.3658,-130.6306 899.787,-124.4133 902.6162,-134.6234 908.3658,-130.6306"/>
</g>
<!-- Motel 6: 41.8042,&#45;71.3309 -->
<g id="node21" class="node">
<title>Motel 6: 41.8042,&#45;71.3309</title>
<ellipse fill="none" stroke="#000000" cx="1227" cy="-106" rx="106.6812" ry="18"/>
<text text-anchor="middle" x="1227" y="-102.3" font-family="Times,serif" font-size="14.00" fill="#000000">Motel 6: 41.8042,&#45;71.3309</text>
</g>
<!-- Hampton Inn Seekonk: 41.7974,&#45;71.33&#45;&gt;Motel 6: 41.8042,&#45;71.3309 -->
<g id="edge18" class="edge">
<title>Hampton Inn Seekonk: 41.7974,&#45;71.33&#45;&gt;Motel 6: 41.8042,&#45;71.3309</title>
<path fill="none" stroke="#deb887" d="M1002.4433,-161.752C1048.4521,-150.3291 1109.9386,-135.0635 1156.9391,-123.3944"/>
<polygon fill="#deb887" stroke="#deb887" points="1157.8758,-126.7682 1166.7378,-120.9616 1156.1891,-119.9745 1157.8758,-126.7682"/>
</g>
<!-- Edgewood Manor Bed &amp; Breakfast Inn: 41.7781,&#45;71.4016 -->
<g id="node22" class="node">
<title>Edgewood Manor Bed &amp; Breakfast Inn: 41.7781,&#45;71.4016</title>
<ellipse fill="none" stroke="#000000" cx="937" cy="-250" rx="219.0611" ry="18"/>
<text text-anchor="middle" x="937" y="-246.3" font-family="Times,serif" font-size="14.00" fill="#000000">Edgewood Manor Bed &amp; Breakfast Inn: 41.7781,&#45;71.4016</text>
</g>
<!-- Edgewood Manor Bed &amp; Breakfast Inn: 41.7781,&#45;71.4016&#45;&gt;Hampton Inn Seekonk: 41.7974,&#45;71.33 -->
<g id="edge19" class="edge">
<title>Edgewood Manor Bed &amp; Breakfast Inn: 41.7781,&#45;71.4016&#45;&gt;Hampton Inn Seekonk: 41.7974,&#45;71.33</title>
<path fill="none" stroke="#a52a2a" d="M937,-231.8314C937,-224.131 937,-214.9743 937,-206.4166"/>
<polygon fill="#a52a2a" stroke="#a52a2a" points="940.5001,-206.4132 937,-196.4133 933.5001,-206.4133 940.5001,-206.4132"/>
</g>
<!-- Extended Stay America &#45; Providence &#45; East Providence: 41.808,&#45;71.3438 -->
<g id="node23" class="node">
<title>Extended Stay America &#45; Providence &#45; East Providence: 41.808,&#45;71.3438</title>
<ellipse fill="none" stroke="#000000" cx="937" cy="-322" rx="270.2521" ry="18"/>
<text text-anchor="middle" x="937" y="-318.3" font-family="Times,serif" font-size="14.00" fill="#000000">Extended Stay America &#45; Providence &#45; East Providence: 41.808,&#45;71.3438</text>
</g>
<!-- Extended Stay America &#45; Providence &#45; East Providence: 41.808,&#45;71.3438&#45;&gt;Edgewood Manor Bed &amp; Breakfast Inn: 41.7781,&#45;71.4016 -->
<g id="edge20" class="edge">
<title>Extended Stay America &#45; Providence &#45; East Providence: 41.808,&#45;71.3438&#45;&gt;Edgewood Manor Bed &amp; Breakfast Inn: 41.7781,&#45;71.4016</title>
<path fill="none" stroke="#8a2be2" d="M937,-303.8314C937,-296.131 937,-286.9743 937,-278.4166"/>
<polygon fill="#8a2be2" stroke="#8a2be2" points="940.5001,-278.4132 937,-268.4133 933.5001,-278.4133 940.5001,-278.4132"/>
</g>
<!-- Shangri&#45;La Motel: 41.7859,&#45;71.3157 -->
<g id="node24" class="node">
<title>Shangri&#45;La Motel: 41.7859,&#45;71.3157</title>
<ellipse fill="none" stroke="#000000" cx="1379" cy="-250" rx="141.8751" ry="18"/>
<text text-anchor="middle" x="1379" y="-246.3" font-family="Times,serif" font-size="14.00" fill="#000000">Shangri&#45;La Motel: 41.7859,&#45;71.3157</text>
</g>
<!-- Mary&#39;s Motor Lodge: 41.7931,&#45;71.3274 -->
<g id="node25" class="node">
<title>Mary&#39;s Motor Lodge: 41.7931,&#45;71.3274</title>
<ellipse fill="none" stroke="#000000" cx="1379" cy="-178" rx="152.9733" ry="18"/>
<text text-anchor="middle" x="1379" y="-174.3" font-family="Times,serif" font-size="14.00" fill="#000000">Mary&#39;s Motor Lodge: 41.7931,&#45;71.3274</text>
</g>
<!-- Shangri&#45;La Motel: 41.7859,&#45;71.3157&#45;&gt;Mary&#39;s Motor Lodge: 41.7931,&#45;71.3274 -->
<g id="edge21" class="edge">
<title>Shangri&#45;La Motel: 41.7859,&#45;71.3157&#45;&gt;Mary&#39;s Motor Lodge: 41.7931,&#45;71.3274</title>
<path fill="none" stroke="#a52a2a" d="M1379,-231.8314C1379,-224.131 1379,-214.9743 1379,-206.4166"/>
<polygon fill="#a52a2a" stroke="#a52a2a" points="1382.5001,-206.4132 1379,-196.4133 1375.5001,-206.4133 1382.5001,-206.4132"/>
</g>
<!-- Knights Inn Seekonk: 41.7933,&#45;71.3294 -->
<g id="node26" class="node">
<title>Knights Inn Seekonk: 41.7933,&#45;71.3294</title>
<ellipse fill="none" stroke="#000000" cx="1379" cy="-322" rx="153.2729" ry="18"/>
<text text-anchor="middle" x="1379" y="-318.3" font-family="Times,serif" font-size="14.00" fill="#000000">Knights Inn Seekonk: 41.7933,&#45;71.3294</text>
</g>
<!-- Knights Inn Seekonk: 41.7933,&#45;71.3294&#45;&gt;Shangri&#45;La Motel: 41.7859,&#45;71.3157 -->
<g id="edge22" class="edge">
<title>Knights Inn Seekonk: 41.7933,&#45;71.3294&#45;&gt;Shangri&#45;La Motel: 41.7859,&#45;71.3157</title>
<path fill="none" stroke="#8a2be2" d="M1379,-303.8314C1379,-296.131 1379,-286.9743 1379,-278.4166"/>
<polygon fill="#8a2be2" stroke="#8a2be2" points="1382.5001,-278.4132 1379,-268.4133 1375.5001,-278.4133 1382.5001,-278.4132"/>
</g>
<!-- Clarion Inn Seekonk &#45; Providence: 41.7999,&#45;71.3295 -->
<g id="node27" class="node">
<title>Clarion Inn Seekonk &#45; Providence: 41.7999,&#45;71.3295</title>
<ellipse fill="none" stroke="#000000" cx="1282" cy="-394" rx="198.7648" ry="18"/>
<text text-anchor="middle" x="1282" y="-390.3" font-family="Times,serif" font-size="14.00" fill="#000000">Clarion Inn Seekonk &#45; Providence: 41.7999,&#45;71.3295</text>
</g>
<!-- Clarion Inn Seekonk &#45; Providence: 41.7999,&#45;71.3295&#45;&gt;Extended Stay America &#45; Providence &#45; East Providence: 41.808,&#45;71.3438 -->
<g id="edge23" class="edge">
<title>Clarion Inn Seekonk &#45; Providence: 41.7999,&#45;71.3295&#45;&gt;Extended Stay America &#45; Providence &#45; East Providence: 41.808,&#45;71.3438</title>
<path fill="none" stroke="#0000ff" d="M1202.85,-377.4817C1151.1606,-366.6944 1083.4684,-352.5673 1029.3273,-341.2683"/>
<polygon fill="#0000ff" stroke="#0000ff" points="1029.8868,-337.8097 1019.3826,-339.1929 1028.4566,-344.6621 1029.8868,-337.8097"/>
</g>
<!-- Clarion Inn Seekonk &#45; Providence: 41.7999,&#45;71.3295&#45;&gt;Knights Inn Seekonk: 41.7933,&#45;71.3294 -->
<g id="edge24" class="edge">
<title>Clarion Inn Seekonk &#45; Providence: 41.7999,&#45;71.3295&#45;&gt;Knights Inn Seekonk: 41.7933,&#45;71.3294</title>
<path fill="none" stroke="#0000ff" d="M1306.4772,-375.8314C1318.6315,-366.8096 1333.4788,-355.789 1346.5663,-346.0745"/>
<polygon fill="#0000ff" stroke="#0000ff" points="1348.923,-348.684 1354.8667,-339.9134 1344.7509,-343.0632 1348.923,-348.684"/>
</g>
<!-- Hilton Garden Inn Providence: 41.8186,&#45;71.3911 -->
<g id="node28" class="node">
<title>Hilton Garden Inn Providence: 41.8186,&#45;71.3911</title>
<ellipse fill="none" stroke="#000000" cx="1282" cy="-466" rx="185.4674" ry="18"/>
<text text-anchor="middle" x="1282" y="-462.3" font-family="Times,serif" font-size="14.00" fill="#000000">Hilton Garden Inn Providence: 41.8186,&#45;71.3911</text>
</g>
<!-- Hilton Garden Inn Providence: 41.8186,&#45;71.3911&#45;&gt;Clarion Inn Seekonk &#45; Providence: 41.7999,&#45;71.3295 -->
<g id="edge25" class="edge">
<title>Hilton Garden Inn Providence: 41.8186,&#45;71.3911&#45;&gt;Clarion Inn Seekonk &#45; Providence: 41.7999,&#45;71.3295</title>
<path fill="none" stroke="#000000" d="M1282,-447.8314C1282,-440.131 1282,-430.9743 1282,-422.4166"/>
<polygon fill="#000000" stroke="#000000" points="1285.5001,-422.4132 1282,-412.4133 1278.5001,-422.4133 1285.5001,-422.4132"/>
</g>
<!-- Hotel Providence: 41.8223,&#45;71.4139 -->
<g id="node29" class="node">
<title>Hotel Providence: 41.8223,&#45;71.4139</title>
<ellipse fill="none" stroke="#000000" cx="1282" cy="-538" rx="139.9756" ry="18"/>
<text text-anchor="middle" x="1282" y="-534.3" font-family="Times,serif" font-size="14.00" fill="#000000">Hotel Providence: 41.8223,&#45;71.4139</text>
</g>
<!-- Hotel Providence: 41.8223,&#45;71.4139&#45;&gt;Hilton Providence: 41.8229,&#45;71.4185 -->
<g id="edge26" class="edge">
<title>Hotel Providence: 41.8223,&#45;71.4139&#45;&gt;Hilton Providence: 41.8229,&#45;71.4185</title>
<path fill="none" stroke="#ffe4c4" d="M1184.8352,-525.0447C1090.6947,-512.4926 948.1932,-493.4924 850.4157,-480.4554"/>
<polygon fill="#ffe4c4" stroke="#ffe4c4" points="850.5819,-476.9467 840.207,-479.0943 849.6567,-483.8853 850.5819,-476.9467"/>
</g>
<!-- Hotel Providence: 41.8223,&#45;71.4139&#45;&gt;Hilton Garden Inn Providence: 41.8186,&#45;71.3911 -->
<g id="edge27" class="edge">
<title>Hotel Providence: 41.8223,&#45;71.4139&#45;&gt;Hilton Garden Inn Providence: 41.8186,&#45;71.3911</title>
<path fill="none" stroke="#ffe4c4" d="M1282,-519.8314C1282,-512.131 1282,-502.9743 1282,-494.4166"/>
<polygon fill="#ffe4c4" stroke="#ffe4c4" points="1285.5001,-494.4132 1282,-484.4133 1278.5001,-494.4133 1285.5001,-494.4132"/>
</g>
<!-- Hotel Dolce Villa: 41.8241,&#45;71.427 -->
<g id="node30" class="node">
<title>Hotel Dolce Villa: 41.8241,&#45;71.427</title>
<ellipse fill="none" stroke="#000000" cx="1830" cy="-394" rx="137.2758" ry="18"/>
<text text-anchor="middle" x="1830" y="-390.3" font-family="Times,serif" font-size="14.00" fill="#000000">Hotel Dolce Villa: 41.8241,&#45;71.427</text>
</g>
<!-- Residence Inn by Marriott Providence Downtown: 41.8237,&#45;71.4165 -->
<g id="node31" class="node">
<title>Residence Inn by Marriott Providence Downtown: 41.8237,&#45;71.4165</title>
<ellipse fill="none" stroke="#000000" cx="1806" cy="-322" rx="255.3547" ry="18"/>
<text text-anchor="middle" x="1806" y="-318.3" font-family="Times,serif" font-size="14.00" fill="#000000">Residence Inn by Marriott Providence Downtown: 41.8237,&#45;71.4165</text>
</g>
<!-- Hotel Dolce Villa: 41.8241,&#45;71.427&#45;&gt;Residence Inn by Marriott Providence Downtown: 41.8237,&#45;71.4165 -->
<g id="edge28" class="edge">
<title>Hotel Dolce Villa: 41.8241,&#45;71.427&#45;&gt;Residence Inn by Marriott Providence Downtown: 41.8237,&#45;71.4165</title>
<path fill="none" stroke="#0000ff" d="M1823.9438,-375.8314C1821.3488,-368.0463 1818.2576,-358.7729 1815.3782,-350.1347"/>
<polygon fill="#0000ff" stroke="#0000ff" points="1818.6205,-348.7933 1812.1378,-340.4133 1811.9797,-351.0069 1818.6205,-348.7933"/>
</g>
<!-- Omni Providence Hotel: 41.8252,&#45;71.4158 -->
<g id="node32" class="node">
<title>Omni Providence Hotel: 41.8252,&#45;71.4158</title>
<ellipse fill="none" stroke="#000000" cx="1906" cy="-250" rx="163.2712" ry="18"/>
<text text-anchor="middle" x="1906" y="-246.3" font-family="Times,serif" font-size="14.00" fill="#000000">Omni Providence Hotel: 41.8252,&#45;71.4158</text>
</g>
<!-- Capital Club Fitness Center: 41.8254,&#45;71.4162 -->
<g id="node33" class="node">
<title>Capital Club Fitness Center: 41.8254,&#45;71.4162</title>
<ellipse fill="none" stroke="#000000" cx="1906" cy="-178" rx="176.5689" ry="18"/>
<text text-anchor="middle" x="1906" y="-174.3" font-family="Times,serif" font-size="14.00" fill="#000000">Capital Club Fitness Center: 41.8254,&#45;71.4162</text>
</g>
<!-- Omni Providence Hotel: 41.8252,&#45;71.4158&#45;&gt;Capital Club Fitness Center: 41.8254,&#45;71.4162 -->
<g id="edge29" class="edge">
<title>Omni Providence Hotel: 41.8252,&#45;71.4158&#45;&gt;Capital Club Fitness Center: 41.8254,&#45;71.4162</title>
<path fill="none" stroke="#a52a2a" d="M1906,-231.8314C1906,-224.131 1906,-214.9743 1906,-206.4166"/>
<polygon fill="#a52a2a" stroke="#a52a2a" points="1909.5001,-206.4132 1906,-196.4133 1902.5001,-206.4133 1909.5001,-206.4132"/>
</g>
<!-- Alpine Motel: 41.8939,&#45;71.497 -->
<g id="node34" class="node">
<title>Alpine Motel: 41.8939,&#45;71.497</title>
<ellipse fill="none" stroke="#000000" cx="2225" cy="-178" rx="122.3786" ry="18"/>
<text text-anchor="middle" x="2225" y="-174.3" font-family="Times,serif" font-size="14.00" fill="#000000">Alpine Motel: 41.8939,&#45;71.497</text>
</g>
<!-- Twin River Casino Hotel: 41.8882,&#45;71.4486 -->
<g id="node35" class="node">
<title>Twin River Casino Hotel: 41.8882,&#45;71.4486</title>
<ellipse fill="none" stroke="#000000" cx="2225" cy="-106" rx="167.8704" ry="18"/>
<text text-anchor="middle" x="2225" y="-102.3" font-family="Times,serif" font-size="14.00" fill="#000000">Twin River Casino Hotel: 41.8882,&#45;71.4486</text>
</g>
<!-- Alpine Motel: 41.8939,&#45;71.497&#45;&gt;Twin River Casino Hotel: 41.8882,&#45;71.4486 -->
<g id="edge30" class="edge">
<title>Alpine Motel: 41.8939,&#45;71.497&#45;&gt;Twin River Casino Hotel: 41.8882,&#45;71.4486</title>
<path fill="none" stroke="#deb887" d="M2225,-159.8314C2225,-152.131 2225,-142.9743 2225,-134.4166"/>
<polygon fill="#deb887" stroke="#deb887" points="2228.5001,-134.4132 2225,-124.4133 2221.5001,-134.4133 2228.5001,-134.4132"/>
</g>
<!-- Twin River Hotel: 41.8885,&#45;71.4485 -->
<g id="node36" class="node">
<title>Twin River Hotel: 41.8885,&#45;71.4485</title>
<ellipse fill="none" stroke="#000000" cx="2228" cy="-250" rx="141.075" ry="18"/>
<text text-anchor="middle" x="2228" y="-246.3" font-family="Times,serif" font-size="14.00" fill="#000000">Twin River Hotel: 41.8885,&#45;71.4485</text>
</g>
<!-- Twin River Hotel: 41.8885,&#45;71.4485&#45;&gt;Alpine Motel: 41.8939,&#45;71.497 -->
<g id="edge31" class="edge">
<title>Twin River Hotel: 41.8885,&#45;71.4485&#45;&gt;Alpine Motel: 41.8939,&#45;71.497</title>
<path fill="none" stroke="#a52a2a" d="M2227.243,-231.8314C2226.9221,-224.131 2226.5406,-214.9743 2226.184,-206.4166"/>
<polygon fill="#a52a2a" stroke="#a52a2a" points="2229.6806,-206.2589 2225.7672,-196.4133 2222.6867,-206.5503 2229.6806,-206.2589"/>
</g>
<!-- Providence Hostel &amp; Guesthouse: 41.8352,&#45;71.4245 -->
<g id="node37" class="node">
<title>Providence Hostel &amp; Guesthouse: 41.8352,&#45;71.4245</title>
<ellipse fill="none" stroke="#000000" cx="2561" cy="-178" rx="196.0654" ry="18"/>
<text text-anchor="middle" x="2561" y="-174.3" font-family="Times,serif" font-size="14.00" fill="#000000">Providence Hostel &amp; Guesthouse: 41.8352,&#45;71.4245</text>
</g>
<!-- Twin River Hotel: 41.8885,&#45;71.4485&#45;&gt;Providence Hostel &amp; Guesthouse: 41.8352,&#45;71.4245 -->
<g id="edge32" class="edge">
<title>Twin River Hotel: 41.8885,&#45;71.4485&#45;&gt;Providence Hostel &amp; Guesthouse: 41.8352,&#45;71.4245</title>
<path fill="none" stroke="#a52a2a" d="M2299.8461,-234.4657C2351.0544,-223.3936 2420.15,-208.4541 2474.4064,-196.7229"/>
<polygon fill="#a52a2a" stroke="#a52a2a" points="2475.3225,-200.1058 2484.3569,-194.5715 2473.8431,-193.2639 2475.3225,-200.1058"/>
</g>
<!-- Christopher Dodge House: 41.8311,&#45;71.4184 -->
<g id="node38" class="node">
<title>Christopher Dodge House: 41.8311,&#45;71.4184</title>
<ellipse fill="none" stroke="#000000" cx="2250" cy="-322" rx="170.8697" ry="18"/>
<text text-anchor="middle" x="2250" y="-318.3" font-family="Times,serif" font-size="14.00" fill="#000000">Christopher Dodge House: 41.8311,&#45;71.4184</text>
</g>
<!-- Christopher Dodge House: 41.8311,&#45;71.4184&#45;&gt;Omni Providence Hotel: 41.8252,&#45;71.4158 -->
<g id="edge33" class="edge">
<title>Christopher Dodge House: 41.8311,&#45;71.4184&#45;&gt;Omni Providence Hotel: 41.8252,&#45;71.4158</title>
<path fill="none" stroke="#8a2be2" d="M2172.7997,-305.8418C2119.1677,-294.6165 2047.6523,-279.6482 1992.1639,-268.0343"/>
<polygon fill="#8a2be2" stroke="#8a2be2" points="1992.8547,-264.6031 1982.3498,-265.9802 1991.4206,-271.4547 1992.8547,-264.6031"/>
</g>
<!-- Christopher Dodge House: 41.8311,&#45;71.4184&#45;&gt;Twin River Hotel: 41.8885,&#45;71.4485 -->
<g id="edge34" class="edge">
<title>Christopher Dodge House: 41.8311,&#45;71.4184&#45;&gt;Twin River Hotel: 41.8885,&#45;71.4485</title>
<path fill="none" stroke="#8a2be2" d="M2244.4485,-303.8314C2242.0697,-296.0463 2239.2362,-286.7729 2236.5967,-278.1347"/>
<polygon fill="#8a2be2" stroke="#8a2be2" points="2239.8958,-276.954 2233.6263,-268.4133 2233.2013,-278.9996 2239.8958,-276.954"/>
</g>
<!-- Providence Marriott Downtown: 41.8359,&#45;71.4137 -->
<g id="node39" class="node">
<title>Providence Marriott Downtown: 41.8359,&#45;71.4137</title>
<ellipse fill="none" stroke="#000000" cx="2631" cy="-322" rx="191.9663" ry="18"/>
<text text-anchor="middle" x="2631" y="-318.3" font-family="Times,serif" font-size="14.00" fill="#000000">Providence Marriott Downtown: 41.8359,&#45;71.4137</text>
</g>
<!-- Homewood Suites By Hilton Providence Downtown: 41.8266,&#45;71.4115 -->
<g id="node40" class="node">
<title>Homewood Suites By Hilton Providence Downtown: 41.8266,&#45;71.4115</title>
<ellipse fill="none" stroke="#000000" cx="2652" cy="-250" rx="264.5531" ry="18"/>
<text text-anchor="middle" x="2652" y="-246.3" font-family="Times,serif" font-size="14.00" fill="#000000">Homewood Suites By Hilton Providence Downtown: 41.8266,&#45;71.4115</text>
</g>
<!-- Providence Marriott Downtown: 41.8359,&#45;71.4137&#45;&gt;Homewood Suites By Hilton Providence Downtown: 41.8266,&#45;71.4115 -->
<g id="edge35" class="edge">
<title>Providence Marriott Downtown: 41.8359,&#45;71.4137&#45;&gt;Homewood Suites By Hilton Providence Downtown: 41.8266,&#45;71.4115</title>
<path fill="none" stroke="#8a2be2" d="M2636.2992,-303.8314C2638.5698,-296.0463 2641.2746,-286.7729 2643.794,-278.1347"/>
<polygon fill="#8a2be2" stroke="#8a2be2" points="2647.1894,-278.9933 2646.6295,-268.4133 2640.4694,-277.0332 2647.1894,-278.9933"/>
</g>
<!-- Woodspring Suites: 41.8436,&#45;71.4119 -->
<g id="node41" class="node">
<title>Woodspring Suites: 41.8436,&#45;71.4119</title>
<ellipse fill="none" stroke="#000000" cx="3081" cy="-250" rx="146.4744" ry="18"/>
<text text-anchor="middle" x="3081" y="-246.3" font-family="Times,serif" font-size="14.00" fill="#000000">Woodspring Suites: 41.8436,&#45;71.4119</text>
</g>
<!-- Providence Marriott Downtown: 41.8359,&#45;71.4137&#45;&gt;Woodspring Suites: 41.8436,&#45;71.4119 -->
<g id="edge36" class="edge">
<title>Providence Marriott Downtown: 41.8359,&#45;71.4137&#45;&gt;Woodspring Suites: 41.8436,&#45;71.4119</title>
<path fill="none" stroke="#8a2be2" d="M2728.0893,-306.4657C2803.0128,-294.478 2906.2719,-277.9565 2981.7364,-265.8822"/>
<polygon fill="#8a2be2" stroke="#8a2be2" points="2982.4064,-269.3196 2991.7279,-264.2835 2981.3005,-262.4075 2982.4064,-269.3196"/>
</g>
<!-- Courtyard by Marriott Providence Downtown: 41.8258,&#45;71.4145 -->
<g id="node42" class="node">
<title>Courtyard by Marriott Providence Downtown: 41.8258,&#45;71.4145</title>
<ellipse fill="none" stroke="#000000" cx="2250" cy="-394" rx="241.2573" ry="18"/>
<text text-anchor="middle" x="2250" y="-390.3" font-family="Times,serif" font-size="14.00" fill="#000000">Courtyard by Marriott Providence Downtown: 41.8258,&#45;71.4145</text>
</g>
<!-- Courtyard by Marriott Providence Downtown: 41.8258,&#45;71.4145&#45;&gt;Christopher Dodge House: 41.8311,&#45;71.4184 -->
<g id="edge37" class="edge">
<title>Courtyard by Marriott Providence Downtown: 41.8258,&#45;71.4145&#45;&gt;Christopher Dodge House: 41.8311,&#45;71.4184</title>
<path fill="none" stroke="#0000ff" d="M2250,-375.8314C2250,-368.131 2250,-358.9743 2250,-350.4166"/>
<polygon fill="#0000ff" stroke="#0000ff" points="2253.5001,-350.4132 2250,-340.4133 2246.5001,-350.4133 2253.5001,-350.4132"/>
</g>
<!-- Courtyard by Marriott Providence Downtown: 41.8258,&#45;71.4145&#45;&gt;Providence Marriott Downtown: 41.8359,&#45;71.4137 -->
<g id="edge38" class="edge">
<title>Courtyard by Marriott Providence Downtown: 41.8258,&#45;71.4145&#45;&gt;Providence Marriott Downtown: 41.8359,&#45;71.4137</title>
<path fill="none" stroke="#0000ff" d="M2338.8467,-377.2101C2397.8975,-366.0509 2475.3776,-351.409 2535.7086,-340.0078"/>
<polygon fill="#0000ff" stroke="#0000ff" points="2536.4428,-343.4311 2545.619,-338.135 2535.1429,-336.5528 2536.4428,-343.4311"/>
</g>
<!-- Graduate Providence: 41.8243,&#45;71.4134 -->
<g id="node43" class="node">
<title>Graduate Providence: 41.8243,&#45;71.4134</title>
<ellipse fill="none" stroke="#000000" cx="2040" cy="-466" rx="152.9733" ry="18"/>
<text text-anchor="middle" x="2040" y="-462.3" font-family="Times,serif" font-size="14.00" fill="#000000">Graduate Providence: 41.8243,&#45;71.4134</text>
</g>
<!-- Graduate Providence: 41.8243,&#45;71.4134&#45;&gt;Hotel Dolce Villa: 41.8241,&#45;71.427 -->
<g id="edge39" class="edge">
<title>Graduate Providence: 41.8243,&#45;71.4134&#45;&gt;Hotel Dolce Villa: 41.8241,&#45;71.427</title>
<path fill="none" stroke="#000000" d="M1990.2329,-448.937C1959.7857,-438.4979 1920.6764,-425.089 1888.7182,-414.1319"/>
<polygon fill="#000000" stroke="#000000" points="1889.6418,-410.7487 1879.0472,-410.8162 1887.3715,-417.3703 1889.6418,-410.7487"/>
</g>
<!-- Graduate Providence: 41.8243,&#45;71.4134&#45;&gt;Courtyard by Marriott Providence Downtown: 41.8258,&#45;71.4145 -->
<g id="edge40" class="edge">
<title>Graduate Providence: 41.8243,&#45;71.4134&#45;&gt;Courtyard by Marriott Providence Downtown: 41.8258,&#45;71.4145</title>
<path fill="none" stroke="#000000" d="M2089.7671,-448.937C2119.4449,-438.7617 2157.3525,-425.7649 2188.8456,-414.9672"/>
<polygon fill="#000000" stroke="#000000" points="2190.0728,-418.2465 2198.3971,-411.6924 2187.8025,-411.6249 2190.0728,-418.2465"/>
</g>
<!-- Ramada Seekonk Providence Area: 41.8242,&#45;71.3365 -->
<g id="node44" class="node">
<title>Ramada Seekonk Providence Area: 41.8242,&#45;71.3365</title>
<ellipse fill="none" stroke="#000000" cx="3094" cy="-394" rx="202.2642" ry="18"/>
<text text-anchor="middle" x="3094" y="-390.3" font-family="Times,serif" font-size="14.00" fill="#000000">Ramada Seekonk Providence Area: 41.8242,&#45;71.3365</text>
</g>
<!-- Ramada by Wyndham Seekonk Providence Area: 41.8233,&#45;71.3369 -->
<g id="node45" class="node">
<title>Ramada by Wyndham Seekonk Providence Area: 41.8233,&#45;71.3369</title>
<ellipse fill="none" stroke="#000000" cx="3094" cy="-322" rx="252.6553" ry="18"/>
<text text-anchor="middle" x="3094" y="-318.3" font-family="Times,serif" font-size="14.00" fill="#000000">Ramada by Wyndham Seekonk Providence Area: 41.8233,&#45;71.3369</text>
</g>
<!-- Ramada Seekonk Providence Area: 41.8242,&#45;71.3365&#45;&gt;Ramada by Wyndham Seekonk Providence Area: 41.8233,&#45;71.3369 -->
<g id="edge41" class="edge">
<title>Ramada Seekonk Providence Area: 41.8242,&#45;71.3365&#45;&gt;Ramada by Wyndham Seekonk Providence Area: 41.8233,&#45;71.3369</title>
<path fill="none" stroke="#0000ff" d="M3094,-375.8314C3094,-368.131 3094,-358.9743 3094,-350.4166"/>
<polygon fill="#0000ff" stroke="#0000ff" points="3097.5001,-350.4132 3094,-340.4133 3090.5001,-350.4133 3097.5001,-350.4132"/>
</g>
<!-- Americas Best Value Inn: 41.8488,&#45;71.3543 -->
<g id="node46" class="node">
<title>Americas Best Value Inn: 41.8488,&#45;71.3543</title>
<ellipse fill="none" stroke="#000000" cx="3533" cy="-322" rx="168.1703" ry="18"/>
<text text-anchor="middle" x="3533" y="-318.3" font-family="Times,serif" font-size="14.00" fill="#000000">Americas Best Value Inn: 41.8488,&#45;71.3543</text>
</g>
<!-- Attleboro Motor Inn: 41.8957,&#45;71.3704 -->
<g id="node47" class="node">
<title>Attleboro Motor Inn: 41.8957,&#45;71.3704</title>
<ellipse fill="none" stroke="#000000" cx="3533" cy="-250" rx="151.3732" ry="18"/>
<text text-anchor="middle" x="3533" y="-246.3" font-family="Times,serif" font-size="14.00" fill="#000000">Attleboro Motor Inn: 41.8957,&#45;71.3704</text>
</g>
<!-- Americas Best Value Inn: 41.8488,&#45;71.3543&#45;&gt;Attleboro Motor Inn: 41.8957,&#45;71.3704 -->
<g id="edge42" class="edge">
<title>Americas Best Value Inn: 41.8488,&#45;71.3543&#45;&gt;Attleboro Motor Inn: 41.8957,&#45;71.3704</title>
<path fill="none" stroke="#8a2be2" d="M3533,-303.8314C3533,-296.131 3533,-286.9743 3533,-278.4166"/>
<polygon fill="#8a2be2" stroke="#8a2be2" points="3536.5001,-278.4132 3533,-268.4133 3529.5001,-278.4133 3536.5001,-278.4132"/>
</g>
<!-- Hampton Inn Pawtucket: 41.874,&#45;71.3864 -->
<g id="node48" class="node">
<title>Hampton Inn Pawtucket: 41.874,&#45;71.3864</title>
<ellipse fill="none" stroke="#000000" cx="3504" cy="-394" rx="160.5715" ry="18"/>
<text text-anchor="middle" x="3504" y="-390.3" font-family="Times,serif" font-size="14.00" fill="#000000">Hampton Inn Pawtucket: 41.874,&#45;71.3864</text>
</g>
<!-- Hampton Inn Pawtucket: 41.874,&#45;71.3864&#45;&gt;Americas Best Value Inn: 41.8488,&#45;71.3543 -->
<g id="edge43" class="edge">
<title>Hampton Inn Pawtucket: 41.874,&#45;71.3864&#45;&gt;Americas Best Value Inn: 41.8488,&#45;71.3543</title>
<path fill="none" stroke="#0000ff" d="M3511.3179,-375.8314C3514.4876,-367.9617 3518.27,-358.5712 3521.7813,-349.8533"/>
<polygon fill="#0000ff" stroke="#0000ff" points="3525.0939,-350.9968 3525.5835,-340.4133 3518.6008,-348.3815 3525.0939,-350.9968"/>
</g>
<!-- The Old Court Bed &amp; Breakfast: 41.8294,&#45;71.4087 -->
<g id="node49" class="node">
<title>The Old Court Bed &amp; Breakfast: 41.8294,&#45;71.4087</title>
<ellipse fill="none" stroke="#000000" cx="3094" cy="-466" rx="192.2659" ry="18"/>
<text text-anchor="middle" x="3094" y="-462.3" font-family="Times,serif" font-size="14.00" fill="#000000">The Old Court Bed &amp; Breakfast: 41.8294,&#45;71.4087</text>
</g>
<!-- The Old Court Bed &amp; Breakfast: 41.8294,&#45;71.4087&#45;&gt;Ramada Seekonk Providence Area: 41.8242,&#45;71.3365 -->
<g id="edge44" class="edge">
<title>The Old Court Bed &amp; Breakfast: 41.8294,&#45;71.4087&#45;&gt;Ramada Seekonk Providence Area: 41.8242,&#45;71.3365</title>
<path fill="none" stroke="#000000" d="M3094,-447.8314C3094,-440.131 3094,-430.9743 3094,-422.4166"/>
<polygon fill="#000000" stroke="#000000" points="3097.5001,-422.4132 3094,-412.4133 3090.5001,-422.4133 3097.5001,-422.4132"/>
</g>
<!-- The Old Court Bed &amp; Breakfast: 41.8294,&#45;71.4087&#45;&gt;Hampton Inn Pawtucket: 41.874,&#45;71.3864 -->
<g id="edge45" class="edge">
<title>The Old Court Bed &amp; Breakfast: 41.8294,&#45;71.4087&#45;&gt;Hampton Inn Pawtucket: 41.874,&#45;71.3864</title>
<path fill="none" stroke="#000000" d="M3184.4838,-450.1102C3250.5422,-438.5097 3339.9586,-422.8073 3407.4011,-410.9637"/>
<polygon fill="#000000" stroke="#000000" points="3408.3638,-414.3483 3417.6077,-409.1713 3407.153,-407.4538 3408.3638,-414.3483"/>
</g>
<!-- Hampton Inn &amp; Suites Providence Downtown: 41.8239,&#45;71.4097 -->
<g id="node50" class="node">
<title>Hampton Inn &amp; Suites Providence Downtown: 41.8239,&#45;71.4097</title>
<ellipse fill="none" stroke="#000000" cx="2040" cy="-538" rx="243.1569" ry="18"/>
<text text-anchor="middle" x="2040" y="-534.3" font-family="Times,serif" font-size="14.00" fill="#000000">Hampton Inn &amp; Suites Providence Downtown: 41.8239,&#45;71.4097</text>
</g>
<!-- Hampton Inn &amp; Suites Providence Downtown: 41.8239,&#45;71.4097&#45;&gt;Graduate Providence: 41.8243,&#45;71.4134 -->
<g id="edge46" class="edge">
<title>Hampton Inn &amp; Suites Providence Downtown: 41.8239,&#45;71.4097&#45;&gt;Graduate Providence: 41.8243,&#45;71.4134</title>
<path fill="none" stroke="#ffe4c4" d="M2040,-519.8314C2040,-512.131 2040,-502.9743 2040,-494.4166"/>
<polygon fill="#ffe4c4" stroke="#ffe4c4" points="2043.5001,-494.4132 2040,-484.4133 2036.5001,-494.4133 2043.5001,-494.4132"/>
</g>
<!-- Hampton Inn &amp; Suites Providence Downtown: 41.8239,&#45;71.4097&#45;&gt;The Old Court Bed &amp; Breakfast: 41.8294,&#45;71.4087 -->
<g id="edge47" class="edge">
<title>Hampton Inn &amp; Suites Providence Downtown: 41.8239,&#45;71.4097&#45;&gt;The Old Court Bed &amp; Breakfast: 41.8294,&#45;71.4087</title>
<path fill="none" stroke="#ffe4c4" d="M2218.7967,-525.7862C2417.2854,-512.2272 2735.0566,-490.5199 2928.1634,-477.3285"/>
<polygon fill="#ffe4c4" stroke="#ffe4c4" points="2928.6696,-480.8022 2938.4078,-476.6287 2928.1925,-473.8184 2928.6696,-480.8022"/>
</g>
<!-- The Dean Hotel: 41.8232,&#45;71.4158 -->
<g id="node51" class="node">
<title>The Dean Hotel: 41.8232,&#45;71.4158</title>
<ellipse fill="none" stroke="#000000" cx="1661" cy="-610" rx="135.3763" ry="18"/>
<text text-anchor="middle" x="1661" y="-606.3" font-family="Times,serif" font-size="14.00" fill="#000000">The Dean Hotel: 41.8232,&#45;71.4158</text>
</g>
<!-- The Dean Hotel: 41.8232,&#45;71.4158&#45;&gt;Hotel Providence: 41.8223,&#45;71.4139 -->
<g id="edge48" class="edge">
<title>The Dean Hotel: 41.8232,&#45;71.4158&#45;&gt;Hotel Providence: 41.8223,&#45;71.4139</title>
<path fill="none" stroke="#7fffd4" d="M1583.3891,-595.256C1521.616,-583.5207 1435.1291,-567.0905 1370.6377,-554.8388"/>
<polygon fill="#7fffd4" stroke="#7fffd4" points="1370.9608,-551.3377 1360.4832,-552.9097 1369.6543,-558.2147 1370.9608,-551.3377"/>
</g>
<!-- The Dean Hotel: 41.8232,&#45;71.4158&#45;&gt;Hampton Inn &amp; Suites Providence Downtown: 41.8239,&#45;71.4097 -->
<g id="edge49" class="edge">
<title>The Dean Hotel: 41.8232,&#45;71.4158&#45;&gt;Hampton Inn &amp; Suites Providence Downtown: 41.8239,&#45;71.4097</title>
<path fill="none" stroke="#7fffd4" d="M1738.6109,-595.256C1797.3005,-584.1065 1878.2981,-568.7191 1941.5461,-556.7036"/>
<polygon fill="#7fffd4" stroke="#7fffd4" points="1942.3674,-560.1103 1951.5384,-554.8054 1941.0609,-553.2333 1942.3674,-560.1103"/>
</g>
</g>
</svg>
