<?xml version="1.0" encoding="UTF-8" standalone="no"?>
<!DOCTYPE svg PUBLIC "-//W3C//DTD SVG 1.1//EN"
 "http://www.w3.org/Graphics/SVG/1.1/DTD/svg11.dtd">
<!-- Generated by graphviz version 2.40.1 (20161225.0304)
 -->
<!-- Title: G Pages: 1 -->
<svg width="2361pt" height="436pt"
 viewBox="0.00 0.00 2361.00 436.00" xmlns="http://www.w3.org/2000/svg" xmlns:xlink="http://www.w3.org/1999/xlink">
<g id="graph0" class="graph" transform="scale(1 1) rotate(0) translate(4 432)">
<title>G</title>
<polygon fill="#ffffff" stroke="transparent" points="-4,4 -4,-432 2357,-432 2357,4 -4,4"/>
<g id="clust1" class="cluster">
<title>cluster_0</title>
<polygon fill="none" stroke="#000000" points="8,-8 8,-420 92,-420 92,-8 8,-8"/>
</g>
<g id="clust2" class="cluster">
<title>cluster_1</title>
<polygon fill="none" stroke="#000000" points="100,-8 100,-420 2345,-420 2345,-8 100,-8"/>
</g>
<!-- root: x -->
<g id="node1" class="node">
<title>root: x</title>
<ellipse fill="none" stroke="#000000" cx="50" cy="-394" rx="34.394" ry="18"/>
<text text-anchor="middle" x="50" y="-390.3" font-family="Times,serif" font-size="14.00" fill="#000000">root: x</text>
</g>
<!-- 1:y -->
<g id="node2" class="node">
<title>1:y</title>
<ellipse fill="none" stroke="#000000" cx="50" cy="-322" rx="27" ry="18"/>
<text text-anchor="middle" x="50" y="-318.3" font-family="Times,serif" font-size="14.00" fill="#000000">1:y</text>
</g>
<!-- root: x&#45;&gt;1:y -->
<g id="edge1" class="edge">
<title>root: x&#45;&gt;1:y</title>
<path fill="none" stroke="#000000" d="M50,-375.8314C50,-368.131 50,-358.9743 50,-350.4166"/>
<polygon fill="#000000" stroke="#000000" points="53.5001,-350.4132 50,-340.4133 46.5001,-350.4133 53.5001,-350.4132"/>
</g>
<!-- 2:x -->
<g id="node3" class="node">
<title>2:x</title>
<ellipse fill="none" stroke="#000000" cx="50" cy="-250" rx="27" ry="18"/>
<text text-anchor="middle" x="50" y="-246.3" font-family="Times,serif" font-size="14.00" fill="#000000">2:x</text>
</g>
<!-- 1:y&#45;&gt;2:x -->
<g id="edge2" class="edge">
<title>1:y&#45;&gt;2:x</title>
<path fill="none" stroke="#000000" d="M50,-303.8314C50,-296.131 50,-286.9743 50,-278.4166"/>
<polygon fill="#000000" stroke="#000000" points="53.5001,-278.4132 50,-268.4133 46.5001,-278.4133 53.5001,-278.4132"/>
</g>
<!-- 3:y -->
<g id="node4" class="node">
<title>3:y</title>
<ellipse fill="none" stroke="#000000" cx="50" cy="-178" rx="27" ry="18"/>
<text text-anchor="middle" x="50" y="-174.3" font-family="Times,serif" font-size="14.00" fill="#000000">3:y</text>
</g>
<!-- 2:x&#45;&gt;3:y -->
<g id="edge3" class="edge">
<title>2:x&#45;&gt;3:y</title>
<path fill="none" stroke="#000000" d="M50,-231.8314C50,-224.131 50,-214.9743 50,-206.4166"/>
<polygon fill="#000000" stroke="#000000" points="53.5001,-206.4132 50,-196.4133 46.5001,-206.4133 53.5001,-206.4132"/>
</g>
<!-- 4:x -->
<g id="node5" class="node">
<title>4:x</title>
<ellipse fill="none" stroke="#000000" cx="50" cy="-106" rx="27" ry="18"/>
<text text-anchor="middle" x="50" y="-102.3" font-family="Times,serif" font-size="14.00" fill="#000000">4:x</text>
</g>
<!-- 3:y&#45;&gt;4:x -->
<g id="edge4" class="edge">
<title>3:y&#45;&gt;4:x</title>
<path fill="none" stroke="#000000" d="M50,-159.8314C50,-152.131 50,-142.9743 50,-134.4166"/>
<polygon fill="#000000" stroke="#000000" points="53.5001,-134.4132 50,-124.4133 46.5001,-134.4133 53.5001,-134.4132"/>
</g>
<!-- 5:y -->
<g id="node6" class="node">
<title>5:y</title>
<ellipse fill="none" stroke="#000000" cx="50" cy="-34" rx="27" ry="18"/>
<text text-anchor="middle" x="50" y="-30.3" font-family="Times,serif" font-size="14.00" fill="#000000">5:y</text>
</g>
<!-- 4:x&#45;&gt;5:y -->
<g id="edge5" class="edge">
<title>4:x&#45;&gt;5:y</title>
<path fill="none" stroke="#000000" d="M50,-87.8314C50,-80.131 50,-70.9743 50,-62.4166"/>
<polygon fill="#000000" stroke="#000000" points="53.5001,-62.4132 50,-52.4133 46.5001,-62.4133 53.5001,-62.4132"/>
</g>
<!-- J&amp;G Masonry: 41.7523,&#45;71.4602 -->
<g id="node7" class="node">
<title>J&amp;G Masonry: 41.7523,&#45;71.4602</title>
<ellipse fill="none" stroke="#000000" cx="270" cy="-106" rx="129.9769" ry="18"/>
<text text-anchor="middle" x="270" y="-102.3" font-family="Times,serif" font-size="14.00" fill="#000000">J&amp;G Masonry: 41.7523,&#45;71.4602</text>
</g>
<!-- Gutierrez Landscaping I: 41.8079,&#45;71.452 -->
<g id="node8" class="node">
<title>Gutierrez Landscaping I: 41.8079,&#45;71.452</title>
<ellipse fill="none" stroke="#000000" cx="270" cy="-34" rx="159.7717" ry="18"/>
<text text-anchor="middle" x="270" y="-30.3" font-family="Times,serif" font-size="14.00" fill="#000000">Gutierrez Landscaping I: 41.8079,&#45;71.452</text>
</g>
<!-- J&amp;G Masonry: 41.7523,&#45;71.4602&#45;&gt;Gutierrez Landscaping I: 41.8079,&#45;71.452 -->
<g id="edge6" class="edge">
<title>J&amp;G Masonry: 41.7523,&#45;71.4602&#45;&gt;Gutierrez Landscaping I: 41.8079,&#45;71.452</title>
<path fill="none" stroke="#8a2be2" d="M270,-87.8314C270,-80.131 270,-70.9743 270,-62.4166"/>
<polygon fill="#8a2be2" stroke="#8a2be2" points="273.5001,-62.4132 270,-52.4133 266.5001,-62.4133 273.5001,-62.4132"/>
</g>
<!-- Alejandro&#39;s tree services: 41.8269,&#45;71.4512 -->
<g id="node9" class="node">
<title>Alejandro&#39;s tree services: 41.8269,&#45;71.4512</title>
<ellipse fill="none" stroke="#000000" cx="273" cy="-178" rx="165.1707" ry="18"/>
<text text-anchor="middle" x="273" y="-174.3" font-family="Times,serif" font-size="14.00" fill="#000000">Alejandro&#39;s tree services: 41.8269,&#45;71.4512</text>
</g>
<!-- Alejandro&#39;s tree services: 41.8269,&#45;71.4512&#45;&gt;J&amp;G Masonry: 41.7523,&#45;71.4602 -->
<g id="edge7" class="edge">
<title>Alejandro&#39;s tree services: 41.8269,&#45;71.4512&#45;&gt;J&amp;G Masonry: 41.7523,&#45;71.4602</title>
<path fill="none" stroke="#0000ff" d="M272.243,-159.8314C271.9221,-152.131 271.5406,-142.9743 271.184,-134.4166"/>
<polygon fill="#0000ff" stroke="#0000ff" points="274.6806,-134.2589 270.7672,-124.4133 267.6867,-134.5503 274.6806,-134.2589"/>
</g>
<!-- Northscapes: 41.8009,&#45;71.4507 -->
<g id="node10" class="node">
<title>Northscapes: 41.8009,&#45;71.4507</title>
<ellipse fill="none" stroke="#000000" cx="540" cy="-106" rx="122.3786" ry="18"/>
<text text-anchor="middle" x="540" y="-102.3" font-family="Times,serif" font-size="14.00" fill="#000000">Northscapes: 41.8009,&#45;71.4507</text>
</g>
<!-- Alejandro&#39;s tree services: 41.8269,&#45;71.4512&#45;&gt;Northscapes: 41.8009,&#45;71.4507 -->
<g id="edge8" class="edge">
<title>Alejandro&#39;s tree services: 41.8269,&#45;71.4512&#45;&gt;Northscapes: 41.8009,&#45;71.4507</title>
<path fill="none" stroke="#0000ff" d="M334.9263,-161.3008C375.7151,-150.3015 429.1599,-135.8895 471.2629,-124.5359"/>
<polygon fill="#0000ff" stroke="#0000ff" points="472.4141,-127.8505 481.1579,-121.8675 470.5915,-121.0919 472.4141,-127.8505"/>
</g>
<!-- Dessaint Landscaping: 41.7031,&#45;71.4522 -->
<g id="node11" class="node">
<title>Dessaint Landscaping: 41.7031,&#45;71.4522</title>
<ellipse fill="none" stroke="#000000" cx="722" cy="-250" rx="155.9723" ry="18"/>
<text text-anchor="middle" x="722" y="-246.3" font-family="Times,serif" font-size="14.00" fill="#000000">Dessaint Landscaping: 41.7031,&#45;71.4522</text>
</g>
<!-- Dessaint Landscaping: 41.7031,&#45;71.4522&#45;&gt;Alejandro&#39;s tree services: 41.8269,&#45;71.4512 -->
<g id="edge10" class="edge">
<title>Dessaint Landscaping: 41.7031,&#45;71.4522&#45;&gt;Alejandro&#39;s tree services: 41.8269,&#45;71.4512</title>
<path fill="none" stroke="#000000" d="M630.8677,-235.3864C557.028,-223.5457 452.9933,-206.8631 376.115,-194.5351"/>
<polygon fill="#000000" stroke="#000000" points="376.3574,-191.0294 365.9293,-192.9018 375.249,-197.9411 376.3574,-191.0294"/>
</g>
<!-- Clark &amp; Company Complete Landscape Maintenance: 41.4387,&#45;71.495 -->
<g id="node12" class="node">
<title>Clark &amp; Company Complete Landscape Maintenance: 41.4387,&#45;71.495</title>
<ellipse fill="none" stroke="#000000" cx="722" cy="-178" rx="265.6529" ry="18"/>
<text text-anchor="middle" x="722" y="-174.3" font-family="Times,serif" font-size="14.00" fill="#000000">Clark &amp; Company Complete Landscape Maintenance: 41.4387,&#45;71.495</text>
</g>
<!-- Dessaint Landscaping: 41.7031,&#45;71.4522&#45;&gt;Clark &amp; Company Complete Landscape Maintenance: 41.4387,&#45;71.495 -->
<g id="edge9" class="edge">
<title>Dessaint Landscaping: 41.7031,&#45;71.4522&#45;&gt;Clark &amp; Company Complete Landscape Maintenance: 41.4387,&#45;71.495</title>
<path fill="none" stroke="#000000" d="M722,-231.8314C722,-224.131 722,-214.9743 722,-206.4166"/>
<polygon fill="#000000" stroke="#000000" points="725.5001,-206.4132 722,-196.4133 718.5001,-206.4133 725.5001,-206.4132"/>
</g>
<!-- Helger Bros Tree Service: 41.5559,&#45;71.1296 -->
<g id="node13" class="node">
<title>Helger Bros Tree Service: 41.5559,&#45;71.1296</title>
<ellipse fill="none" stroke="#000000" cx="1152" cy="-106" rx="168.97" ry="18"/>
<text text-anchor="middle" x="1152" y="-102.3" font-family="Times,serif" font-size="14.00" fill="#000000">Helger Bros Tree Service: 41.5559,&#45;71.1296</text>
</g>
<!-- Redwood Nursery &amp; Garden Center: 41.7736,&#45;71.2743 -->
<g id="node14" class="node">
<title>Redwood Nursery &amp; Garden Center: 41.7736,&#45;71.2743</title>
<ellipse fill="none" stroke="#000000" cx="1152" cy="-34" rx="206.8635" ry="18"/>
<text text-anchor="middle" x="1152" y="-30.3" font-family="Times,serif" font-size="14.00" fill="#000000">Redwood Nursery &amp; Garden Center: 41.7736,&#45;71.2743</text>
</g>
<!-- Helger Bros Tree Service: 41.5559,&#45;71.1296&#45;&gt;Redwood Nursery &amp; Garden Center: 41.7736,&#45;71.2743 -->
<g id="edge11" class="edge">
<title>Helger Bros Tree Service: 41.5559,&#45;71.1296&#45;&gt;Redwood Nursery &amp; Garden Center: 41.7736,&#45;71.2743</title>
<path fill="none" stroke="#8a2be2" d="M1152,-87.8314C1152,-80.131 1152,-70.9743 1152,-62.4166"/>
<polygon fill="#8a2be2" stroke="#8a2be2" points="1155.5001,-62.4132 1152,-52.4133 1148.5001,-62.4133 1155.5001,-62.4132"/>
</g>
<!-- LD&#39;s Lawn Service: 41.7626,&#45;71.3412 -->
<g id="node15" class="node">
<title>LD&#39;s Lawn Service: 41.7626,&#45;71.3412</title>
<ellipse fill="none" stroke="#000000" cx="1152" cy="-178" rx="146.4744" ry="18"/>
<text text-anchor="middle" x="1152" y="-174.3" font-family="Times,serif" font-size="14.00" fill="#000000">LD&#39;s Lawn Service: 41.7626,&#45;71.3412</text>
</g>
<!-- LD&#39;s Lawn Service: 41.7626,&#45;71.3412&#45;&gt;Helger Bros Tree Service: 41.5559,&#45;71.1296 -->
<g id="edge12" class="edge">
<title>LD&#39;s Lawn Service: 41.7626,&#45;71.3412&#45;&gt;Helger Bros Tree Service: 41.5559,&#45;71.1296</title>
<path fill="none" stroke="#0000ff" d="M1152,-159.8314C1152,-152.131 1152,-142.9743 1152,-134.4166"/>
<polygon fill="#0000ff" stroke="#0000ff" points="1155.5001,-134.4132 1152,-124.4133 1148.5001,-134.4133 1155.5001,-134.4132"/>
</g>
<!-- Nick&#39;s Lawn &amp; Landscape: 41.8298,&#45;71.3252 -->
<g id="node16" class="node">
<title>Nick&#39;s Lawn &amp; Landscape: 41.8298,&#45;71.3252</title>
<ellipse fill="none" stroke="#000000" cx="1543" cy="-106" rx="172.7694" ry="18"/>
<text text-anchor="middle" x="1543" y="-102.3" font-family="Times,serif" font-size="14.00" fill="#000000">Nick&#39;s Lawn &amp; Landscape: 41.8298,&#45;71.3252</text>
</g>
<!-- Lawn Love Lawn Care: 41.824,&#45;71.4118 -->
<g id="node17" class="node">
<title>Lawn Love Lawn Care: 41.824,&#45;71.4118</title>
<ellipse fill="none" stroke="#000000" cx="1543" cy="-34" rx="155.9723" ry="18"/>
<text text-anchor="middle" x="1543" y="-30.3" font-family="Times,serif" font-size="14.00" fill="#000000">Lawn Love Lawn Care: 41.824,&#45;71.4118</text>
</g>
<!-- Nick&#39;s Lawn &amp; Landscape: 41.8298,&#45;71.3252&#45;&gt;Lawn Love Lawn Care: 41.824,&#45;71.4118 -->
<g id="edge13" class="edge">
<title>Nick&#39;s Lawn &amp; Landscape: 41.8298,&#45;71.3252&#45;&gt;Lawn Love Lawn Care: 41.824,&#45;71.4118</title>
<path fill="none" stroke="#8a2be2" d="M1543,-87.8314C1543,-80.131 1543,-70.9743 1543,-62.4166"/>
<polygon fill="#8a2be2" stroke="#8a2be2" points="1546.5001,-62.4132 1543,-52.4133 1539.5001,-62.4133 1546.5001,-62.4132"/>
</g>
<!-- New Dawn Landscaping and construction: 41.8171,&#45;71.4467 -->
<g id="node18" class="node">
<title>New Dawn Landscaping and construction: 41.8171,&#45;71.4467</title>
<ellipse fill="none" stroke="#000000" cx="1543" cy="-178" rx="226.6599" ry="18"/>
<text text-anchor="middle" x="1543" y="-174.3" font-family="Times,serif" font-size="14.00" fill="#000000">New Dawn Landscaping and construction: 41.8171,&#45;71.4467</text>
</g>
<!-- New Dawn Landscaping and construction: 41.8171,&#45;71.4467&#45;&gt;Nick&#39;s Lawn &amp; Landscape: 41.8298,&#45;71.3252 -->
<g id="edge14" class="edge">
<title>New Dawn Landscaping and construction: 41.8171,&#45;71.4467&#45;&gt;Nick&#39;s Lawn &amp; Landscape: 41.8298,&#45;71.3252</title>
<path fill="none" stroke="#0000ff" d="M1543,-159.8314C1543,-152.131 1543,-142.9743 1543,-134.4166"/>
<polygon fill="#0000ff" stroke="#0000ff" points="1546.5001,-134.4132 1543,-124.4133 1539.5001,-134.4133 1546.5001,-134.4132"/>
</g>
<!-- Mendonca Bros. Landscaping: 41.8154,&#45;71.3652 -->
<g id="node19" class="node">
<title>Mendonca Bros. Landscaping: 41.8154,&#45;71.3652</title>
<ellipse fill="none" stroke="#000000" cx="1323" cy="-250" rx="184.6673" ry="18"/>
<text text-anchor="middle" x="1323" y="-246.3" font-family="Times,serif" font-size="14.00" fill="#000000">Mendonca Bros. Landscaping: 41.8154,&#45;71.3652</text>
</g>
<!-- Mendonca Bros. Landscaping: 41.8154,&#45;71.3652&#45;&gt;LD&#39;s Lawn Service: 41.7626,&#45;71.3412 -->
<g id="edge15" class="edge">
<title>Mendonca Bros. Landscaping: 41.8154,&#45;71.3652&#45;&gt;LD&#39;s Lawn Service: 41.7626,&#45;71.3412</title>
<path fill="none" stroke="#000000" d="M1281.1687,-232.3868C1257.4088,-222.3827 1227.4988,-209.7889 1202.4453,-199.2401"/>
<polygon fill="#000000" stroke="#000000" points="1203.6787,-195.9619 1193.1041,-195.307 1200.9622,-202.4133 1203.6787,-195.9619"/>
</g>
<!-- Mendonca Bros. Landscaping: 41.8154,&#45;71.3652&#45;&gt;New Dawn Landscaping and construction: 41.8171,&#45;71.4467 -->
<g id="edge16" class="edge">
<title>Mendonca Bros. Landscaping: 41.8154,&#45;71.3652&#45;&gt;New Dawn Landscaping and construction: 41.8171,&#45;71.4467</title>
<path fill="none" stroke="#000000" d="M1375.9754,-232.6626C1407.2201,-222.4371 1446.9489,-209.4349 1479.82,-198.6771"/>
<polygon fill="#000000" stroke="#000000" points="1480.9238,-201.9986 1489.3391,-195.5617 1478.7465,-195.3458 1480.9238,-201.9986"/>
</g>
<!-- City &amp; Estate Gardener: 41.8171,&#45;71.4467 -->
<g id="node20" class="node">
<title>City &amp; Estate Gardener: 41.8171,&#45;71.4467</title>
<ellipse fill="none" stroke="#000000" cx="1323" cy="-322" rx="162.4712" ry="18"/>
<text text-anchor="middle" x="1323" y="-318.3" font-family="Times,serif" font-size="14.00" fill="#000000">City &amp; Estate Gardener: 41.8171,&#45;71.4467</text>
</g>
<!-- City &amp; Estate Gardener: 41.8171,&#45;71.4467&#45;&gt;Dessaint Landscaping: 41.7031,&#45;71.4522 -->
<g id="edge17" class="edge">
<title>City &amp; Estate Gardener: 41.8171,&#45;71.4467&#45;&gt;Dessaint Landscaping: 41.7031,&#45;71.4522</title>
<path fill="none" stroke="#ffe4c4" d="M1212.4173,-308.7522C1106.8854,-296.1094 948.4011,-277.1229 840.3595,-264.1795"/>
<polygon fill="#ffe4c4" stroke="#ffe4c4" points="840.7367,-260.6998 830.3914,-262.9853 839.904,-267.6501 840.7367,-260.6998"/>
</g>
<!-- City &amp; Estate Gardener: 41.8171,&#45;71.4467&#45;&gt;Mendonca Bros. Landscaping: 41.8154,&#45;71.3652 -->
<g id="edge18" class="edge">
<title>City &amp; Estate Gardener: 41.8171,&#45;71.4467&#45;&gt;Mendonca Bros. Landscaping: 41.8154,&#45;71.3652</title>
<path fill="none" stroke="#ffe4c4" d="M1323,-303.8314C1323,-296.131 1323,-286.9743 1323,-278.4166"/>
<polygon fill="#ffe4c4" stroke="#ffe4c4" points="1326.5001,-278.4132 1323,-268.4133 1319.5001,-278.4133 1326.5001,-278.4132"/>
</g>
<!-- R &amp; K Pro Landscaping: 41.8737,&#45;71.5534 -->
<g id="node21" class="node">
<title>R &amp; K Pro Landscaping: 41.8737,&#45;71.5534</title>
<ellipse fill="none" stroke="#000000" cx="1862" cy="-250" rx="165.1707" ry="18"/>
<text text-anchor="middle" x="1862" y="-246.3" font-family="Times,serif" font-size="14.00" fill="#000000">R &amp; K Pro Landscaping: 41.8737,&#45;71.5534</text>
</g>
<!-- Dicenzo Inc: 41.8474,&#45;71.4373 -->
<g id="node22" class="node">
<title>Dicenzo Inc: 41.8474,&#45;71.4373</title>
<ellipse fill="none" stroke="#000000" cx="1909" cy="-178" rx="121.5784" ry="18"/>
<text text-anchor="middle" x="1909" y="-174.3" font-family="Times,serif" font-size="14.00" fill="#000000">Dicenzo Inc: 41.8474,&#45;71.4373</text>
</g>
<!-- R &amp; K Pro Landscaping: 41.8737,&#45;71.5534&#45;&gt;Dicenzo Inc: 41.8474,&#45;71.4373 -->
<g id="edge19" class="edge">
<title>R &amp; K Pro Landscaping: 41.8737,&#45;71.5534&#45;&gt;Dicenzo Inc: 41.8474,&#45;71.4373</title>
<path fill="none" stroke="#000000" d="M1873.8601,-231.8314C1879.1629,-223.7079 1885.5237,-213.9637 1891.3673,-205.0118"/>
<polygon fill="#000000" stroke="#000000" points="1894.4448,-206.7003 1896.9802,-196.4133 1888.5831,-202.8739 1894.4448,-206.7003"/>
</g>
<!-- OCD Landscaping: 42.0023,&#45;71.5128 -->
<g id="node23" class="node">
<title>OCD Landscaping: 42.0023,&#45;71.5128</title>
<ellipse fill="none" stroke="#000000" cx="2193" cy="-178" rx="144.0747" ry="18"/>
<text text-anchor="middle" x="2193" y="-174.3" font-family="Times,serif" font-size="14.00" fill="#000000">OCD Landscaping: 42.0023,&#45;71.5128</text>
</g>
<!-- R &amp; K Pro Landscaping: 41.8737,&#45;71.5534&#45;&gt;OCD Landscaping: 42.0023,&#45;71.5128 -->
<g id="edge20" class="edge">
<title>R &amp; K Pro Landscaping: 41.8737,&#45;71.5534&#45;&gt;OCD Landscaping: 42.0023,&#45;71.5128</title>
<path fill="none" stroke="#000000" d="M1936.2829,-233.8418C1988.2298,-222.5422 2057.613,-207.4497 2111.151,-195.804"/>
<polygon fill="#000000" stroke="#000000" points="2111.928,-199.2169 2120.9555,-193.6713 2110.4401,-192.3769 2111.928,-199.2169"/>
</g>
<!-- Pristine Lawn Care: 41.8623,&#45;71.5624 -->
<g id="node24" class="node">
<title>Pristine Lawn Care: 41.8623,&#45;71.5624</title>
<ellipse fill="none" stroke="#000000" cx="1862" cy="-322" rx="146.774" ry="18"/>
<text text-anchor="middle" x="1862" y="-318.3" font-family="Times,serif" font-size="14.00" fill="#000000">Pristine Lawn Care: 41.8623,&#45;71.5624</text>
</g>
<!-- Pristine Lawn Care: 41.8623,&#45;71.5624&#45;&gt;R &amp; K Pro Landscaping: 41.8737,&#45;71.5534 -->
<g id="edge22" class="edge">
<title>Pristine Lawn Care: 41.8623,&#45;71.5624&#45;&gt;R &amp; K Pro Landscaping: 41.8737,&#45;71.5534</title>
<path fill="none" stroke="#ffe4c4" d="M1862,-303.8314C1862,-296.131 1862,-286.9743 1862,-278.4166"/>
<polygon fill="#ffe4c4" stroke="#ffe4c4" points="1865.5001,-278.4132 1862,-268.4133 1858.5001,-278.4133 1865.5001,-278.4132"/>
</g>
<!-- Northern Landscape: 41.897,&#45;71.6295 -->
<g id="node25" class="node">
<title>Northern Landscape: 41.897,&#45;71.6295</title>
<ellipse fill="none" stroke="#000000" cx="2191" cy="-250" rx="145.6742" ry="18"/>
<text text-anchor="middle" x="2191" y="-246.3" font-family="Times,serif" font-size="14.00" fill="#000000">Northern Landscape: 41.897,&#45;71.6295</text>
</g>
<!-- Pristine Lawn Care: 41.8623,&#45;71.5624&#45;&gt;Northern Landscape: 41.897,&#45;71.6295 -->
<g id="edge21" class="edge">
<title>Pristine Lawn Care: 41.8623,&#45;71.5624&#45;&gt;Northern Landscape: 41.897,&#45;71.6295</title>
<path fill="none" stroke="#ffe4c4" d="M1933.7939,-306.2883C1985.59,-294.953 2055.5928,-279.6332 2109.4907,-267.8379"/>
<polygon fill="#ffe4c4" stroke="#ffe4c4" points="2110.3386,-271.2353 2119.3592,-265.6782 2108.8421,-264.3971 2110.3386,-271.2353"/>
</g>
<!-- Gonzalez Landscaping: 41.8391,&#45;71.4347 -->
<g id="node26" class="node">
<title>Gonzalez Landscaping: 41.8391,&#45;71.4347</title>
<ellipse fill="none" stroke="#000000" cx="1592" cy="-394" rx="159.4721" ry="18"/>
<text text-anchor="middle" x="1592" y="-390.3" font-family="Times,serif" font-size="14.00" fill="#000000">Gonzalez Landscaping: 41.8391,&#45;71.4347</text>
</g>
<!-- Gonzalez Landscaping: 41.8391,&#45;71.4347&#45;&gt;City &amp; Estate Gardener: 41.8171,&#45;71.4467 -->
<g id="edge23" class="edge">
<title>Gonzalez Landscaping: 41.8391,&#45;71.4347&#45;&gt;City &amp; Estate Gardener: 41.8171,&#45;71.4467</title>
<path fill="none" stroke="#7fffd4" d="M1529.9482,-377.3913C1489.7277,-366.626 1437.1871,-352.5631 1395.1111,-341.3011"/>
<polygon fill="#7fffd4" stroke="#7fffd4" points="1395.77,-337.8543 1385.205,-338.6497 1393.96,-344.6163 1395.77,-337.8543"/>
</g>
<!-- Gonzalez Landscaping: 41.8391,&#45;71.4347&#45;&gt;Pristine Lawn Care: 41.8623,&#45;71.5624 -->
<g id="edge24" class="edge">
<title>Gonzalez Landscaping: 41.8391,&#45;71.4347&#45;&gt;Pristine Lawn Care: 41.8623,&#45;71.5624</title>
<path fill="none" stroke="#7fffd4" d="M1654.2825,-377.3913C1695.0267,-366.5262 1748.3669,-352.3022 1790.7923,-340.9887"/>
<polygon fill="#7fffd4" stroke="#7fffd4" points="1791.7361,-344.3594 1800.4967,-338.4009 1789.9325,-337.5958 1791.7361,-344.3594"/>
</g>
</g>
</svg>
