<?xml version="1.0" encoding="UTF-8" standalone="no"?>
<!DOCTYPE svg PUBLIC "-//W3C//DTD SVG 1.1//EN"
 "http://www.w3.org/Graphics/SVG/1.1/DTD/svg11.dtd">
<!-- Generated by graphviz version 2.40.1 (20161225.0304)
 -->
<!-- Title: G Pages: 1 -->
<svg width="2228pt" height="508pt"
 viewBox="0.00 0.00 2228.00 508.00" xmlns="http://www.w3.org/2000/svg" xmlns:xlink="http://www.w3.org/1999/xlink">
<g id="graph0" class="graph" transform="scale(1 1) rotate(0) translate(4 504)">
<title>G</title>
<polygon fill="#ffffff" stroke="transparent" points="-4,4 -4,-504 2224,-504 2224,4 -4,4"/>
<g id="clust1" class="cluster">
<title>cluster_0</title>
<polygon fill="none" stroke="#000000" points="8,-8 8,-492 92,-492 92,-8 8,-8"/>
</g>
<g id="clust2" class="cluster">
<title>cluster_1</title>
<polygon fill="none" stroke="#000000" points="100,-8 100,-492 2212,-492 2212,-8 100,-8"/>
</g>
<!-- root: x -->
<g id="node1" class="node">
<title>root: x</title>
<ellipse fill="none" stroke="#000000" cx="50" cy="-466" rx="34.394" ry="18"/>
<text text-anchor="middle" x="50" y="-462.3" font-family="Times,serif" font-size="14.00" fill="#000000">root: x</text>
</g>
<!-- 1:y -->
<g id="node2" class="node">
<title>1:y</title>
<ellipse fill="none" stroke="#000000" cx="50" cy="-394" rx="27" ry="18"/>
<text text-anchor="middle" x="50" y="-390.3" font-family="Times,serif" font-size="14.00" fill="#000000">1:y</text>
</g>
<!-- root: x&#45;&gt;1:y -->
<g id="edge1" class="edge">
<title>root: x&#45;&gt;1:y</title>
<path fill="none" stroke="#000000" d="M50,-447.8314C50,-440.131 50,-430.9743 50,-422.4166"/>
<polygon fill="#000000" stroke="#000000" points="53.5001,-422.4132 50,-412.4133 46.5001,-422.4133 53.5001,-422.4132"/>
</g>
<!-- 2:x -->
<g id="node3" class="node">
<title>2:x</title>
<ellipse fill="none" stroke="#000000" cx="50" cy="-322" rx="27" ry="18"/>
<text text-anchor="middle" x="50" y="-318.3" font-family="Times,serif" font-size="14.00" fill="#000000">2:x</text>
</g>
<!-- 1:y&#45;&gt;2:x -->
<g id="edge2" class="edge">
<title>1:y&#45;&gt;2:x</title>
<path fill="none" stroke="#000000" d="M50,-375.8314C50,-368.131 50,-358.9743 50,-350.4166"/>
<polygon fill="#000000" stroke="#000000" points="53.5001,-350.4132 50,-340.4133 46.5001,-350.4133 53.5001,-350.4132"/>
</g>
<!-- 3:y -->
<g id="node4" class="node">
<title>3:y</title>
<ellipse fill="none" stroke="#000000" cx="50" cy="-250" rx="27" ry="18"/>
<text text-anchor="middle" x="50" y="-246.3" font-family="Times,serif" font-size="14.00" fill="#000000">3:y</text>
</g>
<!-- 2:x&#45;&gt;3:y -->
<g id="edge3" class="edge">
<title>2:x&#45;&gt;3:y</title>
<path fill="none" stroke="#000000" d="M50,-303.8314C50,-296.131 50,-286.9743 50,-278.4166"/>
<polygon fill="#000000" stroke="#000000" points="53.5001,-278.4132 50,-268.4133 46.5001,-278.4133 53.5001,-278.4132"/>
</g>
<!-- 4:x -->
<g id="node5" class="node">
<title>4:x</title>
<ellipse fill="none" stroke="#000000" cx="50" cy="-178" rx="27" ry="18"/>
<text text-anchor="middle" x="50" y="-174.3" font-family="Times,serif" font-size="14.00" fill="#000000">4:x</text>
</g>
<!-- 3:y&#45;&gt;4:x -->
<g id="edge4" class="edge">
<title>3:y&#45;&gt;4:x</title>
<path fill="none" stroke="#000000" d="M50,-231.8314C50,-224.131 50,-214.9743 50,-206.4166"/>
<polygon fill="#000000" stroke="#000000" points="53.5001,-206.4132 50,-196.4133 46.5001,-206.4133 53.5001,-206.4132"/>
</g>
<!-- 5:y -->
<g id="node6" class="node">
<title>5:y</title>
<ellipse fill="none" stroke="#000000" cx="50" cy="-106" rx="27" ry="18"/>
<text text-anchor="middle" x="50" y="-102.3" font-family="Times,serif" font-size="14.00" fill="#000000">5:y</text>
</g>
<!-- 4:x&#45;&gt;5:y -->
<g id="edge5" class="edge">
<title>4:x&#45;&gt;5:y</title>
<path fill="none" stroke="#000000" d="M50,-159.8314C50,-152.131 50,-142.9743 50,-134.4166"/>
<polygon fill="#000000" stroke="#000000" points="53.5001,-134.4132 50,-124.4133 46.5001,-134.4133 53.5001,-134.4132"/>
</g>
<!-- 6:x -->
<g id="node7" class="node">
<title>6:x</title>
<ellipse fill="none" stroke="#000000" cx="50" cy="-34" rx="27" ry="18"/>
<text text-anchor="middle" x="50" y="-30.3" font-family="Times,serif" font-size="14.00" fill="#000000">6:x</text>
</g>
<!-- 5:y&#45;&gt;6:x -->
<g id="edge6" class="edge">
<title>5:y&#45;&gt;6:x</title>
<path fill="none" stroke="#000000" d="M50,-87.8314C50,-80.131 50,-70.9743 50,-62.4166"/>
<polygon fill="#000000" stroke="#000000" points="53.5001,-62.4132 50,-52.4133 46.5001,-62.4133 53.5001,-62.4132"/>
</g>
<!-- Gemma Law Associates: 41.7906,&#45;71.429 -->
<g id="node8" class="node">
<title>Gemma Law Associates: 41.7906,&#45;71.429</title>
<ellipse fill="none" stroke="#000000" cx="304" cy="-178" rx="161.3716" ry="18"/>
<text text-anchor="middle" x="304" y="-174.3" font-family="Times,serif" font-size="14.00" fill="#000000">Gemma Law Associates: 41.7906,&#45;71.429</text>
</g>
<!-- Richard Merola: 41.8174,&#45;71.4249 -->
<g id="node9" class="node">
<title>Richard Merola: 41.8174,&#45;71.4249</title>
<ellipse fill="none" stroke="#000000" cx="304" cy="-106" rx="134.5761" ry="18"/>
<text text-anchor="middle" x="304" y="-102.3" font-family="Times,serif" font-size="14.00" fill="#000000">Richard Merola: 41.8174,&#45;71.4249</text>
</g>
<!-- Gemma Law Associates: 41.7906,&#45;71.429&#45;&gt;Richard Merola: 41.8174,&#45;71.4249 -->
<g id="edge7" class="edge">
<title>Gemma Law Associates: 41.7906,&#45;71.429&#45;&gt;Richard Merola: 41.8174,&#45;71.4249</title>
<path fill="none" stroke="#8a2be2" d="M304,-159.8314C304,-152.131 304,-142.9743 304,-134.4166"/>
<polygon fill="#8a2be2" stroke="#8a2be2" points="307.5001,-134.4132 304,-124.4133 300.5001,-134.4133 307.5001,-134.4132"/>
</g>
<!-- Law Offices of Richard Palumbo: 41.7905,&#45;71.4717 -->
<g id="node10" class="node">
<title>Law Offices of Richard Palumbo: 41.7905,&#45;71.4717</title>
<ellipse fill="none" stroke="#000000" cx="304" cy="-250" rx="196.0654" ry="18"/>
<text text-anchor="middle" x="304" y="-246.3" font-family="Times,serif" font-size="14.00" fill="#000000">Law Offices of Richard Palumbo: 41.7905,&#45;71.4717</text>
</g>
<!-- Law Offices of Richard Palumbo: 41.7905,&#45;71.4717&#45;&gt;Gemma Law Associates: 41.7906,&#45;71.429 -->
<g id="edge8" class="edge">
<title>Law Offices of Richard Palumbo: 41.7905,&#45;71.4717&#45;&gt;Gemma Law Associates: 41.7906,&#45;71.429</title>
<path fill="none" stroke="#0000ff" d="M304,-231.8314C304,-224.131 304,-214.9743 304,-206.4166"/>
<polygon fill="#0000ff" stroke="#0000ff" points="307.5001,-206.4132 304,-196.4133 300.5001,-206.4133 307.5001,-206.4132"/>
</g>
<!-- Rioles Law Offices: 41.8189,&#45;71.4321 -->
<g id="node11" class="node">
<title>Rioles Law Offices: 41.8189,&#45;71.4321</title>
<ellipse fill="none" stroke="#000000" cx="683" cy="-178" rx="147.5738" ry="18"/>
<text text-anchor="middle" x="683" y="-174.3" font-family="Times,serif" font-size="14.00" fill="#000000">Rioles Law Offices: 41.8189,&#45;71.4321</text>
</g>
<!-- Robert Testa Attorney At Law: 41.8195,&#45;71.432 -->
<g id="node12" class="node">
<title>Robert Testa Attorney At Law: 41.8195,&#45;71.432</title>
<ellipse fill="none" stroke="#000000" cx="676" cy="-106" rx="182.7677" ry="18"/>
<text text-anchor="middle" x="676" y="-102.3" font-family="Times,serif" font-size="14.00" fill="#000000">Robert Testa Attorney At Law: 41.8195,&#45;71.432</text>
</g>
<!-- Rioles Law Offices: 41.8189,&#45;71.4321&#45;&gt;Robert Testa Attorney At Law: 41.8195,&#45;71.432 -->
<g id="edge9" class="edge">
<title>Rioles Law Offices: 41.8189,&#45;71.4321&#45;&gt;Robert Testa Attorney At Law: 41.8195,&#45;71.432</title>
<path fill="none" stroke="#8a2be2" d="M681.2336,-159.8314C680.485,-152.131 679.5947,-142.9743 678.7627,-134.4166"/>
<polygon fill="#8a2be2" stroke="#8a2be2" points="682.2415,-134.0276 677.7902,-124.4133 675.2744,-134.7051 682.2415,-134.0276"/>
</g>
<!-- Law Office of Stephen J. Dennis: 41.8221,&#45;71.41 -->
<g id="node13" class="node">
<title>Law Office of Stephen J. Dennis: 41.8221,&#45;71.41</title>
<ellipse fill="none" stroke="#000000" cx="1063" cy="-106" rx="186.5669" ry="18"/>
<text text-anchor="middle" x="1063" y="-102.3" font-family="Times,serif" font-size="14.00" fill="#000000">Law Office of Stephen J. Dennis: 41.8221,&#45;71.41</text>
</g>
<!-- Rodio &amp; Brown: 41.821,&#45;71.4106 -->
<g id="node14" class="node">
<title>Rodio &amp; Brown: 41.821,&#45;71.4106</title>
<ellipse fill="none" stroke="#000000" cx="1063" cy="-34" rx="131.8766" ry="18"/>
<text text-anchor="middle" x="1063" y="-30.3" font-family="Times,serif" font-size="14.00" fill="#000000">Rodio &amp; Brown: 41.821,&#45;71.4106</text>
</g>
<!-- Law Office of Stephen J. Dennis: 41.8221,&#45;71.41&#45;&gt;Rodio &amp; Brown: 41.821,&#45;71.4106 -->
<g id="edge10" class="edge">
<title>Law Office of Stephen J. Dennis: 41.8221,&#45;71.41&#45;&gt;Rodio &amp; Brown: 41.821,&#45;71.4106</title>
<path fill="none" stroke="#a52a2a" d="M1063,-87.8314C1063,-80.131 1063,-70.9743 1063,-62.4166"/>
<polygon fill="#a52a2a" stroke="#a52a2a" points="1066.5001,-62.4132 1063,-52.4133 1059.5001,-62.4133 1066.5001,-62.4132"/>
</g>
<!-- The Law Office of Chad F Bank: 41.8222,&#45;71.4101 -->
<g id="node15" class="node">
<title>The Law Office of Chad F Bank: 41.8222,&#45;71.4101</title>
<ellipse fill="none" stroke="#000000" cx="1050" cy="-178" rx="194.1657" ry="18"/>
<text text-anchor="middle" x="1050" y="-174.3" font-family="Times,serif" font-size="14.00" fill="#000000">The Law Office of Chad F Bank: 41.8222,&#45;71.4101</text>
</g>
<!-- The Law Office of Chad F Bank: 41.8222,&#45;71.4101&#45;&gt;Law Office of Stephen J. Dennis: 41.8221,&#45;71.41 -->
<g id="edge11" class="edge">
<title>The Law Office of Chad F Bank: 41.8222,&#45;71.4101&#45;&gt;Law Office of Stephen J. Dennis: 41.8221,&#45;71.41</title>
<path fill="none" stroke="#8a2be2" d="M1053.2804,-159.8314C1054.6708,-152.131 1056.3241,-142.9743 1057.8692,-134.4166"/>
<polygon fill="#8a2be2" stroke="#8a2be2" points="1061.3428,-134.8761 1059.6754,-124.4133 1054.4542,-133.6322 1061.3428,-134.8761"/>
</g>
<!-- Frank S Lombardi Law Associates: 41.8208,&#45;71.4251 -->
<g id="node16" class="node">
<title>Frank S Lombardi Law Associates: 41.8208,&#45;71.4251</title>
<ellipse fill="none" stroke="#000000" cx="720" cy="-250" rx="202.2642" ry="18"/>
<text text-anchor="middle" x="720" y="-246.3" font-family="Times,serif" font-size="14.00" fill="#000000">Frank S Lombardi Law Associates: 41.8208,&#45;71.4251</text>
</g>
<!-- Frank S Lombardi Law Associates: 41.8208,&#45;71.4251&#45;&gt;Rioles Law Offices: 41.8189,&#45;71.4321 -->
<g id="edge12" class="edge">
<title>Frank S Lombardi Law Associates: 41.8208,&#45;71.4251&#45;&gt;Rioles Law Offices: 41.8189,&#45;71.4321</title>
<path fill="none" stroke="#0000ff" d="M710.6633,-231.8314C706.5757,-223.8771 701.6896,-214.369 697.1691,-205.5723"/>
<polygon fill="#0000ff" stroke="#0000ff" points="700.1461,-203.7078 692.4624,-196.4133 693.9201,-206.9074 700.1461,-203.7078"/>
</g>
<!-- Frank S Lombardi Law Associates: 41.8208,&#45;71.4251&#45;&gt;The Law Office of Chad F Bank: 41.8222,&#45;71.4101 -->
<g id="edge13" class="edge">
<title>Frank S Lombardi Law Associates: 41.8208,&#45;71.4251&#45;&gt;The Law Office of Chad F Bank: 41.8222,&#45;71.4101</title>
<path fill="none" stroke="#0000ff" d="M796.5381,-233.3008C846.6225,-222.3733 912.1458,-208.0773 964.0242,-196.7583"/>
<polygon fill="#0000ff" stroke="#0000ff" points="964.8529,-200.16 973.877,-194.6087 963.3607,-193.3209 964.8529,-200.16"/>
</g>
<!-- Marasco &amp; Nesselbush: 41.8187,&#45;71.4198 -->
<g id="node17" class="node">
<title>Marasco &amp; Nesselbush: 41.8187,&#45;71.4198</title>
<ellipse fill="none" stroke="#000000" cx="710" cy="-322" rx="161.3716" ry="18"/>
<text text-anchor="middle" x="710" y="-318.3" font-family="Times,serif" font-size="14.00" fill="#000000">Marasco &amp; Nesselbush: 41.8187,&#45;71.4198</text>
</g>
<!-- Marasco &amp; Nesselbush: 41.8187,&#45;71.4198&#45;&gt;Law Offices of Richard Palumbo: 41.7905,&#45;71.4717 -->
<g id="edge14" class="edge">
<title>Marasco &amp; Nesselbush: 41.8187,&#45;71.4198&#45;&gt;Law Offices of Richard Palumbo: 41.7905,&#45;71.4717</title>
<path fill="none" stroke="#000000" d="M623.8978,-306.7307C559.6909,-295.3442 471.8162,-279.7605 404.4118,-267.807"/>
<polygon fill="#000000" stroke="#000000" points="404.6566,-264.2959 394.1991,-265.9959 403.4343,-271.1884 404.6566,-264.2959"/>
</g>
<!-- Marasco &amp; Nesselbush: 41.8187,&#45;71.4198&#45;&gt;Frank S Lombardi Law Associates: 41.8208,&#45;71.4251 -->
<g id="edge15" class="edge">
<title>Marasco &amp; Nesselbush: 41.8187,&#45;71.4198&#45;&gt;Frank S Lombardi Law Associates: 41.8208,&#45;71.4251</title>
<path fill="none" stroke="#000000" d="M712.5234,-303.8314C713.5929,-296.131 714.8647,-286.9743 716.0532,-278.4166"/>
<polygon fill="#000000" stroke="#000000" points="719.5336,-278.7997 717.4426,-268.4133 712.6001,-277.8367 719.5336,-278.7997"/>
</g>
<!-- Bottaro Law Firm: 41.8077,&#45;71.4068 -->
<g id="node18" class="node">
<title>Bottaro Law Firm: 41.8077,&#45;71.4068</title>
<ellipse fill="none" stroke="#000000" cx="769" cy="-394" rx="142.9746" ry="18"/>
<text text-anchor="middle" x="769" y="-390.3" font-family="Times,serif" font-size="14.00" fill="#000000">Bottaro Law Firm: 41.8077,&#45;71.4068</text>
</g>
<!-- Bottaro Law Firm: 41.8077,&#45;71.4068&#45;&gt;Marasco &amp; Nesselbush: 41.8187,&#45;71.4198 -->
<g id="edge16" class="edge">
<title>Bottaro Law Firm: 41.8077,&#45;71.4068&#45;&gt;Marasco &amp; Nesselbush: 41.8187,&#45;71.4198</title>
<path fill="none" stroke="#ffe4c4" d="M754.1118,-375.8314C747.247,-367.454 738.9699,-357.3531 731.4489,-348.1749"/>
<polygon fill="#ffe4c4" stroke="#ffe4c4" points="734.1341,-345.9297 725.0886,-340.4133 728.7197,-350.3665 734.1341,-345.9297"/>
</g>
<!-- Social Security Law Ofc of Michael J Gadoury Atty: 41.8387,&#45;71.4427 -->
<g id="node19" class="node">
<title>Social Security Law Ofc of Michael J Gadoury Atty: 41.8387,&#45;71.4427</title>
<ellipse fill="none" stroke="#000000" cx="1154" cy="-322" rx="264.5531" ry="18"/>
<text text-anchor="middle" x="1154" y="-318.3" font-family="Times,serif" font-size="14.00" fill="#000000">Social Security Law Ofc of Michael J Gadoury Atty: 41.8387,&#45;71.4427</text>
</g>
<!-- The Law Offices of James T Marasco: 41.8369,&#45;71.4315 -->
<g id="node20" class="node">
<title>The Law Offices of James T Marasco: 41.8369,&#45;71.4315</title>
<ellipse fill="none" stroke="#000000" cx="1154" cy="-250" rx="213.6622" ry="18"/>
<text text-anchor="middle" x="1154" y="-246.3" font-family="Times,serif" font-size="14.00" fill="#000000">The Law Offices of James T Marasco: 41.8369,&#45;71.4315</text>
</g>
<!-- Social Security Law Ofc of Michael J Gadoury Atty: 41.8387,&#45;71.4427&#45;&gt;The Law Offices of James T Marasco: 41.8369,&#45;71.4315 -->
<g id="edge17" class="edge">
<title>Social Security Law Ofc of Michael J Gadoury Atty: 41.8387,&#45;71.4427&#45;&gt;The Law Offices of James T Marasco: 41.8369,&#45;71.4315</title>
<path fill="none" stroke="#000000" d="M1154,-303.8314C1154,-296.131 1154,-286.9743 1154,-278.4166"/>
<polygon fill="#000000" stroke="#000000" points="1157.5001,-278.4132 1154,-268.4133 1150.5001,-278.4133 1157.5001,-278.4132"/>
</g>
<!-- Law Office of John R Grasso: 41.8243,&#45;71.4086 -->
<g id="node21" class="node">
<title>Law Office of John R Grasso: 41.8243,&#45;71.4086</title>
<ellipse fill="none" stroke="#000000" cx="1555" cy="-178" rx="182.7677" ry="18"/>
<text text-anchor="middle" x="1555" y="-174.3" font-family="Times,serif" font-size="14.00" fill="#000000">Law Office of John R Grasso: 41.8243,&#45;71.4086</text>
</g>
<!-- Lafazia Jeanne E Lwyr: 41.8241,&#45;71.4092 -->
<g id="node22" class="node">
<title>Lafazia Jeanne E Lwyr: 41.8241,&#45;71.4092</title>
<ellipse fill="none" stroke="#000000" cx="1555" cy="-106" rx="160.5715" ry="18"/>
<text text-anchor="middle" x="1555" y="-102.3" font-family="Times,serif" font-size="14.00" fill="#000000">Lafazia Jeanne E Lwyr: 41.8241,&#45;71.4092</text>
</g>
<!-- Law Office of John R Grasso: 41.8243,&#45;71.4086&#45;&gt;Lafazia Jeanne E Lwyr: 41.8241,&#45;71.4092 -->
<g id="edge18" class="edge">
<title>Law Office of John R Grasso: 41.8243,&#45;71.4086&#45;&gt;Lafazia Jeanne E Lwyr: 41.8241,&#45;71.4092</title>
<path fill="none" stroke="#8a2be2" d="M1555,-159.8314C1555,-152.131 1555,-142.9743 1555,-134.4166"/>
<polygon fill="#8a2be2" stroke="#8a2be2" points="1558.5001,-134.4132 1555,-124.4133 1551.5001,-134.4133 1558.5001,-134.4132"/>
</g>
<!-- Law Office of Jason Knight: 41.8247,&#45;71.41 -->
<g id="node23" class="node">
<title>Law Office of Jason Knight: 41.8247,&#45;71.41</title>
<ellipse fill="none" stroke="#000000" cx="1555" cy="-250" rx="168.97" ry="18"/>
<text text-anchor="middle" x="1555" y="-246.3" font-family="Times,serif" font-size="14.00" fill="#000000">Law Office of Jason Knight: 41.8247,&#45;71.41</text>
</g>
<!-- Law Office of Jason Knight: 41.8247,&#45;71.41&#45;&gt;Law Office of John R Grasso: 41.8243,&#45;71.4086 -->
<g id="edge19" class="edge">
<title>Law Office of Jason Knight: 41.8247,&#45;71.41&#45;&gt;Law Office of John R Grasso: 41.8243,&#45;71.4086</title>
<path fill="none" stroke="#0000ff" d="M1555,-231.8314C1555,-224.131 1555,-214.9743 1555,-206.4166"/>
<polygon fill="#0000ff" stroke="#0000ff" points="1558.5001,-206.4132 1555,-196.4133 1551.5001,-206.4133 1558.5001,-206.4132"/>
</g>
<!-- Law Offices of Ronald C Markoff: 41.8294,&#45;71.3874 -->
<g id="node24" class="node">
<title>Law Offices of Ronald C Markoff: 41.8294,&#45;71.3874</title>
<ellipse fill="none" stroke="#000000" cx="1637" cy="-322" rx="200.3646" ry="18"/>
<text text-anchor="middle" x="1637" y="-318.3" font-family="Times,serif" font-size="14.00" fill="#000000">Law Offices of Ronald C Markoff: 41.8294,&#45;71.3874</text>
</g>
<!-- Law Offices of Ronald C Markoff: 41.8294,&#45;71.3874&#45;&gt;Law Office of Jason Knight: 41.8247,&#45;71.41 -->
<g id="edge20" class="edge">
<title>Law Offices of Ronald C Markoff: 41.8294,&#45;71.3874&#45;&gt;Law Office of Jason Knight: 41.8247,&#45;71.41</title>
<path fill="none" stroke="#000000" d="M1616.3079,-303.8314C1606.2288,-294.9814 1593.9592,-284.2081 1583.052,-274.631"/>
<polygon fill="#000000" stroke="#000000" points="1585.2251,-271.8814 1575.4014,-267.9134 1580.6065,-277.1415 1585.2251,-271.8814"/>
</g>
<!-- Louis W. Grande &#45; Personal Injury Lawyer: 41.8349,&#45;71.4245 -->
<g id="node25" class="node">
<title>Louis W. Grande &#45; Personal Injury Lawyer: 41.8349,&#45;71.4245</title>
<ellipse fill="none" stroke="#000000" cx="1973" cy="-250" rx="231.259" ry="18"/>
<text text-anchor="middle" x="1973" y="-246.3" font-family="Times,serif" font-size="14.00" fill="#000000">Louis W. Grande &#45; Personal Injury Lawyer: 41.8349,&#45;71.4245</text>
</g>
<!-- Law Offices of Ronald C Markoff: 41.8294,&#45;71.3874&#45;&gt;Louis W. Grande &#45; Personal Injury Lawyer: 41.8349,&#45;71.4245 -->
<g id="edge21" class="edge">
<title>Law Offices of Ronald C Markoff: 41.8294,&#45;71.3874&#45;&gt;Louis W. Grande &#45; Personal Injury Lawyer: 41.8349,&#45;71.4245</title>
<path fill="none" stroke="#000000" d="M1714.5071,-305.3913C1765.0321,-294.5646 1831.1218,-280.4025 1883.8268,-269.1085"/>
<polygon fill="#000000" stroke="#000000" points="1884.7979,-272.48 1893.8426,-266.9623 1883.3312,-265.6354 1884.7979,-272.48"/>
</g>
<!-- Rob Levine &amp; Associates: 41.845,&#45;71.4285 -->
<g id="node26" class="node">
<title>Rob Levine &amp; Associates: 41.845,&#45;71.4285</title>
<ellipse fill="none" stroke="#000000" cx="1154" cy="-394" rx="165.1707" ry="18"/>
<text text-anchor="middle" x="1154" y="-390.3" font-family="Times,serif" font-size="14.00" fill="#000000">Rob Levine &amp; Associates: 41.845,&#45;71.4285</text>
</g>
<!-- Rob Levine &amp; Associates: 41.845,&#45;71.4285&#45;&gt;Social Security Law Ofc of Michael J Gadoury Atty: 41.8387,&#45;71.4427 -->
<g id="edge22" class="edge">
<title>Rob Levine &amp; Associates: 41.845,&#45;71.4285&#45;&gt;Social Security Law Ofc of Michael J Gadoury Atty: 41.8387,&#45;71.4427</title>
<path fill="none" stroke="#ffe4c4" d="M1154,-375.8314C1154,-368.131 1154,-358.9743 1154,-350.4166"/>
<polygon fill="#ffe4c4" stroke="#ffe4c4" points="1157.5001,-350.4132 1154,-340.4133 1150.5001,-350.4133 1157.5001,-350.4132"/>
</g>
<!-- Rob Levine &amp; Associates: 41.845,&#45;71.4285&#45;&gt;Law Offices of Ronald C Markoff: 41.8294,&#45;71.3874 -->
<g id="edge23" class="edge">
<title>Rob Levine &amp; Associates: 41.845,&#45;71.4285&#45;&gt;Law Offices of Ronald C Markoff: 41.8294,&#45;71.3874</title>
<path fill="none" stroke="#ffe4c4" d="M1251.7423,-379.4297C1330.413,-367.7024 1441.0843,-351.2048 1523.6365,-338.8989"/>
<polygon fill="#ffe4c4" stroke="#ffe4c4" points="1524.1857,-342.3558 1533.5604,-337.4196 1523.1536,-335.4323 1524.1857,-342.3558"/>
</g>
<!-- Law Offices of Ronald J. Resmini: 41.8235,&#45;71.4066 -->
<g id="node27" class="node">
<title>Law Offices of Ronald J. Resmini: 41.8235,&#45;71.4066</title>
<ellipse fill="none" stroke="#000000" cx="991" cy="-466" rx="200.3646" ry="18"/>
<text text-anchor="middle" x="991" y="-462.3" font-family="Times,serif" font-size="14.00" fill="#000000">Law Offices of Ronald J. Resmini: 41.8235,&#45;71.4066</text>
</g>
<!-- Law Offices of Ronald J. Resmini: 41.8235,&#45;71.4066&#45;&gt;Bottaro Law Firm: 41.8077,&#45;71.4068 -->
<g id="edge24" class="edge">
<title>Law Offices of Ronald J. Resmini: 41.8235,&#45;71.4066&#45;&gt;Bottaro Law Firm: 41.8077,&#45;71.4068</title>
<path fill="none" stroke="#7fffd4" d="M937.26,-448.5708C905.1416,-438.154 864.2152,-424.8806 830.768,-414.0329"/>
<polygon fill="#7fffd4" stroke="#7fffd4" points="831.6894,-410.6523 821.0973,-410.8964 829.5298,-417.3108 831.6894,-410.6523"/>
</g>
<!-- Law Offices of Ronald J. Resmini: 41.8235,&#45;71.4066&#45;&gt;Rob Levine &amp; Associates: 41.845,&#45;71.4285 -->
<g id="edge25" class="edge">
<title>Law Offices of Ronald J. Resmini: 41.8235,&#45;71.4066&#45;&gt;Rob Levine &amp; Associates: 41.845,&#45;71.4285</title>
<path fill="none" stroke="#7fffd4" d="M1031.2921,-448.2022C1053.4984,-438.3933 1081.2435,-426.1378 1104.7312,-415.7629"/>
<polygon fill="#7fffd4" stroke="#7fffd4" points="1106.4382,-418.8352 1114.1713,-411.593 1103.6098,-412.4321 1106.4382,-418.8352"/>
</g>
</g>
</svg>
