<?xml version="1.0" encoding="UTF-8" standalone="no"?>
<!DOCTYPE svg PUBLIC "-//W3C//DTD SVG 1.1//EN"
 "http://www.w3.org/Graphics/SVG/1.1/DTD/svg11.dtd">
<!-- Generated by graphviz version 2.40.1 (20161225.0304)
 -->
<!-- Title: G Pages: 1 -->
<svg width="1585pt" height="436pt"
 viewBox="0.00 0.00 1585.00 436.00" xmlns="http://www.w3.org/2000/svg" xmlns:xlink="http://www.w3.org/1999/xlink">
<g id="graph0" class="graph" transform="scale(1 1) rotate(0) translate(4 432)">
<title>G</title>
<polygon fill="#ffffff" stroke="transparent" points="-4,4 -4,-432 1581,-432 1581,4 -4,4"/>
<g id="clust1" class="cluster">
<title>cluster_0</title>
<polygon fill="none" stroke="#000000" points="8,-8 8,-420 92,-420 92,-8 8,-8"/>
</g>
<g id="clust2" class="cluster">
<title>cluster_1</title>
<polygon fill="none" stroke="#000000" points="100,-8 100,-420 1569,-420 1569,-8 100,-8"/>
</g>
<!-- root: x -->
<g id="node1" class="node">
<title>root: x</title>
<ellipse fill="none" stroke="#000000" cx="50" cy="-394" rx="34.394" ry="18"/>
<text text-anchor="middle" x="50" y="-390.3" font-family="Times,serif" font-size="14.00" fill="#000000">root: x</text>
</g>
<!-- 1:y -->
<g id="node2" class="node">
<title>1:y</title>
<ellipse fill="none" stroke="#000000" cx="50" cy="-322" rx="27" ry="18"/>
<text text-anchor="middle" x="50" y="-318.3" font-family="Times,serif" font-size="14.00" fill="#000000">1:y</text>
</g>
<!-- root: x&#45;&gt;1:y -->
<g id="edge1" class="edge">
<title>root: x&#45;&gt;1:y</title>
<path fill="none" stroke="#000000" d="M50,-375.8314C50,-368.131 50,-358.9743 50,-350.4166"/>
<polygon fill="#000000" stroke="#000000" points="53.5001,-350.4132 50,-340.4133 46.5001,-350.4133 53.5001,-350.4132"/>
</g>
<!-- 2:x -->
<g id="node3" class="node">
<title>2:x</title>
<ellipse fill="none" stroke="#000000" cx="50" cy="-250" rx="27" ry="18"/>
<text text-anchor="middle" x="50" y="-246.3" font-family="Times,serif" font-size="14.00" fill="#000000">2:x</text>
</g>
<!-- 1:y&#45;&gt;2:x -->
<g id="edge2" class="edge">
<title>1:y&#45;&gt;2:x</title>
<path fill="none" stroke="#000000" d="M50,-303.8314C50,-296.131 50,-286.9743 50,-278.4166"/>
<polygon fill="#000000" stroke="#000000" points="53.5001,-278.4132 50,-268.4133 46.5001,-278.4133 53.5001,-278.4132"/>
</g>
<!-- 3:y -->
<g id="node4" class="node">
<title>3:y</title>
<ellipse fill="none" stroke="#000000" cx="50" cy="-178" rx="27" ry="18"/>
<text text-anchor="middle" x="50" y="-174.3" font-family="Times,serif" font-size="14.00" fill="#000000">3:y</text>
</g>
<!-- 2:x&#45;&gt;3:y -->
<g id="edge3" class="edge">
<title>2:x&#45;&gt;3:y</title>
<path fill="none" stroke="#000000" d="M50,-231.8314C50,-224.131 50,-214.9743 50,-206.4166"/>
<polygon fill="#000000" stroke="#000000" points="53.5001,-206.4132 50,-196.4133 46.5001,-206.4133 53.5001,-206.4132"/>
</g>
<!-- 4:x -->
<g id="node5" class="node">
<title>4:x</title>
<ellipse fill="none" stroke="#000000" cx="50" cy="-106" rx="27" ry="18"/>
<text text-anchor="middle" x="50" y="-102.3" font-family="Times,serif" font-size="14.00" fill="#000000">4:x</text>
</g>
<!-- 3:y&#45;&gt;4:x -->
<g id="edge4" class="edge">
<title>3:y&#45;&gt;4:x</title>
<path fill="none" stroke="#000000" d="M50,-159.8314C50,-152.131 50,-142.9743 50,-134.4166"/>
<polygon fill="#000000" stroke="#000000" points="53.5001,-134.4132 50,-124.4133 46.5001,-134.4133 53.5001,-134.4132"/>
</g>
<!-- 5:y -->
<g id="node6" class="node">
<title>5:y</title>
<ellipse fill="none" stroke="#000000" cx="50" cy="-34" rx="27" ry="18"/>
<text text-anchor="middle" x="50" y="-30.3" font-family="Times,serif" font-size="14.00" fill="#000000">5:y</text>
</g>
<!-- 4:x&#45;&gt;5:y -->
<g id="edge5" class="edge">
<title>4:x&#45;&gt;5:y</title>
<path fill="none" stroke="#000000" d="M50,-87.8314C50,-80.131 50,-70.9743 50,-62.4166"/>
<polygon fill="#000000" stroke="#000000" points="53.5001,-62.4132 50,-52.4133 46.5001,-62.4133 53.5001,-62.4132"/>
</g>
<!-- City of Cranston: 41.7967,&#45;71.4483 -->
<g id="node7" class="node">
<title>City of Cranston: 41.7967,&#45;71.4483</title>
<ellipse fill="none" stroke="#000000" cx="246" cy="-250" rx="137.5759" ry="18"/>
<text text-anchor="middle" x="246" y="-246.3" font-family="Times,serif" font-size="14.00" fill="#000000">City of Cranston: 41.7967,&#45;71.4483</text>
</g>
<!-- Alarm New England Cape Cod &#45; Camera Security System Monitoring: 41.6887,&#45;70.2105 -->
<g id="node8" class="node">
<title>Alarm New England Cape Cod &#45; Camera Security System Monitoring: 41.6887,&#45;70.2105</title>
<ellipse fill="none" stroke="#000000" cx="437" cy="-178" rx="328.7417" ry="18"/>
<text text-anchor="middle" x="437" y="-174.3" font-family="Times,serif" font-size="14.00" fill="#000000">Alarm New England Cape Cod &#45; Camera Security System Monitoring: 41.6887,&#45;70.2105</text>
</g>
<!-- City of Cranston: 41.7967,&#45;71.4483&#45;&gt;Alarm New England Cape Cod &#45; Camera Security System Monitoring: 41.6887,&#45;70.2105 -->
<g id="edge6" class="edge">
<title>City of Cranston: 41.7967,&#45;71.4483&#45;&gt;Alarm New England Cape Cod &#45; Camera Security System Monitoring: 41.6887,&#45;70.2105</title>
<path fill="none" stroke="#000000" d="M291.2643,-232.937C317.9252,-222.8868 351.8884,-210.084 380.3197,-199.3664"/>
<polygon fill="#000000" stroke="#000000" points="381.6083,-202.6211 389.7309,-195.8187 379.1391,-196.0711 381.6083,-202.6211"/>
</g>
<!-- Rhode Island Division of Motor Vehicles: 41.7474,&#45;71.4686 -->
<g id="node9" class="node">
<title>Rhode Island Division of Motor Vehicles: 41.7474,&#45;71.4686</title>
<ellipse fill="none" stroke="#000000" cx="583" cy="-322" rx="225.56" ry="18"/>
<text text-anchor="middle" x="583" y="-318.3" font-family="Times,serif" font-size="14.00" fill="#000000">Rhode Island Division of Motor Vehicles: 41.7474,&#45;71.4686</text>
</g>
<!-- Rhode Island Division of Motor Vehicles: 41.7474,&#45;71.4686&#45;&gt;City of Cranston: 41.7967,&#45;71.4483 -->
<g id="edge8" class="edge">
<title>Rhode Island Division of Motor Vehicles: 41.7474,&#45;71.4686&#45;&gt;City of Cranston: 41.7967,&#45;71.4483</title>
<path fill="none" stroke="#ffe4c4" d="M503.9885,-305.1192C450.9677,-293.7913 381.2937,-278.9055 327.7185,-267.4591"/>
<polygon fill="#ffe4c4" stroke="#ffe4c4" points="328.4204,-264.0302 317.9098,-265.3635 326.9578,-270.8757 328.4204,-264.0302"/>
</g>
<!-- Metropolitan Public Safety &amp; Security: 41.6858,&#45;71.5239 -->
<g id="node10" class="node">
<title>Metropolitan Public Safety &amp; Security: 41.6858,&#45;71.5239</title>
<ellipse fill="none" stroke="#000000" cx="618" cy="-250" rx="215.5619" ry="18"/>
<text text-anchor="middle" x="618" y="-246.3" font-family="Times,serif" font-size="14.00" fill="#000000">Metropolitan Public Safety &amp; Security: 41.6858,&#45;71.5239</text>
</g>
<!-- Rhode Island Division of Motor Vehicles: 41.7474,&#45;71.4686&#45;&gt;Metropolitan Public Safety &amp; Security: 41.6858,&#45;71.5239 -->
<g id="edge7" class="edge">
<title>Rhode Island Division of Motor Vehicles: 41.7474,&#45;71.4686&#45;&gt;Metropolitan Public Safety &amp; Security: 41.6858,&#45;71.5239</title>
<path fill="none" stroke="#ffe4c4" d="M591.832,-303.8314C595.6986,-295.8771 600.3206,-286.369 604.5968,-277.5723"/>
<polygon fill="#ffe4c4" stroke="#ffe4c4" points="607.8249,-278.9371 609.0491,-268.4133 601.5293,-275.8768 607.8249,-278.9371"/>
</g>
<!-- North Providence Town of: 41.8627,&#45;71.4233 -->
<g id="node11" class="node">
<title>North Providence Town of: 41.8627,&#45;71.4233</title>
<ellipse fill="none" stroke="#000000" cx="956" cy="-106" rx="173.5692" ry="18"/>
<text text-anchor="middle" x="956" y="-102.3" font-family="Times,serif" font-size="14.00" fill="#000000">North Providence Town of: 41.8627,&#45;71.4233</text>
</g>
<!-- Marian J Mohr Library: 41.8305,&#45;71.5024 -->
<g id="node12" class="node">
<title>Marian J Mohr Library: 41.8305,&#45;71.5024</title>
<ellipse fill="none" stroke="#000000" cx="956" cy="-34" rx="161.3716" ry="18"/>
<text text-anchor="middle" x="956" y="-30.3" font-family="Times,serif" font-size="14.00" fill="#000000">Marian J Mohr Library: 41.8305,&#45;71.5024</text>
</g>
<!-- North Providence Town of: 41.8627,&#45;71.4233&#45;&gt;Marian J Mohr Library: 41.8305,&#45;71.5024 -->
<g id="edge9" class="edge">
<title>North Providence Town of: 41.8627,&#45;71.4233&#45;&gt;Marian J Mohr Library: 41.8305,&#45;71.5024</title>
<path fill="none" stroke="#8a2be2" d="M956,-87.8314C956,-80.131 956,-70.9743 956,-62.4166"/>
<polygon fill="#8a2be2" stroke="#8a2be2" points="959.5001,-62.4132 956,-52.4133 952.5001,-62.4133 959.5001,-62.4132"/>
</g>
<!-- Social Security: 41.8216,&#45;71.4164 -->
<g id="node13" class="node">
<title>Social Security: 41.8216,&#45;71.4164</title>
<ellipse fill="none" stroke="#000000" cx="956" cy="-178" rx="131.8766" ry="18"/>
<text text-anchor="middle" x="956" y="-174.3" font-family="Times,serif" font-size="14.00" fill="#000000">Social Security: 41.8216,&#45;71.4164</text>
</g>
<!-- Social Security: 41.8216,&#45;71.4164&#45;&gt;North Providence Town of: 41.8627,&#45;71.4233 -->
<g id="edge10" class="edge">
<title>Social Security: 41.8216,&#45;71.4164&#45;&gt;North Providence Town of: 41.8627,&#45;71.4233</title>
<path fill="none" stroke="#0000ff" d="M956,-159.8314C956,-152.131 956,-142.9743 956,-134.4166"/>
<polygon fill="#0000ff" stroke="#0000ff" points="959.5001,-134.4132 956,-124.4133 952.5001,-134.4133 959.5001,-134.4132"/>
</g>
<!-- City of Providence: 41.8205,&#45;71.4132 -->
<g id="node14" class="node">
<title>City of Providence: 41.8205,&#45;71.4132</title>
<ellipse fill="none" stroke="#000000" cx="997" cy="-250" rx="145.6742" ry="18"/>
<text text-anchor="middle" x="997" y="-246.3" font-family="Times,serif" font-size="14.00" fill="#000000">City of Providence: 41.8205,&#45;71.4132</text>
</g>
<!-- City of Providence: 41.8205,&#45;71.4132&#45;&gt;Social Security: 41.8216,&#45;71.4164 -->
<g id="edge12" class="edge">
<title>City of Providence: 41.8205,&#45;71.4132&#45;&gt;Social Security: 41.8216,&#45;71.4164</title>
<path fill="none" stroke="#000000" d="M986.654,-231.8314C982.0763,-223.7925 976.5948,-214.1666 971.5412,-205.2918"/>
<polygon fill="#000000" stroke="#000000" points="974.4752,-203.3712 966.4853,-196.4133 968.3923,-206.8351 974.4752,-203.3712"/>
</g>
<!-- US Post Office: 41.8168,&#45;71.4461 -->
<g id="node15" class="node">
<title>US Post Office: 41.8168,&#45;71.4461</title>
<ellipse fill="none" stroke="#000000" cx="1238" cy="-178" rx="131.8766" ry="18"/>
<text text-anchor="middle" x="1238" y="-174.3" font-family="Times,serif" font-size="14.00" fill="#000000">US Post Office: 41.8168,&#45;71.4461</text>
</g>
<!-- City of Providence: 41.8205,&#45;71.4132&#45;&gt;US Post Office: 41.8168,&#45;71.4461 -->
<g id="edge11" class="edge">
<title>City of Providence: 41.8205,&#45;71.4132&#45;&gt;US Post Office: 41.8168,&#45;71.4461</title>
<path fill="none" stroke="#000000" d="M1052.896,-233.3008C1088.764,-222.585 1135.4742,-208.6301 1172.9979,-197.4197"/>
<polygon fill="#000000" stroke="#000000" points="1174.2434,-200.7005 1182.8231,-194.4844 1172.2396,-193.9935 1174.2434,-200.7005"/>
</g>
<!-- Providence River Pedestrian Bridge: 41.8216,&#45;71.4055 -->
<g id="node16" class="node">
<title>Providence River Pedestrian Bridge: 41.8216,&#45;71.4055</title>
<ellipse fill="none" stroke="#000000" cx="1032" cy="-322" rx="205.2636" ry="18"/>
<text text-anchor="middle" x="1032" y="-318.3" font-family="Times,serif" font-size="14.00" fill="#000000">Providence River Pedestrian Bridge: 41.8216,&#45;71.4055</text>
</g>
<!-- Providence River Pedestrian Bridge: 41.8216,&#45;71.4055&#45;&gt;City of Providence: 41.8205,&#45;71.4132 -->
<g id="edge13" class="edge">
<title>Providence River Pedestrian Bridge: 41.8216,&#45;71.4055&#45;&gt;City of Providence: 41.8205,&#45;71.4132</title>
<path fill="none" stroke="#ffe4c4" d="M1023.168,-303.8314C1019.3014,-295.8771 1014.6794,-286.369 1010.4032,-277.5723"/>
<polygon fill="#ffe4c4" stroke="#ffe4c4" points="1013.4707,-275.8768 1005.9509,-268.4133 1007.1751,-278.9371 1013.4707,-275.8768"/>
</g>
<!-- East Providence Police Department: 41.8151,&#45;71.353 -->
<g id="node17" class="node">
<title>East Providence Police Department: 41.8151,&#45;71.353</title>
<ellipse fill="none" stroke="#000000" cx="1361" cy="-250" rx="200.3646" ry="18"/>
<text text-anchor="middle" x="1361" y="-246.3" font-family="Times,serif" font-size="14.00" fill="#000000">East Providence Police Department: 41.8151,&#45;71.353</text>
</g>
<!-- Providence River Pedestrian Bridge: 41.8216,&#45;71.4055&#45;&gt;East Providence Police Department: 41.8151,&#45;71.353 -->
<g id="edge14" class="edge">
<title>Providence River Pedestrian Bridge: 41.8216,&#45;71.4055&#45;&gt;East Providence Police Department: 41.8151,&#45;71.353</title>
<path fill="none" stroke="#ffe4c4" d="M1108.7207,-305.2101C1158.4888,-294.3186 1223.4165,-280.1095 1274.9398,-268.8338"/>
<polygon fill="#ffe4c4" stroke="#ffe4c4" points="1275.7065,-272.249 1284.727,-266.692 1274.2099,-265.4108 1275.7065,-272.249"/>
</g>
<!-- Cranston Police Department: 41.8023,&#45;71.442 -->
<g id="node18" class="node">
<title>Cranston Police Department: 41.8023,&#45;71.442</title>
<ellipse fill="none" stroke="#000000" cx="807" cy="-394" rx="174.6691" ry="18"/>
<text text-anchor="middle" x="807" y="-390.3" font-family="Times,serif" font-size="14.00" fill="#000000">Cranston Police Department: 41.8023,&#45;71.442</text>
</g>
<!-- Cranston Police Department: 41.8023,&#45;71.442&#45;&gt;Rhode Island Division of Motor Vehicles: 41.7474,&#45;71.4686 -->
<g id="edge15" class="edge">
<title>Cranston Police Department: 41.8023,&#45;71.442&#45;&gt;Rhode Island Division of Motor Vehicles: 41.7474,&#45;71.4686</title>
<path fill="none" stroke="#7fffd4" d="M753.631,-376.8457C721.7133,-366.5864 680.9485,-353.4834 647.2679,-342.6576"/>
<polygon fill="#7fffd4" stroke="#7fffd4" points="648.1076,-339.2511 637.5163,-339.5231 645.9655,-345.9154 648.1076,-339.2511"/>
</g>
<!-- Cranston Police Department: 41.8023,&#45;71.442&#45;&gt;Providence River Pedestrian Bridge: 41.8216,&#45;71.4055 -->
<g id="edge16" class="edge">
<title>Cranston Police Department: 41.8023,&#45;71.442&#45;&gt;Providence River Pedestrian Bridge: 41.8216,&#45;71.4055</title>
<path fill="none" stroke="#7fffd4" d="M860.6072,-376.8457C892.7857,-366.5486 933.9165,-353.3867 967.8194,-342.5378"/>
<polygon fill="#7fffd4" stroke="#7fffd4" points="969.1749,-345.7789 977.6324,-339.3976 967.0414,-339.112 969.1749,-345.7789"/>
</g>
</g>
</svg>
