<?xml version="1.0" encoding="UTF-8" standalone="no"?>
<!DOCTYPE svg PUBLIC "-//W3C//DTD SVG 1.1//EN"
 "http://www.w3.org/Graphics/SVG/1.1/DTD/svg11.dtd">
<!-- Generated by graphviz version 2.40.1 (20161225.0304)
 -->
<!-- Title: G Pages: 1 -->
<svg width="1804pt" height="508pt"
 viewBox="0.00 0.00 1804.00 508.00" xmlns="http://www.w3.org/2000/svg" xmlns:xlink="http://www.w3.org/1999/xlink">
<g id="graph0" class="graph" transform="scale(1 1) rotate(0) translate(4 504)">
<title>G</title>
<polygon fill="#ffffff" stroke="transparent" points="-4,4 -4,-504 1800,-504 1800,4 -4,4"/>
<g id="clust1" class="cluster">
<title>cluster_0</title>
<polygon fill="none" stroke="#000000" points="8,-8 8,-492 92,-492 92,-8 8,-8"/>
</g>
<g id="clust2" class="cluster">
<title>cluster_1</title>
<polygon fill="none" stroke="#000000" points="100,-8 100,-492 1788,-492 1788,-8 100,-8"/>
</g>
<!-- root: x -->
<g id="node1" class="node">
<title>root: x</title>
<ellipse fill="none" stroke="#000000" cx="50" cy="-466" rx="34.394" ry="18"/>
<text text-anchor="middle" x="50" y="-462.3" font-family="Times,serif" font-size="14.00" fill="#000000">root: x</text>
</g>
<!-- 1:y -->
<g id="node2" class="node">
<title>1:y</title>
<ellipse fill="none" stroke="#000000" cx="50" cy="-394" rx="27" ry="18"/>
<text text-anchor="middle" x="50" y="-390.3" font-family="Times,serif" font-size="14.00" fill="#000000">1:y</text>
</g>
<!-- root: x&#45;&gt;1:y -->
<g id="edge1" class="edge">
<title>root: x&#45;&gt;1:y</title>
<path fill="none" stroke="#000000" d="M50,-447.8314C50,-440.131 50,-430.9743 50,-422.4166"/>
<polygon fill="#000000" stroke="#000000" points="53.5001,-422.4132 50,-412.4133 46.5001,-422.4133 53.5001,-422.4132"/>
</g>
<!-- 2:x -->
<g id="node3" class="node">
<title>2:x</title>
<ellipse fill="none" stroke="#000000" cx="50" cy="-322" rx="27" ry="18"/>
<text text-anchor="middle" x="50" y="-318.3" font-family="Times,serif" font-size="14.00" fill="#000000">2:x</text>
</g>
<!-- 1:y&#45;&gt;2:x -->
<g id="edge2" class="edge">
<title>1:y&#45;&gt;2:x</title>
<path fill="none" stroke="#000000" d="M50,-375.8314C50,-368.131 50,-358.9743 50,-350.4166"/>
<polygon fill="#000000" stroke="#000000" points="53.5001,-350.4132 50,-340.4133 46.5001,-350.4133 53.5001,-350.4132"/>
</g>
<!-- 3:y -->
<g id="node4" class="node">
<title>3:y</title>
<ellipse fill="none" stroke="#000000" cx="50" cy="-250" rx="27" ry="18"/>
<text text-anchor="middle" x="50" y="-246.3" font-family="Times,serif" font-size="14.00" fill="#000000">3:y</text>
</g>
<!-- 2:x&#45;&gt;3:y -->
<g id="edge3" class="edge">
<title>2:x&#45;&gt;3:y</title>
<path fill="none" stroke="#000000" d="M50,-303.8314C50,-296.131 50,-286.9743 50,-278.4166"/>
<polygon fill="#000000" stroke="#000000" points="53.5001,-278.4132 50,-268.4133 46.5001,-278.4133 53.5001,-278.4132"/>
</g>
<!-- 4:x -->
<g id="node5" class="node">
<title>4:x</title>
<ellipse fill="none" stroke="#000000" cx="50" cy="-178" rx="27" ry="18"/>
<text text-anchor="middle" x="50" y="-174.3" font-family="Times,serif" font-size="14.00" fill="#000000">4:x</text>
</g>
<!-- 3:y&#45;&gt;4:x -->
<g id="edge4" class="edge">
<title>3:y&#45;&gt;4:x</title>
<path fill="none" stroke="#000000" d="M50,-231.8314C50,-224.131 50,-214.9743 50,-206.4166"/>
<polygon fill="#000000" stroke="#000000" points="53.5001,-206.4132 50,-196.4133 46.5001,-206.4133 53.5001,-206.4132"/>
</g>
<!-- 5:y -->
<g id="node6" class="node">
<title>5:y</title>
<ellipse fill="none" stroke="#000000" cx="50" cy="-106" rx="27" ry="18"/>
<text text-anchor="middle" x="50" y="-102.3" font-family="Times,serif" font-size="14.00" fill="#000000">5:y</text>
</g>
<!-- 4:x&#45;&gt;5:y -->
<g id="edge5" class="edge">
<title>4:x&#45;&gt;5:y</title>
<path fill="none" stroke="#000000" d="M50,-159.8314C50,-152.131 50,-142.9743 50,-134.4166"/>
<polygon fill="#000000" stroke="#000000" points="53.5001,-134.4132 50,-124.4133 46.5001,-134.4133 53.5001,-134.4132"/>
</g>
<!-- 6:x -->
<g id="node7" class="node">
<title>6:x</title>
<ellipse fill="none" stroke="#000000" cx="50" cy="-34" rx="27" ry="18"/>
<text text-anchor="middle" x="50" y="-30.3" font-family="Times,serif" font-size="14.00" fill="#000000">6:x</text>
</g>
<!-- 5:y&#45;&gt;6:x -->
<g id="edge6" class="edge">
<title>5:y&#45;&gt;6:x</title>
<path fill="none" stroke="#000000" d="M50,-87.8314C50,-80.131 50,-70.9743 50,-62.4166"/>
<polygon fill="#000000" stroke="#000000" points="53.5001,-62.4132 50,-52.4133 46.5001,-62.4133 53.5001,-62.4132"/>
</g>
<!-- Texas Roadhouse: 41.7993,&#45;71.442 -->
<g id="node8" class="node">
<title>Texas Roadhouse: 41.7993,&#45;71.442</title>
<ellipse fill="none" stroke="#000000" cx="252" cy="-106" rx="136.4758" ry="18"/>
<text text-anchor="middle" x="252" y="-102.3" font-family="Times,serif" font-size="14.00" fill="#000000">Texas Roadhouse: 41.7993,&#45;71.442</text>
</g>
<!-- Nicks On Broadway: 41.8185,&#45;71.4348 -->
<g id="node9" class="node">
<title>Nicks On Broadway: 41.8185,&#45;71.4348</title>
<ellipse fill="none" stroke="#000000" cx="259" cy="-34" rx="150.5735" ry="18"/>
<text text-anchor="middle" x="259" y="-30.3" font-family="Times,serif" font-size="14.00" fill="#000000">Nicks On Broadway: 41.8185,&#45;71.4348</text>
</g>
<!-- Texas Roadhouse: 41.7993,&#45;71.442&#45;&gt;Nicks On Broadway: 41.8185,&#45;71.4348 -->
<g id="edge7" class="edge">
<title>Texas Roadhouse: 41.7993,&#45;71.442&#45;&gt;Nicks On Broadway: 41.8185,&#45;71.4348</title>
<path fill="none" stroke="#a52a2a" d="M253.7664,-87.8314C254.515,-80.131 255.4053,-70.9743 256.2373,-62.4166"/>
<polygon fill="#a52a2a" stroke="#a52a2a" points="259.7256,-62.7051 257.2098,-52.4133 252.7585,-62.0276 259.7256,-62.7051"/>
</g>
<!-- Troop PVD: 41.8193,&#45;71.4408 -->
<g id="node10" class="node">
<title>Troop PVD: 41.8193,&#45;71.4408</title>
<ellipse fill="none" stroke="#000000" cx="237" cy="-178" rx="120.4791" ry="18"/>
<text text-anchor="middle" x="237" y="-174.3" font-family="Times,serif" font-size="14.00" fill="#000000">Troop PVD: 41.8193,&#45;71.4408</text>
</g>
<!-- Troop PVD: 41.8193,&#45;71.4408&#45;&gt;Texas Roadhouse: 41.7993,&#45;71.442 -->
<g id="edge8" class="edge">
<title>Troop PVD: 41.8193,&#45;71.4408&#45;&gt;Texas Roadhouse: 41.7993,&#45;71.442</title>
<path fill="none" stroke="#8a2be2" d="M240.7851,-159.8314C242.3894,-152.131 244.297,-142.9743 246.0799,-134.4166"/>
<polygon fill="#8a2be2" stroke="#8a2be2" points="249.5507,-134.9169 248.1639,-124.4133 242.6979,-133.4892 249.5507,-134.9169"/>
</g>
<!-- Julians: 41.82,&#45;71.4284 -->
<g id="node11" class="node">
<title>Julians: 41.82,&#45;71.4284</title>
<ellipse fill="none" stroke="#000000" cx="202" cy="-250" rx="94.4839" ry="18"/>
<text text-anchor="middle" x="202" y="-246.3" font-family="Times,serif" font-size="14.00" fill="#000000">Julians: 41.82,&#45;71.4284</text>
</g>
<!-- Julians: 41.82,&#45;71.4284&#45;&gt;Troop PVD: 41.8193,&#45;71.4408 -->
<g id="edge9" class="edge">
<title>Julians: 41.82,&#45;71.4284&#45;&gt;Troop PVD: 41.8193,&#45;71.4408</title>
<path fill="none" stroke="#0000ff" d="M210.832,-231.8314C214.6986,-223.8771 219.3206,-214.369 223.5968,-205.5723"/>
<polygon fill="#0000ff" stroke="#0000ff" points="226.8249,-206.9371 228.0491,-196.4133 220.5293,-203.8768 226.8249,-206.9371"/>
</g>
<!-- Federal Taphouse &amp; Kitchen: 41.8238,&#45;71.4273 -->
<g id="node12" class="node">
<title>Federal Taphouse &amp; Kitchen: 41.8238,&#45;71.4273</title>
<ellipse fill="none" stroke="#000000" cx="444" cy="-322" rx="181.168" ry="18"/>
<text text-anchor="middle" x="444" y="-318.3" font-family="Times,serif" font-size="14.00" fill="#000000">Federal Taphouse &amp; Kitchen: 41.8238,&#45;71.4273</text>
</g>
<!-- Federal Taphouse &amp; Kitchen: 41.8238,&#45;71.4273&#45;&gt;Julians: 41.82,&#45;71.4284 -->
<g id="edge10" class="edge">
<title>Federal Taphouse &amp; Kitchen: 41.8238,&#45;71.4273&#45;&gt;Julians: 41.82,&#45;71.4284</title>
<path fill="none" stroke="#000000" d="M386.3424,-304.8457C349.1256,-293.7729 300.7748,-279.3875 262.9292,-268.1277"/>
<polygon fill="#000000" stroke="#000000" points="263.6334,-264.6856 253.0505,-265.1886 261.6372,-271.395 263.6334,-264.6856"/>
</g>
<!-- Capri Seafood: 41.8241,&#45;71.4268 -->
<g id="node13" class="node">
<title>Capri Seafood: 41.8241,&#45;71.4268</title>
<ellipse fill="none" stroke="#000000" cx="444" cy="-250" rx="129.1772" ry="18"/>
<text text-anchor="middle" x="444" y="-246.3" font-family="Times,serif" font-size="14.00" fill="#000000">Capri Seafood: 41.8241,&#45;71.4268</text>
</g>
<!-- Federal Taphouse &amp; Kitchen: 41.8238,&#45;71.4273&#45;&gt;Capri Seafood: 41.8241,&#45;71.4268 -->
<g id="edge11" class="edge">
<title>Federal Taphouse &amp; Kitchen: 41.8238,&#45;71.4273&#45;&gt;Capri Seafood: 41.8241,&#45;71.4268</title>
<path fill="none" stroke="#000000" d="M444,-303.8314C444,-296.131 444,-286.9743 444,-278.4166"/>
<polygon fill="#000000" stroke="#000000" points="447.5001,-278.4132 444,-268.4133 440.5001,-278.4133 447.5001,-278.4132"/>
</g>
<!-- Gracie&#39;s: 41.822,&#45;71.4159 -->
<g id="node14" class="node">
<title>Gracie&#39;s: 41.822,&#45;71.4159</title>
<ellipse fill="none" stroke="#000000" cx="743" cy="-178" rx="102.8821" ry="18"/>
<text text-anchor="middle" x="743" y="-174.3" font-family="Times,serif" font-size="14.00" fill="#000000">Gracie&#39;s: 41.822,&#45;71.4159</text>
</g>
<!-- Camille&#39;s: 41.8228,&#45;71.422 -->
<g id="node15" class="node">
<title>Camille&#39;s: 41.8228,&#45;71.422</title>
<ellipse fill="none" stroke="#000000" cx="743" cy="-106" rx="107.4815" ry="18"/>
<text text-anchor="middle" x="743" y="-102.3" font-family="Times,serif" font-size="14.00" fill="#000000">Camille&#39;s: 41.8228,&#45;71.422</text>
</g>
<!-- Gracie&#39;s: 41.822,&#45;71.4159&#45;&gt;Camille&#39;s: 41.8228,&#45;71.422 -->
<g id="edge12" class="edge">
<title>Gracie&#39;s: 41.822,&#45;71.4159&#45;&gt;Camille&#39;s: 41.8228,&#45;71.422</title>
<path fill="none" stroke="#8a2be2" d="M743,-159.8314C743,-152.131 743,-142.9743 743,-134.4166"/>
<polygon fill="#8a2be2" stroke="#8a2be2" points="746.5001,-134.4132 743,-124.4133 739.5001,-134.4133 746.5001,-134.4132"/>
</g>
<!-- Massimo Restaurant: 41.8231,&#45;71.4224 -->
<g id="node16" class="node">
<title>Massimo Restaurant: 41.8231,&#45;71.4224</title>
<ellipse fill="none" stroke="#000000" cx="743" cy="-250" rx="151.3732" ry="18"/>
<text text-anchor="middle" x="743" y="-246.3" font-family="Times,serif" font-size="14.00" fill="#000000">Massimo Restaurant: 41.8231,&#45;71.4224</text>
</g>
<!-- Massimo Restaurant: 41.8231,&#45;71.4224&#45;&gt;Gracie&#39;s: 41.822,&#45;71.4159 -->
<g id="edge13" class="edge">
<title>Massimo Restaurant: 41.8231,&#45;71.4224&#45;&gt;Gracie&#39;s: 41.822,&#45;71.4159</title>
<path fill="none" stroke="#0000ff" d="M743,-231.8314C743,-224.131 743,-214.9743 743,-206.4166"/>
<polygon fill="#0000ff" stroke="#0000ff" points="746.5001,-206.4132 743,-196.4133 739.5001,-206.4133 746.5001,-206.4132"/>
</g>
<!-- The District: 41.8173,&#45;71.4076 -->
<g id="node17" class="node">
<title>The District: 41.8173,&#45;71.4076</title>
<ellipse fill="none" stroke="#000000" cx="902" cy="-322" rx="120.7786" ry="18"/>
<text text-anchor="middle" x="902" y="-318.3" font-family="Times,serif" font-size="14.00" fill="#000000">The District: 41.8173,&#45;71.4076</text>
</g>
<!-- The District: 41.8173,&#45;71.4076&#45;&gt;Massimo Restaurant: 41.8231,&#45;71.4224 -->
<g id="edge15" class="edge">
<title>The District: 41.8173,&#45;71.4076&#45;&gt;Massimo Restaurant: 41.8231,&#45;71.4224</title>
<path fill="none" stroke="#000000" d="M863.9155,-304.7542C842.033,-294.8451 814.3424,-282.306 790.9832,-271.7282"/>
<polygon fill="#000000" stroke="#000000" points="792.1546,-268.4166 781.6012,-267.4798 789.267,-274.7933 792.1546,-268.4166"/>
</g>
<!-- Al Forno Restaurant: 41.8171,&#45;71.4009 -->
<g id="node18" class="node">
<title>Al Forno Restaurant: 41.8171,&#45;71.4009</title>
<ellipse fill="none" stroke="#000000" cx="1063" cy="-250" rx="150.5735" ry="18"/>
<text text-anchor="middle" x="1063" y="-246.3" font-family="Times,serif" font-size="14.00" fill="#000000">Al Forno Restaurant: 41.8171,&#45;71.4009</text>
</g>
<!-- The District: 41.8173,&#45;71.4076&#45;&gt;Al Forno Restaurant: 41.8171,&#45;71.4009 -->
<g id="edge14" class="edge">
<title>The District: 41.8173,&#45;71.4076&#45;&gt;Al Forno Restaurant: 41.8171,&#45;71.4009</title>
<path fill="none" stroke="#000000" d="M940.5635,-304.7542C962.8198,-294.8011 991.0096,-282.1945 1014.7284,-271.5873"/>
<polygon fill="#000000" stroke="#000000" points="1016.2133,-274.7573 1023.9132,-267.4798 1013.3556,-268.3672 1016.2133,-274.7573"/>
</g>
<!-- Broadway Bistro: 41.8211,&#45;71.4244 -->
<g id="node19" class="node">
<title>Broadway Bistro: 41.8211,&#45;71.4244</title>
<ellipse fill="none" stroke="#000000" cx="902" cy="-394" rx="138.3755" ry="18"/>
<text text-anchor="middle" x="902" y="-390.3" font-family="Times,serif" font-size="14.00" fill="#000000">Broadway Bistro: 41.8211,&#45;71.4244</text>
</g>
<!-- Broadway Bistro: 41.8211,&#45;71.4244&#45;&gt;Federal Taphouse &amp; Kitchen: 41.8238,&#45;71.4273 -->
<g id="edge16" class="edge">
<title>Broadway Bistro: 41.8211,&#45;71.4244&#45;&gt;Federal Taphouse &amp; Kitchen: 41.8238,&#45;71.4273</title>
<path fill="none" stroke="#ffe4c4" d="M813.693,-380.1177C738.7847,-368.3417 631.0842,-351.4106 551.2353,-338.858"/>
<polygon fill="#ffe4c4" stroke="#ffe4c4" points="551.5698,-335.3676 541.1475,-337.2721 550.4826,-342.2827 551.5698,-335.3676"/>
</g>
<!-- Broadway Bistro: 41.8211,&#45;71.4244&#45;&gt;The District: 41.8173,&#45;71.4076 -->
<g id="edge17" class="edge">
<title>Broadway Bistro: 41.8211,&#45;71.4244&#45;&gt;The District: 41.8173,&#45;71.4076</title>
<path fill="none" stroke="#ffe4c4" d="M902,-375.8314C902,-368.131 902,-358.9743 902,-350.4166"/>
<polygon fill="#ffe4c4" stroke="#ffe4c4" points="905.5001,-350.4132 902,-340.4133 898.5001,-350.4133 905.5001,-350.4132"/>
</g>
<!-- Red Stripe: 41.8298,&#45;71.389 -->
<g id="node20" class="node">
<title>Red Stripe: 41.8298,&#45;71.389</title>
<ellipse fill="none" stroke="#000000" cx="1354" cy="-178" rx="111.5806" ry="18"/>
<text text-anchor="middle" x="1354" y="-174.3" font-family="Times,serif" font-size="14.00" fill="#000000">Red Stripe: 41.8298,&#45;71.389</text>
</g>
<!-- The Salted Slate: 41.8291,&#45;71.3884 -->
<g id="node21" class="node">
<title>The Salted Slate: 41.8291,&#45;71.3884</title>
<ellipse fill="none" stroke="#000000" cx="1354" cy="-106" rx="136.4758" ry="18"/>
<text text-anchor="middle" x="1354" y="-102.3" font-family="Times,serif" font-size="14.00" fill="#000000">The Salted Slate: 41.8291,&#45;71.3884</text>
</g>
<!-- Red Stripe: 41.8298,&#45;71.389&#45;&gt;The Salted Slate: 41.8291,&#45;71.3884 -->
<g id="edge18" class="edge">
<title>Red Stripe: 41.8298,&#45;71.389&#45;&gt;The Salted Slate: 41.8291,&#45;71.3884</title>
<path fill="none" stroke="#8a2be2" d="M1354,-159.8314C1354,-152.131 1354,-142.9743 1354,-134.4166"/>
<polygon fill="#8a2be2" stroke="#8a2be2" points="1357.5001,-134.4132 1354,-124.4133 1350.5001,-134.4133 1357.5001,-134.4132"/>
</g>
<!-- Mill&#39;s Tavern: 41.828,&#45;71.4092 -->
<g id="node22" class="node">
<title>Mill&#39;s Tavern: 41.828,&#45;71.4092</title>
<ellipse fill="none" stroke="#000000" cx="1354" cy="-250" rx="122.3786" ry="18"/>
<text text-anchor="middle" x="1354" y="-246.3" font-family="Times,serif" font-size="14.00" fill="#000000">Mill&#39;s Tavern: 41.828,&#45;71.4092</text>
</g>
<!-- Mill&#39;s Tavern: 41.828,&#45;71.4092&#45;&gt;Red Stripe: 41.8298,&#45;71.389 -->
<g id="edge19" class="edge">
<title>Mill&#39;s Tavern: 41.828,&#45;71.4092&#45;&gt;Red Stripe: 41.8298,&#45;71.389</title>
<path fill="none" stroke="#0000ff" d="M1354,-231.8314C1354,-224.131 1354,-214.9743 1354,-206.4166"/>
<polygon fill="#0000ff" stroke="#0000ff" points="1357.5001,-206.4132 1354,-196.4133 1350.5001,-206.4133 1357.5001,-206.4132"/>
</g>
<!-- Waterman Grille: 41.8271,&#45;71.3809 -->
<g id="node23" class="node">
<title>Waterman Grille: 41.8271,&#45;71.3809</title>
<ellipse fill="none" stroke="#000000" cx="1354" cy="-322" rx="139.1754" ry="18"/>
<text text-anchor="middle" x="1354" y="-318.3" font-family="Times,serif" font-size="14.00" fill="#000000">Waterman Grille: 41.8271,&#45;71.3809</text>
</g>
<!-- Waterman Grille: 41.8271,&#45;71.3809&#45;&gt;Mill&#39;s Tavern: 41.828,&#45;71.4092 -->
<g id="edge21" class="edge">
<title>Waterman Grille: 41.8271,&#45;71.3809&#45;&gt;Mill&#39;s Tavern: 41.828,&#45;71.4092</title>
<path fill="none" stroke="#000000" d="M1354,-303.8314C1354,-296.131 1354,-286.9743 1354,-278.4166"/>
<polygon fill="#000000" stroke="#000000" points="1357.5001,-278.4132 1354,-268.4133 1350.5001,-278.4133 1357.5001,-278.4132"/>
</g>
<!-- The Capital Grille: 41.8264,&#45;71.4149 -->
<g id="node24" class="node">
<title>The Capital Grille: 41.8264,&#45;71.4149</title>
<ellipse fill="none" stroke="#000000" cx="1637" cy="-250" rx="142.9746" ry="18"/>
<text text-anchor="middle" x="1637" y="-246.3" font-family="Times,serif" font-size="14.00" fill="#000000">The Capital Grille: 41.8264,&#45;71.4149</text>
</g>
<!-- Waterman Grille: 41.8271,&#45;71.3809&#45;&gt;The Capital Grille: 41.8264,&#45;71.4149 -->
<g id="edge20" class="edge">
<title>Waterman Grille: 41.8271,&#45;71.3809&#45;&gt;The Capital Grille: 41.8264,&#45;71.4149</title>
<path fill="none" stroke="#000000" d="M1417.1585,-305.9314C1460.564,-294.8883 1518.3309,-280.1914 1563.7563,-268.6344"/>
<polygon fill="#000000" stroke="#000000" points="1564.7175,-272.0015 1573.5457,-266.1438 1562.9915,-265.2176 1564.7175,-272.0015"/>
</g>
<!-- Los Andes Restaurant: 41.8332,&#45;71.4372 -->
<g id="node25" class="node">
<title>Los Andes Restaurant: 41.8332,&#45;71.4372</title>
<ellipse fill="none" stroke="#000000" cx="1354" cy="-394" rx="156.7723" ry="18"/>
<text text-anchor="middle" x="1354" y="-390.3" font-family="Times,serif" font-size="14.00" fill="#000000">Los Andes Restaurant: 41.8332,&#45;71.4372</text>
</g>
<!-- Los Andes Restaurant: 41.8332,&#45;71.4372&#45;&gt;Waterman Grille: 41.8271,&#45;71.3809 -->
<g id="edge23" class="edge">
<title>Los Andes Restaurant: 41.8332,&#45;71.4372&#45;&gt;Waterman Grille: 41.8271,&#45;71.3809</title>
<path fill="none" stroke="#ffe4c4" d="M1354,-375.8314C1354,-368.131 1354,-358.9743 1354,-350.4166"/>
<polygon fill="#ffe4c4" stroke="#ffe4c4" points="1357.5001,-350.4132 1354,-340.4133 1350.5001,-350.4133 1357.5001,-350.4132"/>
</g>
<!-- Teddihana: 41.8618,&#45;71.4511 -->
<g id="node26" class="node">
<title>Teddihana: 41.8618,&#45;71.4511</title>
<ellipse fill="none" stroke="#000000" cx="1627" cy="-322" rx="115.8798" ry="18"/>
<text text-anchor="middle" x="1627" y="-318.3" font-family="Times,serif" font-size="14.00" fill="#000000">Teddihana: 41.8618,&#45;71.4511</text>
</g>
<!-- Los Andes Restaurant: 41.8332,&#45;71.4372&#45;&gt;Teddihana: 41.8618,&#45;71.4511 -->
<g id="edge22" class="edge">
<title>Los Andes Restaurant: 41.8332,&#45;71.4372&#45;&gt;Teddihana: 41.8618,&#45;71.4511</title>
<path fill="none" stroke="#ffe4c4" d="M1416.6317,-377.4817C1458.8384,-366.3503 1514.5286,-351.6628 1558.0068,-340.196"/>
<polygon fill="#ffe4c4" stroke="#ffe4c4" points="1559.1557,-343.5128 1567.9325,-337.5782 1557.3706,-336.7442 1559.1557,-343.5128"/>
</g>
<!-- Fleming’s Prime Steakhouse &amp; Wine Bar: 41.8252,&#45;71.4158 -->
<g id="node27" class="node">
<title>Fleming’s Prime Steakhouse &amp; Wine Bar: 41.8252,&#45;71.4158</title>
<ellipse fill="none" stroke="#000000" cx="1197" cy="-466" rx="227.4596" ry="18"/>
<text text-anchor="middle" x="1197" y="-462.3" font-family="Times,serif" font-size="14.00" fill="#000000">Fleming’s Prime Steakhouse &amp; Wine Bar: 41.8252,&#45;71.4158</text>
</g>
<!-- Fleming’s Prime Steakhouse &amp; Wine Bar: 41.8252,&#45;71.4158&#45;&gt;Broadway Bistro: 41.8211,&#45;71.4244 -->
<g id="edge24" class="edge">
<title>Fleming’s Prime Steakhouse &amp; Wine Bar: 41.8252,&#45;71.4158&#45;&gt;Broadway Bistro: 41.8211,&#45;71.4244</title>
<path fill="none" stroke="#7fffd4" d="M1126.7149,-448.8457C1081.6243,-437.8405 1023.1263,-423.563 977.1195,-412.3342"/>
<polygon fill="#7fffd4" stroke="#7fffd4" points="977.7489,-408.8852 967.2042,-409.9142 976.0891,-415.6856 977.7489,-408.8852"/>
</g>
<!-- Fleming’s Prime Steakhouse &amp; Wine Bar: 41.8252,&#45;71.4158&#45;&gt;Los Andes Restaurant: 41.8332,&#45;71.4372 -->
<g id="edge25" class="edge">
<title>Fleming’s Prime Steakhouse &amp; Wine Bar: 41.8252,&#45;71.4158&#45;&gt;Los Andes Restaurant: 41.8332,&#45;71.4372</title>
<path fill="none" stroke="#7fffd4" d="M1235.809,-448.2022C1257.2777,-438.3567 1284.1211,-426.0464 1306.7978,-415.6469"/>
<polygon fill="#7fffd4" stroke="#7fffd4" points="1308.2779,-418.8187 1315.9086,-411.4687 1305.3598,-412.4559 1308.2779,-418.8187"/>
</g>
</g>
</svg>
