<?xml version="1.0" encoding="UTF-8" standalone="no"?>
<!DOCTYPE svg PUBLIC "-//W3C//DTD SVG 1.1//EN"
 "http://www.w3.org/Graphics/SVG/1.1/DTD/svg11.dtd">
<!-- Generated by graphviz version 2.40.1 (20161225.0304)
 -->
<!-- Title: G Pages: 1 -->
<svg width="1814pt" height="580pt"
 viewBox="0.00 0.00 1814.00 580.00" xmlns="http://www.w3.org/2000/svg" xmlns:xlink="http://www.w3.org/1999/xlink">
<g id="graph0" class="graph" transform="scale(1 1) rotate(0) translate(4 576)">
<title>G</title>
<polygon fill="#ffffff" stroke="transparent" points="-4,4 -4,-576 1810,-576 1810,4 -4,4"/>
<g id="clust1" class="cluster">
<title>cluster_0</title>
<polygon fill="none" stroke="#000000" points="8,-8 8,-564 92,-564 92,-8 8,-8"/>
</g>
<g id="clust2" class="cluster">
<title>cluster_1</title>
<polygon fill="none" stroke="#000000" points="100,-8 100,-564 1798,-564 1798,-8 100,-8"/>
</g>
<!-- root: x -->
<g id="node1" class="node">
<title>root: x</title>
<ellipse fill="none" stroke="#000000" cx="50" cy="-538" rx="34.394" ry="18"/>
<text text-anchor="middle" x="50" y="-534.3" font-family="Times,serif" font-size="14.00" fill="#000000">root: x</text>
</g>
<!-- 1:y -->
<g id="node2" class="node">
<title>1:y</title>
<ellipse fill="none" stroke="#000000" cx="50" cy="-466" rx="27" ry="18"/>
<text text-anchor="middle" x="50" y="-462.3" font-family="Times,serif" font-size="14.00" fill="#000000">1:y</text>
</g>
<!-- root: x&#45;&gt;1:y -->
<g id="edge1" class="edge">
<title>root: x&#45;&gt;1:y</title>
<path fill="none" stroke="#000000" d="M50,-519.8314C50,-512.131 50,-502.9743 50,-494.4166"/>
<polygon fill="#000000" stroke="#000000" points="53.5001,-494.4132 50,-484.4133 46.5001,-494.4133 53.5001,-494.4132"/>
</g>
<!-- 2:x -->
<g id="node3" class="node">
<title>2:x</title>
<ellipse fill="none" stroke="#000000" cx="50" cy="-394" rx="27" ry="18"/>
<text text-anchor="middle" x="50" y="-390.3" font-family="Times,serif" font-size="14.00" fill="#000000">2:x</text>
</g>
<!-- 1:y&#45;&gt;2:x -->
<g id="edge2" class="edge">
<title>1:y&#45;&gt;2:x</title>
<path fill="none" stroke="#000000" d="M50,-447.8314C50,-440.131 50,-430.9743 50,-422.4166"/>
<polygon fill="#000000" stroke="#000000" points="53.5001,-422.4132 50,-412.4133 46.5001,-422.4133 53.5001,-422.4132"/>
</g>
<!-- 3:y -->
<g id="node4" class="node">
<title>3:y</title>
<ellipse fill="none" stroke="#000000" cx="50" cy="-322" rx="27" ry="18"/>
<text text-anchor="middle" x="50" y="-318.3" font-family="Times,serif" font-size="14.00" fill="#000000">3:y</text>
</g>
<!-- 2:x&#45;&gt;3:y -->
<g id="edge3" class="edge">
<title>2:x&#45;&gt;3:y</title>
<path fill="none" stroke="#000000" d="M50,-375.8314C50,-368.131 50,-358.9743 50,-350.4166"/>
<polygon fill="#000000" stroke="#000000" points="53.5001,-350.4132 50,-340.4133 46.5001,-350.4133 53.5001,-350.4132"/>
</g>
<!-- 4:x -->
<g id="node5" class="node">
<title>4:x</title>
<ellipse fill="none" stroke="#000000" cx="50" cy="-250" rx="27" ry="18"/>
<text text-anchor="middle" x="50" y="-246.3" font-family="Times,serif" font-size="14.00" fill="#000000">4:x</text>
</g>
<!-- 3:y&#45;&gt;4:x -->
<g id="edge4" class="edge">
<title>3:y&#45;&gt;4:x</title>
<path fill="none" stroke="#000000" d="M50,-303.8314C50,-296.131 50,-286.9743 50,-278.4166"/>
<polygon fill="#000000" stroke="#000000" points="53.5001,-278.4132 50,-268.4133 46.5001,-278.4133 53.5001,-278.4132"/>
</g>
<!-- 5:y -->
<g id="node6" class="node">
<title>5:y</title>
<ellipse fill="none" stroke="#000000" cx="50" cy="-178" rx="27" ry="18"/>
<text text-anchor="middle" x="50" y="-174.3" font-family="Times,serif" font-size="14.00" fill="#000000">5:y</text>
</g>
<!-- 4:x&#45;&gt;5:y -->
<g id="edge5" class="edge">
<title>4:x&#45;&gt;5:y</title>
<path fill="none" stroke="#000000" d="M50,-231.8314C50,-224.131 50,-214.9743 50,-206.4166"/>
<polygon fill="#000000" stroke="#000000" points="53.5001,-206.4132 50,-196.4133 46.5001,-206.4133 53.5001,-206.4132"/>
</g>
<!-- 6:x -->
<g id="node7" class="node">
<title>6:x</title>
<ellipse fill="none" stroke="#000000" cx="50" cy="-106" rx="27" ry="18"/>
<text text-anchor="middle" x="50" y="-102.3" font-family="Times,serif" font-size="14.00" fill="#000000">6:x</text>
</g>
<!-- 5:y&#45;&gt;6:x -->
<g id="edge6" class="edge">
<title>5:y&#45;&gt;6:x</title>
<path fill="none" stroke="#000000" d="M50,-159.8314C50,-152.131 50,-142.9743 50,-134.4166"/>
<polygon fill="#000000" stroke="#000000" points="53.5001,-134.4132 50,-124.4133 46.5001,-134.4133 53.5001,-134.4132"/>
</g>
<!-- 7:y -->
<g id="node8" class="node">
<title>7:y</title>
<ellipse fill="none" stroke="#000000" cx="50" cy="-34" rx="27" ry="18"/>
<text text-anchor="middle" x="50" y="-30.3" font-family="Times,serif" font-size="14.00" fill="#000000">7:y</text>
</g>
<!-- 6:x&#45;&gt;7:y -->
<g id="edge7" class="edge">
<title>6:x&#45;&gt;7:y</title>
<path fill="none" stroke="#000000" d="M50,-87.8314C50,-80.131 50,-70.9743 50,-62.4166"/>
<polygon fill="#000000" stroke="#000000" points="53.5001,-62.4132 50,-52.4133 46.5001,-62.4133 53.5001,-62.4132"/>
</g>
<!-- The Park Theatre: 41.7789,&#45;71.4361 -->
<g id="node9" class="node">
<title>The Park Theatre: 41.7789,&#45;71.4361</title>
<ellipse fill="none" stroke="#000000" cx="343" cy="-394" rx="139.9756" ry="18"/>
<text text-anchor="middle" x="343" y="-390.3" font-family="Times,serif" font-size="14.00" fill="#000000">The Park Theatre: 41.7789,&#45;71.4361</text>
</g>
<!-- Artists&#39; Exchange: 41.7771,&#45;71.4363 -->
<g id="node10" class="node">
<title>Artists&#39; Exchange: 41.7771,&#45;71.4363</title>
<ellipse fill="none" stroke="#000000" cx="248" cy="-322" rx="140.2752" ry="18"/>
<text text-anchor="middle" x="248" y="-318.3" font-family="Times,serif" font-size="14.00" fill="#000000">Artists&#39; Exchange: 41.7771,&#45;71.4363</text>
</g>
<!-- The Park Theatre: 41.7789,&#45;71.4361&#45;&gt;Artists&#39; Exchange: 41.7771,&#45;71.4363 -->
<g id="edge8" class="edge">
<title>The Park Theatre: 41.7789,&#45;71.4361&#45;&gt;Artists&#39; Exchange: 41.7771,&#45;71.4363</title>
<path fill="none" stroke="#000000" d="M319.5168,-376.2022C307.5275,-367.1156 292.7679,-355.9294 279.7769,-346.0836"/>
<polygon fill="#000000" stroke="#000000" points="281.626,-343.0934 271.5422,-339.8425 277.3979,-348.6722 281.626,-343.0934"/>
</g>
<!-- Pell Chafee Performance Center: 41.8216,&#45;71.4162 -->
<g id="node11" class="node">
<title>Pell Chafee Performance Center: 41.8216,&#45;71.4162</title>
<ellipse fill="none" stroke="#000000" cx="575" cy="-106" rx="193.0657" ry="18"/>
<text text-anchor="middle" x="575" y="-102.3" font-family="Times,serif" font-size="14.00" fill="#000000">Pell Chafee Performance Center: 41.8216,&#45;71.4162</text>
</g>
<!-- Ultimate Home Theater: 41.8214,&#45;71.4113 -->
<g id="node12" class="node">
<title>Ultimate Home Theater: 41.8214,&#45;71.4113</title>
<ellipse fill="none" stroke="#000000" cx="423" cy="-34" rx="163.2712" ry="18"/>
<text text-anchor="middle" x="423" y="-30.3" font-family="Times,serif" font-size="14.00" fill="#000000">Ultimate Home Theater: 41.8214,&#45;71.4113</text>
</g>
<!-- Pell Chafee Performance Center: 41.8216,&#45;71.4162&#45;&gt;Ultimate Home Theater: 41.8214,&#45;71.4113 -->
<g id="edge9" class="edge">
<title>Pell Chafee Performance Center: 41.8216,&#45;71.4162&#45;&gt;Ultimate Home Theater: 41.8214,&#45;71.4113</title>
<path fill="none" stroke="#deb887" d="M537.427,-88.2022C516.8113,-78.4369 491.0764,-66.2467 469.2362,-55.9014"/>
<polygon fill="#deb887" stroke="#deb887" points="470.6765,-52.7109 460.1408,-51.593 467.6799,-59.037 470.6765,-52.7109"/>
</g>
<!-- Improv Jones: 41.8216,&#45;71.4159 -->
<g id="node13" class="node">
<title>Improv Jones: 41.8216,&#45;71.4159</title>
<ellipse fill="none" stroke="#000000" cx="731" cy="-34" rx="126.978" ry="18"/>
<text text-anchor="middle" x="731" y="-30.3" font-family="Times,serif" font-size="14.00" fill="#000000">Improv Jones: 41.8216,&#45;71.4159</text>
</g>
<!-- Pell Chafee Performance Center: 41.8216,&#45;71.4162&#45;&gt;Improv Jones: 41.8216,&#45;71.4159 -->
<g id="edge10" class="edge">
<title>Pell Chafee Performance Center: 41.8216,&#45;71.4162&#45;&gt;Improv Jones: 41.8216,&#45;71.4159</title>
<path fill="none" stroke="#deb887" d="M613.5618,-88.2022C635.0523,-78.2835 661.9631,-65.8632 684.6004,-55.4152"/>
<polygon fill="#deb887" stroke="#deb887" points="686.0755,-58.5893 693.6883,-51.2208 683.142,-52.2335 686.0755,-58.5893"/>
</g>
<!-- Players: 41.8205,&#45;71.402 -->
<g id="node14" class="node">
<title>Players: 41.8205,&#45;71.402</title>
<ellipse fill="none" stroke="#000000" cx="575" cy="-178" rx="100.1823" ry="18"/>
<text text-anchor="middle" x="575" y="-174.3" font-family="Times,serif" font-size="14.00" fill="#000000">Players: 41.8205,&#45;71.402</text>
</g>
<!-- Players: 41.8205,&#45;71.402&#45;&gt;Pell Chafee Performance Center: 41.8216,&#45;71.4162 -->
<g id="edge11" class="edge">
<title>Players: 41.8205,&#45;71.402&#45;&gt;Pell Chafee Performance Center: 41.8216,&#45;71.4162</title>
<path fill="none" stroke="#a52a2a" d="M575,-159.8314C575,-152.131 575,-142.9743 575,-134.4166"/>
<polygon fill="#a52a2a" stroke="#a52a2a" points="578.5001,-134.4132 575,-124.4133 571.5001,-134.4133 578.5001,-134.4132"/>
</g>
<!-- Showcase Cinemas Seekonk Route 6: 41.7971,&#45;71.3231 -->
<g id="node15" class="node">
<title>Showcase Cinemas Seekonk Route 6: 41.7971,&#45;71.3231</title>
<ellipse fill="none" stroke="#000000" cx="575" cy="-250" rx="209.8628" ry="18"/>
<text text-anchor="middle" x="575" y="-246.3" font-family="Times,serif" font-size="14.00" fill="#000000">Showcase Cinemas Seekonk Route 6: 41.7971,&#45;71.3231</text>
</g>
<!-- Showcase Cinemas Seekonk Route 6: 41.7971,&#45;71.3231&#45;&gt;Players: 41.8205,&#45;71.402 -->
<g id="edge12" class="edge">
<title>Showcase Cinemas Seekonk Route 6: 41.7971,&#45;71.3231&#45;&gt;Players: 41.8205,&#45;71.402</title>
<path fill="none" stroke="#8a2be2" d="M575,-231.8314C575,-224.131 575,-214.9743 575,-206.4166"/>
<polygon fill="#8a2be2" stroke="#8a2be2" points="578.5001,-206.4132 575,-196.4133 571.5001,-206.4133 578.5001,-206.4132"/>
</g>
<!-- Providence Improv Guild: 41.8129,&#45;71.4223 -->
<g id="node16" class="node">
<title>Providence Improv Guild: 41.8129,&#45;71.4223</title>
<ellipse fill="none" stroke="#000000" cx="575" cy="-322" rx="168.97" ry="18"/>
<text text-anchor="middle" x="575" y="-318.3" font-family="Times,serif" font-size="14.00" fill="#000000">Providence Improv Guild: 41.8129,&#45;71.4223</text>
</g>
<!-- Providence Improv Guild: 41.8129,&#45;71.4223&#45;&gt;Showcase Cinemas Seekonk Route 6: 41.7971,&#45;71.3231 -->
<g id="edge13" class="edge">
<title>Providence Improv Guild: 41.8129,&#45;71.4223&#45;&gt;Showcase Cinemas Seekonk Route 6: 41.7971,&#45;71.3231</title>
<path fill="none" stroke="#0000ff" d="M575,-303.8314C575,-296.131 575,-286.9743 575,-278.4166"/>
<polygon fill="#0000ff" stroke="#0000ff" points="578.5001,-278.4132 575,-268.4133 571.5001,-278.4133 578.5001,-278.4132"/>
</g>
<!-- 95 Empire: 41.8217,&#45;71.4159 -->
<g id="node17" class="node">
<title>95 Empire: 41.8217,&#45;71.4159</title>
<ellipse fill="none" stroke="#000000" cx="713" cy="-394" rx="116.1796" ry="18"/>
<text text-anchor="middle" x="713" y="-390.3" font-family="Times,serif" font-size="14.00" fill="#000000">95 Empire: 41.8217,&#45;71.4159</text>
</g>
<!-- 95 Empire: 41.8217,&#45;71.4159&#45;&gt;Providence Improv Guild: 41.8129,&#45;71.4223 -->
<g id="edge14" class="edge">
<title>95 Empire: 41.8217,&#45;71.4159&#45;&gt;Providence Improv Guild: 41.8129,&#45;71.4223</title>
<path fill="none" stroke="#000000" d="M679.594,-376.5708C661.1389,-366.942 638.0054,-354.8724 618.1901,-344.534"/>
<polygon fill="#000000" stroke="#000000" points="619.5419,-341.2915 609.057,-339.7689 616.3039,-347.4976 619.5419,-341.2915"/>
</g>
<!-- Murder On Us Dinner Theater: 41.8218,&#45;71.4162 -->
<g id="node18" class="node">
<title>Murder On Us Dinner Theater: 41.8218,&#45;71.4162</title>
<ellipse fill="none" stroke="#000000" cx="949" cy="-322" rx="186.5669" ry="18"/>
<text text-anchor="middle" x="949" y="-318.3" font-family="Times,serif" font-size="14.00" fill="#000000">Murder On Us Dinner Theater: 41.8218,&#45;71.4162</text>
</g>
<!-- 95 Empire: 41.8217,&#45;71.4159&#45;&gt;Murder On Us Dinner Theater: 41.8218,&#45;71.4162 -->
<g id="edge15" class="edge">
<title>95 Empire: 41.8217,&#45;71.4159&#45;&gt;Murder On Us Dinner Theater: 41.8218,&#45;71.4162</title>
<path fill="none" stroke="#000000" d="M765.6693,-377.9314C800.2125,-367.3928 845.6629,-353.5266 882.6667,-342.2373"/>
<polygon fill="#000000" stroke="#000000" points="883.8273,-345.5425 892.3707,-339.2767 881.7846,-338.8472 883.8273,-345.5425"/>
</g>
<!-- Columbus Theatre: 41.8203,&#45;71.4265 -->
<g id="node19" class="node">
<title>Columbus Theatre: 41.8203,&#45;71.4265</title>
<ellipse fill="none" stroke="#000000" cx="713" cy="-466" rx="144.0747" ry="18"/>
<text text-anchor="middle" x="713" y="-462.3" font-family="Times,serif" font-size="14.00" fill="#000000">Columbus Theatre: 41.8203,&#45;71.4265</text>
</g>
<!-- Columbus Theatre: 41.8203,&#45;71.4265&#45;&gt;The Park Theatre: 41.7789,&#45;71.4361 -->
<g id="edge16" class="edge">
<title>Columbus Theatre: 41.8203,&#45;71.4265&#45;&gt;The Park Theatre: 41.7789,&#45;71.4361</title>
<path fill="none" stroke="#ffe4c4" d="M634.9846,-450.8186C575.1348,-439.1722 492.5243,-423.0966 430.4435,-411.016"/>
<polygon fill="#ffe4c4" stroke="#ffe4c4" points="430.7582,-407.5117 420.2737,-409.0371 429.4211,-414.3828 430.7582,-407.5117"/>
</g>
<!-- Columbus Theatre: 41.8203,&#45;71.4265&#45;&gt;95 Empire: 41.8217,&#45;71.4159 -->
<g id="edge17" class="edge">
<title>Columbus Theatre: 41.8203,&#45;71.4265&#45;&gt;95 Empire: 41.8217,&#45;71.4159</title>
<path fill="none" stroke="#ffe4c4" d="M713,-447.8314C713,-440.131 713,-430.9743 713,-422.4166"/>
<polygon fill="#ffe4c4" stroke="#ffe4c4" points="716.5001,-422.4132 713,-412.4133 709.5001,-422.4133 716.5001,-422.4132"/>
</g>
<!-- The Strand: 41.8236,&#45;71.4143 -->
<g id="node20" class="node">
<title>The Strand: 41.8236,&#45;71.4143</title>
<ellipse fill="none" stroke="#000000" cx="1271" cy="-322" rx="117.7793" ry="18"/>
<text text-anchor="middle" x="1271" y="-318.3" font-family="Times,serif" font-size="14.00" fill="#000000">The Strand: 41.8236,&#45;71.4143</text>
</g>
<!-- Movies On The Block: 41.8227,&#45;71.413 -->
<g id="node21" class="node">
<title>Movies On The Block: 41.8227,&#45;71.413</title>
<ellipse fill="none" stroke="#000000" cx="1271" cy="-250" rx="153.2729" ry="18"/>
<text text-anchor="middle" x="1271" y="-246.3" font-family="Times,serif" font-size="14.00" fill="#000000">Movies On The Block: 41.8227,&#45;71.413</text>
</g>
<!-- The Strand: 41.8236,&#45;71.4143&#45;&gt;Movies On The Block: 41.8227,&#45;71.413 -->
<g id="edge18" class="edge">
<title>The Strand: 41.8236,&#45;71.4143&#45;&gt;Movies On The Block: 41.8227,&#45;71.413</title>
<path fill="none" stroke="#0000ff" d="M1271,-303.8314C1271,-296.131 1271,-286.9743 1271,-278.4166"/>
<polygon fill="#0000ff" stroke="#0000ff" points="1274.5001,-278.4132 1271,-268.4133 1267.5001,-278.4133 1274.5001,-278.4132"/>
</g>
<!-- Providence Ghost Tour: 41.83,&#45;71.4074 -->
<g id="node22" class="node">
<title>Providence Ghost Tour: 41.83,&#45;71.4074</title>
<ellipse fill="none" stroke="#000000" cx="1598" cy="-250" rx="152.1731" ry="18"/>
<text text-anchor="middle" x="1598" y="-246.3" font-family="Times,serif" font-size="14.00" fill="#000000">Providence Ghost Tour: 41.83,&#45;71.4074</text>
</g>
<!-- Wage House: 41.8722,&#45;71.406 -->
<g id="node23" class="node">
<title>Wage House: 41.8722,&#45;71.406</title>
<ellipse fill="none" stroke="#000000" cx="1598" cy="-178" rx="120.4791" ry="18"/>
<text text-anchor="middle" x="1598" y="-174.3" font-family="Times,serif" font-size="14.00" fill="#000000">Wage House: 41.8722,&#45;71.406</text>
</g>
<!-- Providence Ghost Tour: 41.83,&#45;71.4074&#45;&gt;Wage House: 41.8722,&#45;71.406 -->
<g id="edge19" class="edge">
<title>Providence Ghost Tour: 41.83,&#45;71.4074&#45;&gt;Wage House: 41.8722,&#45;71.406</title>
<path fill="none" stroke="#8a2be2" d="M1598,-231.8314C1598,-224.131 1598,-214.9743 1598,-206.4166"/>
<polygon fill="#8a2be2" stroke="#8a2be2" points="1601.5001,-206.4132 1598,-196.4133 1594.5001,-206.4133 1601.5001,-206.4132"/>
</g>
<!-- Veterans Memorial Auditorium: 41.8298,&#45;71.4171 -->
<g id="node24" class="node">
<title>Veterans Memorial Auditorium: 41.8298,&#45;71.4171</title>
<ellipse fill="none" stroke="#000000" cx="1598" cy="-322" rx="191.9663" ry="18"/>
<text text-anchor="middle" x="1598" y="-318.3" font-family="Times,serif" font-size="14.00" fill="#000000">Veterans Memorial Auditorium: 41.8298,&#45;71.4171</text>
</g>
<!-- Veterans Memorial Auditorium: 41.8298,&#45;71.4171&#45;&gt;Providence Ghost Tour: 41.83,&#45;71.4074 -->
<g id="edge20" class="edge">
<title>Veterans Memorial Auditorium: 41.8298,&#45;71.4171&#45;&gt;Providence Ghost Tour: 41.83,&#45;71.4074</title>
<path fill="none" stroke="#0000ff" d="M1598,-303.8314C1598,-296.131 1598,-286.9743 1598,-278.4166"/>
<polygon fill="#0000ff" stroke="#0000ff" points="1601.5001,-278.4132 1598,-268.4133 1594.5001,-278.4133 1601.5001,-278.4132"/>
</g>
<!-- Providence Place Cinemas 16 and IMAX: 41.8269,&#45;71.417 -->
<g id="node25" class="node">
<title>Providence Place Cinemas 16 and IMAX: 41.8269,&#45;71.417</title>
<ellipse fill="none" stroke="#000000" cx="1207" cy="-394" rx="221.7607" ry="18"/>
<text text-anchor="middle" x="1207" y="-390.3" font-family="Times,serif" font-size="14.00" fill="#000000">Providence Place Cinemas 16 and IMAX: 41.8269,&#45;71.417</text>
</g>
<!-- Providence Place Cinemas 16 and IMAX: 41.8269,&#45;71.417&#45;&gt;The Strand: 41.8236,&#45;71.4143 -->
<g id="edge21" class="edge">
<title>Providence Place Cinemas 16 and IMAX: 41.8269,&#45;71.417&#45;&gt;The Strand: 41.8236,&#45;71.4143</title>
<path fill="none" stroke="#000000" d="M1223.1499,-375.8314C1230.7874,-367.2392 1240.0364,-356.834 1248.3593,-347.4708"/>
<polygon fill="#000000" stroke="#000000" points="1251.0492,-349.7128 1255.077,-339.9134 1245.8174,-345.0622 1251.0492,-349.7128"/>
</g>
<!-- Providence Place Cinemas 16 and IMAX: 41.8269,&#45;71.417&#45;&gt;Veterans Memorial Auditorium: 41.8298,&#45;71.4171 -->
<g id="edge22" class="edge">
<title>Providence Place Cinemas 16 and IMAX: 41.8269,&#45;71.417&#45;&gt;Veterans Memorial Auditorium: 41.8298,&#45;71.4171</title>
<path fill="none" stroke="#000000" d="M1296.7033,-377.4817C1357.6969,-366.2502 1438.3514,-351.3982 1500.8619,-339.8873"/>
<polygon fill="#000000" stroke="#000000" points="1501.5322,-343.3228 1510.7329,-338.0696 1500.2644,-336.4386 1501.5322,-343.3228"/>
</g>
<!-- Avon Cinema: 41.8289,&#45;71.401 -->
<g id="node26" class="node">
<title>Avon Cinema: 41.8289,&#45;71.401</title>
<ellipse fill="none" stroke="#000000" cx="1207" cy="-466" rx="124.2781" ry="18"/>
<text text-anchor="middle" x="1207" y="-462.3" font-family="Times,serif" font-size="14.00" fill="#000000">Avon Cinema: 41.8289,&#45;71.401</text>
</g>
<!-- Avon Cinema: 41.8289,&#45;71.401&#45;&gt;Providence Place Cinemas 16 and IMAX: 41.8269,&#45;71.417 -->
<g id="edge23" class="edge">
<title>Avon Cinema: 41.8289,&#45;71.401&#45;&gt;Providence Place Cinemas 16 and IMAX: 41.8269,&#45;71.417</title>
<path fill="none" stroke="#ffe4c4" d="M1207,-447.8314C1207,-440.131 1207,-430.9743 1207,-422.4166"/>
<polygon fill="#ffe4c4" stroke="#ffe4c4" points="1210.5001,-422.4132 1207,-412.4133 1203.5001,-422.4133 1210.5001,-422.4132"/>
</g>
<!-- Festival Ballet Providence: 41.8494,&#45;71.3944 -->
<g id="node27" class="node">
<title>Festival Ballet Providence: 41.8494,&#45;71.3944</title>
<ellipse fill="none" stroke="#000000" cx="1618" cy="-394" rx="171.6696" ry="18"/>
<text text-anchor="middle" x="1618" y="-390.3" font-family="Times,serif" font-size="14.00" fill="#000000">Festival Ballet Providence: 41.8494,&#45;71.3944</text>
</g>
<!-- Avon Cinema: 41.8289,&#45;71.401&#45;&gt;Festival Ballet Providence: 41.8494,&#45;71.3944 -->
<g id="edge24" class="edge">
<title>Avon Cinema: 41.8289,&#45;71.401&#45;&gt;Festival Ballet Providence: 41.8494,&#45;71.3944</title>
<path fill="none" stroke="#ffe4c4" d="M1286.2449,-452.1177C1352.8581,-440.4482 1448.3685,-423.7165 1519.8188,-411.1996"/>
<polygon fill="#ffe4c4" stroke="#ffe4c4" points="1520.4895,-414.6355 1529.7356,-409.4624 1519.2816,-407.7405 1520.4895,-414.6355"/>
</g>
<!-- Trinity Rep: 41.8222,&#45;71.4164 -->
<g id="node28" class="node">
<title>Trinity Rep: 41.8222,&#45;71.4164</title>
<ellipse fill="none" stroke="#000000" cx="960" cy="-538" rx="119.6788" ry="18"/>
<text text-anchor="middle" x="960" y="-534.3" font-family="Times,serif" font-size="14.00" fill="#000000">Trinity Rep: 41.8222,&#45;71.4164</text>
</g>
<!-- Trinity Rep: 41.8222,&#45;71.4164&#45;&gt;Columbus Theatre: 41.8203,&#45;71.4265 -->
<g id="edge25" class="edge">
<title>Trinity Rep: 41.8222,&#45;71.4164&#45;&gt;Columbus Theatre: 41.8203,&#45;71.4265</title>
<path fill="none" stroke="#7fffd4" d="M904.8758,-521.9314C867.9133,-511.1569 819.0185,-496.9042 779.8381,-485.4832"/>
<polygon fill="#7fffd4" stroke="#7fffd4" points="780.6794,-482.0828 770.0994,-482.6444 778.7204,-488.8031 780.6794,-482.0828"/>
</g>
<!-- Trinity Rep: 41.8222,&#45;71.4164&#45;&gt;Avon Cinema: 41.8289,&#45;71.401 -->
<g id="edge26" class="edge">
<title>Trinity Rep: 41.8222,&#45;71.4164&#45;&gt;Avon Cinema: 41.8289,&#45;71.401</title>
<path fill="none" stroke="#7fffd4" d="M1015.1242,-521.9314C1052.611,-511.0041 1102.371,-496.4991 1141.8232,-484.9989"/>
<polygon fill="#7fffd4" stroke="#7fffd4" points="1142.9967,-488.3026 1151.6177,-482.1438 1141.0377,-481.5823 1142.9967,-488.3026"/>
</g>
</g>
</svg>
