<?xml version="1.0" encoding="UTF-8" standalone="no"?>
<!DOCTYPE svg PUBLIC "-//W3C//DTD SVG 1.1//EN"
 "http://www.w3.org/Graphics/SVG/1.1/DTD/svg11.dtd">
<!-- Generated by graphviz version 2.40.1 (20161225.0304)
 -->
<!-- Title: G Pages: 1 -->
<svg width="1548pt" height="652pt"
 viewBox="0.00 0.00 1548.00 652.00" xmlns="http://www.w3.org/2000/svg" xmlns:xlink="http://www.w3.org/1999/xlink">
<g id="graph0" class="graph" transform="scale(1 1) rotate(0) translate(4 648)">
<title>G</title>
<polygon fill="#ffffff" stroke="transparent" points="-4,4 -4,-648 1544,-648 1544,4 -4,4"/>
<g id="clust1" class="cluster">
<title>cluster_0</title>
<polygon fill="none" stroke="#000000" points="8,-8 8,-636 92,-636 92,-8 8,-8"/>
</g>
<g id="clust2" class="cluster">
<title>cluster_1</title>
<polygon fill="none" stroke="#000000" points="100,-8 100,-636 1532,-636 1532,-8 100,-8"/>
</g>
<!-- root: x -->
<g id="node1" class="node">
<title>root: x</title>
<ellipse fill="none" stroke="#000000" cx="50" cy="-610" rx="34.394" ry="18"/>
<text text-anchor="middle" x="50" y="-606.3" font-family="Times,serif" font-size="14.00" fill="#000000">root: x</text>
</g>
<!-- 1:y -->
<g id="node2" class="node">
<title>1:y</title>
<ellipse fill="none" stroke="#000000" cx="50" cy="-538" rx="27" ry="18"/>
<text text-anchor="middle" x="50" y="-534.3" font-family="Times,serif" font-size="14.00" fill="#000000">1:y</text>
</g>
<!-- root: x&#45;&gt;1:y -->
<g id="edge1" class="edge">
<title>root: x&#45;&gt;1:y</title>
<path fill="none" stroke="#000000" d="M50,-591.8314C50,-584.131 50,-574.9743 50,-566.4166"/>
<polygon fill="#000000" stroke="#000000" points="53.5001,-566.4132 50,-556.4133 46.5001,-566.4133 53.5001,-566.4132"/>
</g>
<!-- 2:x -->
<g id="node3" class="node">
<title>2:x</title>
<ellipse fill="none" stroke="#000000" cx="50" cy="-466" rx="27" ry="18"/>
<text text-anchor="middle" x="50" y="-462.3" font-family="Times,serif" font-size="14.00" fill="#000000">2:x</text>
</g>
<!-- 1:y&#45;&gt;2:x -->
<g id="edge2" class="edge">
<title>1:y&#45;&gt;2:x</title>
<path fill="none" stroke="#000000" d="M50,-519.8314C50,-512.131 50,-502.9743 50,-494.4166"/>
<polygon fill="#000000" stroke="#000000" points="53.5001,-494.4132 50,-484.4133 46.5001,-494.4133 53.5001,-494.4132"/>
</g>
<!-- 3:y -->
<g id="node4" class="node">
<title>3:y</title>
<ellipse fill="none" stroke="#000000" cx="50" cy="-394" rx="27" ry="18"/>
<text text-anchor="middle" x="50" y="-390.3" font-family="Times,serif" font-size="14.00" fill="#000000">3:y</text>
</g>
<!-- 2:x&#45;&gt;3:y -->
<g id="edge3" class="edge">
<title>2:x&#45;&gt;3:y</title>
<path fill="none" stroke="#000000" d="M50,-447.8314C50,-440.131 50,-430.9743 50,-422.4166"/>
<polygon fill="#000000" stroke="#000000" points="53.5001,-422.4132 50,-412.4133 46.5001,-422.4133 53.5001,-422.4132"/>
</g>
<!-- 4:x -->
<g id="node5" class="node">
<title>4:x</title>
<ellipse fill="none" stroke="#000000" cx="50" cy="-322" rx="27" ry="18"/>
<text text-anchor="middle" x="50" y="-318.3" font-family="Times,serif" font-size="14.00" fill="#000000">4:x</text>
</g>
<!-- 3:y&#45;&gt;4:x -->
<g id="edge4" class="edge">
<title>3:y&#45;&gt;4:x</title>
<path fill="none" stroke="#000000" d="M50,-375.8314C50,-368.131 50,-358.9743 50,-350.4166"/>
<polygon fill="#000000" stroke="#000000" points="53.5001,-350.4132 50,-340.4133 46.5001,-350.4133 53.5001,-350.4132"/>
</g>
<!-- 5:y -->
<g id="node6" class="node">
<title>5:y</title>
<ellipse fill="none" stroke="#000000" cx="50" cy="-250" rx="27" ry="18"/>
<text text-anchor="middle" x="50" y="-246.3" font-family="Times,serif" font-size="14.00" fill="#000000">5:y</text>
</g>
<!-- 4:x&#45;&gt;5:y -->
<g id="edge5" class="edge">
<title>4:x&#45;&gt;5:y</title>
<path fill="none" stroke="#000000" d="M50,-303.8314C50,-296.131 50,-286.9743 50,-278.4166"/>
<polygon fill="#000000" stroke="#000000" points="53.5001,-278.4132 50,-268.4133 46.5001,-278.4133 53.5001,-278.4132"/>
</g>
<!-- 6:x -->
<g id="node7" class="node">
<title>6:x</title>
<ellipse fill="none" stroke="#000000" cx="50" cy="-178" rx="27" ry="18"/>
<text text-anchor="middle" x="50" y="-174.3" font-family="Times,serif" font-size="14.00" fill="#000000">6:x</text>
</g>
<!-- 5:y&#45;&gt;6:x -->
<g id="edge6" class="edge">
<title>5:y&#45;&gt;6:x</title>
<path fill="none" stroke="#000000" d="M50,-231.8314C50,-224.131 50,-214.9743 50,-206.4166"/>
<polygon fill="#000000" stroke="#000000" points="53.5001,-206.4132 50,-196.4133 46.5001,-206.4133 53.5001,-206.4132"/>
</g>
<!-- 7:y -->
<g id="node8" class="node">
<title>7:y</title>
<ellipse fill="none" stroke="#000000" cx="50" cy="-106" rx="27" ry="18"/>
<text text-anchor="middle" x="50" y="-102.3" font-family="Times,serif" font-size="14.00" fill="#000000">7:y</text>
</g>
<!-- 6:x&#45;&gt;7:y -->
<g id="edge7" class="edge">
<title>6:x&#45;&gt;7:y</title>
<path fill="none" stroke="#000000" d="M50,-159.8314C50,-152.131 50,-142.9743 50,-134.4166"/>
<polygon fill="#000000" stroke="#000000" points="53.5001,-134.4132 50,-124.4133 46.5001,-134.4133 53.5001,-134.4132"/>
</g>
<!-- 8:x -->
<g id="node9" class="node">
<title>8:x</title>
<ellipse fill="none" stroke="#000000" cx="50" cy="-34" rx="27" ry="18"/>
<text text-anchor="middle" x="50" y="-30.3" font-family="Times,serif" font-size="14.00" fill="#000000">8:x</text>
</g>
<!-- 7:y&#45;&gt;8:x -->
<g id="edge8" class="edge">
<title>7:y&#45;&gt;8:x</title>
<path fill="none" stroke="#000000" d="M50,-87.8314C50,-80.131 50,-70.9743 50,-62.4166"/>
<polygon fill="#000000" stroke="#000000" points="53.5001,-62.4132 50,-52.4133 46.5001,-62.4133 53.5001,-62.4132"/>
</g>
<!-- Tow Truck Services: 41.78,&#45;71.4384 -->
<g id="node10" class="node">
<title>Tow Truck Services: 41.78,&#45;71.4384</title>
<ellipse fill="none" stroke="#000000" cx="270" cy="-466" rx="141.8751" ry="18"/>
<text text-anchor="middle" x="270" y="-462.3" font-family="Times,serif" font-size="14.00" fill="#000000">Tow Truck Services: 41.78,&#45;71.4384</text>
</g>
<!-- Park Ave Auto Service: 41.7794,&#45;71.4376 -->
<g id="node11" class="node">
<title>Park Ave Auto Service: 41.7794,&#45;71.4376</title>
<ellipse fill="none" stroke="#000000" cx="269" cy="-394" rx="160.5715" ry="18"/>
<text text-anchor="middle" x="269" y="-390.3" font-family="Times,serif" font-size="14.00" fill="#000000">Park Ave Auto Service: 41.7794,&#45;71.4376</text>
</g>
<!-- Tow Truck Services: 41.78,&#45;71.4384&#45;&gt;Park Ave Auto Service: 41.7794,&#45;71.4376 -->
<g id="edge9" class="edge">
<title>Tow Truck Services: 41.78,&#45;71.4384&#45;&gt;Park Ave Auto Service: 41.7794,&#45;71.4376</title>
<path fill="none" stroke="#000000" d="M269.7477,-447.8314C269.6407,-440.131 269.5135,-430.9743 269.3947,-422.4166"/>
<polygon fill="#000000" stroke="#000000" points="272.8944,-422.3637 269.2557,-412.4133 265.8951,-422.4609 272.8944,-422.3637"/>
</g>
<!-- J &amp; D Auto Salvage and Sales: 41.6967,&#45;71.5203 -->
<g id="node12" class="node">
<title>J &amp; D Auto Salvage and Sales: 41.6967,&#45;71.5203</title>
<ellipse fill="none" stroke="#000000" cx="600" cy="-538" rx="186.5669" ry="18"/>
<text text-anchor="middle" x="600" y="-534.3" font-family="Times,serif" font-size="14.00" fill="#000000">J &amp; D Auto Salvage and Sales: 41.6967,&#45;71.5203</text>
</g>
<!-- J &amp; D Auto Salvage and Sales: 41.6967,&#45;71.5203&#45;&gt;Tow Truck Services: 41.78,&#45;71.4384 -->
<g id="edge11" class="edge">
<title>J &amp; D Auto Salvage and Sales: 41.6967,&#45;71.5203&#45;&gt;Tow Truck Services: 41.78,&#45;71.4384</title>
<path fill="none" stroke="#ffe4c4" d="M524.2913,-521.4817C472.6279,-510.2097 404.2511,-495.2912 351.4139,-483.763"/>
<polygon fill="#ffe4c4" stroke="#ffe4c4" points="351.9165,-480.2904 341.4003,-481.5782 350.4243,-487.1295 351.9165,-480.2904"/>
</g>
<!-- Reliable Collision Repair: 41.7093,&#45;71.5207 -->
<g id="node13" class="node">
<title>Reliable Collision Repair: 41.7093,&#45;71.5207</title>
<ellipse fill="none" stroke="#000000" cx="600" cy="-466" rx="168.1703" ry="18"/>
<text text-anchor="middle" x="600" y="-462.3" font-family="Times,serif" font-size="14.00" fill="#000000">Reliable Collision Repair: 41.7093,&#45;71.5207</text>
</g>
<!-- J &amp; D Auto Salvage and Sales: 41.6967,&#45;71.5203&#45;&gt;Reliable Collision Repair: 41.7093,&#45;71.5207 -->
<g id="edge10" class="edge">
<title>J &amp; D Auto Salvage and Sales: 41.6967,&#45;71.5203&#45;&gt;Reliable Collision Repair: 41.7093,&#45;71.5207</title>
<path fill="none" stroke="#ffe4c4" d="M600,-519.8314C600,-512.131 600,-502.9743 600,-494.4166"/>
<polygon fill="#ffe4c4" stroke="#ffe4c4" points="603.5001,-494.4132 600,-484.4133 596.5001,-494.4133 603.5001,-494.4132"/>
</g>
<!-- EZ Glass &amp; Tow: 41.8001,&#45;71.4472 -->
<g id="node14" class="node">
<title>EZ Glass &amp; Tow: 41.8001,&#45;71.4472</title>
<ellipse fill="none" stroke="#000000" cx="454" cy="-106" rx="139.9756" ry="18"/>
<text text-anchor="middle" x="454" y="-102.3" font-family="Times,serif" font-size="14.00" fill="#000000">EZ Glass &amp; Tow: 41.8001,&#45;71.4472</text>
</g>
<!-- Matarese&#39;s Auto Repair: 41.8124,&#45;71.45 -->
<g id="node15" class="node">
<title>Matarese&#39;s Auto Repair: 41.8124,&#45;71.45</title>
<ellipse fill="none" stroke="#000000" cx="454" cy="-34" rx="153.2729" ry="18"/>
<text text-anchor="middle" x="454" y="-30.3" font-family="Times,serif" font-size="14.00" fill="#000000">Matarese&#39;s Auto Repair: 41.8124,&#45;71.45</text>
</g>
<!-- EZ Glass &amp; Tow: 41.8001,&#45;71.4472&#45;&gt;Matarese&#39;s Auto Repair: 41.8124,&#45;71.45 -->
<g id="edge12" class="edge">
<title>EZ Glass &amp; Tow: 41.8001,&#45;71.4472&#45;&gt;Matarese&#39;s Auto Repair: 41.8124,&#45;71.45</title>
<path fill="none" stroke="#5f9ea0" d="M454,-87.8314C454,-80.131 454,-70.9743 454,-62.4166"/>
<polygon fill="#5f9ea0" stroke="#5f9ea0" points="457.5001,-62.4132 454,-52.4133 450.5001,-62.4133 457.5001,-62.4132"/>
</g>
<!-- Vasquez Electro Auto and Towing: 41.814,&#45;71.4499 -->
<g id="node16" class="node">
<title>Vasquez Electro Auto and Towing: 41.814,&#45;71.4499</title>
<ellipse fill="none" stroke="#000000" cx="454" cy="-178" rx="196.8651" ry="18"/>
<text text-anchor="middle" x="454" y="-174.3" font-family="Times,serif" font-size="14.00" fill="#000000">Vasquez Electro Auto and Towing: 41.814,&#45;71.4499</text>
</g>
<!-- Vasquez Electro Auto and Towing: 41.814,&#45;71.4499&#45;&gt;EZ Glass &amp; Tow: 41.8001,&#45;71.4472 -->
<g id="edge13" class="edge">
<title>Vasquez Electro Auto and Towing: 41.814,&#45;71.4499&#45;&gt;EZ Glass &amp; Tow: 41.8001,&#45;71.4472</title>
<path fill="none" stroke="#deb887" d="M454,-159.8314C454,-152.131 454,-142.9743 454,-134.4166"/>
<polygon fill="#deb887" stroke="#deb887" points="457.5001,-134.4132 454,-124.4133 450.5001,-134.4133 457.5001,-134.4132"/>
</g>
<!-- Banchwerks: 41.8194,&#45;71.4217 -->
<g id="node17" class="node">
<title>Banchwerks: 41.8194,&#45;71.4217</title>
<ellipse fill="none" stroke="#000000" cx="791" cy="-178" rx="122.3786" ry="18"/>
<text text-anchor="middle" x="791" y="-174.3" font-family="Times,serif" font-size="14.00" fill="#000000">Banchwerks: 41.8194,&#45;71.4217</text>
</g>
<!-- All City Towing Services: 41.8038,&#45;71.4346 -->
<g id="node18" class="node">
<title>All City Towing Services: 41.8038,&#45;71.4346</title>
<ellipse fill="none" stroke="#000000" cx="786" cy="-106" rx="168.97" ry="18"/>
<text text-anchor="middle" x="786" y="-102.3" font-family="Times,serif" font-size="14.00" fill="#000000">All City Towing Services: 41.8038,&#45;71.4346</text>
</g>
<!-- Banchwerks: 41.8194,&#45;71.4217&#45;&gt;All City Towing Services: 41.8038,&#45;71.4346 -->
<g id="edge14" class="edge">
<title>Banchwerks: 41.8194,&#45;71.4217&#45;&gt;All City Towing Services: 41.8038,&#45;71.4346</title>
<path fill="none" stroke="#deb887" d="M789.7383,-159.8314C789.2035,-152.131 788.5677,-142.9743 787.9734,-134.4166"/>
<polygon fill="#deb887" stroke="#deb887" points="791.4632,-134.1467 787.2787,-124.4133 784.48,-134.6317 791.4632,-134.1467"/>
</g>
<!-- BTS Tire &amp; Service: 41.822,&#45;71.4211 -->
<g id="node19" class="node">
<title>BTS Tire &amp; Service: 41.822,&#45;71.4211</title>
<ellipse fill="none" stroke="#000000" cx="1119" cy="-106" rx="145.6742" ry="18"/>
<text text-anchor="middle" x="1119" y="-102.3" font-family="Times,serif" font-size="14.00" fill="#000000">BTS Tire &amp; Service: 41.822,&#45;71.4211</text>
</g>
<!-- Banchwerks: 41.8194,&#45;71.4217&#45;&gt;BTS Tire &amp; Service: 41.822,&#45;71.4211 -->
<g id="edge15" class="edge">
<title>Banchwerks: 41.8194,&#45;71.4217&#45;&gt;BTS Tire &amp; Service: 41.822,&#45;71.4211</title>
<path fill="none" stroke="#deb887" d="M859.3603,-162.9941C911.1474,-151.6262 982.492,-135.9652 1037.2911,-123.9361"/>
<polygon fill="#deb887" stroke="#deb887" points="1038.3053,-127.2969 1047.3223,-121.7341 1036.8044,-120.4597 1038.3053,-127.2969"/>
</g>
<!-- Markos Auto Body Sales &amp; Service: 41.8195,&#45;71.4459 -->
<g id="node20" class="node">
<title>Markos Auto Body Sales &amp; Service: 41.8195,&#45;71.4459</title>
<ellipse fill="none" stroke="#000000" cx="603" cy="-250" rx="206.8635" ry="18"/>
<text text-anchor="middle" x="603" y="-246.3" font-family="Times,serif" font-size="14.00" fill="#000000">Markos Auto Body Sales &amp; Service: 41.8195,&#45;71.4459</text>
</g>
<!-- Markos Auto Body Sales &amp; Service: 41.8195,&#45;71.4459&#45;&gt;Vasquez Electro Auto and Towing: 41.814,&#45;71.4499 -->
<g id="edge16" class="edge">
<title>Markos Auto Body Sales &amp; Service: 41.8195,&#45;71.4459&#45;&gt;Vasquez Electro Auto and Towing: 41.814,&#45;71.4499</title>
<path fill="none" stroke="#a52a2a" d="M566.1685,-232.2022C546.1251,-222.5168 521.1452,-210.446 499.8497,-200.1556"/>
<polygon fill="#a52a2a" stroke="#a52a2a" points="501.1924,-196.9172 490.6657,-195.7177 498.1468,-203.2199 501.1924,-196.9172"/>
</g>
<!-- Markos Auto Body Sales &amp; Service: 41.8195,&#45;71.4459&#45;&gt;Banchwerks: 41.8194,&#45;71.4217 -->
<g id="edge17" class="edge">
<title>Markos Auto Body Sales &amp; Service: 41.8195,&#45;71.4459&#45;&gt;Banchwerks: 41.8194,&#45;71.4217</title>
<path fill="none" stroke="#a52a2a" d="M648.99,-232.3868C675.7311,-222.1456 709.5581,-209.1905 737.4889,-198.4936"/>
<polygon fill="#a52a2a" stroke="#a52a2a" points="739.0145,-201.6573 747.1013,-194.8123 736.5109,-195.1203 739.0145,-201.6573"/>
</g>
<!-- State Towing Service: 41.8275,&#45;71.4373 -->
<g id="node21" class="node">
<title>State Towing Service: 41.8275,&#45;71.4373</title>
<ellipse fill="none" stroke="#000000" cx="603" cy="-322" rx="154.8728" ry="18"/>
<text text-anchor="middle" x="603" y="-318.3" font-family="Times,serif" font-size="14.00" fill="#000000">State Towing Service: 41.8275,&#45;71.4373</text>
</g>
<!-- State Towing Service: 41.8275,&#45;71.4373&#45;&gt;Markos Auto Body Sales &amp; Service: 41.8195,&#45;71.4459 -->
<g id="edge18" class="edge">
<title>State Towing Service: 41.8275,&#45;71.4373&#45;&gt;Markos Auto Body Sales &amp; Service: 41.8195,&#45;71.4459</title>
<path fill="none" stroke="#8a2be2" d="M603,-303.8314C603,-296.131 603,-286.9743 603,-278.4166"/>
<polygon fill="#8a2be2" stroke="#8a2be2" points="606.5001,-278.4132 603,-268.4133 599.5001,-278.4133 606.5001,-278.4132"/>
</g>
<!-- Anthony&#39;s Auto Body: 41.8353,&#45;71.4773 -->
<g id="node22" class="node">
<title>Anthony&#39;s Auto Body: 41.8353,&#45;71.4773</title>
<ellipse fill="none" stroke="#000000" cx="603" cy="-394" rx="155.1726" ry="18"/>
<text text-anchor="middle" x="603" y="-390.3" font-family="Times,serif" font-size="14.00" fill="#000000">Anthony&#39;s Auto Body: 41.8353,&#45;71.4773</text>
</g>
<!-- Anthony&#39;s Auto Body: 41.8353,&#45;71.4773&#45;&gt;State Towing Service: 41.8275,&#45;71.4373 -->
<g id="edge19" class="edge">
<title>Anthony&#39;s Auto Body: 41.8353,&#45;71.4773&#45;&gt;State Towing Service: 41.8275,&#45;71.4373</title>
<path fill="none" stroke="#0000ff" d="M603,-375.8314C603,-368.131 603,-358.9743 603,-350.4166"/>
<polygon fill="#0000ff" stroke="#0000ff" points="606.5001,-350.4132 603,-340.4133 599.5001,-350.4133 606.5001,-350.4132"/>
</g>
<!-- Barrett&#39;s Towing: 41.8547,&#45;71.4122 -->
<g id="node23" class="node">
<title>Barrett&#39;s Towing: 41.8547,&#45;71.4122</title>
<ellipse fill="none" stroke="#000000" cx="961" cy="-466" rx="137.5759" ry="18"/>
<text text-anchor="middle" x="961" y="-462.3" font-family="Times,serif" font-size="14.00" fill="#000000">Barrett&#39;s Towing: 41.8547,&#45;71.4122</text>
</g>
<!-- Barrett&#39;s Towing: 41.8547,&#45;71.4122&#45;&gt;Anthony&#39;s Auto Body: 41.8353,&#45;71.4773 -->
<g id="edge20" class="edge">
<title>Barrett&#39;s Towing: 41.8547,&#45;71.4122&#45;&gt;Anthony&#39;s Auto Body: 41.8353,&#45;71.4773</title>
<path fill="none" stroke="#000000" d="M885.5149,-450.8186C828.6951,-439.3912 750.6734,-423.6997 691.0172,-411.7018"/>
<polygon fill="#000000" stroke="#000000" points="691.3495,-408.1986 680.8556,-409.6581 689.9692,-415.0612 691.3495,-408.1986"/>
</g>
<!-- Townline Service and Towing: 41.8592,&#45;71.4473 -->
<g id="node24" class="node">
<title>Townline Service and Towing: 41.8592,&#45;71.4473</title>
<ellipse fill="none" stroke="#000000" cx="962" cy="-394" rx="185.7671" ry="18"/>
<text text-anchor="middle" x="962" y="-390.3" font-family="Times,serif" font-size="14.00" fill="#000000">Townline Service and Towing: 41.8592,&#45;71.4473</text>
</g>
<!-- Barrett&#39;s Towing: 41.8547,&#45;71.4122&#45;&gt;Townline Service and Towing: 41.8592,&#45;71.4473 -->
<g id="edge21" class="edge">
<title>Barrett&#39;s Towing: 41.8547,&#45;71.4122&#45;&gt;Townline Service and Towing: 41.8592,&#45;71.4473</title>
<path fill="none" stroke="#000000" d="M961.2523,-447.8314C961.3593,-440.131 961.4865,-430.9743 961.6053,-422.4166"/>
<polygon fill="#000000" stroke="#000000" points="965.1049,-422.4609 961.7443,-412.4133 958.1056,-422.3637 965.1049,-422.4609"/>
</g>
<!-- Coastal Collision &amp; Towing: 41.8595,&#45;71.3973 -->
<g id="node25" class="node">
<title>Coastal Collision &amp; Towing: 41.8595,&#45;71.3973</title>
<ellipse fill="none" stroke="#000000" cx="1345" cy="-394" rx="178.9686" ry="18"/>
<text text-anchor="middle" x="1345" y="-390.3" font-family="Times,serif" font-size="14.00" fill="#000000">Coastal Collision &amp; Towing: 41.8595,&#45;71.3973</text>
</g>
<!-- Sterry Street Towing: 41.8981,&#45;71.3449 -->
<g id="node26" class="node">
<title>Sterry Street Towing: 41.8981,&#45;71.3449</title>
<ellipse fill="none" stroke="#000000" cx="1345" cy="-322" rx="152.9733" ry="18"/>
<text text-anchor="middle" x="1345" y="-318.3" font-family="Times,serif" font-size="14.00" fill="#000000">Sterry Street Towing: 41.8981,&#45;71.3449</text>
</g>
<!-- Coastal Collision &amp; Towing: 41.8595,&#45;71.3973&#45;&gt;Sterry Street Towing: 41.8981,&#45;71.3449 -->
<g id="edge22" class="edge">
<title>Coastal Collision &amp; Towing: 41.8595,&#45;71.3973&#45;&gt;Sterry Street Towing: 41.8981,&#45;71.3449</title>
<path fill="none" stroke="#0000ff" d="M1345,-375.8314C1345,-368.131 1345,-358.9743 1345,-350.4166"/>
<polygon fill="#0000ff" stroke="#0000ff" points="1348.5001,-350.4132 1345,-340.4133 1341.5001,-350.4133 1348.5001,-350.4132"/>
</g>
<!-- East Side Service Center: 41.8569,&#45;71.3915 -->
<g id="node27" class="node">
<title>East Side Service Center: 41.8569,&#45;71.3915</title>
<ellipse fill="none" stroke="#000000" cx="1314" cy="-466" rx="166.2706" ry="18"/>
<text text-anchor="middle" x="1314" y="-462.3" font-family="Times,serif" font-size="14.00" fill="#000000">East Side Service Center: 41.8569,&#45;71.3915</text>
</g>
<!-- East Side Service Center: 41.8569,&#45;71.3915&#45;&gt;Coastal Collision &amp; Towing: 41.8595,&#45;71.3973 -->
<g id="edge23" class="edge">
<title>East Side Service Center: 41.8569,&#45;71.3915&#45;&gt;Coastal Collision &amp; Towing: 41.8595,&#45;71.3973</title>
<path fill="none" stroke="#000000" d="M1321.8226,-447.8314C1325.2109,-439.9617 1329.2541,-430.5712 1333.0076,-421.8533"/>
<polygon fill="#000000" stroke="#000000" points="1336.3321,-422.9822 1337.0721,-412.4133 1329.9027,-420.214 1336.3321,-422.9822"/>
</g>
<!-- Sterry Street Towing: 41.8056,&#45;71.4023 -->
<g id="node28" class="node">
<title>Sterry Street Towing: 41.8056,&#45;71.4023</title>
<ellipse fill="none" stroke="#000000" cx="961" cy="-538" rx="152.9733" ry="18"/>
<text text-anchor="middle" x="961" y="-534.3" font-family="Times,serif" font-size="14.00" fill="#000000">Sterry Street Towing: 41.8056,&#45;71.4023</text>
</g>
<!-- Sterry Street Towing: 41.8056,&#45;71.4023&#45;&gt;Barrett&#39;s Towing: 41.8547,&#45;71.4122 -->
<g id="edge24" class="edge">
<title>Sterry Street Towing: 41.8056,&#45;71.4023&#45;&gt;Barrett&#39;s Towing: 41.8547,&#45;71.4122</title>
<path fill="none" stroke="#ffe4c4" d="M961,-519.8314C961,-512.131 961,-502.9743 961,-494.4166"/>
<polygon fill="#ffe4c4" stroke="#ffe4c4" points="964.5001,-494.4132 961,-484.4133 957.5001,-494.4133 964.5001,-494.4132"/>
</g>
<!-- Sterry Street Towing: 41.8056,&#45;71.4023&#45;&gt;East Side Service Center: 41.8569,&#45;71.3915 -->
<g id="edge25" class="edge">
<title>Sterry Street Towing: 41.8056,&#45;71.4023&#45;&gt;East Side Service Center: 41.8569,&#45;71.3915</title>
<path fill="none" stroke="#ffe4c4" d="M1037.5957,-522.3771C1093.0884,-511.0585 1168.2268,-495.7328 1226.1552,-483.9173"/>
<polygon fill="#ffe4c4" stroke="#ffe4c4" points="1226.9303,-487.3314 1236.029,-481.9034 1225.5312,-480.4726 1226.9303,-487.3314"/>
</g>
<!-- Coletta&#39;s Garage: 41.7958,&#45;71.4382 -->
<g id="node29" class="node">
<title>Coletta&#39;s Garage: 41.7958,&#45;71.4382</title>
<ellipse fill="none" stroke="#000000" cx="780" cy="-610" rx="136.4758" ry="18"/>
<text text-anchor="middle" x="780" y="-606.3" font-family="Times,serif" font-size="14.00" fill="#000000">Coletta&#39;s Garage: 41.7958,&#45;71.4382</text>
</g>
<!-- Coletta&#39;s Garage: 41.7958,&#45;71.4382&#45;&gt;J &amp; D Auto Salvage and Sales: 41.6967,&#45;71.5203 -->
<g id="edge26" class="edge">
<title>Coletta&#39;s Garage: 41.7958,&#45;71.4382&#45;&gt;J &amp; D Auto Salvage and Sales: 41.6967,&#45;71.5203</title>
<path fill="none" stroke="#7fffd4" d="M736.8855,-592.7542C711.8752,-582.7501 680.1628,-570.0651 653.5608,-559.4243"/>
<polygon fill="#7fffd4" stroke="#7fffd4" points="654.5978,-556.0696 644.0132,-555.6053 651.998,-562.5689 654.5978,-556.0696"/>
</g>
<!-- Coletta&#39;s Garage: 41.7958,&#45;71.4382&#45;&gt;Sterry Street Towing: 41.8056,&#45;71.4023 -->
<g id="edge27" class="edge">
<title>Coletta&#39;s Garage: 41.7958,&#45;71.4382&#45;&gt;Sterry Street Towing: 41.8056,&#45;71.4023</title>
<path fill="none" stroke="#7fffd4" d="M823.354,-592.7542C848.6896,-582.676 880.8646,-569.8771 907.7352,-559.1882"/>
<polygon fill="#7fffd4" stroke="#7fffd4" points="909.3743,-562.303 917.3724,-555.3546 906.7869,-555.7987 909.3743,-562.303"/>
</g>
</g>
</svg>
